<svg fill="none" height="24" viewBox="0 0 182 24" width="182" xmlns="http://www.w3.org/2000/svg" xmlns:xlink="http://www.w3.org/1999/xlink"><clipPath id="a"><path d="m0 0h28.36v24h-28.36z"/></clipPath><g fill="#fff"><path d="m169.472 4.59299h2.421v7.60121l6.759-7.60121h2.948l-5.411 6.14831 5.811 8.5908h-2.927l-4.611-6.7379-2.569 2.8847v3.8532h-2.421z"/><path d="m154.9 8.04615c.589-1.13701 1.411-2.0003 2.485-2.63198 1.073-.63168 2.337-.94751 3.769-.94751 1.094 0 2.105.21055 2.989.63167.885.42112 1.622 1.03174 2.19 1.81081.548.77906.906 1.68447 1.074 2.69515h-2.421c-.253-.92646-.716-1.66341-1.39-2.21087-.695-.52639-1.537-.80012-2.548-.80012-.926 0-1.726.23161-2.4.69484-.695.46323-1.221 1.09491-1.579 1.89503-.379.80012-.548 1.72663-.548 2.77933 0 1.0528.169 1.9793.548 2.7794.358.8212.884 1.4529 1.579 1.9161.674.4632 1.474.6738 2.4.6738 1.011 0 1.853-.2527 2.527-.8001.674-.5264 1.137-1.2634 1.39-2.2109h2.421c-.168 1.0528-.526 1.9582-1.074 2.7162-.547.7791-1.263 1.3686-2.148 1.7898-.884.4211-1.895.6316-3.01.6316-1.432 0-2.696-.2947-3.769-.9264-1.074-.6106-1.896-1.4739-2.485-2.6109-.59-1.1371-.863-2.4425-.863-3.9586 0-1.4739.273-2.77933.863-3.91635z"/><path d="m151.575 15.8158c-.61 1.137-1.453 2.0424-2.548 2.6741-1.094.6527-2.316.9685-3.705.9685-1.39 0-2.632-.3158-3.727-.9685-1.095-.6317-1.937-1.5371-2.527-2.6741-.611-1.137-.905-2.4215-.905-3.8533s.294-2.71616.905-3.85318c.59-1.13701 1.432-2.02136 2.527-2.67409 1.095-.63168 2.337-.96857 3.727-.96857 1.389 0 2.611.33689 3.705.96857 1.095.65273 1.938 1.53708 2.548 2.67409.59 1.13702.906 2.42138.906 3.85318s-.316 2.7163-.906 3.8533zm-10.338-1.0739c.379.8212.926 1.4529 1.642 1.9161s1.516.6738 2.443.6738c.905 0 1.705-.2106 2.421-.6738s1.263-1.0949 1.663-1.9161c.379-.8212.59-1.7476.59-2.7794 0-1.0106-.211-1.9371-.59-2.75827-.4-.82118-.947-1.45286-1.663-1.91609s-1.516-.69484-2.421-.69484c-.927 0-1.727.23161-2.443.69484s-1.263 1.09491-1.642 1.91609c-.4.82117-.59 1.74767-.59 2.75827 0 1.0318.19 1.9582.59 2.7794z"/><path d="m131.588 4.59299c1.011 0 1.916.21056 2.695.58956.758.37901 1.369.92646 1.79 1.64236s.653 1.53708.653 2.46354c0 .98965-.274 1.85295-.779 2.58985-.527.758-1.222 1.2844-2.085 1.5792l3.116 5.8746h-2.695l-2.8-5.3482h-3.285v5.3482h-2.421v-14.73911zm-3.39 7.28531h3.201c.863 0 1.558-.2316 2.063-.6948.505-.4633.779-1.0949.779-1.89505 0-.77907-.274-1.41075-.779-1.87398-.505-.46322-1.2-.71589-2.063-.71589h-3.201z"/><path d="m110.321 8.04615c.589-1.13701 1.411-2.0003 2.505-2.63198 1.074-.63168 2.338-.94751 3.791-.94751 1.684 0 3.095.46323 4.232 1.38968 1.116.92646 1.811 2.18982 2.063 3.74795h-2.4c-.253-.92646-.716-1.66341-1.411-2.21087-.695-.52639-1.537-.80012-2.548-.80012-.926 0-1.747.23161-2.442.69484s-1.221 1.09491-1.6 1.89503-.569 1.72663-.569 2.77933c0 1.0528.169 2.0004.548 2.8005s.905 1.4318 1.6 1.895 1.516.6738 2.442.6738c1.179 0 2.148-.3158 2.948-.9686.8-.6317 1.221-1.5371 1.285-2.6951v-.358h-4.085v-2.0424h6.401v8.0644h-1.832l-.253-2.1056c-.421.6317-1.032 1.1581-1.811 1.5792-.779.4422-1.705.6527-2.758.6527-1.369 0-2.569-.2947-3.622-.9264-1.052-.6317-1.874-1.516-2.463-2.6531-.59-1.137-.884-2.4424-.884-3.9164 0-1.4739.273-2.77933.863-3.91635z"/><path d="m95.5706 19.3321v-14.73911h2.2108l7.1796 10.44371v-10.44371h2.38v14.73911h-2.211l-7.1801-10.44371v10.44371z"/><path d="m90.4504 4.59299h2.4215v14.73911h-2.4215z"/><path d="m76.2007 4.59299h4.6954c1.495 0 2.8005.31583 3.9375.92646 1.116.63167 1.9792 1.49496 2.5899 2.58987.5895 1.11596.9054 2.40038.9054 3.85318 0 1.4529-.3159 2.7373-.9054 3.8533-.6107 1.1159-1.4739 1.9792-2.5899 2.5898-1.137.6317-2.4425.9265-3.9375.9265h-4.6954zm4.6954 12.63351c1.5792 0 2.8005-.4632 3.6638-1.4107.8422-.9475 1.2844-2.232 1.2844-3.8533 0-1.6002-.4422-2.88461-1.2844-3.83213-.8633-.94751-2.0846-1.43179-3.6638-1.43179h-2.274v10.52792z"/><path d="m61.7454 19.3321v-14.73911h2.2108l7.1801 10.44371v-10.44371h2.3793v14.73911h-2.2109l-7.18-10.44371v10.44371z"/><path d="m49.9358 4.59299v8.54871c0 1.3897.2738 2.4425.8212 3.1373.5475.6948 1.3897 1.0317 2.5478 1.0317 1.158 0 2.0213-.3369 2.5688-1.0317.5474-.6948.8422-1.7476.8422-3.1373v-8.54871h2.4214v8.42231c0 2.1056-.5053 3.7059-1.4949 4.8008s-2.4425 1.6423-4.3375 1.6423c-1.8951 0-3.3479-.5474-4.3165-1.6423-.9896-1.0949-1.4739-2.6952-1.4739-4.8008v-8.42231z"/><path d="m36.3303 4.59299h9.412v2.1477h-6.9906v4.27431h5.7694v2.0846h-5.7694v6.2325h-2.4214z"/></g><g clip-path="url(#a)" fill="#d9ff00"><path d="m12.11 0c.76 0 1.14.92.6 1.46l-9.58 9.57h8.98c.76 0 1.14.92.6 1.46l-11.25 11.25c-.54.54-1.46.16-1.46-.6v-22.29c0-.47.38-.85.85-.85h11.25z"/><path d="m21.8201 0c3.61 0 6.54 2.93 6.54 6.54s-2.93 6.54-6.54 6.54h-3.5l9.47 9.46c.54.54.16 1.46-.6 1.46h-11.25c-.47 0-.85-.38-.85-.85v-22.3c0-.47.38-.85.85-.85h5.89z"/></g></svg>