<svg fill="none" height="214" viewBox="0 0 438 214" width="438" xmlns="http://www.w3.org/2000/svg"><g fill="#77fc02"><path d="m113.468 5.88568h1.27677v5.23416h-1.27677z"/><path d="m110.915 11.1199h6.38387v119.367h-6.38387z"/><path d="m113.468 130.487h1.27677v3.71467h-1.27677z"/><path d="m310.65 0h1.27677v5.23416h-1.27677z"/><path d="m308.097 5.23424h6.38387v119.367h-6.38387z"/><path d="m310.65 124.601h1.27677v3.71467h-1.27677z"/><path d="m322.974 6.53615h1.27677v5.23416h-1.27677z"/><path d="m320.421 11.7704h6.38387v119.367h-6.38387z"/><path d="m322.974 131.137h1.27677v3.71467h-1.27677z"/><path d="m162.763 23.1222h1.27677v5.23416h-1.27677z"/><path d="m160.21 28.3563h6.38387v93.1932h-6.38387z"/><path d="m162.763 121.549h1.27677v3.71467h-1.27677z"/><path d="m175.087 2.50645h1.27677v5.23416h-1.27677z"/><path d="m172.534 7.74069h6.38387v93.1932h-6.38387z"/><path d="m175.087 100.934h1.27677v3.71467h-1.27677z"/><path d="m88.8208 113.135h1.27677v12.1534h-1.27677z"/><path d="m86.2671 125.288h6.38387v65.1786h-6.38387z"/><path d="m88.8208 190.467h1.27677v12.0422h-1.27677z"/><path d="m101.144 64.6173h1.27677v12.1534h-1.27677z"/><path d="m98.5905 76.7708h6.38387v65.1786h-6.38387z"/><path d="m101.144 141.949h1.27677v12.0422h-1.27677z"/><path d="m2.55354 192.295h1.27677v4.9209h-1.27677z"/><path d="m.000244 197.216h6.38387v12.033h-6.38387z"/><path d="m2.55354 209.249h1.27677v4.75127h-1.27677z"/><path d="m224.383 120.649h1.27677v4.9209h-1.27677z"/><path d="m221.829 125.57h6.38387v12.033h-6.38387z"/><path d="m224.383 137.603h1.27677v4.75127h-1.27677z"/><path d="m14.8774 187.544h1.27677v4.9209h-1.27677z"/><path d="m12.3237 192.464h6.38387v12.033h-6.38387z"/><path d="m14.8774 204.497h1.27677v4.75127h-1.27677z"/><path d="m236.707 115.897h1.27677v4.9209h-1.27677z"/><path d="m234.154 120.818h6.38387v12.033h-6.38387z"/><path d="m236.707 132.851h1.27677v4.75127h-1.27677z"/><path d="m27.2014 183.903h1.27677v4.9209h-1.27677z"/><path d="m24.6478 188.824h6.38387v12.033h-6.38387z"/><path d="m27.2014 200.857h1.27677v4.75127h-1.27677z"/><path d="m249.031 112.256h1.27677v4.9209h-1.27677z"/><path d="m246.477 117.177h6.38387v12.033h-6.38387z"/><path d="m249.031 129.21h1.27677v4.75127h-1.27677z"/><path d="m39.5249 180.95h1.27677v4.9209h-1.27677z"/><path d="m36.9713 185.872h6.38387v12.033h-6.38387z"/><path d="m39.5249 197.904h1.27677v4.75127h-1.27677z"/><path d="m261.355 109.304h1.27677v4.9209h-1.27677z"/><path d="m258.801 114.225h6.38387v12.033h-6.38387z"/><path d="m261.355 126.258h1.27677v4.75127h-1.27677z"/><path d="m64.1732 180.631h1.27677v4.9209h-1.27677z"/><path d="m61.6195 185.552h6.38387v12.033h-6.38387z"/><path d="m64.1732 197.585h1.27677v4.75127h-1.27677z"/><path d="m187.412 12.2696h1.27677v4.9209h-1.27677z"/><path d="m184.858 17.1904h6.38387v12.033h-6.38387z"/><path d="m187.412 29.2236h1.27677v4.75127h-1.27677z"/><path d="m199.735 20.7465h1.27677v4.9209h-1.27677z"/><path d="m197.182 25.6675h6.38387v12.033h-6.38387z"/><path d="m199.735 37.7005h1.27677v4.75127h-1.27677z"/><path d="m76.497 183.411h1.27677v4.9209h-1.27677z"/><path d="m73.9437 188.332h6.38387v12.033h-6.38387z"/><path d="m76.497 200.365h1.27677v4.75127h-1.27677z"/><path d="m51.849 155.268h1.27677v4.9209h-1.27677z"/><path d="m49.2953 160.189h6.38387v32.4614h-6.38387z"/><path d="m51.849 192.651h1.27677v4.75127h-1.27677z"/><path d="m273.679 86.1824h1.27677v4.9209h-1.27677z"/><path d="m271.125 91.1032h6.38387v32.4614h-6.38387z"/><path d="m273.679 123.565h1.27677v4.75127h-1.27677z"/><path d="m286.003 65.2005h1.27677v4.9209h-1.27677z"/><path d="m283.449 70.1213h6.38387v32.4614h-6.38387z"/><path d="m286.003 102.583h1.27677v4.75127h-1.27677z"/><path d="m372.269 127.419h1.27677v4.9209h-1.27677z"/><path d="m369.716 132.34h6.38387v32.4614h-6.38387z"/><path d="m372.269 164.801h1.27677v4.75127h-1.27677z"/><path d="m384.593 95.1649h1.27677v4.9209h-1.27677z"/><path d="m382.04 100.086h6.38387v32.4614h-6.38387z"/><path d="m384.593 132.547h1.27677v4.75127h-1.27677z"/><path d="m396.917 77.3022h1.27677v4.9209h-1.27677z"/><path d="m394.364 82.223h6.38387v32.4614h-6.38387z"/><path d="m396.917 114.685h1.27677v4.75127h-1.27677z"/><path d="m409.241 61.4495h1.27677v4.9209h-1.27677z"/><path d="m406.687 66.3703h6.38387v32.4614h-6.38387z"/><path d="m409.241 98.8318h1.27677v4.75127h-1.27677z"/><path d="m433.52 61.4495h1.27677v4.9209h-1.27677z"/><path d="m430.967 66.3703h6.38387v32.4614h-6.38387z"/><path d="m433.52 98.8318h1.27677v4.75127h-1.27677z"/></g><path d="m212.059 22.383h1.27677v12.1534h-1.27677z" fill="#ff2156"/><path d="m209.506 34.5363h6.38387v100.928h-6.38387z" fill="#ff2156"/><path d="m212.059 135.465h1.27677v12.0422h-1.27677z" fill="#ff2156"/><path d="m125.792 10.2741h1.27677v4.26066h-1.27677z" fill="#ff2156"/><path d="m123.238 14.5348h6.38387v39.0427h-6.38387z" fill="#ff2156"/><path d="m125.792 53.5775h1.27677v5.85248h-1.27677z" fill="#ff2156"/><path d="m138.116 37.9517h1.27677v4.26066h-1.27677z" fill="#ff2156"/><path d="m135.562 42.2123h6.38387v39.0427h-6.38387z" fill="#ff2156"/><path d="m138.116 81.255h1.27677v5.85248h-1.27677z" fill="#ff2156"/><path d="m150.44 76.1325h1.27677v4.26066h-1.27677z" fill="#ff2156"/><path d="m147.886 80.3932h6.38387v39.0427h-6.38387z" fill="#ff2156"/><path d="m150.44 119.436h1.27677v5.85248h-1.27677z" fill="#ff2156"/><path d="m298.327 72.9283h1.27677v4.26066h-1.27677z" fill="#ff2156"/><path d="m295.773 77.1891h6.38387v39.0427h-6.38387z" fill="#ff2156"/><path d="m298.327 116.232h1.27677v5.85248h-1.27677z" fill="#ff2156"/><path d="m335.298 8.43928h1.27677v4.26066h-1.27677z" fill="#ff2156"/><path d="m332.744 12.7h6.38387v93.944h-6.38387z" fill="#ff2156"/><path d="m335.298 106.644h1.27677v5.85248h-1.27677z" fill="#ff2156"/><path d="m347.622 57.5416h1.27677v4.26066h-1.27677z" fill="#ff2156"/><path d="m345.068 61.8023h6.38387v93.944h-6.38387z" fill="#ff2156"/><path d="m347.622 155.746h1.27677v5.85248h-1.27677z" fill="#ff2156"/><path d="m359.945 83.5962h1.27677v13.0684h-1.27677z" fill="#ff2156"/><path d="m357.392 96.6645h6.38387v74.9943h-6.38387z" fill="#ff2156"/><path d="m359.945 171.659h1.27677v15.9944h-1.27677z" fill="#ff2156"/><path d="m421.565 0h1.27677v13.0684h-1.27677z" fill="#ff2156"/><path d="m419.011 13.0685h6.38387v74.9943h-6.38387z" fill="#ff2156"/><path d="m421.565 88.0628h1.27677v15.9944h-1.27677z" fill="#ff2156"/></svg>