<svg fill="none" height="216" viewBox="0 0 1080 216" width="1080" xmlns="http://www.w3.org/2000/svg" xmlns:xlink="http://www.w3.org/1999/xlink"><linearGradient id="a" gradientUnits="userSpaceOnUse" x1="1063.96" x2="-224.338" y1="85.627" y2="85.627"><stop offset="0" stop-color="#d9ff00"/><stop offset=".538462" stop-color="#00d8c3"/><stop offset=".951923" stop-color="#00d8c3"/></linearGradient><g fill="url(#a)"><path d="m802.761 215.91c.038.057.122.057.161 0 .044-.065-.002-.153-.081-.153-.078 0-.125.088-.08.153z"/><path d="m782.719 215.91c.039.057.123.057.162 0 .044-.065-.003-.153-.081-.153-.079 0-.125.088-.081.153z"/><path d="m882.876 199.022c.063.091.199.091.262 0 .071-.105-.004-.248-.131-.248s-.203.143-.131.248z"/><path d="m862.73 199.044c.114.166.357.166.471 0 .129-.189-.006-.446-.236-.446-.229 0-.364.257-.235.446z"/><path d="m842.585 199.067c.163.239.515.239.679 0 .187-.273-.009-.644-.34-.644s-.526.371-.339.644z"/><path d="m822.491 199.079c.189.275.595.275.784 0 .215-.316-.01-.744-.392-.744s-.608.428-.392.744z"/><path d="m802.429 199.107c.198.29.626.29.825 0l.032-.048c.227-.331-.01-.782-.412-.782h-.065c-.402 0-.64.451-.413.782z"/><path d="m782.391 199.082c.197.288.621.288.818 0 .225-.329-.01-.776-.409-.776s-.635.447-.409.776z"/><path d="m762.384 199.075c.18.263.568.263.749 0 .206-.301-.01-.71-.375-.71s-.58.409-.374.71z"/><path d="m742.395 199.063c.155.227.489.227.644 0 .177-.259-.008-.611-.322-.611s-.5.352-.322.611z"/><path d="m722.458 199.041c.104.153.33.153.435 0 .12-.176-.005-.413-.218-.413-.212 0-.337.237-.217.413z"/><path d="m702.538 199.014c.046.067.146.067.192 0 .052-.077-.003-.182-.096-.182-.094 0-.149.105-.096.182z"/><path d="m922.924 182.129c.08.117.252.117.331 0 .091-.133-.004-.313-.165-.313s-.257.18-.166.313z"/><path d="m902.726 182.164c.155.226.489.226.645 0 .177-.259-.009-.611-.323-.611s-.499.352-.322.611z"/><path d="m882.594 182.324c.199.29.627.29.825 0l.193-.281c.227-.332-.011-.783-.413-.783h-.384c-.403 0-.64.451-.413.783z"/><path d="m862.553 182.499c.198.29.626.29.825 0l.433-.632c.227-.331-.011-.782-.413-.782h-.865c-.402 0-.64.451-.413.782z"/><path d="m842.512 182.675c.198.29.626.29.825 0l.672-.983c.228-.332-.01-.782-.412-.782h-1.345c-.403 0-.64.45-.413.782z"/><path d="m822.47 182.733c.199.29.627.29.825 0l.753-1.099c.227-.332-.01-.783-.413-.783h-1.505c-.402 0-.64.451-.413.783z"/><path d="m802.429 182.791c.198.291.626.291.825 0l.833-1.216c.227-.332-.011-.782-.413-.782h-1.666c-.402 0-.639.45-.412.782z"/><path d="m782.387 182.791c.199.291.627.291.825 0l.833-1.216c.227-.332-.01-.782-.412-.782h-1.666c-.402 0-.64.45-.413.782z"/><path d="m762.346 182.733c.198.29.626.29.825 0l.753-1.099c.227-.332-.011-.783-.413-.783h-1.505c-.403 0-.64.451-.413.783z"/><path d="m742.304 182.616c.199.29.627.29.825 0l.593-.865c.227-.332-.01-.783-.413-.783h-1.185c-.402 0-.64.451-.412.783z"/><path d="m722.263 182.47c.198.29.626.29.825 0l.392-.573c.228-.332-.01-.783-.412-.783h-.785c-.402 0-.64.451-.413.783z"/><path d="m702.221 182.265c.199.29.627.29.825 0l.113-.164c.227-.332-.011-.782-.413-.782h-.224c-.403 0-.64.45-.413.782z"/><path d="m682.288 182.16c.146.214.462.214.609 0 .168-.245-.008-.578-.305-.578s-.472.333-.304.578z"/><path d="m662.438 182.118c.054.08.172.08.226 0 .062-.091-.003-.215-.113-.215s-.176.124-.113.215z"/><path d="m963.092 165.211c.039.057.123.057.162 0 .044-.065-.002-.153-.081-.153s-.125.088-.081.153z"/><path d="m942.861 165.252c.13.19.41.19.54 0 .149-.217-.007-.511-.27-.511s-.418.294-.27.511z"/><path d="m922.677 165.395c.199.29.627.29.825 0l.153-.223c.227-.332-.011-.782-.413-.782h-.304c-.403 0-.64.45-.413.782z"/><path d="m902.636 165.716c.198.29.626.29.825 0l.593-.865c.227-.332-.011-.783-.413-.783h-1.185c-.402 0-.64.451-.413.783z"/><path d="m882.594 165.979c.199.29.627.29.825 0l.953-1.391c.228-.332-.01-.783-.412-.783h-1.906c-.402 0-.64.451-.413.783z"/><path d="m862.553 166.155c.198.29.626.29.825 0l1.193-1.743c.227-.331-.01-.782-.413-.782h-2.385c-.403 0-.64.451-.413.782z"/><path d="m842.512 166.301c.198.29.626.29.825 0l1.393-2.035c.227-.332-.011-.782-.413-.782h-2.786c-.402 0-.64.45-.412.782z"/><path d="m822.47 166.359c.199.29.627.29.825 0l1.474-2.151c.227-.332-.011-.783-.413-.783h-2.946c-.403 0-.64.451-.413.783z"/><path d="m802.429 166.418c.198.29.626.29.825 0l1.553-2.269c.227-.332-.01-.782-.412-.782h-3.107c-.402 0-.64.45-.413.782z"/><path d="m782.387 166.447c.199.29.627.29.825 0l1.594-2.327c.227-.332-.011-.782-.413-.782h-3.186c-.403 0-.64.45-.413.782z"/><path d="m762.346 166.389c.198.29.626.29.825 0l1.513-2.21c.227-.332-.01-.783-.413-.783h-3.026c-.402 0-.64.451-.412.783z"/><path d="m742.304 166.272c.199.29.627.29.825 0l1.354-1.977c.227-.331-.011-.782-.413-.782h-2.706c-.402 0-.64.451-.413.782z"/><path d="m722.263 166.126c.198.29.626.29.825 0l1.153-1.684c.227-.332-.011-.783-.413-.783h-2.306c-.402 0-.639.451-.412.783z"/><path d="m702.221 165.892c.199.29.627.29.825 0l.833-1.217c.227-.331-.01-.782-.412-.782h-1.666c-.402 0-.64.451-.413.782z"/><path d="m682.18 165.658c.198.29.626.29.825 0l.513-.749c.227-.332-.011-.782-.413-.782h-1.025c-.402 0-.64.45-.413.782z"/><path d="m662.138 165.336c.199.29.627.29.825 0l.073-.105c.227-.332-.011-.783-.413-.783h-.144c-.403 0-.64.451-.413.783z"/><path d="m642.257 165.249c.121.177.383.177.505 0 .139-.203-.006-.479-.253-.479-.246 0-.391.276-.252.479z"/><path d="m622.387 165.211c.039.057.123.057.162 0 .044-.065-.002-.153-.081-.153s-.125.088-.081.153z"/><path d="m983.119 148.315c.046.067.145.067.191 0 .053-.077-.002-.182-.096-.182-.093 0-.148.105-.095.182z"/><path d="m962.816 148.372c.172.251.542.251.714 0 .196-.287-.009-.677-.357-.677s-.554.39-.357.677z"/><path d="m942.719 148.671c.198.29.626.29.825 0l.392-.574c.228-.332-.01-.782-.412-.782h-.785c-.402 0-.64.45-.413.782z"/><path d="m922.677 149.021c.199.29.627.29.825 0l.873-1.275c.227-.331-.01-.782-.412-.782h-1.746c-.402 0-.64.451-.413.782z"/><path d="m902.636 149.314c.198.29.626.29.825 0l1.273-1.86c.227-.332-.01-.782-.413-.782h-2.546c-.402 0-.639.45-.412.782z"/><path d="m882.594 149.547c.199.29.627.29.825 0l1.594-2.327c.227-.331-.011-.782-.413-.782h-3.186c-.402 0-.64.451-.413.782z"/><path d="m862.553 149.752c.198.29.626.29.825 0l1.873-2.736c.228-.332-.01-.783-.412-.783h-3.747c-.402 0-.64.451-.412.783z"/><path d="m842.512 149.869c.198.29.626.29.825 0l2.033-2.97c.228-.332-.01-.783-.412-.783h-4.067c-.402 0-.64.451-.413.783z"/><path d="m822.47 149.986c.199.29.627.29.825 0l2.194-3.204c.227-.332-.01-.783-.413-.783h-4.387c-.402 0-.64.451-.412.783z"/><path d="m802.429 150.015c.198.29.626.29.825 0l2.233-3.262c.228-.332-.01-.783-.412-.783h-4.467c-.403 0-.64.451-.413.783z"/><path d="m782.387 149.986c.199.29.627.29.825 0l2.194-3.204c.227-.332-.01-.783-.413-.783h-4.387c-.402 0-.64.451-.412.783z"/><path d="m762.346 149.957c.198.29.626.29.825 0l2.153-3.146c.228-.332-.01-.782-.412-.782h-4.307c-.402 0-.64.45-.413.782z"/><path d="m742.304 149.869c.199.29.627.29.825 0l2.034-2.97c.227-.332-.011-.783-.413-.783h-4.067c-.402 0-.639.451-.412.783z"/><path d="m722.263 149.723c.198.29.626.29.825 0l1.833-2.678c.228-.332-.01-.783-.412-.783h-3.667c-.402 0-.64.451-.413.783z"/><path d="m702.221 149.518c.199.29.627.29.825 0l1.554-2.268c.227-.332-.011-.783-.413-.783h-3.106c-.403 0-.64.451-.413.783z"/><path d="m682.18 149.284c.198.29.626.29.825 0l1.233-1.801c.227-.331-.01-.782-.413-.782h-2.466c-.402 0-.639.451-.412.782z"/><path d="m662.138 148.934c.199.29.627.29.825 0l.753-1.1c.227-.332-.01-.782-.412-.782h-1.506c-.402 0-.64.45-.412.782z"/><path d="m642.097 148.641c.198.29.626.29.825 0l.352-.515c.228-.331-.01-.782-.412-.782h-.705c-.402 0-.64.451-.413.782z"/><path d="m622.111 148.372c.172.251.542.251.714 0 .196-.287-.009-.677-.357-.677s-.554.39-.357.677z"/><path d="m602.278 148.326c.072.104.225.104.296 0 .082-.119-.003-.281-.148-.281-.144 0-.229.162-.148.281z"/><path d="m1003.18 131.412c.03.057.12.057.16 0 .04-.065-.01-.153-.08-.153-.08 0-.13.088-.08.153z"/><path d="m982.857 131.472c.172.251.542.251.714 0 .197-.287-.009-.677-.357-.677s-.553.39-.357.677z"/><path d="m962.76 131.858c.199.29.627.29.825 0l.513-.748c.227-.332-.01-.783-.413-.783h-1.025c-.402 0-.64.451-.412.783z"/><path d="m942.719 132.238c.198.29.626.29.825 0l1.033-1.508c.227-.332-.011-.783-.413-.783h-2.066c-.402 0-.639.451-.412.783z"/><path d="m922.677 132.589c.199.29.627.29.825 0l1.514-2.21c.227-.332-.011-.782-.413-.782h-3.026c-.403 0-.64.45-.413.782z"/><path d="m902.636 132.881c.198.291.626.291.825 0l1.913-2.794c.228-.332-.01-.783-.412-.783h-3.827c-.402 0-.64.451-.413.783z"/><path d="m882.594 133.086c.199.29.627.29.825 0l2.194-3.204c.227-.332-.01-.782-.412-.782h-4.388c-.402 0-.639.45-.412.782z"/><path d="m862.553 133.291c.198.29.626.29.825 0l2.474-3.613c.227-.332-.011-.783-.413-.783h-4.947c-.402 0-.64.451-.413.783z"/><path d="m842.512 133.437c.198.29.626.29.825 0l2.674-3.906c.227-.331-.011-.782-.413-.782h-5.348c-.402 0-.639.451-.412.782z"/><path d="m822.47 133.495c.199.29.627.29.825 0l2.754-4.022c.227-.332-.01-.782-.412-.782h-5.508c-.402 0-.64.45-.413.782z"/><path d="m802.429 133.524c.198.291.626.291.825 0l2.794-4.08c.227-.332-.011-.783-.413-.783h-5.588c-.402 0-.639.451-.412.783z"/><path d="m782.387 133.495c.199.29.627.29.825 0l2.754-4.022c.228-.332-.01-.782-.412-.782h-5.508c-.402 0-.64.45-.413.782z"/><path d="m762.346 133.466c.198.29.626.29.825 0l2.714-3.964c.227-.332-.011-.782-.413-.782h-5.428c-.402 0-.639.45-.412.782z"/><path d="m742.304 133.378c.199.29.627.29.825 0l2.594-3.788c.227-.332-.01-.783-.412-.783h-5.188c-.402 0-.64.451-.413.783z"/><path d="m722.263 133.232c.198.29.626.29.825 0l2.394-3.496c.227-.332-.011-.782-.413-.782h-4.787c-.403 0-.64.45-.413.782z"/><path d="m702.221 133.057c.199.29.627.29.825 0l2.154-3.146c.227-.331-.01-.782-.413-.782h-4.307c-.402 0-.64.451-.412.782z"/><path d="m682.18 132.823c.198.29.626.29.825 0l1.833-2.678c.228-.332-.01-.782-.412-.782h-3.667c-.402 0-.64.45-.413.782z"/><path d="m662.138 132.56c.199.29.627.29.825 0l1.474-2.152c.227-.332-.011-.782-.413-.782h-2.946c-.402 0-.64.45-.413.782z"/><path d="m642.097 132.238c.198.29.626.29.825 0l1.033-1.508c.227-.332-.011-.783-.413-.783h-2.065c-.403 0-.64.451-.413.783z"/><path d="m622.055 131.888c.199.29.627.29.825 0l.553-.807c.227-.332-.01-.783-.412-.783h-1.106c-.402 0-.639.451-.412.783z"/><path d="m602.014 131.537c.198.29.626.29.825 0l.072-.106c.228-.332-.01-.782-.412-.782h-.145c-.402 0-.64.451-.412.782z"/><path d="m582.15 131.445c.113.166.357.166.47 0 .13-.189-.006-.445-.235-.445s-.365.256-.235.445z"/><path d="m562.263 131.412c.039.057.122.057.161 0 .045-.065-.002-.153-.08-.153-.079 0-.126.088-.081.153z"/><path d="m41.168 131.415c.0461.067.1455.067.1915 0 .0527-.077-.0024-.182-.0957-.182-.0934 0-.1486.105-.0958.182z"/><path d="m1023.22 114.512c.04.057.12.057.16 0 .04-.065 0-.153-.08-.153s-.13.088-.08.153z"/><path d="m1002.92 114.568c.16.239.51.239.68 0 .18-.273-.01-.644-.34-.644-.34 0-.53.371-.34.644z"/><path d="m982.802 114.93c.198.29.626.29.825 0l.472-.691c.228-.332-.01-.782-.412-.782h-.945c-.402 0-.64.45-.413.782z"/><path d="m962.76 115.368c.199.29.627.29.825 0l1.073-1.567c.228-.332-.01-.783-.412-.783h-2.146c-.402 0-.64.451-.413.783z"/><path d="m942.719 115.719c.198.29.626.29.825 0l1.553-2.269c.227-.332-.01-.782-.412-.782h-3.107c-.402 0-.64.45-.412.782z"/><path d="m922.677 116.069c.199.29.627.29.825 0l2.034-2.97c.227-.331-.01-.782-.413-.782h-4.067c-.402 0-.639.451-.412.782z"/><path d="m902.636 116.362c.198.29.626.29.825 0l2.434-3.555c.227-.332-.011-.782-.413-.782h-4.867c-.403 0-.64.45-.413.782z"/><path d="m882.594 116.596c.199.29.627.29.825 0l2.754-4.023c.228-.332-.01-.782-.412-.782h-5.508c-.402 0-.64.45-.413.782z"/><path d="m862.553 116.742c.198.29.626.29.825 0l2.954-4.315c.227-.332-.01-.782-.412-.782h-5.908c-.403 0-.64.45-.413.782z"/><path d="m842.512 116.829c.198.29.626.29.825 0l3.074-4.49c.227-.331-.01-.782-.413-.782h-6.148c-.402 0-.64.451-.413.782z"/><path d="m822.47 116.917c.199.29.627.29.825 0l3.195-4.665c.227-.332-.011-.783-.413-.783h-6.388c-.403 0-.64.451-.413.783z"/><path d="m802.429 116.946c.198.29.626.29.825 0l3.234-4.723c.227-.332-.01-.783-.412-.783h-6.469c-.402 0-.64.451-.413.783z"/><path d="m782.387 116.917c.199.29.627.29.825 0l3.195-4.665c.227-.332-.011-.783-.413-.783h-6.388c-.403 0-.64.451-.413.783z"/><path d="m762.346 116.888c.198.29.626.29.825 0l3.154-4.607c.227-.332-.01-.783-.412-.783h-6.309c-.402 0-.64.451-.412.783z"/><path d="m742.304 116.829c.199.29.627.29.825 0l3.075-4.49c.227-.331-.011-.782-.413-.782h-6.148c-.403 0-.64.451-.413.782z"/><path d="m722.263 116.712c.198.29.626.29.825 0l2.914-4.256c.227-.331-.01-.782-.413-.782h-5.828c-.402 0-.64.451-.412.782z"/><path d="m702.221 116.537c.199.29.627.29.825 0l2.674-3.905c.228-.332-.01-.783-.412-.783h-5.348c-.402 0-.64.451-.413.783z"/><path d="m682.18 116.303c.198.29.626.29.825 0l2.354-3.437c.227-.332-.011-.783-.413-.783h-4.707c-.403 0-.64.451-.413.783z"/><path d="m662.138 116.069c.199.29.627.29.825 0l2.034-2.97c.227-.331-.01-.782-.413-.782h-4.067c-.402 0-.639.451-.412.782z"/><path d="m642.097 115.777c.198.29.626.29.825 0l1.633-2.385c.227-.332-.01-.783-.412-.783h-3.267c-.402 0-.64.451-.412.783z"/><path d="m622.055 115.456c.199.29.627.29.825 0l1.194-1.743c.227-.332-.011-.782-.413-.782h-2.386c-.402 0-.64.45-.413.782z"/><path d="m602.014 115.134c.198.29.626.29.825 0l.753-1.099c.227-.332-.011-.783-.413-.783h-1.505c-.402 0-.64.451-.413.783z"/><path d="m581.972 114.813c.199.29.627.29.826 0l.312-.457c.227-.332-.01-.782-.413-.782h-.624c-.403 0-.64.45-.413.782z"/><path d="m562.021 114.565c.155.226.49.226.645 0 .177-.259-.008-.611-.322-.611-.315 0-.5.352-.323.611z"/><path d="m542.154 114.527c.071.104.225.104.296 0 .082-.119-.004-.281-.148-.281s-.229.162-.148.281z"/><path d="m41.1157 114.527c.0713.104.2249.104.296 0 .0816-.119-.0036-.281-.1479-.281s-.2295.162-.1481.281z"/><path d="m20.813 114.584c.197.287.6214.287.8185 0 .2253-.329-.0104-.776-.4093-.776-.3988 0-.6346.447-.4092.776z"/><path d="m1023.06 97.646c.12.1652.36.1652.47 0 .13-.1891 0-.4459-.23-.4459s-.37.2568-.24.4459z"/><path d="m1002.84 97.9129c.2.29.63.29.83-.0001l.31-.4563c.23-.3318-.01-.7825-.41-.7825h-.63c-.4 0-.64.4507-.41.7825z"/><path d="m982.802 98.3805c.198.2901.626.2901.825 0l.953-1.3917c.227-.3318-.011-.7825-.413-.7825h-1.906c-.402 0-.639.4507-.412.7825z"/><path d="m962.76 98.8482c.199.29.627.29.825 0l1.594-2.327c.227-.3318-.011-.7825-.413-.7825h-3.186c-.403 0-.64.4507-.413.7825z"/><path d="m942.719 99.1989c.198.29.626.29.825 0l2.073-3.0285c.228-.3318-.01-.7825-.412-.7825h-4.147c-.402 0-.64.4507-.413.7825z"/><path d="m922.677 99.5204c.199.29.627.29.825 0l2.514-3.6715c.227-.3318-.01-.7824-.412-.7824h-5.028c-.402 0-.64.4506-.413.7824z"/><path d="m902.636 99.8127c.198.2903.626.2903.825 0l2.914-4.2561c.227-.3318-.01-.7825-.413-.7825h-5.828c-.402 0-.639.4507-.412.7825z"/><path d="m882.594 100.017c.199.29.627.29.825 0l3.195-4.665c.227-.3318-.011-.7824-.413-.7824h-6.388c-.402 0-.64.4506-.413.7824z"/><path d="m862.553 100.105c.198.29.626.29.825 0l3.314-4.8407c.228-.3318-.01-.7824-.412-.7824h-6.629c-.402 0-.639.4506-.412.7824z"/><path d="m842.512 100.222c.198.29.626.29.825 0l3.474-5.0746c.227-.3318-.01-.7825-.412-.7825h-6.949c-.402 0-.64.4507-.413.7825z"/><path d="m822.47 100.28c.199.29.627.29.825 0l3.555-5.1911c.227-.3318-.011-.7824-.413-.7824h-7.109c-.402 0-.639.4506-.412.7824z"/><path d="m802.429 100.28c.198.29.626.29.825 0l3.554-5.1911c.227-.3318-.01-.7824-.412-.7824h-7.109c-.402 0-.64.4506-.413.7824z"/><path d="m782.387 100.31c.199.29.627.29.825 0l3.595-5.2503c.227-.3318-.011-.7824-.413-.7824h-7.189c-.402 0-.639.4506-.412.7824z"/><path d="m762.346 100.28c.198.29.626.29.825 0l3.554-5.1911c.228-.3318-.01-.7824-.412-.7824h-7.109c-.402 0-.64.4506-.413.7824z"/><path d="m742.304 100.193c.199.29.627.29.825 0l3.435-5.0163c.227-.3318-.011-.7825-.413-.7825h-6.869c-.402 0-.639.4507-.412.7825z"/><path d="m722.263 100.105c.198.29.626.29.825 0l3.314-4.8407c.227-.3318-.01-.7824-.412-.7824h-6.629c-.402 0-.64.4506-.413.7824z"/><path d="m702.221 99.9589c.199.2901.627.2901.825 0l3.115-4.5484c.227-.3318-.011-.7825-.413-.7825h-6.228c-.402 0-.64.4507-.413.7825z"/><path d="m682.18 99.7543c.198.2897.626.2897.825 0l2.834-4.1392c.227-.3318-.01-.7825-.413-.7825h-5.668c-.402 0-.639.4507-.412.7825z"/><path d="m662.138 99.5204c.199.29.627.29.825 0l2.514-3.6715c.227-.3318-.01-.7824-.412-.7824h-5.028c-.402 0-.64.4506-.413.7824z"/><path d="m642.097 99.2866c.198.29.626.29.825 0l2.194-3.2039c.227-.3318-.011-.7824-.413-.7824h-4.387c-.402 0-.64.4506-.413.7824z"/><path d="m622.055 98.9651c.199.29.627.29.825 0l1.754-2.5609c.227-.3318-.011-.7825-.413-.7825h-3.506c-.403 0-.64.4507-.413.7825z"/><path d="m602.014 98.6728c.198.29.626.29.825 0l1.353-1.9763c.227-.3318-.01-.7824-.412-.7824h-2.707c-.402 0-.639.4506-.412.7824z"/><path d="m581.972 98.3805c.199.2901.627.2901.826 0l.952-1.3917c.228-.3318-.01-.7825-.412-.7825h-1.906c-.402 0-.64.4507-.412.7825z"/><path d="m561.931 98.0882c.199.2901.626.2901.825 0l.553-.8071c.227-.3318-.011-.7825-.413-.7825h-1.105c-.402 0-.64.4507-.413.7825z"/><path d="m541.889 97.7959c.199.2901.627.2901.826 0l.152-.2225c.227-.3318-.01-.7825-.413-.7825h-.304c-.403 0-.64.4507-.413.7825z"/><path d="m521.938 97.665c.155.2264.49.2264.645 0 .177-.2591-.008-.611-.322-.611s-.5.3519-.323.611z"/><path d="m502.001 97.6422c.105.153.331.153.436 0 .12-.1751-.006-.4129-.218-.4129s-.337.2378-.218.4129z"/><path d="m482.047 97.6232c.063.0918.198.0918.261 0 .072-.1051-.003-.2477-.13-.2477-.128 0-.203.1427-.131.2477z"/><path d="m462.055 97.6123c.039.0568.123.0568.162 0 .044-.0649-.002-.1531-.081-.1531s-.125.0882-.081.1531z"/><path d="m441.999 97.6156c.046.0673.145.0673.191 0 .053-.077-.002-.1816-.095-.1816-.094 0-.149.1046-.096.1816z"/><path d="m421.957 97.6156c.046.0673.146.0673.192 0 .053-.077-.003-.1816-.096-.1816s-.148.1046-.096.1816z"/><path d="m401.898 97.6194c.055.0796.172.0796.227 0 .062-.091-.003-.2146-.113-.2146-.111 0-.176.1236-.114.2146z"/><path d="m381.805 97.6308c.079.1163.251.1163.331 0 .091-.1331-.005-.3138-.166-.3138s-.256.1807-.165.3138z"/><path d="m361.711 97.6422c.105.153.331.153.435 0 .12-.1751-.005-.4129-.217-.4129-.213 0-.338.2378-.218.4129z"/><path d="m341.635 97.6498c.121.1775.383.1775.505 0 .139-.2031-.007-.4789-.253-.4789s-.391.2758-.252.4789z"/><path d="m321.558 97.6573c.139.202.437.202.575 0 .158-.2311-.007-.5449-.287-.5449s-.446.3138-.288.5449z"/><path d="m301.499 97.6611c.147.2143.463.2143.61 0 .168-.2451-.008-.5779-.305-.5779s-.472.3328-.305.5779z"/><path d="m281.493 97.6536c.13.1897.41.1897.54 0 .148-.2171-.007-.5119-.27-.5119s-.419.2948-.27.5119z"/><path d="m261.486 97.646c.113.1652.357.1652.47 0 .13-.1891-.006-.4459-.235-.4459s-.364.2568-.235.4459z"/><path d="m241.514 97.6307c.08.1163.252.1163.331 0 .091-.133-.004-.3137-.165-.3137s-.257.1807-.166.3137z"/><path d="m221.558 97.6123c.038.0568.122.0568.161 0 .044-.0649-.002-.1531-.081-.1531-.078 0-.125.0882-.08.1531z"/><path d="m61.2245 97.6123c.0389.0568.1226.0568.1615 0 .0444-.0649-.0021-.1531-.0808-.1531-.0786 0-.1251.0882-.0807.1531z"/><path d="m41.0635 97.6384c.0964.1407.3042.1407.4005-.0001.1103-.161-.005-.3797-.2002-.3797s-.3106.2187-.2003.3798z"/><path d="m20.8097 97.7083c.1986.29.6265.29.8251 0l.0323-.0472c.2272-.3319-.0104-.7825-.4126-.7825h-.0646c-.4022 0-.6397.4506-.4126.7825z"/><path d="m1043.26 80.7126c.04.0567.12.0567.16 0 .04-.0649 0-.1531-.08-.1531s-.13.0882-.08.1531z"/><path d="m1022.88 80.8085c.2.2901.63.2901.83 0l.03-.0471c.23-.3319-.01-.7825-.41-.7825h-.07c-.4 0-.63.4506-.41.7825z"/><path d="m1002.84 81.3346c.2.2901.63.2901.83 0l.75-1.0994c.23-.3318-.01-.7824-.41-.7824h-1.51c-.4 0-.64.4506-.41.7824z"/><path d="m982.802 81.8315c.198.2901.626.2901.825 0l1.433-2.0931c.227-.3319-.01-.7825-.413-.7825h-2.866c-.402 0-.64.4506-.412.7825z"/><path d="m962.76 82.2407c.199.29.627.29.825 0l1.994-2.9116c.227-.3318-.01-.7825-.413-.7825h-3.987c-.402 0-.639.4507-.412.7825z"/><path d="m942.719 82.6207c.198.29.626.29.825 0l2.514-3.6715c.227-.3318-.011-.7825-.413-.7825h-5.027c-.403 0-.64.4507-.413.7825z"/><path d="m922.677 82.913c.199.29.627.29.825 0l2.915-4.2561c.227-.3318-.011-.7824-.413-.7824h-5.828c-.402 0-.64.4506-.413.7824z"/><path d="m902.636 83.176c.198.2901.626.2901.825 0l3.274-4.7821c.227-.3319-.01-.7825-.412-.7825h-6.549c-.402 0-.64.4506-.412.7825z"/><path d="m882.594 83.3514c.199.2901.627.2901.825 0l3.515-5.133c.227-.3318-.01-.7824-.413-.7824h-7.029c-.402 0-.639.4506-.412.7824z"/><path d="m862.553 83.4683c.198.2901.626.2901.825 0l3.675-5.3668c.227-.3318-.011-.7824-.413-.7824h-7.349c-.402 0-.64.4506-.412.7824z"/><path d="m842.512 83.556c.198.29.626.29.825 0l3.794-5.5421c.228-.3318-.01-.7825-.412-.7825h-7.589c-.403 0-.64.4507-.413.7825z"/><path d="m822.47 83.5852c.199.2901.627.2901.825 0l3.835-5.6006c.227-.3318-.01-.7825-.413-.7825h-7.669c-.402 0-.64.4507-.412.7825z"/><path d="m802.429 83.6145c.198.29.626.29.825 0l3.874-5.6591c.228-.3318-.01-.7824-.412-.7824h-7.749c-.403 0-.64.4506-.413.7824z"/><path d="m782.387 83.6145c.199.29.627.29.825 0l3.875-5.6591c.227-.3318-.01-.7824-.413-.7824h-7.749c-.402 0-.64.4506-.412.7824z"/><path d="m762.346 83.556c.198.29.626.29.825 0l3.794-5.5421c.228-.3318-.01-.7825-.412-.7825h-7.589c-.402 0-.64.4507-.413.7825z"/><path d="m742.304 83.4976c.199.29.627.29.825 0l3.715-5.4253c.227-.3318-.01-.7824-.413-.7824h-7.429c-.402 0-.64.4506-.412.7824z"/><path d="m722.263 83.4391c.198.2901.626.2901.825 0l3.634-5.3083c.228-.3318-.01-.7825-.412-.7825h-7.269c-.402 0-.64.4507-.413.7825z"/><path d="m702.221 83.3222c.199.29.627.29.825 0l3.475-5.0745c.227-.3318-.011-.7825-.413-.7825h-6.949c-.402 0-.639.4507-.412.7825z"/><path d="m682.18 83.1176c.198.29.626.29.825 0l3.194-4.6653c.227-.3318-.01-.7825-.412-.7825h-6.389c-.402 0-.64.4507-.412.7825z"/><path d="m662.138 82.9422c.199.29.627.29.825 0l2.955-4.3145c.227-.3319-.011-.7825-.413-.7825h-5.908c-.402 0-.64.4506-.413.7825z"/><path d="m642.097 82.7084c.198.29.626.29.825 0l2.634-3.847c.227-.3318-.011-.7824-.413-.7824h-5.268c-.402 0-.639.4506-.412.7824z"/><path d="m622.055 82.4453c.199.2901.627.2901.825 0l2.274-3.3208c.227-.3318-.01-.7825-.412-.7825h-4.548c-.402 0-.639.4507-.412.7825z"/><path d="m602.014 82.2115c.198.29.626.29.825 0l1.954-2.8531c.227-.3318-.011-.7825-.413-.7825h-3.907c-.402 0-.64.4507-.413.7825z"/><path d="m581.972 81.9484c.199.2901.627.2901.826 0l1.593-2.3269c.227-.3319-.011-.7825-.413-.7825h-3.186c-.402 0-.64.4506-.413.7825z"/><path d="m561.931 81.6561c.199.2901.626.2901.825 0l1.193-1.7424c.227-.3318-.01-.7825-.413-.7825h-2.386c-.402 0-.639.4507-.412.7825z"/><path d="m541.889 81.3931c.199.2901.627.29.826 0l.832-1.2163c.228-.3318-.01-.7825-.412-.7825h-1.666c-.402 0-.64.4507-.412.7825z"/><path d="m521.848 81.1885c.199.29.627.29.825 0l.553-.8071c.227-.3318-.011-.7825-.413-.7825h-1.105c-.402 0-.64.4507-.413.7825z"/><path d="m501.807 81.0131c.198.29.626.29.825 0l.312-.4563c.227-.3319-.01-.7825-.412-.7825h-.625c-.403 0-.64.4506-.413.7825z"/><path d="m481.765 80.867c.199.29.627.29.825 0l.112-.1641c.228-.3318-.01-.7825-.412-.7825h-.225c-.402 0-.64.4507-.412.7825z"/><path d="m461.724 80.8377c.198.2901.626.2901.825 0l.072-.1056c.227-.3318-.01-.7825-.413-.7825h-.144c-.402 0-.64.4507-.413.7825z"/><path d="m441.682 80.8377c.199.2901.627.2901.825 0l.072-.1056c.228-.3318-.01-.7825-.412-.7825h-.145c-.402 0-.639.4507-.412.7825z"/><path d="m421.641 80.8962c.198.29.626.29.825 0l.152-.2225c.227-.3319-.01-.7825-.412-.7825h-.305c-.402 0-.64.4506-.413.7825z"/><path d="m401.599 80.9254c.199.2901.627.2901.825 0l.193-.2809c.227-.3319-.011-.7825-.413-.7825h-.385c-.402 0-.639.4506-.412.7825z"/><path d="m381.558 81.0131c.198.29.626.29.825 0l.312-.4563c.227-.3319-.01-.7825-.412-.7825h-.625c-.403 0-.64.4506-.413.7825z"/><path d="m361.516 81.0716c.199.29.627.29.825 0l.393-.5733c.227-.3318-.011-.7825-.413-.7825h-.785c-.402 0-.64.4507-.412.7825z"/><path d="m341.475 81.1593c.198.29.626.29.825 0l.512-.7487c.228-.3318-.01-.7825-.412-.7825h-1.025c-.403 0-.64.4507-.413.7825z"/><path d="m321.433 81.1885c.199.29.627.29.825 0l.553-.8071c.227-.3318-.011-.7825-.413-.7825h-1.105c-.402 0-.64.4507-.413.7825z"/><path d="m301.392 81.2469c.198.2901.626.2901.825.0001l.632-.924c.228-.3319-.01-.7825-.412-.7825h-1.265c-.403 0-.64.4506-.413.7825z"/><path d="m281.35 81.1885c.199.29.627.29.825 0l.553-.8071c.227-.3318-.01-.7825-.413-.7825h-1.105c-.402 0-.64.4507-.412.7825z"/><path d="m261.309 81.13c.198.2901.626.2901.825 0l.472-.6902c.228-.3318-.01-.7824-.412-.7824h-.945c-.402 0-.64.4506-.413.7824z"/><path d="m241.267 81.0131c.199.29.627.29.825 0l.313-.4563c.227-.3319-.011-.7825-.413-.7825h-.625c-.402 0-.639.4506-.412.7825z"/><path d="m221.226 80.8377c.198.2901.626.2901.825 0l.072-.1056c.227-.3318-.01-.7825-.412-.7825h-.145c-.402 0-.64.4507-.413.7825z"/><path d="m201.257 80.7691c.164.2387.516.2387.679 0 .187-.2731-.008-.6441-.339-.6441s-.527.371-.34.6441z"/><path d="m181.319 80.7462c.113.1653.357.1653.47 0 .13-.1891-.006-.4458-.235-.4458s-.364.2568-.235.4458z"/><path d="m161.365 80.7273c.071.104.224.104.296 0 .081-.119-.004-.2807-.148-.2807-.145 0-.23.1616-.148.2807z"/><path d="m141.39 80.7126c.039.0567.123.0567.162 0 .044-.0649-.002-.1531-.081-.1531-.078 0-.125.0882-.081.1531z"/><path d="m121.349 80.7126c.039.0568.123.0567.161 0 .045-.0649-.002-.1531-.08-.1531-.079 0-.125.0882-.081.1531z"/><path d="m101.307 80.7126c.039.0567.123.0568.162 0 .044-.0649-.002-.1531-.081-.1531-.078 0-.125.0882-.081.1531z"/><path d="m81.266 80.7126c.0388.0567.1225.0567.1614 0 .0445-.0649-.002-.1531-.0807-.1531s-.1251.0882-.0807.1531z"/><path d="m61.1921 80.7197c.0544.0795.1719.0795.2264 0 .0623-.0911-.0029-.2147-.1133-.2147-.1103 0-.1754.1236-.1131.2147z"/><path d="m41.0114 80.75c.1214.1775.3834.1775.5048 0 .1391-.2031-.0063-.4789-.2524-.4789s-.3915.2758-.2524.4789z"/><path d="m20.813 80.7842c.197.2877.6214.2877.8185 0 .2253-.3291-.0104-.7761-.4093-.7761-.3988 0-.6346.447-.4092.7761z"/><path d="m1043.09 63.8503c.12.1775.38.1775.5 0 .14-.2031-.01-.4789-.25-.4789-.25 0-.39.2758-.25.4789z"/><path d="m1022.88 64.1719c.2.29.63.29.83 0l.39-.5733c.23-.3319-.01-.7825-.41-.7825h-.79c-.4 0-.64.4506-.41.7825z"/><path d="m1002.84 64.698c.2.29.63.29.83 0l1.11-1.6256c.23-.3318-.01-.7824-.41-.7824h-2.23c-.4 0-.64.4506-.41.7824z"/><path d="m982.802 65.1949c.198.29.626.29.825 0l1.793-2.6193c.227-.3319-.01-.7825-.412-.7825h-3.587c-.402 0-.64.4506-.413.7825z"/><path d="m962.76 65.604c.199.2901.627.2901.825 0l2.354-3.4377c.227-.3318-.01-.7824-.412-.7824h-4.708c-.402 0-.64.4506-.412.7824z"/><path d="m942.719 65.9548c.198.2901.626.2901.825 0l2.834-4.1392c.227-.3318-.01-.7824-.413-.7824h-5.668c-.402 0-.639.4506-.412.7824z"/><path d="m922.677 66.2471c.199.29.627.29.825 0l3.235-4.7238c.227-.3318-.011-.7824-.413-.7824h-6.468c-.403 0-.64.4506-.413.7824z"/><path d="m902.636 66.481c.198.29.626.29.825 0l3.554-5.1915c.228-.3318-.01-.7825-.412-.7825h-7.109c-.402 0-.64.4507-.413.7825z"/><path d="m882.594 66.627c.199.2901.627.2901.825 0l3.755-5.4836c.227-.3319-.01-.7825-.412-.7825h-7.51c-.402 0-.639.4506-.412.7825z"/><path d="m862.553 66.7147c.198.2901.626.2901.825 0l3.875-5.659c.227-.3318-.011-.7825-.413-.7825h-7.749c-.402 0-.64.4507-.413.7825z"/><path d="m842.512 66.7732c.198.29.626.29.825 0l3.954-5.776c.228-.3319-.01-.7825-.412-.7825h-7.909c-.403 0-.64.4506-.413.7825z"/><path d="m822.47 66.8024c.199.2901.627.2901.825 0l3.995-5.8344c.227-.3318-.01-.7825-.412-.7825h-7.99c-.402 0-.64.4507-.413.7825z"/><path d="m802.429 66.8024c.198.2901.626.2901.825 0l3.995-5.8344c.227-.3318-.011-.7825-.413-.7825h-7.989c-.403 0-.64.4507-.413.7825z"/><path d="m782.387 66.8024c.199.2901.627.2901.825 0l3.995-5.8344c.227-.3318-.01-.7825-.412-.7825h-7.99c-.402 0-.64.4507-.413.7825z"/><path d="m762.346 66.8025c.198.29.626.29.825-.0001l3.995-5.8344c.227-.3318-.011-.7825-.413-.7825h-7.989c-.403 0-.64.4507-.413.7825z"/><path d="m742.304 66.7732c.199.29.627.29.825 0l3.955-5.776c.227-.3319-.01-.7825-.412-.7825h-7.91c-.402 0-.64.4506-.412.7825z"/><path d="m722.263 66.7147c.198.2901.626.2901.825 0l3.875-5.659c.227-.3318-.011-.7825-.413-.7825h-7.749c-.403 0-.64.4507-.413.7825z"/><path d="m702.221 66.5978c.199.2901.627.2901.825 0l3.715-5.4252c.227-.3318-.01-.7824-.413-.7824h-7.429c-.402 0-.639.4506-.412.7824z"/><path d="m682.18 66.481c.198.29.626.29.825 0l3.554-5.1915c.228-.3318-.01-.7825-.412-.7825h-7.109c-.402 0-.64.4507-.413.7825z"/><path d="m662.138 66.2763c.199.2901.627.2901.825 0l3.275-4.7822c.227-.3318-.011-.7825-.413-.7825h-6.548c-.403 0-.64.4507-.413.7825z"/><path d="m642.097 66.101c.198.29.626.29.825 0l3.034-4.4315c.227-.3319-.01-.7825-.412-.7825h-6.069c-.402 0-.639.4506-.412.7825z"/><path d="m622.055 65.8964c.199.29.627.29.825 0l2.754-4.0223c.228-.3318-.01-.7825-.412-.7825h-5.508c-.402 0-.64.4507-.413.7825z"/><path d="m602.014 65.6918c.198.29.626.29.825 0l2.474-3.6131c.227-.3318-.011-.7825-.413-.7825h-4.947c-.402 0-.64.4507-.413.7825z"/><path d="m581.972 65.4579c.199.2901.627.2901.826 0l2.153-3.1454c.227-.3318-.01-.7825-.412-.7825h-4.308c-.402 0-.639.4507-.412.7825z"/><path d="m561.931 65.2241c.199.29.626.29.825 0l1.833-2.6778c.228-.3318-.01-.7825-.412-.7825h-3.667c-.402 0-.64.4507-.412.7825z"/><path d="m541.889 65.0195c.199.29.627.29.826 0l1.553-2.2686c.227-.3318-.011-.7825-.413-.7825h-3.106c-.402 0-.64.4507-.413.7825z"/><path d="m521.848 64.7856c.199.2901.627.2901.825 0l1.233-1.8008c.227-.3318-.01-.7825-.412-.7825h-2.466c-.403 0-.64.4507-.413.7825z"/><path d="m501.807 64.6688c.198.29.626.29.825 0l1.073-1.5671c.227-.3318-.011-.7825-.413-.7825h-2.146c-.402 0-.64.4507-.412.7825z"/><path d="m481.765 64.5518c.199.2901.627.2901.825 0l.913-1.3332c.227-.3318-.01-.7825-.413-.7825h-1.825c-.402 0-.64.4507-.413.7825z"/><path d="m461.724 64.5226c.198.29.626.29.825 0l.872-1.2748c.228-.3318-.01-.7825-.412-.7825h-1.746c-.402 0-.64.4507-.412.7825z"/><path d="m441.682 64.5226c.199.29.627.29.825 0l.873-1.2748c.227-.3318-.01-.7825-.413-.7825h-1.745c-.402 0-.64.4507-.413.7825z"/><path d="m421.641 64.5518c.198.2901.626.2901.825 0l.912-1.3332c.228-.3318-.01-.7825-.412-.7825h-1.826c-.402 0-.639.4507-.412.7825z"/><path d="m401.599 64.6395c.199.2901.627.2901.825 0l1.033-1.5086c.227-.3318-.01-.7825-.412-.7825h-2.066c-.402 0-.64.4507-.413.7825z"/><path d="m381.558 64.698c.198.29.626.29.825 0l1.113-1.6256c.227-.3318-.011-.7824-.413-.7824h-2.226c-.402 0-.64.4506-.412.7824z"/><path d="m361.516 64.7272c.199.2901.627.2901.825 0l1.153-1.6839c.227-.3319-.01-.7825-.412-.7825h-2.306c-.402 0-.64.4506-.413.7825z"/><path d="m341.475 64.8149c.198.29.626.29.825 0l1.273-1.8594c.227-.3318-.011-.7825-.413-.7825h-2.546c-.402 0-.64.4507-.412.7825z"/><path d="m321.433 64.8734c.199.29.627.29.825 0l1.353-1.9763c.228-.3318-.01-.7825-.412-.7825h-2.706c-.403 0-.64.4507-.413.7825z"/><path d="m301.392 64.9026c.198.29.626.29.825 0l1.393-2.0348c.227-.3318-.01-.7824-.413-.7824h-2.786c-.402 0-.64.4506-.413.7824z"/><path d="m281.35 64.8441c.199.29.627.29.825 0l1.313-1.9178c.228-.3318-.01-.7825-.412-.7825h-2.626c-.403 0-.64.4507-.413.7825z"/><path d="m261.309 64.7856c.198.2901.626.2901.825 0l1.233-1.8008c.227-.3318-.011-.7825-.413-.7825h-2.466c-.402 0-.64.4507-.412.7825z"/><path d="m241.267 64.6687c.199.2901.627.2901.825 0l1.073-1.567c.227-.3318-.01-.7825-.412-.7825h-2.146c-.402 0-.64.4507-.413.7825z"/><path d="m221.226 64.4934c.198.2901.626.2901.825 0l.833-1.2163c.227-.3319-.011-.7825-.413-.7825h-1.666c-.402 0-.639.4506-.412.7825z"/><path d="m201.184 64.3179c.199.2901.627.2901.825 0l.593-.8655c.227-.3318-.01-.7825-.413-.7825h-1.185c-.402 0-.64.4507-.412.7825z"/><path d="m181.142 64.1426c.198.29.626.29.825 0l.352-.5148c.227-.3318-.01-.7824-.412-.7824h-.705c-.402 0-.64.4506-.413.7824z"/><path d="m161.1 63.938c.199.29.627.29.825 0l.072-.1056c.228-.3319-.01-.7825-.412-.7825h-.145c-.402 0-.639.4506-.412.7825z"/><path d="m141.114 63.8731c.172.2509.542.2509.714 0 .197-.2871-.009-.6771-.357-.6771s-.553.39-.357.6771z"/><path d="m121.16 63.8542c.13.1897.41.1897.54 0 .148-.2171-.007-.512-.27-.512s-.419.2949-.27.512z"/><path d="m101.171 63.8427c.104.153.33.153.435 0 .12-.1751-.006-.4128-.218-.4128s-.337.2377-.217.4128z"/><path d="m81.1464 63.8389c.0965.1408.3042.1408.4005 0 .1103-.161-.005-.3798-.2002-.3798s-.3105.2188-.2003.3798z"/><path d="m61.105 63.8389c.0964.1408.3041.1408.4005 0 .1103-.161-.0051-.3798-.2003-.3798s-.3105.2188-.2002.3798z"/><path d="m40.9591 63.8617c.1466.2142.4628.2142.6094 0 .1678-.2451-.0077-.5779-.3047-.5779s-.4725.3328-.3047.5779z"/><path d="m20.813 63.8845c.197.2876.6214.2876.8185 0 .2253-.3292-.0104-.7761-.4093-.7761-.3988 0-.6346.4469-.4092.7761z"/><path d="m1063.3 46.9131c.04.0568.12.0568.16 0 .05-.0649 0-.1531-.08-.1531s-.12.0882-.08.1531z"/><path d="m1042.96 46.9772c.18.2632.57.2632.75 0 .21-.3011-.01-.71-.37-.71-.37 0-.58.4089-.38.71z"/><path d="m1022.88 47.506c.2.29.63.29.83 0l.71-1.041c.23-.3318-.01-.7824-.41-.7824h-1.43c-.4 0-.64.4506-.41.7824z"/><path d="m1002.84 48.0028c.2.2901.63.2901.83 0l1.39-2.0347c.23-.3318-.01-.7825-.41-.7825h-2.79c-.4 0-.64.4507-.41.7825z"/><path d="m982.802 48.4997c.198.29.626.29.825 0l2.073-3.0285c.228-.3318-.01-.7824-.412-.7824h-4.147c-.402 0-.64.4506-.413.7824z"/><path d="m962.76 48.8797c.199.2901.627.2901.825 0l2.594-3.7885c.227-.3318-.01-.7824-.412-.7824h-5.188c-.402 0-.64.4506-.413.7824z"/><path d="m942.719 49.2304c.198.2901.626.2901.825 0l3.074-4.4899c.227-.3318-.01-.7825-.412-.7825h-6.149c-.402 0-.64.4507-.412.7825z"/><path d="m922.677 49.5228c.199.29.627.29.825 0l3.475-5.0745c.227-.3319-.011-.7825-.413-.7825h-6.949c-.402 0-.639.4506-.412.7825z"/><path d="m902.636 49.7273c.198.29.626.29.825 0l3.755-5.4837c.227-.3318-.011-.7824-.413-.7824h-7.509c-.402 0-.64.4506-.413.7824z"/><path d="m882.594 49.8443c.199.29.627.29.825 0l3.915-5.7176c.227-.3318-.01-.7824-.412-.7824h-7.83c-.402 0-.64.4506-.412.7824z"/><path d="m862.553 49.9319c.198.29.626.29.825 0l4.035-5.8929c.227-.3318-.011-.7824-.413-.7824h-8.069c-.402 0-.64.4506-.413.7824z"/><path d="m842.512 49.9612c.198.29.626.29.825 0l4.075-5.9514c.227-.3318-.011-.7825-.413-.7825h-8.15c-.402 0-.639.4507-.412.7825z"/><path d="m822.47 49.9612c.199.29.627.29.825 0l4.075-5.9514c.227-.3318-.01-.7825-.412-.7825h-8.15c-.402 0-.64.4507-.413.7825z"/><path d="m802.429 49.9612c.198.29.626.29.825 0l4.075-5.9514c.227-.3318-.011-.7825-.413-.7825h-8.15c-.402 0-.639.4507-.412.7825z"/><path d="m782.387 49.9612c.199.29.627.29.825 0l4.075-5.9514c.227-.3318-.01-.7825-.412-.7825h-8.15c-.402 0-.64.4507-.413.7825z"/><path d="m762.346 49.9612c.198.29.626.29.825 0l4.075-5.9514c.227-.3318-.011-.7825-.413-.7825h-8.149c-.403 0-.64.4507-.413.7825z"/><path d="m742.304 49.9319c.199.2901.627.2901.825 0l4.035-5.8929c.227-.3318-.01-.7824-.412-.7824h-8.07c-.402 0-.64.4506-.412.7824z"/><path d="m722.263 49.9027c.198.2901.626.2901.825 0l3.995-5.8344c.227-.3318-.011-.7825-.413-.7825h-7.989c-.403 0-.64.4507-.413.7825z"/><path d="m702.221 49.815c.199.2901.627.2901.825 0l3.875-5.659c.227-.3318-.01-.7825-.412-.7825h-7.75c-.402 0-.64.4507-.412.7825z"/><path d="m682.18 49.6981c.198.29.626.29.825 0l3.715-5.4252c.227-.3318-.011-.7825-.413-.7825h-7.429c-.402 0-.64.4507-.413.7825z"/><path d="m662.138 49.6104c.199.29.627.29.825 0l3.595-5.2499c.227-.3318-.01-.7825-.413-.7825h-7.189c-.402 0-.639.4507-.412.7825z"/><path d="m642.097 49.435c.198.2901.626.2901.825 0l3.354-4.8991c.227-.3318-.01-.7824-.412-.7824h-6.709c-.402 0-.64.4506-.412.7825z"/><path d="m622.055 49.2889c.199.29.627.29.825 0l3.155-4.6069c.227-.3318-.011-.7824-.413-.7824h-6.308c-.402 0-.64.4506-.413.7824z"/><path d="m602.014 49.0843c.198.29.626.29.825 0l2.874-4.1976c.227-.3319-.01-.7825-.412-.7825h-5.749c-.402 0-.639.4506-.412.7825z"/><path d="m581.972 48.8797c.199.2901.627.2901.826 0l2.593-3.7885c.228-.3318-.01-.7824-.412-.7824h-5.188c-.402 0-.64.4506-.412.7825z"/><path d="m561.931 48.7043c.199.2901.626.2901.825 0l2.354-3.4377c.227-.3318-.011-.7825-.413-.7825h-4.707c-.402 0-.64.4507-.413.7825z"/><path d="m541.889 48.529c.199.29.627.29.826 0l2.113-3.0869c.227-.3319-.01-.7825-.412-.7825h-4.228c-.402 0-.639.4506-.412.7825z"/><path d="m521.848 48.3536c.199.29.627.29.825 0l1.874-2.7362c.227-.3318-.011-.7825-.413-.7825h-3.747c-.402 0-.64.4507-.413.7825z"/><path d="m501.807 48.2075c.198.29.626.29.825 0l1.673-2.4439c.227-.3319-.011-.7825-.413-.7825h-3.346c-.402 0-.64.4506-.413.7825z"/><path d="m481.765 48.1782c.199.29.627.29.825 0l1.633-2.3854c.228-.3319-.01-.7825-.412-.7825h-3.267c-.402 0-.64.4506-.412.7825z"/><path d="m461.724 48.1197c.198.2901.626.2901.825 0l1.553-2.2685c.227-.3319-.011-.7825-.413-.7825h-3.106c-.402 0-.64.4506-.413.7825z"/><path d="m441.682 48.149c.199.29.627.29.825 0l1.593-2.327c.228-.3318-.01-.7824-.412-.7824h-3.187c-.402 0-.639.4506-.412.7824z"/><path d="m421.641 48.1782c.198.29.626.29.825 0l1.633-2.3854c.227-.3319-.01-.7825-.413-.7825h-3.266c-.402 0-.64.4506-.413.7825z"/><path d="m401.599 48.2075c.199.29.627.29.825-.0001l1.673-2.4438c.228-.3319-.01-.7825-.412-.7825h-3.347c-.402 0-.639.4506-.412.7825z"/><path d="m381.558 48.2367c.198.29.626.29.825 0l1.713-2.5024c.227-.3318-.01-.7825-.413-.7825h-3.426c-.402 0-.64.4507-.413.7825z"/><path d="m361.516 48.3536c.199.29.627.29.825 0l1.874-2.7362c.227-.3318-.011-.7825-.413-.7825h-3.747c-.402 0-.64.4507-.412.7825z"/><path d="m341.475 48.3828c.198.29.626.29.825 0l1.913-2.7947c.227-.3318-.01-.7825-.412-.7825h-3.827c-.402 0-.64.4507-.413.7825z"/><path d="m321.433 48.4705c.199.2901.627.2901.825 0l2.034-2.97c.227-.3318-.011-.7825-.413-.7825h-4.067c-.402 0-.64.4507-.412.7825z"/><path d="m301.392 48.4413c.198.29.626.29.825 0l1.993-2.9116c.228-.3318-.01-.7825-.412-.7825h-3.987c-.402 0-.64.4507-.413.7825z"/><path d="m281.35 48.4705c.199.2901.627.2901.825 0l2.034-2.97c.227-.3318-.011-.7825-.413-.7825h-4.067c-.402 0-.64.4507-.412.7825z"/><path d="m261.309 48.4121c.198.29.626.29.825 0l1.953-2.8531c.227-.3319-.01-.7825-.412-.7825h-3.907c-.402 0-.64.4506-.413.7825z"/><path d="m241.267 48.2659c.199.29.627.29.825 0l1.754-2.5609c.227-.3318-.011-.7824-.413-.7824h-3.507c-.402 0-.639.4506-.412.7824z"/><path d="m221.226 48.1197c.198.2901.626.2901.825 0l1.553-2.2685c.227-.3319-.01-.7825-.412-.7825h-3.107c-.402 0-.64.4506-.413.7825z"/><path d="m201.184 47.9152c.199.29.627.29.825 0l1.273-1.8594c.228-.3318-.01-.7825-.412-.7825h-2.546c-.402 0-.64.4507-.413.7825z"/><path d="m181.142 47.7106c.198.29.626.29.825 0l.993-1.4502c.227-.3318-.011-.7825-.413-.7825h-1.986c-.402 0-.64.4507-.412.7825z"/><path d="m161.1 47.506c.199.29.627.29.825 0l.713-1.0409c.227-.3319-.01-.7825-.413-.7825h-1.425c-.402 0-.64.4506-.413.7824z"/><path d="m141.059 47.3306c.198.29.626.29.825 0l.472-.6902c.227-.3318-.01-.7825-.412-.7825h-.945c-.403 0-.64.4507-.413.7825z"/><path d="m121.017 47.126c.199.29.627.29.825 0l.193-.281c.227-.3318-.011-.7824-.413-.7824h-.385c-.402 0-.639.4506-.412.7824z"/><path d="m100.979 46.9847c.197.2877.621.2877.818 0 .226-.3291-.01-.7761-.409-.7761s-.634.447-.409.7761z"/><path d="m80.9897 46.9733c.1719.251.5422.251.714 0 .1965-.2871-.0091-.677-.357-.677s-.5535.3899-.357.677z"/><path d="m60.9657 46.9696c.1635.2387.5157.2387.6791 0 .187-.2731-.0085-.644-.3395-.644s-.5266.3709-.3396.644z"/><path d="m40.9069 46.9733c.1717.251.5421.251.7138 0 .1966-.2871-.009-.677-.3569-.677s-.5535.3899-.3569.677z"/><path d="m20.813 46.9847c.197.2877.6214.2877.8185 0 .2253-.3291-.0104-.7761-.4093-.7761-.3988 0-.6346.447-.4092.7761z"/><path d="m.768188 47.1552c.198609.2901.626592.2901.825192 0l.23243-.3394c.22717-.3319-.0105-.7825-.4126-.7825h-.464846c-.402221 0-.63977.4506-.412597.7825z"/><path d="m1063.27 30.0205c.05.0796.17.0796.22 0 .07-.091 0-.2147-.11-.2147s-.18.1237-.11.2147z"/><path d="m1042.93 30.2263c.19.29.62.29.82 0l.19-.281c.23-.3319-.01-.7825-.41-.7825h-.38c-.41 0-.64.4506-.42.7825z"/><path d="m1022.88 30.7816c.2.29.63.29.83 0l.95-1.3917c.23-.3319-.01-.7825-.41-.7825h-1.91c-.4 0-.64.4506-.41.7825z"/><path d="m1002.84 31.3077c.2.29.63.29.83 0l1.67-2.4439c.23-.3318-.01-.7824-.41-.7824h-3.35c-.4 0-.64.4506-.41.7824z"/><path d="m982.802 31.7461c.198.29.626.29.825 0l2.274-3.3208c.227-.3318-.011-.7824-.413-.7824h-4.547c-.403 0-.64.4506-.413.7824z"/><path d="m962.76 32.1261c.199.29.627.29.825 0l2.794-4.0807c.228-.3319-.01-.7825-.412-.7825h-5.588c-.402 0-.64.4506-.413.7825z"/><path d="m942.719 32.4476c.198.2901.626.2901.825 0l3.234-4.7237c.227-.3319-.01-.7825-.412-.7825h-6.469c-.402 0-.64.4506-.412.7825z"/><path d="m922.677 32.6815c.199.29.627.29.825 0l3.555-5.1914c.227-.3319-.011-.7825-.413-.7825h-7.109c-.402 0-.639.4506-.412.7825z"/><path d="m902.636 32.886c.198.2901.626.2901.825 0l3.835-5.6006c.227-.3318-.011-.7825-.413-.7825h-7.669c-.402 0-.64.4507-.413.7825z"/><path d="m882.594 33.003c.199.2901.627.2901.825 0l3.995-5.8345c.227-.3318-.01-.7825-.412-.7825h-7.99c-.402 0-.64.4507-.412.7825z"/><path d="m862.553 33.0322c.198.29.626.29.825 0l4.035-5.8929c.227-.3319-.011-.7825-.413-.7825h-8.069c-.402 0-.64.4506-.413.7825z"/><path d="m842.512 33.0614c.198.2901.626.2901.825 0l4.075-5.9513c.227-.3318-.011-.7825-.413-.7825h-8.15c-.402 0-.639.4507-.412.7825z"/><path d="m822.47 33.0906c.199.29.627.29.825 0l4.115-6.0098c.227-.3318-.01-.7824-.412-.7824h-8.23c-.402 0-.64.4506-.413.7824z"/><path d="m802.429 33.0614c.198.2901.626.2901.825 0l4.075-5.9513c.227-.3318-.011-.7825-.413-.7825h-8.15c-.402 0-.639.4507-.412.7825z"/><path d="m782.387 33.1199c.199.29.627.29.825 0l4.155-6.0683c.227-.3318-.01-.7825-.412-.7825h-8.31c-.402 0-.64.4507-.413.7825z"/><path d="m762.346 33.1199c.198.29.626.29.825 0l4.155-6.0683c.227-.3318-.011-.7825-.413-.7825h-8.31c-.402 0-.639.4507-.412.7825z"/><path d="m742.304 33.0906c.199.29.627.29.825 0l4.115-6.0098c.227-.3318-.01-.7824-.412-.7824h-8.23c-.402 0-.64.4506-.413.7824z"/><path d="m722.263 33.0614c.198.2901.626.2901.825 0l4.075-5.9513c.227-.3318-.011-.7825-.413-.7825h-8.149c-.403 0-.64.4507-.413.7825z"/><path d="m702.221 32.9738c.199.29.627.29.825 0l3.955-5.7761c.227-.3318-.01-.7824-.412-.7824h-7.91c-.402 0-.64.4506-.412.7824z"/><path d="m682.18 32.886c.198.2901.626.2901.825 0l3.835-5.6006c.227-.3318-.011-.7825-.413-.7825h-7.669c-.402 0-.64.4507-.413.7825z"/><path d="m662.138 32.8276c.199.29.627.29.825 0l3.755-5.4837c.227-.3318-.01-.7825-.413-.7825h-7.509c-.402 0-.639.4507-.412.7825z"/><path d="m642.097 32.6815c.198.29.626.29.825 0l3.554-5.1914c.228-.3319-.01-.7825-.412-.7825h-7.109c-.402 0-.64.4506-.413.7825z"/><path d="m622.055 32.5645c.199.2901.627.2901.825 0l3.395-4.9575c.227-.3319-.011-.7825-.413-.7825h-6.788c-.403 0-.64.4506-.413.7825z"/><path d="m602.014 32.4476c.198.2901.626.2901.825 0l3.234-4.7237c.228-.3319-.01-.7825-.412-.7825h-6.469c-.402 0-.64.4506-.412.7825z"/><path d="m581.972 32.3015c.199.29.627.29.826 0l3.034-4.4315c.227-.3318-.011-.7824-.413-.7824h-6.068c-.402 0-.64.4506-.413.7824z"/><path d="m561.931 32.1553c.199.2901.626.2901.825 0l2.834-4.1391c.227-.3319-.01-.7825-.412-.7825h-5.669c-.402 0-.639.4506-.412.7825z"/><path d="m541.889 31.98c.199.2901.627.2901.826 0l2.593-3.7885c.228-.3318-.01-.7824-.412-.7824h-5.188c-.402 0-.64.4506-.412.7824z"/><path d="m521.848 31.8631c.199.29.627.29.825 0l2.434-3.5547c.227-.3318-.011-.7824-.413-.7824h-4.867c-.402 0-.64.4506-.413.7824z"/><path d="m501.807 31.7754c.198.29.626.29.825 0l2.313-3.3793c.227-.3318-.01-.7825-.412-.7825h-4.628c-.402 0-.639.4507-.412.7825z"/><path d="m481.765 31.7169c.199.2901.627.2901.825 0l2.234-3.2623c.227-.3318-.011-.7825-.413-.7825h-4.467c-.402 0-.64.4507-.413.7825z"/><path d="m461.724 31.7169c.198.2901.626.2901.825 0l2.233-3.2623c.227-.3318-.01-.7825-.412-.7825h-4.468c-.402 0-.639.4507-.412.7825z"/><path d="m441.682 31.7169c.199.2901.627.2901.825 0l2.234-3.2623c.227-.3318-.011-.7825-.413-.7825h-4.467c-.402 0-.64.4507-.413.7825z"/><path d="m421.641 31.7169c.198.2901.626.2901.825 0l2.233-3.2623c.228-.3318-.01-.7825-.412-.7825h-4.468c-.402 0-.639.4507-.412.7825z"/><path d="m401.599 31.8046c.199.29.627.29.825 0l2.354-3.4377c.227-.3319-.01-.7825-.413-.7825h-4.707c-.402 0-.64.4506-.413.7825z"/><path d="m381.558 31.8338c.198.2901.626.2901.825 0l2.393-3.4961c.228-.3318-.01-.7825-.412-.7825h-4.788c-.402 0-.639.4507-.412.7825z"/><path d="m361.516 31.8923c.199.2901.627.2901.825 0l2.474-3.6131c.227-.3318-.01-.7825-.413-.7825h-4.947c-.402 0-.64.4507-.413.7825z"/><path d="m341.475 31.9215c.198.29.626.29.825 0l2.514-3.6715c.227-.3319-.011-.7825-.413-.7825h-5.028c-.402 0-.639.4506-.412.7825z"/><path d="m321.433 32.0092c.199.29.627.29.825 0l2.634-3.8469c.227-.3319-.01-.7825-.412-.7825h-5.268c-.402 0-.64.4506-.413.7825z"/><path d="m301.392 31.98c.198.2901.626.2901.825 0l2.594-3.7885c.227-.3318-.011-.7824-.413-.7824h-5.188c-.402 0-.639.4506-.412.7824z"/><path d="m281.35 31.98c.199.2901.627.2901.825 0l2.594-3.7885c.227-.3318-.01-.7824-.412-.7824h-5.188c-.402 0-.64.4506-.413.7824z"/><path d="m261.309 31.9215c.198.29.626.29.825 0l2.514-3.6715c.227-.3319-.011-.7825-.413-.7825h-5.028c-.402 0-.639.4506-.412.7825z"/><path d="m241.267 31.8338c.199.2901.627.2901.825 0l2.394-3.4961c.227-.3318-.01-.7825-.412-.7825h-4.788c-.402 0-.64.4507-.413.7825z"/><path d="m221.226 31.6292c.198.2901.626.2901.825 0l2.113-3.0869c.228-.3318-.01-.7824-.412-.7824h-4.227c-.402 0-.64.4506-.413.7824z"/><path d="m201.184 31.4539c.199.29.627.29.825 0l1.874-2.7362c.227-.3319-.011-.7825-.413-.7825h-3.747c-.402 0-.64.4507-.412.7825z"/><path d="m181.142 31.2493c.198.29.626.29.825 0l1.593-2.327c.227-.3319-.01-.7825-.413-.7825h-3.186c-.402 0-.64.4506-.413.7825z"/><path d="m161.1 31.0155c.199.29.627.29.825 0l1.273-1.8594c.227-.3319-.01-.7825-.412-.7825h-2.546c-.403 0-.64.4506-.413.7825z"/><path d="m141.059 30.8109c.198.29.626.29.825 0l.993-1.4502c.227-.3318-.011-.7825-.413-.7825h-1.986c-.402 0-.639.4507-.412.7825z"/><path d="m121.017 30.6063c.199.29.627.29.825 0l.713-1.041c.227-.3318-.01-.7825-.413-.7825h-1.425c-.402 0-.64.4507-.413.7825z"/><path d="m100.976 30.4017c.198.29.626.29.825 0l.432-.6318c.228-.3319-.01-.7825-.412-.7825h-.865c-.403 0-.64.4506-.413.7824z"/><path d="m80.9341 30.2555c.1987.29.6266.29.8252 0l.2324-.3395c.2272-.3318-.0104-.7825-.4125-.7825h-.4649c-.4022 0-.6398.4507-.4126.7825z"/><path d="m60.8927 30.1094c.1985.29.6265.29.8251 0l.0323-.0472c.2272-.3319-.0104-.7825-.4125-.7825h-.0647c-.4021 0-.6397.4506-.4125.7825z"/><path d="m40.8719 30.0813c.1886.2754.5951.2754.7837 0 .2157-.3152-.0098-.7431-.3918-.7431s-.6076.4279-.3919.7431z"/><path d="m20.8304 30.0812c.1886.2755.595.2755.7836.0001.2158-.3152-.0099-.7431-.3917-.7431-.382 0-.6076.4279-.3919.743z"/><path d="m.768188 30.1678c.198609.2901.626592.2901.825192 0l.11231-.164c.22717-.3319-.01038-.7825-.4126-.7825h-.22461c-.40222 0-.639769.4506-.412596.7825z"/><path d="m1063.2 13.136c.09.1285.28.1285.36 0 .1-.1471 0-.3468-.18-.3468s-.28.1997-.18.3468z"/><path d="m1042.93 13.4434c.19.2901.62.2901.82 0l.35-.5148c.23-.3318-.01-.7824-.41-.7824h-.7c-.41 0-.64.4506-.42.7824z"/><path d="m1022.88 14.028c.2.2901.63.2901.83 0l1.15-1.6839c.23-.3318-.01-.7825-.41-.7825h-2.31c-.4 0-.64.4507-.41.7825z"/><path d="m1002.84 14.5249c.2.29.63.29.83 0l1.83-2.6778c.23-.3318-.01-.7825-.41-.7825h-3.67c-.4 0-.64.4507-.41.7825z"/><path d="m982.802 14.9633c.198.29.626.29.825 0l2.434-3.5546c.227-.3318-.011-.7825-.413-.7825h-4.867c-.403 0-.64.4507-.413.7825z"/><path d="m962.76 15.3433c.199.29.627.29.825 0l2.954-4.3146c.228-.3318-.01-.7824-.412-.7824h-5.908c-.402 0-.64.4506-.413.7824z"/><path d="m942.719 15.6356c.198.29.626.29.825 0l3.354-4.8991c.227-.3319-.01-.78251-.412-.78251h-6.709c-.402 0-.64.45061-.413.78251z"/><path d="m922.677 15.8694c.199.29.627.29.825 0l3.675-5.3668c.227-.3318-.01-.78246-.413-.78246h-7.349c-.402 0-.639.45066-.412.78246z"/><path d="m902.636 16.0156c.198.29.626.29.825 0l3.875-5.6591c.227-.3318-.011-.78248-.413-.78248h-7.749c-.402 0-.64.45068-.413.78248z"/><path d="m882.594 16.1617c.199.2901.627.2901.825 0l4.075-5.9513c.227-.33184-.01-.7825-.412-.7825h-8.15c-.402 0-.64.45066-.412.7825z"/><path d="m862.553 16.1909c.198.29.626.29.825 0l4.115-6.0098c.227-.33181-.011-.78246-.413-.78246h-8.229c-.402 0-.64.45063-.413.78246z"/><path d="m842.512 16.1909c.198.29.626.29.825 0l4.115-6.0098c.227-.33181-.011-.78246-.413-.78246h-8.23c-.402 0-.639.45065-.412.78246z"/><path d="m822.47 16.1909c.199.29.627.29.825 0l4.115-6.0098c.227-.33181-.01-.78246-.412-.78246h-8.23c-.402 0-.64.45065-.413.78246z"/><path d="m802.429 16.1909c.198.29.626.29.825 0l4.115-6.0098c.227-.33181-.011-.78246-.413-.78246h-8.23c-.402 0-.639.45065-.412.78246z"/><path d="m782.387 16.1909c.199.29.627.29.825 0l4.115-6.0098c.227-.33181-.01-.78246-.412-.78246h-8.23c-.402 0-.64.45065-.413.78246z"/><path d="m762.346 16.1909c.198.29.626.29.825 0l4.115-6.0098c.227-.33181-.011-.78246-.413-.78246h-8.23c-.402 0-.639.45065-.412.78246z"/><path d="m742.304 16.1909c.199.29.627.29.825 0l4.115-6.0098c.227-.33181-.01-.78246-.412-.78246h-8.23c-.402 0-.64.45065-.413.78246z"/><path d="m722.263 16.1617c.198.2901.626.2901.825 0l4.075-5.9513c.227-.33184-.011-.7825-.413-.7825h-8.149c-.403 0-.64.45066-.413.7825z"/><path d="m702.221 16.1325c.199.29.627.29.825 0l4.035-5.893c.227-.33179-.01-.78244-.412-.78244h-8.07c-.402 0-.64.45065-.413.78244z"/><path d="m682.18 16.0448c.198.2901.626.2901.825 0l3.915-5.7176c.227-.33181-.011-.78245-.413-.78245h-7.829c-.402 0-.64.45066-.413.78245z"/><path d="m662.138 15.9863c.199.29.627.29.825 0l3.835-5.6006c.227-.3318-.01-.78247-.412-.78247h-7.67c-.402 0-.639.45067-.412.78247z"/><path d="m642.097 15.8987c.198.29.626.29.825 0l3.715-5.4253c.227-.3318-.011-.78242-.413-.78242h-7.429c-.402 0-.64.45062-.413.78242z"/><path d="m622.055 15.8109c.199.2901.627.2901.825 0l3.595-5.2498c.227-.3318-.01-.78249-.413-.78249h-7.189c-.402 0-.639.45069-.412.78249z"/><path d="m602.014 15.7233c.198.2901.626.2901.825 0l3.474-5.0745c.228-.3319-.01-.7825-.412-.7825h-6.949c-.402 0-.64.4506-.413.7825z"/><path d="m581.972 15.6063c.199.2901.627.2901.826 0l3.314-4.8406c.227-.3318-.01-.7825-.413-.7825h-6.628c-.403 0-.64.4507-.413.7825z"/><path d="m561.931 15.5187c.199.29.626.29.825 0l3.194-4.6653c.227-.3318-.01-.7825-.412-.7825h-6.389c-.402 0-.64.4507-.412.7825z"/><path d="m541.889 15.431c.199.29.627.29.826-.0001l3.074-4.4899c.227-.3318-.011-.7825-.413-.7825h-6.148c-.402 0-.64.4507-.413.7825z"/><path d="m521.848 15.3141c.199.29.627.29.825 0l2.914-4.2561c.227-.3318-.01-.7825-.412-.7825h-5.829c-.402 0-.639.4507-.412.7825z"/><path d="m501.807 15.1972c.198.29.626.29.825 0l2.754-4.0223c.227-.3318-.011-.7825-.413-.7825h-5.508c-.402 0-.64.4507-.413.7825z"/><path d="m481.765 15.1972c.199.29.627.29.825 0l2.754-4.0223c.227-.3318-.01-.7825-.412-.7825h-5.508c-.403 0-.64.4507-.413.7825z"/><path d="m461.724 15.1972c.198.29.626.29.825 0l2.754-4.0223c.227-.3318-.011-.7825-.413-.7825h-5.508c-.402 0-.64.4507-.412.7825z"/><path d="m441.682 15.1972c.199.29.627.29.825 0l2.754-4.0223c.227-.3318-.01-.7825-.412-.7825h-5.508c-.403 0-.64.4507-.413.7825z"/><path d="m421.641 15.2264c.198.29.626.29.825 0l2.794-4.0808c.227-.3318-.011-.7824-.413-.7824h-5.588c-.402 0-.64.4506-.413.7824z"/><path d="m401.599 15.2556c.199.2901.627.2901.825 0l2.834-4.1392c.227-.3318-.01-.7824-.412-.7824h-5.668c-.403 0-.64.4506-.413.7824z"/><path d="m381.558 15.3141c.198.29.626.29.825 0l2.914-4.2561c.227-.3318-.011-.7825-.413-.7825h-5.828c-.402 0-.64.4507-.413.7825z"/><path d="m361.516 15.3433c.199.29.627.29.825 0l2.954-4.3146c.228-.3318-.01-.7824-.412-.7824h-5.908c-.403 0-.64.4506-.413.7824z"/><path d="m341.475 15.4018c.198.29.626.29.825 0l3.034-4.4315c.227-.3319-.011-.7825-.413-.7825h-6.068c-.402 0-.64.4506-.413.7825z"/><path d="m321.433 15.4309c.199.2901.627.2901.825 0l3.074-4.4899c.228-.3318-.01-.7825-.412-.7825h-6.148c-.403 0-.64.4507-.413.7825z"/><path d="m301.392 15.4309c.198.2901.626.2901.825 0l3.074-4.4899c.227-.3318-.01-.7825-.413-.7825h-6.148c-.402 0-.64.4507-.412.7825z"/><path d="m281.35 15.4309c.199.2901.627.2901.825 0l3.074-4.4899c.228-.3318-.01-.7825-.412-.7825h-6.148c-.403 0-.64.4507-.413.7825z"/><path d="m261.309 15.3725c.198.2901.626.2901.825 0l2.994-4.373c.227-.3318-.011-.7824-.413-.7824h-5.988c-.402 0-.64.4506-.412.7824z"/><path d="m241.267 15.2848c.199.2901.627.2901.825 0l2.874-4.1976c.228-.3319-.01-.7825-.412-.7825h-5.748c-.402 0-.64.4506-.413.7825z"/><path d="m221.226 15.1679c.198.2901.626.2901.825 0l2.714-3.9638c.227-.3318-.011-.7825-.413-.7825h-5.428c-.402 0-.639.4507-.412.7825z"/><path d="m201.184 14.9633c.199.29.627.29.825 0l2.434-3.5546c.227-.3318-.01-.7825-.412-.7825h-4.868c-.402 0-.64.4507-.413.7825z"/><path d="m181.142 14.7879c.198.2901.626.2901.825 0l2.193-3.2039c.227-.3318-.01-.7824-.412-.7824h-4.387c-.403 0-.64.4506-.413.7824z"/><path d="m161.1 14.5249c.199.29.627.29.825 0l1.834-2.6778c.227-.3318-.011-.7825-.413-.7825h-3.667c-.402 0-.64.4507-.412.7825z"/><path d="m141.059 14.2618c.198.2901.626.2901.825 0l1.473-2.1516c.227-.3318-.01-.7825-.413-.7825h-2.946c-.402 0-.64.4507-.413.7825z"/><path d="m121.017 14.028c.199.2901.627.2901.825 0l1.153-1.6839c.227-.3318-.01-.7825-.412-.7825h-2.306c-.402 0-.64.4507-.413.7825z"/><path d="m100.976 13.7942c.198.2901.626.2901.825.0001l.833-1.2164c.227-.3318-.011-.7825-.413-.7825h-1.666c-.402 0-.6394.4507-.412.7825z"/><path d="m80.9341 13.5604c.1987.29.6266.29.8252 0l.5126-.7487c.2272-.3318-.0104-.7825-.4126-.7825h-1.0252c-.4022 0-.6398.4507-.4126.7825z"/><path d="m60.8927 13.3558c.1985.29.6265.29.8251 0l.2325-.3395c.2271-.3318-.0105-.7825-.4126-.7825h-.4649c-.4021 0-.6398.4507-.4125.7825z"/><path d="m40.8512 13.2097c.1986.29.6266.29.8252 0l.0322-.0473c.2273-.3318-.0104-.7824-.4125-.7824h-.0647c-.4021 0-.6397.4506-.4124.7824z"/><path d="m20.8479 13.1777c.1802.2632.5685.2632.7487 0 .2061-.3011-.0094-.71-.3744-.71-.3649 0-.5805.4089-.3743.71z"/><path d="m.806396 13.1777c.180176.2632.568484.2632.748784 0 .20605-.3011-.00953-.71-.37439-.71-.364872 0-.58057.4089-.374394.71z"/><path d="m1063.15-3.7524c.11.16527.35.16527.47 0 .12-.18908-.01-.44586-.24-.44586s-.36.25678-.23.44586z"/><path d="m1042.93-3.39784c.19.29004.62.29004.82 0l.43-.63176c.23-.33183-.01-.78247-.41-.78247h-.86c-.41 0-.64.45064-.42.78247z"/><path d="m1022.88-2.8425c.2.29004.63.29004.83 0l1.19-1.74246c.23-.33182-.01-.78247-.41-.78247h-2.39c-.4 0-.64.45065-.41.78248z"/><path d="m1002.84-2.31641c.2.29004.63.29004.83 0l1.91-2.79467c.23-.33184-.01-.78247-.41-.78247h-3.83c-.4 0-.64.45063-.41.78247z"/><path d="m982.802-1.90717c.198.29004.626.29004.825 0l2.474-3.61305c.227-.33183-.011-.78247-.413-.78247h-4.947c-.403 0-.64.45064-.413.78247z"/><path d="m962.76-1.52719c.199.29004.627.29004.825 0l2.995-4.373c.227-.33182-.011-.78247-.413-.78247h-5.988c-.402 0-.64.45065-.413.78247z"/><path d="m942.719-1.23495c.198.290019.626.290019.825 0l3.394-4.95751c.227-.33183-.01-.78249-.412-.78249h-6.789c-.402 0-.64.45066-.413.78249z"/><path d="m922.677-1.00105c.199.290021.627.290021.825-.00002l3.715-5.42526c.227-.33182-.01-.78247-.413-.78247h-7.429c-.402 0-.639.45065-.412.78247z"/><path d="m902.636-.854889c.198.290024.626.290024.825 0l3.915-5.717541c.227-.33184-.011-.78247-.413-.78247h-7.829c-.402 0-.64.45063-.413.78247z"/><path d="m882.594-.767258c.199.290039.627.290039.825 0l4.035-5.892932c.227-.33181-.01-.78247-.412-.78247h-8.07c-.402 0-.64.45066-.412.78247z"/><path d="m862.553-.738022c.198.290039.626.290054.825.000015l4.075-5.951383c.227-.33183-.011-.78247-.413-.78247h-8.149c-.402 0-.64.45064-.413.78245z"/><path d="m842.512-.679565c.198.290039.626.290039.825 0l4.155-6.068255c.227-.33183-.011-.78247-.413-.78247h-8.31c-.402 0-.639.45065-.412.78247z"/><path d="m822.47-.708832c.199.290039.627.290039.825 0l4.115-6.009828c.227-.33183-.01-.78247-.412-.78247h-8.23c-.402 0-.64.45065-.413.78247z"/><path d="m802.429-.708832c.198.290039.626.290039.825 0l4.115-6.009828c.227-.33183-.011-.78247-.413-.78247h-8.23c-.402 0-.639.45065-.412.78247z"/><path d="m782.387-.708832c.199.290039.627.290039.825 0l4.115-6.009828c.227-.33183-.01-.78247-.412-.78247h-8.23c-.402 0-.64.45065-.413.78247z"/><path d="m762.346-.708832c.198.290039.626.290039.825 0l4.115-6.009828c.227-.33183-.011-.78247-.413-.78247h-8.23c-.402 0-.639.45065-.412.78247z"/><path d="m742.304-.679565c.199.290039.627.290039.825 0l4.155-6.068255c.227-.33183-.01-.78247-.412-.78247h-8.31c-.402 0-.64.45065-.413.78247z"/><path d="m722.263-.737991c.198.290039.626.290039.825 0l4.075-5.951399c.227-.33183-.011-.78247-.413-.78247h-8.149c-.403 0-.64.45064-.413.78247z"/><path d="m702.221-.737991c.199.290039.627.290039.825 0l4.075-5.951399c.227-.33183-.01-.78247-.412-.78247h-8.15c-.402 0-.64.45064-.413.78247z"/><path d="m682.18-.767258c.198.290039.626.290039.825 0l4.035-5.892932c.227-.33181-.011-.78247-.413-.78247h-8.069c-.403 0-.64.45066-.413.78249z"/><path d="m662.138-.825729c.199.290039.627.290039.825 0l3.955-5.775971c.227-.33183-.01-.78247-.412-.78247h-7.91c-.402 0-.64.45064-.412.78247z"/><path d="m642.097-.913422c.198.290039.626.290039.825 0l3.835-5.600588c.227-.33183-.011-.78248-.413-.78248h-7.669c-.402 0-.64.45065-.413.78248z"/><path d="m622.055-.942627c.199.290039.627.290039.825 0l3.795-5.542113c.227-.33183-.01-.78249-.412-.78249h-7.59c-.402 0-.639.45066-.412.78249z"/><path d="m602.014-1.03032c.198.29004.626.29004.825 0l3.675-5.36679c.227-.33183-.011-.78247-.413-.78247h-7.349c-.402 0-.64.45064-.413.78247z"/><path d="m581.972-1.11797c.199.290043.627.290043.826 0l3.554-5.19145c.227-.33183-.01-.78248-.413-.78248h-7.109c-.402 0-.639.45065-.412.78248z"/><path d="m561.931-1.14723c.199.290037.626.290037.825 0l3.515-5.13298c.227-.33184-.011-.78247-.413-.78247h-7.029c-.402 0-.64.45065-.413.78247z"/><path d="m541.889-1.26411c.199.290019.627.290019.826 0l3.354-4.8991c.227-.33182-.01-.78247-.413-.78247h-6.708c-.402 0-.64.45065-.413.78249z"/><path d="m521.848-1.3226c.199.29004.627.29004.825 0l3.274-4.78218c.228-.33182-.01-.78247-.412-.78247h-6.549c-.402 0-.64.45065-.412.78247z"/><path d="m501.807-1.38103c.198.29003.626.29003.825-.00001l3.194-4.66532c.227-.33183-.011-.78247-.413-.78247h-6.388c-.402 0-.64.45066-.413.78247z"/><path d="m481.765-1.38103c.199.29003.627.29003.825-.00001l3.194-4.66532c.228-.33183-.01-.78247-.412-.78247h-6.389c-.402 0-.639.45066-.412.78247z"/><path d="m461.724-1.38104c.198.29004.626.29004.825.00001l3.194-4.66533c.227-.33183-.011-.78247-.413-.78247h-6.388c-.402 0-.64.45064-.413.78247z"/><path d="m441.682-1.38103c.199.29003.627.29003.825-.00001l3.194-4.66532c.228-.33183-.01-.78247-.412-.78247h-6.389c-.402 0-.639.45066-.412.78247z"/><path d="m421.641-1.32259c.198.29003.626.29003.825 0l3.274-4.78219c.227-.33182-.01-.78247-.413-.78247h-6.548c-.402 0-.64.45065-.413.78247z"/><path d="m401.599-1.29338c.199.29002.627.29002.825 0l3.315-4.84067c.227-.33182-.011-.78247-.413-.78247h-6.629c-.402 0-.639.45065-.412.78247z"/><path d="m381.558-1.29338c.198.29002.626.29002.825 0l3.314-4.84067c.227-.33182-.01-.78247-.413-.78247h-6.628c-.402 0-.64.45065-.413.78247z"/><path d="m361.516-1.26411c.199.290019.627.290019.825 0l3.355-4.8991c.227-.33182-.011-.78247-.413-.78247h-6.709c-.402 0-.639.45065-.412.78249z"/><path d="m341.475-1.20569c.198.290025.626.290025.825 0l3.434-5.01599c.227-.33182-.01-.78247-.412-.78247h-6.869c-.402 0-.64.45065-.413.78247z"/><path d="m321.433-1.17644c.199.290042.627.290042.825 0l3.475-5.07451c.227-.33183-.011-.78247-.413-.78247h-6.949c-.402 0-.639.45066-.412.78247z"/><path d="m301.392-1.17644c.198.290042.626.290042.825 0l3.474-5.07451c.227-.33183-.01-.78247-.412-.78247h-6.949c-.402 0-.64.45066-.413.78247z"/><path d="m281.35-1.17644c.199.290042.627.290042.825 0l3.475-5.07451c.227-.33183-.011-.78247-.413-.78247h-6.949c-.402 0-.64.45066-.412.78247z"/><path d="m261.309-1.20569c.198.290025.626.290025.825 0l3.434-5.01599c.227-.33182-.01-.78247-.412-.78247h-6.869c-.402 0-.64.45065-.413.78247z"/><path d="m241.267-1.3226c.199.29004.627.29004.825 0l3.275-4.78218c.227-.33182-.011-.78247-.413-.78247h-6.548c-.403 0-.64.45065-.413.78247z"/><path d="m221.226-1.43945c.198.29004.626.29002.825-.00002l3.114-4.54841c.227-.33182-.01-.78248-.413-.78248h-6.228c-.402 0-.64.45066-.413.78249z"/><path d="m201.184-1.58565c.199.29003.627.29003.825-.00001l2.914-4.25611c.228-.33181-.01-.78247-.412-.78247h-5.828c-.403 0-.64.45066-.413.78249z"/><path d="m181.142-1.79025c.198.29002.626.29002.825 0l2.634-3.84693c.227-.33181-.011-.78247-.413-.78247h-5.268c-.402 0-.64.45066-.412.78249z"/><path d="m161.1-2.05333c.199.29004.627.29004.825 0l2.274-3.32077c.227-.33183-.011-.78247-.413-.78247h-4.547c-.402 0-.64.45064-.413.78247z"/><path d="m141.059-2.31641c.198.29003.626.29003.825 0l1.913-2.79467c.227-.33184-.01-.78247-.412-.78247h-3.827c-.402 0-.64.45063-.413.78247z"/><path d="m121.017-2.57947c.199.29004.627.29003.825 0l1.553-2.26851c.228-.33181-.01-.78247-.412-.78247h-3.107c-.402 0-.639.45066-.412.78249z"/><path d="m100.976-2.8717c.198.29003.626.29005.825.00001l1.153-1.68399c.227-.33183-.011-.78249-.413-.78249h-2.306c-.4019 0-.6395.45066-.4124.78248z"/><path d="m80.9341-3.16403c.1987.29004.6266.29004.8252 0l.7527-1.09937c.2272-.33183-.0104-.78248-.4125-.78248h-1.5055c-.4021 0-.6397.45063-.4125.78247z"/><path d="m60.8927-3.39781c.1985.29002.6265.29002.8251 0l.4326-.63179c.2272-.33182-.0104-.78247-.4125-.78247h-.8652c-.4022 0-.6398.45065-.4126.78247z"/><path d="m40.8512-3.63164c.1986.29004.6266.29006.8252.00002l.1123-.16411c.2273-.33183-.0104-.78249-.4125-.78249h-.2247c-.4022 0-.6398.45064-.4126.78247z"/><path d="m20.8479-3.72203c.1802.26318.5685.26318.7487 0 .2061-.3011-.0094-.71002-.3744-.71002-.3649 0-.5805.40892-.3743.71002z"/><path d="m.876099-3.7372c.146611.21424.462771.21424.609371 0 .16785-.24508-.00769-.57796-.30468-.57796-.297001 0-.472538.33288-.304691.57796z"/><path d="m1063.13-20.6484c.12.1776.38.1776.5 0 .14-.203 0-.4788-.25-.4788s-.39.2758-.25.4788z"/><path d="m1042.93-20.2683c.19.29.62.29.82 0l.47-.6902c.23-.3319-.01-.7825-.41-.7825h-.94c-.41 0-.64.4506-.42.7825z"/><path d="m1022.88-19.6837c.2.29.63.29.83 0l1.27-1.8594c.23-.3318-.01-.7825-.41-.7825h-2.55c-.4 0-.64.4507-.41.7825z"/><path d="m1002.84-19.1869c.2.2901.63.2901.83 0l1.95-2.8531c.23-.3318-.01-.7824-.41-.7824h-3.91c-.4 0-.64.4506-.41.7824z"/><path d="m982.802-18.7777c.198.2901.626.2901.825 0l2.514-3.6715c.227-.3318-.011-.7825-.413-.7825h-5.028c-.402 0-.639.4507-.412.7825z"/><path d="m962.76-18.3977c.199.29.627.29.825 0l3.035-4.4315c.227-.3318-.011-.7824-.413-.7824h-6.068c-.402 0-.64.4506-.413.7824z"/><path d="m942.719-18.1054c.198.29.626.29.825 0l3.434-5.016c.228-.3319-.01-.7825-.412-.7825h-6.869c-.402 0-.64.4506-.413.7825z"/><path d="m922.677-17.9008c.199.2901.627.2901.825 0l3.715-5.4252c.227-.3319-.01-.7825-.413-.7825h-7.429c-.402 0-.639.4506-.412.7825z"/><path d="m902.636-17.7546c.198.29.626.29.825 0l3.915-5.7176c.227-.3318-.011-.7824-.413-.7824h-7.829c-.402 0-.64.4506-.413.7824z"/><path d="m882.594-17.6378c.199.2901.627.2901.825 0l4.075-5.9513c.227-.3318-.01-.7825-.412-.7825h-8.15c-.402 0-.64.4507-.412.7825z"/><path d="m862.553-17.6086c.198.2901.626.2901.825 0l4.115-6.0098c.227-.3318-.011-.7824-.413-.7824h-8.229c-.402 0-.64.4506-.413.7824z"/><path d="m842.512-17.6086c.198.2901.626.2901.825 0l4.115-6.0098c.227-.3318-.011-.7824-.413-.7824h-8.23c-.402 0-.639.4506-.412.7824z"/><path d="m822.47-17.6086c.199.2901.627.2901.825 0l4.115-6.0098c.227-.3318-.01-.7824-.412-.7824h-8.23c-.402 0-.64.4506-.413.7824z"/><path d="m802.429-17.6086c.198.2901.626.2901.825 0l4.115-6.0098c.227-.3318-.011-.7824-.413-.7824h-8.23c-.402 0-.639.4506-.412.7824z"/><path d="m782.387-17.6086c.199.2901.627.2901.825 0l4.115-6.0098c.227-.3318-.01-.7824-.412-.7824h-8.23c-.402 0-.64.4506-.413.7824z"/><path d="m762.346-17.5793c.198.2901.626.2901.825 0l4.155-6.0682c.227-.3319-.011-.7825-.413-.7825h-8.31c-.402 0-.639.4506-.412.7825z"/><path d="m742.304-17.5793c.199.2901.627.2901.825 0l4.155-6.0682c.227-.3319-.01-.7825-.412-.7825h-8.31c-.402 0-.64.4506-.413.7825z"/><path d="m722.263-17.6086c.198.2901.626.2901.825 0l4.115-6.0098c.227-.3318-.011-.7824-.413-.7824h-8.23c-.402 0-.639.4506-.412.7824z"/><path d="m702.221-17.6086c.199.2901.627.2901.825 0l4.115-6.0098c.227-.3318-.01-.7824-.412-.7824h-8.23c-.402 0-.64.4506-.413.7824z"/><path d="m682.18-17.6378c.198.2901.626.2901.825 0l4.075-5.9513c.227-.3318-.011-.7825-.413-.7825h-8.149c-.403 0-.64.4507-.413.7825z"/><path d="m662.138-17.7254c.199.29.627.29.825 0l3.955-5.776c.227-.3319-.01-.7825-.412-.7825h-7.91c-.402 0-.64.4506-.412.7825z"/><path d="m642.097-17.7254c.198.29.626.29.825 0l3.955-5.776c.227-.3319-.011-.7825-.413-.7825h-7.909c-.403 0-.64.4506-.413.7825z"/><path d="m622.055-17.7546c.199.29.627.29.825 0l3.915-5.7176c.227-.3318-.01-.7824-.412-.7824h-7.83c-.402 0-.64.4506-.412.7824z"/><path d="m602.014-17.8131c.198.29.626.29.825 0l3.835-5.6006c.227-.3319-.011-.7825-.413-.7825h-7.669c-.402 0-.64.4506-.413.7825z"/><path d="m581.972-17.8716c.199.29.627.29.826 0l3.754-5.4837c.227-.3318-.01-.7825-.412-.7825h-7.51c-.402 0-.639.4507-.412.7825z"/><path d="m561.931-17.9008c.199.2901.626.2901.825 0l3.715-5.4252c.227-.3319-.011-.7825-.413-.7825h-7.429c-.402 0-.64.4506-.413.7825z"/><path d="m541.889-17.9593c.199.2901.627.2901.826 0l3.634-5.3083c.227-.3318-.01-.7824-.412-.7824h-7.27c-.402 0-.639.4506-.412.7824z"/><path d="m521.848-17.9885c.199.29.627.29.825 0l3.595-5.2499c.227-.3318-.011-.7825-.413-.7825h-7.189c-.402 0-.64.4507-.413.7825z"/><path d="m501.807-18.0177c.198.29.626.29.825 0l3.554-5.1914c.227-.3319-.01-.7825-.413-.7825h-7.108c-.403 0-.64.4506-.413.7825z"/><path d="m481.765-18.047c.199.29.627.29.825 0l3.515-5.133c.227-.3318-.011-.7825-.413-.7825h-7.029c-.402 0-.64.4507-.412.7825z"/><path d="m461.724-18.0177c.198.29.626.29.825 0l3.554-5.1914c.227-.3319-.01-.7825-.412-.7825h-7.109c-.403 0-.64.4506-.413.7825z"/><path d="m441.682-18.047c.199.29.627.29.825 0l3.515-5.133c.227-.3318-.011-.7825-.413-.7825h-7.029c-.402 0-.64.4507-.412.7825z"/><path d="m421.641-18.0177c.198.29.626.29.825 0l3.554-5.1914c.227-.3319-.01-.7825-.412-.7825h-7.109c-.403 0-.64.4506-.413.7825z"/><path d="m401.599-17.9885c.199.29.627.29.825 0l3.595-5.2499c.227-.3318-.011-.7825-.413-.7825h-7.189c-.402 0-.64.4507-.412.7825z"/><path d="m381.558-17.93c.198.29.626.29.825 0l3.674-5.3668c.227-.3319-.01-.7825-.412-.7825h-7.349c-.403 0-.64.4506-.413.7825z"/><path d="m361.516-17.93c.199.29.627.29.825 0l3.675-5.3668c.227-.3319-.011-.7825-.413-.7825h-7.349c-.402 0-.64.4506-.413.7825z"/><path d="m341.475-17.9008c.198.2901.626.2901.825 0l3.714-5.4252c.228-.3319-.01-.7825-.412-.7825h-7.429c-.403 0-.64.4506-.413.7825z"/><path d="m321.433-17.8716c.199.29.627.29.825 0l3.755-5.4837c.227-.3318-.011-.7825-.413-.7825h-7.509c-.402 0-.64.4507-.412.7825z"/><path d="m301.392-17.8424c.198.2901.626.2901.825 0l3.794-5.5421c.228-.3318-.01-.7824-.412-.7824h-7.589c-.403 0-.64.4506-.413.7824z"/><path d="m281.35-17.8716c.199.29.627.29.825 0l3.755-5.4837c.227-.3318-.011-.7825-.413-.7825h-7.509c-.402 0-.64.4507-.412.7825z"/><path d="m261.309-17.9008c.198.2901.626.2901.825 0l3.714-5.4252c.228-.3319-.01-.7825-.412-.7825h-7.429c-.403 0-.64.4506-.413.7825z"/><path d="m241.267-17.9592c.199.29.627.29.825 0l3.635-5.3084c.227-.3318-.011-.7824-.413-.7824h-7.269c-.402 0-.64.4506-.412.7824z"/><path d="m221.226-18.047c.198.29.626.29.825 0l3.514-5.133c.227-.3318-.01-.7825-.412-.7825h-7.029c-.402 0-.64.4507-.413.7825z"/><path d="m201.184-18.2223c.199.29.627.29.825 0l3.275-4.7822c.227-.3318-.011-.7825-.413-.7825h-6.549c-.402 0-.639.4507-.412.7825z"/><path d="m181.142-18.427c.198.2901.626.2901.825 0l2.994-4.3729c.227-.3318-.011-.7825-.413-.7825h-5.988c-.402 0-.64.4507-.413.7825z"/><path d="m161.1-18.6607c.199.29.627.29.825 0l2.674-3.9054c.227-.3318-.01-.7825-.412-.7825h-5.348c-.402 0-.64.4507-.413.7825z"/><path d="m141.059-18.9238c.198.29.626.29.825 0l2.313-3.3792c.228-.3319-.01-.7825-.412-.7825h-4.628c-.402 0-.639.4506-.412.7825z"/><path d="m121.017-19.2453c.199.2901.627.2901.825 0l1.874-2.7362c.227-.3319-.011-.7825-.413-.7825h-3.747c-.402 0-.64.4506-.412.7825z"/><path d="m100.976-19.5376c.198.29.626.29.825 0l1.473-2.1517c.227-.3318-.01-.7824-.413-.7824h-2.946c-.4021 0-.6397.4506-.4126.7824z"/><path d="m80.9341-19.8592c.1987.2901.6266.2901.8252 0l1.0329-1.5086c.2272-.3318-.0104-.7824-.4126-.7824h-2.0658c-.4021 0-.6397.4506-.4125.7824z"/><path d="m60.8927-20.2099c.1985.2901.6265.2901.8251 0l.5526-.8071c.2272-.3318-.0104-.7825-.4126-.7825h-1.1052c-.4021 0-.6397.4507-.4126.7825z"/><path d="m40.8512-20.5022c.1986.2901.6266.2901.8252 0l.1523-.2225c.2272-.3319-.0103-.7825-.4126-.7825h-.3046c-.4023 0-.6398.4506-.4126.7825z"/><path d="m20.8827-20.6294c.1634.2387.5156.2388.6791.0001.187-.2731-.0086-.644-.3395-.644s-.5265.3708-.3396.6439z"/><path d="m.945679-20.6521c.113161.1652.357051.1652.470211 0 .1294-.1891-.00598-.4459-.2351-.4459-.22913 0-.364506.2568-.235111.4459z"/><path d="m1063.16-37.5557c.11.153.33.153.44 0 .12-.1751-.01-.4128-.22-.4128s-.34.2377-.22.4128z"/><path d="m1042.93-37.2265c.19.29.62.29.82 0l.39-.5733c.23-.3319-.01-.7825-.41-.7825h-.78c-.41 0-.64.4506-.42.7825z"/><path d="m1022.88-36.6127c.2.29.63.29.83 0l1.23-1.8008c.23-.3319-.01-.7825-.41-.7825h-2.47c-.4 0-.64.4506-.41.7825z"/><path d="m1002.84-36.1158c.2.29.63.29.83 0l1.91-2.7947c.23-.3319-.01-.7825-.41-.7825h-3.83c-.4 0-.64.4506-.41.7825z"/><path d="m982.802-35.6774c.198.29.626.29.825 0l2.514-3.6715c.227-.3319-.011-.7825-.413-.7825h-5.028c-.402 0-.639.4506-.412.7825z"/><path d="m962.76-35.3267c.199.29.627.29.825 0l2.995-4.3729c.227-.3319-.011-.7825-.413-.7825h-5.988c-.402 0-.64.4506-.413.7825z"/><path d="m942.719-35.0344c.198.29.626.29.825 0l3.394-4.9575c.227-.3319-.01-.7825-.412-.7825h-6.789c-.402 0-.64.4506-.413.7825z"/><path d="m922.677-34.8298c.199.29.627.29.825 0l3.675-5.3668c.227-.3318-.01-.7824-.413-.7824h-7.349c-.402 0-.639.4506-.412.7824z"/><path d="m902.636-34.6252c.198.2901.626.2901.825 0l3.955-5.776c.227-.3318-.011-.7825-.413-.7825h-7.909c-.402 0-.64.4507-.413.7825z"/><path d="m882.594-34.5667c.199.29.627.29.825-.0001l4.035-5.8929c.227-.3318-.01-.7825-.412-.7825h-8.07c-.402 0-.64.4507-.412.7825z"/><path d="m862.553-34.5083c.198.2901.626.2901.825 0l4.115-6.0098c.227-.3318-.011-.7825-.413-.7825h-8.229c-.402 0-.64.4507-.413.7825z"/><path d="m842.512-34.479c.198.29.626.29.825 0l4.155-6.0682c.227-.3319-.011-.7825-.413-.7825h-8.31c-.402 0-.639.4506-.412.7825z"/><path d="m822.47-34.5083c.199.2901.627.2901.825 0l4.115-6.0098c.227-.3318-.01-.7825-.412-.7825h-8.23c-.402 0-.64.4507-.413.7825z"/><path d="m802.429-34.5083c.198.2901.626.2901.825 0l4.115-6.0098c.227-.3318-.011-.7825-.413-.7825h-8.23c-.402 0-.639.4507-.412.7825z"/><path d="m782.387-34.5083c.199.2901.627.2901.825 0l4.115-6.0098c.227-.3318-.01-.7825-.412-.7825h-8.23c-.402 0-.64.4507-.413.7825z"/><path d="m762.346-34.5083c.198.2901.626.2901.825 0l4.115-6.0098c.227-.3318-.011-.7825-.413-.7825h-8.23c-.402 0-.639.4507-.412.7825z"/><path d="m742.304-34.5083c.199.2901.627.2901.825 0l4.115-6.0098c.227-.3318-.01-.7825-.412-.7825h-8.23c-.402 0-.64.4507-.413.7825z"/><path d="m722.263-34.5083c.198.2901.626.2901.825 0l4.115-6.0098c.227-.3318-.011-.7825-.413-.7825h-8.23c-.402 0-.639.4507-.412.7825z"/><path d="m702.221-34.5083c.199.2901.627.2901.825 0l4.115-6.0098c.227-.3318-.01-.7825-.412-.7825h-8.23c-.402 0-.64.4507-.413.7825z"/><path d="m682.18-34.5083c.198.2901.626.2901.825 0l4.115-6.0098c.227-.3318-.011-.7825-.413-.7825h-8.229c-.403 0-.64.4507-.413.7825z"/><path d="m662.138-34.5375c.199.29.627.29.825 0l4.075-5.9513c.227-.3318-.01-.7825-.412-.7825h-8.15c-.402 0-.64.4507-.412.7825z"/><path d="m642.097-34.5668c.198.2901.626.2901.825 0l4.035-5.8929c.227-.3318-.011-.7825-.413-.7825h-8.069c-.403 0-.64.4507-.413.7825z"/><path d="m622.055-34.6252c.199.2901.627.2901.825 0l3.955-5.776c.227-.3318-.01-.7825-.412-.7825h-7.91c-.402 0-.64.4507-.412.7825z"/><path d="m602.014-34.6252c.198.2901.626.2901.825 0l3.955-5.776c.227-.3318-.011-.7825-.413-.7825h-7.909c-.402 0-.64.4507-.413.7825z"/><path d="m581.972-34.6543c.199.29.627.29.826 0l3.914-5.7176c.227-.3319-.01-.7825-.412-.7825h-7.83c-.402 0-.639.4506-.412.7825z"/><path d="m561.931-34.6836c.199.29.626.29.825 0l3.875-5.6591c.227-.3318-.011-.7825-.413-.7825h-7.749c-.402 0-.64.4507-.413.7825z"/><path d="m541.889-34.7129c.199.2901.627.2901.826 0l3.834-5.6005c.227-.3319-.01-.7825-.412-.7825h-7.67c-.402 0-.639.4506-.412.7825z"/><path d="m521.848-34.7129c.199.2901.627.2901.825 0l3.835-5.6005c.227-.3319-.011-.7825-.413-.7825h-7.669c-.402 0-.64.4506-.413.7825z"/><path d="m501.807-34.7421c.198.2901.626.2901.825 0l3.794-5.5421c.227-.3318-.01-.7825-.412-.7825h-7.59c-.402 0-.639.4507-.412.7825z"/><path d="m481.765-34.7421c.199.2901.627.2901.825 0l3.795-5.5421c.227-.3318-.011-.7825-.413-.7825h-7.589c-.402 0-.64.4507-.413.7825z"/><path d="m461.724-34.7421c.198.2901.626.2901.825 0l3.794-5.5421c.227-.3318-.01-.7825-.412-.7825h-7.59c-.402 0-.639.4507-.412.7825z"/><path d="m441.682-34.7129c.199.2901.627.2901.825 0l3.835-5.6005c.227-.3319-.011-.7825-.413-.7825h-7.669c-.402 0-.64.4506-.413.7825z"/><path d="m421.641-34.7129c.198.2901.626.2901.825 0l3.834-5.6005c.228-.3319-.01-.7825-.412-.7825h-7.669c-.403 0-.64.4506-.413.7825z"/><path d="m401.599-34.6836c.199.29.627.29.825 0l3.875-5.6591c.227-.3318-.011-.7825-.413-.7825h-7.749c-.402 0-.64.4507-.413.7825z"/><path d="m381.558-34.6836c.198.29.626.29.825 0l3.874-5.6591c.228-.3318-.01-.7825-.412-.7825h-7.75c-.402 0-.639.4507-.412.7825z"/><path d="m361.516-34.6543c.199.29.627.29.825 0l3.915-5.7176c.227-.3319-.011-.7825-.413-.7825h-7.829c-.402 0-.64.4506-.413.7825z"/><path d="m341.475-34.6252c.198.2901.626.2901.825 0l3.954-5.776c.228-.3318-.01-.7825-.412-.7825h-7.91c-.402 0-.639.4507-.412.7825z"/><path d="m321.433-34.6252c.199.2901.627.2901.825 0l3.955-5.776c.227-.3318-.01-.7825-.413-.7825h-7.909c-.402 0-.64.4507-.413.7825z"/><path d="m301.392-34.5959c.198.29.626.29.825 0l3.994-5.8345c.228-.3318-.01-.7825-.412-.7825h-7.99c-.402 0-.639.4507-.412.7825z"/><path d="m281.35-34.5959c.199.29.627.29.825 0l3.995-5.8345c.227-.3318-.01-.7825-.412-.7825h-7.99c-.402 0-.64.4507-.413.7825z"/><path d="m261.309-34.6543c.198.29.626.29.825 0l3.915-5.7176c.227-.3319-.011-.7825-.413-.7825h-7.829c-.403 0-.64.4506-.413.7825z"/><path d="m241.267-34.7129c.199.2901.627.2901.825 0l3.835-5.6005c.227-.3319-.01-.7825-.413-.7825h-7.669c-.402 0-.64.4506-.412.7825z"/><path d="m221.226-34.8005c.198.29.626.29.825 0l3.714-5.4253c.228-.3318-.01-.7824-.412-.7824h-7.429c-.402 0-.64.4506-.413.7824z"/><path d="m201.184-34.8882c.199.29.627.29.825 0l3.595-5.2499c.227-.3319-.011-.7825-.413-.7825h-7.189c-.402 0-.64.4507-.412.7825z"/><path d="m181.142-35.0928c.198.29.626.29.825 0l3.314-4.8407c.227-.3319-.01-.7825-.412-.7825h-6.629c-.402 0-.64.4506-.413.7825z"/><path d="m161.1-35.3267c.199.29.627.29.825 0l2.994-4.3729c.228-.3319-.01-.7825-.412-.7825h-5.988c-.403 0-.64.4506-.413.7825z"/><path d="m141.059-35.6189c.198.2901.626.2901.825 0l2.594-3.7884c.227-.3319-.011-.7825-.413-.7825h-5.188c-.402 0-.639.4506-.412.7825z"/><path d="m121.017-35.9404c.199.29.627.29.825 0l2.154-3.1455c.227-.3318-.01-.7825-.413-.7825h-4.307c-.402 0-.64.4507-.413.7825z"/><path d="m100.976-36.262c.198.2901.626.2901.825 0l1.713-2.5024c.227-.3318-.01-.7824-.412-.7824h-3.4271c-.4022 0-.6398.4506-.4126.7824z"/><path d="m80.9341-36.642c.1987.2901.6266.2901.8252 0l1.193-1.7424c.2272-.3318-.0104-.7825-.4126-.7825h-2.386c-.4021 0-.6397.4507-.4126.7825z"/><path d="m60.8927-36.9926c.1985.29.6265.29.8251 0l.7127-1.041c.2273-.3318-.0103-.7825-.4125-.7825h-1.4255c-.4021 0-.6397.4507-.4126.7825z"/><path d="m40.8512-37.3434c.1986.29.6266.29.8252 0l.2324-.3395c.2272-.3318-.0104-.7824-.4126-.7824h-.4648c-.4022 0-.6398.4506-.4126.7824z"/><path d="m20.9001-37.533c.1551.2265.4892.2265.6443.0001.1774-.2591-.0081-.611-.3221-.611-.3141 0-.4995.3518-.3222.6109z"/><path d="m1.03284-37.5708c.07116.104.22473.104.2959 0 .08154-.119-.00367-.2807-.14795-.2807-.14429 0-.229496.1616-.14795.2807z"/><path d="m1063.21-54.4668c.08.1163.26.1163.34 0 .09-.133-.01-.3137-.17-.3137s-.26.1807-.17.3137z"/><path d="m1042.93-54.1847c.19.29.62.29.82 0l.31-.4564c.23-.3318-.01-.7825-.41-.7825h-.62c-.41 0-.64.4507-.42.7825z"/><path d="m1022.88-53.6294c.2.2901.63.2901.83 0l1.07-1.5671c.23-.3318-.01-.7824-.41-.7824h-2.15c-.4 0-.64.4506-.41.7824z"/><path d="m1002.84-53.1033c.2.29.63.29.83 0l1.79-2.6192c.23-.3318-.01-.7825-.41-.7825h-3.59c-.4 0-.64.4507-.41.7825z"/><path d="m982.802-52.6648c.198.29.626.29.825 0l2.394-3.4962c.227-.3318-.011-.7825-.413-.7825h-4.787c-.403 0-.64.4507-.413.7825z"/><path d="m962.76-52.2849c.199.2901.627.2901.825 0l2.914-4.2561c.228-.3318-.01-.7825-.412-.7825h-5.828c-.402 0-.64.4507-.413.7825z"/><path d="m942.719-51.9926c.198.2901.626.2901.825 0l3.314-4.8406c.227-.3318-.01-.7825-.412-.7825h-6.629c-.402 0-.64.4507-.413.7825z"/><path d="m922.677-51.7295c.199.29.627.29.825 0l3.675-5.3668c.227-.3318-.01-.7825-.413-.7825h-7.349c-.402 0-.639.4507-.412.7825z"/><path d="m902.636-51.5833c.198.29.626.29.825 0l3.875-5.6591c.227-.3319-.011-.7825-.413-.7825h-7.749c-.402 0-.64.4506-.413.7825z"/><path d="m882.594-51.4957c.199.29.627.29.825 0l3.995-5.8344c.227-.3319-.01-.7825-.412-.7825h-7.99c-.402 0-.64.4506-.412.7825z"/><path d="m862.553-51.4373c.198.2901.626.2901.825 0l4.075-5.9512c.227-.3319-.011-.7825-.413-.7825h-8.149c-.402 0-.64.4506-.413.7825z"/><path d="m842.512-51.408c.198.29.626.29.825 0l4.115-6.0098c.227-.3318-.011-.7825-.413-.7825h-8.23c-.402 0-.639.4507-.412.7825z"/><path d="m822.47-51.3787c.199.29.627.29.825 0l4.155-6.0684c.227-.3318-.01-.7825-.412-.7825h-8.31c-.402 0-.64.4507-.413.7825z"/><path d="m802.429-51.408c.198.29.626.29.825 0l4.115-6.0098c.227-.3318-.011-.7825-.413-.7825h-8.23c-.402 0-.639.4507-.412.7825z"/><path d="m782.387-51.4373c.199.2901.627.2901.825 0l4.075-5.9512c.227-.3319-.01-.7825-.412-.7825h-8.15c-.402 0-.64.4506-.413.7825z"/><path d="m762.346-51.408c.198.29.626.29.825 0l4.115-6.0098c.227-.3318-.011-.7825-.413-.7825h-8.23c-.402 0-.639.4507-.412.7825z"/><path d="m742.304-51.408c.199.29.627.29.825 0l4.115-6.0098c.227-.3318-.01-.7825-.412-.7825h-8.23c-.402 0-.64.4507-.413.7825z"/><path d="m722.263-51.408c.198.29.626.29.825 0l4.115-6.0098c.227-.3318-.011-.7825-.413-.7825h-8.23c-.402 0-.639.4507-.412.7825z"/><path d="m702.221-51.4373c.199.2901.627.2901.825 0l4.075-5.9512c.227-.3319-.01-.7825-.412-.7825h-8.15c-.402 0-.64.4506-.413.7825z"/><path d="m682.18-51.4373c.198.2901.626.2901.825 0l4.075-5.9512c.227-.3319-.011-.7825-.413-.7825h-8.149c-.403 0-.64.4506-.413.7825z"/><path d="m662.138-51.408c.199.29.627.29.825 0l4.115-6.0098c.227-.3318-.01-.7825-.412-.7825h-8.23c-.402 0-.64.4507-.413.7825z"/><path d="m642.097-51.4665c.198.2901.626.2901.825 0l4.035-5.8929c.227-.3318-.011-.7825-.413-.7825h-8.069c-.403 0-.64.4507-.413.7825z"/><path d="m622.055-51.4665c.199.2901.627.2901.825 0l4.035-5.8929c.227-.3318-.01-.7825-.412-.7825h-8.07c-.402 0-.64.4507-.412.7825z"/><path d="m602.014-51.4665c.198.2901.626.2901.825 0l4.035-5.8929c.227-.3318-.011-.7825-.413-.7825h-8.069c-.402 0-.64.4507-.413.7825z"/><path d="m581.972-51.5249c.199.29.627.29.826 0l3.954-5.776c.227-.3319-.01-.7825-.412-.7825h-7.91c-.402 0-.64.4506-.412.7825z"/><path d="m561.931-51.5249c.199.29.626.29.825 0l3.955-5.776c.227-.3319-.011-.7825-.413-.7825h-7.909c-.402 0-.64.4506-.413.7825z"/><path d="m541.889-51.5249c.199.29.627.29.826 0l3.954-5.776c.227-.3319-.01-.7825-.412-.7825h-7.91c-.402 0-.639.4506-.412.7825z"/><path d="m521.848-51.5249c.199.29.627.29.825 0l3.955-5.776c.227-.3319-.011-.7825-.413-.7825h-7.909c-.402 0-.64.4506-.413.7825z"/><path d="m501.807-51.5542c.198.2901.626.2901.825 0l3.914-5.7174c.227-.3319-.01-.7825-.412-.7825h-7.83c-.402 0-.639.4506-.412.7825z"/><path d="m481.765-51.5541c.199.29.627.29.825-.0001l3.915-5.7174c.227-.3319-.011-.7825-.413-.7825h-7.829c-.402 0-.64.4506-.413.7825z"/><path d="m461.724-51.5542c.198.2901.626.2901.825 0l3.914-5.7174c.227-.3319-.01-.7825-.412-.7825h-7.83c-.402 0-.639.4506-.412.7825z"/><path d="m441.682-51.4957c.199.29.627.29.825 0l3.995-5.8344c.227-.3319-.01-.7825-.413-.7825h-7.989c-.402 0-.64.4506-.413.7825z"/><path d="m421.641-51.5249c.198.29.626.29.825 0l3.954-5.776c.228-.3319-.01-.7825-.412-.7825h-7.91c-.402 0-.639.4506-.412.7825z"/><path d="m401.599-51.4957c.199.29.627.29.825 0l3.995-5.8344c.227-.3319-.01-.7825-.413-.7825h-7.989c-.402 0-.64.4506-.413.7825z"/><path d="m381.558-51.4665c.198.2901.626.2901.825 0l4.034-5.8929c.228-.3318-.01-.7825-.412-.7825h-8.07c-.402 0-.639.4507-.412.7825z"/><path d="m361.516-51.4665c.199.2901.627.2901.825 0l4.035-5.8929c.227-.3318-.01-.7825-.412-.7825h-8.07c-.402 0-.64.4507-.413.7825z"/><path d="m341.475-51.4665c.198.2901.626.2901.825 0l4.035-5.8929c.227-.3318-.011-.7825-.413-.7825h-8.07c-.402 0-.639.4507-.412.7825z"/><path d="m321.433-51.4372c.199.29.627.29.825 0l4.075-5.9513c.227-.3319-.01-.7825-.412-.7825h-8.15c-.402 0-.64.4506-.413.7825z"/><path d="m301.392-51.408c.198.29.626.29.825 0l4.115-6.0098c.227-.3318-.011-.7825-.413-.7825h-8.23c-.402 0-.639.4507-.412.7825z"/><path d="m281.35-51.4373c.199.2901.627.2901.825 0l4.075-5.9512c.227-.3319-.01-.7825-.412-.7825h-8.15c-.402 0-.64.4506-.413.7825z"/><path d="m261.309-51.4665c.198.2901.626.2901.825 0l4.035-5.8929c.227-.3318-.011-.7825-.413-.7825h-8.07c-.402 0-.639.4507-.412.7825z"/><path d="m241.267-51.4665c.199.2901.627.2901.825 0l4.035-5.8929c.227-.3318-.01-.7825-.412-.7825h-8.07c-.402 0-.64.4507-.413.7825z"/><path d="m221.226-51.5833c.198.29.626.29.825 0l3.874-5.6591c.228-.3319-.01-.7825-.412-.7825h-7.749c-.403 0-.64.4506-.413.7825z"/><path d="m201.184-51.6711c.199.2901.627.2901.825 0l3.755-5.4837c.227-.3318-.01-.7824-.413-.7824h-7.509c-.402 0-.64.4506-.412.7824z"/><path d="m181.142-51.8172c.198.29.626.29.825 0l3.554-5.1914c.227-.3318-.01-.7824-.412-.7824h-7.109c-.402 0-.64.4506-.413.7824z"/><path d="m161.1-52.0803c.199.29.627.29.825 0l3.195-4.6652c.227-.3318-.011-.7825-.413-.7825h-6.389c-.402 0-.639.4507-.412.7825z"/><path d="m141.059-52.3433c.198.2901.626.2901.825 0l2.834-4.1392c.227-.3319-.011-.7825-.413-.7825h-5.668c-.402 0-.64.4506-.412.7825z"/><path d="m121.017-52.6356c.199.29.627.29.825 0l2.434-3.5546c.227-.3318-.01-.7825-.413-.7825h-4.867c-.402 0-.64.4507-.413.7825z"/><path d="m100.976-53.0156c.198.29.626.29.825 0l1.913-2.7946c.227-.3319-.01-.7825-.412-.7825h-3.8272c-.4021 0-.6397.4506-.4125.7824z"/><path d="m80.9341-53.3955c.1987.29.6266.29.8252 0l1.3932-2.0348c.2271-.3318-.0104-.7824-.4126-.7824h-2.7863c-.4021 0-.6398.4506-.4126.7824z"/><path d="m60.8927-53.8047c.1985.29.6265.29.8251 0l.8328-1.2163c.2272-.3319-.0104-.7825-.4126-.7825h-1.6655c-.4022 0-.6398.4506-.4126.7825z"/><path d="m40.8512-54.2139c.1986.29.6266.29.8252 0l.2725-.398c.2271-.3318-.0105-.7824-.4126-.7824h-.545c-.4022 0-.6397.4506-.4126.7824z"/><path d="m20.9524-54.444c.1299.1898.4098.1898.5397.0001.1486-.2171-.0067-.5119-.2698-.5119s-.4186.2948-.2699.5118z"/><path d="m1.09998-54.4853c.03894.0568.12268.0568.16149 0 .04444-.0649-.00195-.1531-.08068-.1531-.07874 0-.12525.0882-.08081.1531z"/><path d="m1063.3-71.385c.04.0568.12.0568.16 0 .05-.065 0-.1531-.08-.1531s-.12.0881-.08.1531z"/><path d="m1042.93-71.2306c.19.29.62.29.82 0l.11-.164c.23-.3318-.01-.7825-.41-.7825h-.22c-.41 0-.64.4507-.42.7825z"/><path d="m1022.88-70.646c.2.29.63.29.83 0l.91-1.3332c.23-.3319-.01-.7825-.41-.7825h-1.83c-.4 0-.64.4506-.41.7825z"/><path d="m1002.84-70.1491c.2.29.63.29.83 0l1.59-2.3271c.23-.3318-.01-.7824-.41-.7824h-3.19c-.4 0-.64.4506-.41.7824z"/><path d="m982.802-69.6815c.198.2901.626.2901.825 0l2.234-3.2623c.227-.3318-.011-.7825-.413-.7825h-4.467c-.402 0-.64.4507-.413.7825z"/><path d="m962.76-69.3015c.199.29.627.29.825 0l2.754-4.0222c.228-.3319-.01-.7825-.412-.7825h-5.508c-.402 0-.64.4506-.413.7825z"/><path d="m942.719-68.98c.198.29.626.29.825 0l3.194-4.6652c.227-.3319-.01-.7825-.412-.7825h-6.389c-.402 0-.64.4506-.412.7825z"/><path d="m922.677-68.6877c.199.2901.627.2901.825 0l3.595-5.2499c.227-.3318-.01-.7824-.413-.7824h-7.189c-.402 0-.639.4506-.412.7824z"/><path d="m902.636-68.5415c.198.29.626.29.825 0l3.795-5.5422c.227-.3319-.011-.7825-.413-.7825h-7.589c-.402 0-.64.4506-.413.7825z"/><path d="m882.594-68.3954c.199.29.627.29.825 0l3.995-5.8345c.227-.3318-.01-.7824-.412-.7824h-7.99c-.402 0-.64.4506-.412.7824z"/><path d="m862.553-68.3662c.198.29.626.29.825 0l4.035-5.8929c.227-.3318-.011-.7825-.413-.7825h-8.069c-.402 0-.64.4507-.413.7825z"/><path d="m842.512-68.337c.198.2901.626.2901.825 0l4.075-5.9513c.227-.3318-.011-.7824-.413-.7824h-8.15c-.402 0-.639.4506-.412.7824z"/><path d="m822.47-68.337c.199.2901.627.2901.825 0l4.075-5.9513c.227-.3318-.01-.7824-.412-.7824h-8.15c-.402 0-.64.4506-.413.7824z"/><path d="m802.429-68.3077c.198.29.626.29.825 0l4.115-6.0098c.227-.3319-.011-.7825-.413-.7825h-8.23c-.402 0-.639.4506-.412.7825z"/><path d="m782.387-68.3077c.199.29.627.29.825 0l4.115-6.0098c.227-.3319-.01-.7825-.412-.7825h-8.23c-.402 0-.64.4506-.413.7825z"/><path d="m762.346-68.3077c.198.29.626.29.825 0l4.115-6.0098c.227-.3319-.011-.7825-.413-.7825h-8.23c-.402 0-.639.4506-.412.7825z"/><path d="m742.304-68.3662c.199.2901.627.2901.825 0l4.035-5.8929c.227-.3318-.01-.7825-.412-.7825h-8.07c-.402 0-.64.4507-.412.7825z"/><path d="m722.263-68.3077c.198.29.626.29.825 0l4.115-6.0098c.227-.3319-.011-.7825-.413-.7825h-8.23c-.402 0-.639.4506-.412.7825z"/><path d="m702.221-68.3077c.199.29.627.29.825 0l4.115-6.0098c.227-.3319-.01-.7825-.412-.7825h-8.23c-.402 0-.64.4506-.413.7825z"/><path d="m682.18-68.337c.198.2901.626.2901.825 0l4.075-5.9513c.227-.3318-.011-.7824-.413-.7824h-8.149c-.403 0-.64.4506-.413.7824z"/><path d="m662.138-68.3662c.199.2901.627.2901.825 0l4.035-5.8929c.227-.3318-.01-.7825-.412-.7825h-8.07c-.402 0-.64.4507-.412.7825z"/><path d="m642.097-68.3662c.198.2901.626.2901.825 0l4.035-5.8929c.227-.3318-.011-.7825-.413-.7825h-8.069c-.403 0-.64.4507-.413.7825z"/><path d="m622.055-68.3954c.199.29.627.29.825 0l3.995-5.8345c.227-.3318-.01-.7824-.412-.7824h-7.99c-.402 0-.64.4506-.412.7824z"/><path d="m602.014-68.3954c.198.29.626.29.825 0l3.995-5.8345c.227-.3318-.011-.7824-.413-.7824h-7.989c-.402 0-.64.4506-.413.7824z"/><path d="m581.972-68.3954c.199.29.627.29.826 0l3.994-5.8345c.227-.3318-.01-.7824-.412-.7824h-7.99c-.402 0-.64.4506-.412.7824z"/><path d="m561.931-68.3662c.199.2901.626.2901.825 0l4.035-5.8929c.227-.3318-.011-.7825-.413-.7825h-8.069c-.402 0-.64.4507-.413.7825z"/><path d="m541.889-68.3954c.199.29.627.29.826 0l3.994-5.8345c.228-.3318-.01-.7824-.412-.7824h-7.99c-.402 0-.64.4506-.412.7824z"/><path d="m521.848-68.3954c.199.29.627.29.825 0l3.995-5.8345c.227-.3318-.011-.7824-.413-.7824h-7.989c-.402 0-.64.4506-.413.7824z"/><path d="m501.807-68.3662c.198.2901.626.2901.825 0l4.034-5.8929c.228-.3318-.01-.7825-.412-.7825h-8.07c-.402 0-.639.4507-.412.7825z"/><path d="m481.765-68.3662c.199.2901.627.2901.825 0l4.035-5.8929c.227-.3318-.01-.7825-.413-.7825h-8.069c-.402 0-.64.4507-.413.7825z"/><path d="m461.724-68.3954c.198.29.626.29.825 0l3.994-5.8345c.228-.3318-.01-.7824-.412-.7824h-7.99c-.402 0-.639.4506-.412.7824z"/><path d="m441.682-68.3662c.199.2901.627.2901.825 0l4.035-5.8929c.227-.3318-.01-.7825-.413-.7825h-8.069c-.402 0-.64.4507-.413.7825z"/><path d="m421.641-68.337c.198.2901.626.2901.825 0l4.074-5.9513c.228-.3318-.01-.7824-.412-.7824h-8.15c-.402 0-.639.4506-.412.7824z"/><path d="m401.599-68.337c.199.2901.627.2901.825 0l4.075-5.9513c.227-.3318-.01-.7824-.413-.7824h-8.149c-.402 0-.64.4506-.413.7824z"/><path d="m381.558-68.3077c.198.29.626.29.825 0l4.114-6.0098c.228-.3319-.01-.7825-.412-.7825h-8.23c-.402 0-.639.4506-.412.7825z"/><path d="m361.516-68.3077c.199.29.627.29.825 0l4.115-6.0098c.227-.3319-.01-.7825-.412-.7825h-8.23c-.402 0-.64.4506-.413.7825z"/><path d="m341.475-68.3077c.198.29.626.29.825 0l4.115-6.0098c.227-.3319-.011-.7825-.413-.7825h-8.23c-.402 0-.639.4506-.412.7825z"/><path d="m321.433-68.3077c.199.29.627.29.825 0l4.115-6.0098c.227-.3319-.01-.7825-.412-.7825h-8.23c-.402 0-.64.4506-.413.7825z"/><path d="m301.392-68.3077c.198.29.626.29.825 0l4.115-6.0098c.227-.3319-.011-.7825-.413-.7825h-8.23c-.402 0-.639.4506-.412.7825z"/><path d="m281.35-68.3077c.199.29.627.29.825 0l4.115-6.0098c.227-.3319-.01-.7825-.412-.7825h-8.23c-.402 0-.64.4506-.413.7825z"/><path d="m261.309-68.337c.198.2901.626.2901.825 0l4.075-5.9513c.227-.3318-.011-.7824-.413-.7824h-8.15c-.402 0-.639.4506-.412.7824z"/><path d="m241.267-68.3662c.199.2901.627.2901.825 0l4.035-5.8929c.227-.3318-.01-.7825-.412-.7825h-8.07c-.402 0-.64.4507-.413.7825z"/><path d="m221.226-68.3662c.198.2901.626.2901.825 0l4.035-5.8929c.227-.3318-.011-.7825-.413-.7825h-8.07c-.402 0-.639.4507-.412.7825z"/><path d="m201.184-68.483c.199.29.627.29.825 0l3.875-5.6592c.227-.3318-.01-.7824-.413-.7824h-7.749c-.402 0-.64.4506-.413.7824z"/><path d="m181.142-68.6292c.198.29.626.29.825 0l3.674-5.3668c.227-.3318-.01-.7825-.412-.7825h-7.349c-.402 0-.64.4507-.413.7825z"/><path d="m161.1-68.8339c.199.2901.627.2901.825 0l3.395-4.9575c.227-.3318-.011-.7825-.413-.7825h-6.789c-.402 0-.639.4507-.412.7825z"/><path d="m141.059-69.1262c.198.2901.626.2901.825 0l2.994-4.373c.227-.3318-.011-.7824-.413-.7824h-5.988c-.402 0-.64.4506-.412.7824z"/><path d="m121.017-69.4476c.199.29.627.29.825 0l2.554-3.73c.227-.3319-.01-.7825-.412-.7825h-5.108c-.402 0-.64.4506-.413.7825z"/><path d="m100.976-69.7984c.198.29.626.29.825 0l2.073-3.0285c.228-.3318-.01-.7824-.412-.7824h-4.1473c-.4022 0-.6398.4506-.4126.7824z"/><path d="m80.9341-70.2076c.1986.2901.6266.2901.8252.0001l1.5132-2.2102c.2272-.3318-.0104-.7825-.4126-.7825h-3.0263c-.4022 0-.6398.4507-.4126.7825z"/><path d="m60.8927-70.646c.1985.29.6265.29.8251 0l.9128-1.3332c.2272-.3319-.0104-.7825-.4125-.7825h-1.8256c-.4022 0-.6398.4506-.4126.7825z"/><path d="m40.8512-71.1429c.1986.2901.6266.2901.8252 0l.2324-.3394c.2272-.3318-.0104-.7825-.4126-.7825h-.4648c-.4022 0-.6398.4507-.4126.7825z"/><path d="m20.9697-71.3476c.1216.1776.3834.1776.505.0001.1391-.2031-.0063-.4789-.2524-.4789s-.3915.2758-.2526.4788z"/><path d="m1042.98-88.2245c.17.251.54.251.72 0 .19-.2871-.01-.677-.36-.677s-.55.3899-.36.677z"/><path d="m1022.88-87.7503c.2.29.63.29.83 0l.63-.9241c.23-.3319-.01-.7825-.41-.7825h-1.27c-.4 0-.64.4506-.41.7825z"/><path d="m1002.84-87.195c.2.29.63.29.83 0l1.39-2.0347c.23-.3319-.01-.7825-.41-.7825h-2.79c-.4 0-.64.4506-.41.7825z"/><path d="m982.802-86.7273c.198.29.626.29.825 0l2.033-2.9701c.228-.3319-.01-.7825-.412-.7825h-4.067c-.402 0-.64.4506-.413.7825z"/><path d="m962.76-86.3182c.199.2901.627.2901.825 0l2.594-3.7884c.227-.3318-.01-.7824-.412-.7824h-5.188c-.402 0-.64.4506-.413.7824z"/><path d="m942.719-85.9674c.198.2901.626.2901.825 0l3.074-4.4899c.227-.3319-.01-.7825-.412-.7825h-6.149c-.402 0-.64.4506-.412.7825z"/><path d="m922.677-85.7627c.199.29.627.29.825 0l3.355-4.8993c.227-.3318-.011-.7824-.413-.7824h-6.708c-.403 0-.64.4506-.413.7824z"/><path d="m902.636-85.529c.198.29.626.29.825 0l3.674-5.3667c.228-.3318-.01-.7825-.412-.7825h-7.349c-.402 0-.64.4507-.413.7825z"/><path d="m882.594-85.3536c.199.29.627.29.825 0l3.915-5.7175c.227-.3318-.01-.7825-.412-.7825h-7.83c-.402 0-.64.4507-.412.7825z"/><path d="m862.553-85.2952c.198.29.626.29.825 0l3.995-5.8344c.227-.3318-.011-.7824-.413-.7824h-7.989c-.402 0-.64.4506-.413.7824z"/><path d="m842.512-85.2367c.198.29.626.29.825 0l4.075-5.9513c.227-.3318-.011-.7825-.413-.7825h-8.15c-.402 0-.639.4507-.412.7825z"/><path d="m822.47-85.2074c.199.29.627.29.825 0l4.115-6.0099c.227-.3318-.01-.7824-.412-.7824h-8.23c-.402 0-.64.4506-.413.7824z"/><path d="m802.429-85.2367c.198.29.626.29.825 0l4.075-5.9513c.227-.3318-.011-.7825-.413-.7825h-8.15c-.402 0-.639.4507-.412.7825z"/><path d="m782.387-85.2074c.199.29.627.29.825 0l4.115-6.0099c.227-.3318-.01-.7824-.412-.7824h-8.23c-.402 0-.64.4506-.413.7824z"/><path d="m762.346-85.2367c.198.29.626.29.825 0l4.075-5.9513c.227-.3318-.011-.7825-.413-.7825h-8.149c-.403 0-.64.4507-.413.7825z"/><path d="m742.304-85.2367c.199.29.627.29.825 0l4.075-5.9513c.227-.3318-.01-.7825-.412-.7825h-8.15c-.402 0-.64.4507-.413.7825z"/><path d="m722.263-85.2659c.198.29.626.29.825 0l4.035-5.8929c.227-.3319-.011-.7825-.413-.7825h-8.069c-.403 0-.64.4506-.413.7825z"/><path d="m702.221-85.2659c.199.29.627.29.825 0l4.035-5.8929c.227-.3319-.01-.7825-.412-.7825h-8.07c-.402 0-.64.4506-.413.7825z"/><path d="m682.18-85.2659c.198.29.626.29.825 0l4.035-5.8929c.227-.3319-.011-.7825-.413-.7825h-8.069c-.403 0-.64.4506-.413.7825z"/><path d="m662.138-85.2659c.199.29.627.29.825 0l4.035-5.8929c.227-.3319-.01-.7825-.412-.7825h-8.07c-.402 0-.64.4506-.412.7825z"/><path d="m642.097-85.3243c.198.29.626.29.825 0l3.955-5.776c.227-.3319-.011-.7825-.413-.7825h-7.909c-.403 0-.64.4506-.413.7825z"/><path d="m622.055-85.3243c.199.29.627.29.825 0l3.955-5.776c.227-.3319-.01-.7825-.412-.7825h-7.91c-.402 0-.64.4506-.412.7825z"/><path d="m602.014-85.3243c.198.29.626.29.825 0l3.955-5.776c.227-.3319-.011-.7825-.413-.7825h-7.909c-.402 0-.64.4506-.413.7825z"/><path d="m581.972-85.2952c.199.2901.627.2901.826 0l3.994-5.8344c.227-.3318-.01-.7824-.412-.7824h-7.99c-.402 0-.64.4506-.412.7824z"/><path d="m561.931-85.2952c.199.2901.626.2901.825 0l3.995-5.8344c.227-.3318-.011-.7824-.413-.7824h-7.989c-.402 0-.64.4506-.413.7824z"/><path d="m541.889-85.2952c.199.2901.627.2901.826 0l3.994-5.8344c.228-.3318-.01-.7824-.412-.7824h-7.99c-.402 0-.64.4506-.412.7824z"/><path d="m521.848-85.2952c.199.2901.627.2901.825 0l3.995-5.8344c.227-.3318-.011-.7824-.413-.7824h-7.989c-.402 0-.64.4506-.413.7824z"/><path d="m501.807-85.2952c.198.2901.626.2901.825 0l3.994-5.8344c.228-.3318-.01-.7824-.412-.7824h-7.99c-.402 0-.639.4506-.412.7824z"/><path d="m481.765-85.2952c.199.2901.627.2901.825 0l3.995-5.8344c.227-.3318-.011-.7824-.413-.7824h-7.989c-.402 0-.64.4506-.413.7824z"/><path d="m461.724-85.2659c.198.29.626.29.825 0l4.034-5.8929c.228-.3319-.01-.7825-.412-.7825h-8.07c-.402 0-.639.4506-.412.7825z"/><path d="m441.682-85.2367c.199.29.627.29.825 0l4.075-5.9513c.227-.3318-.01-.7825-.413-.7825h-8.149c-.402 0-.64.4507-.413.7825z"/><path d="m421.641-85.2074c.198.29.626.29.825 0l4.115-6.0099c.227-.3318-.011-.7824-.413-.7824h-8.23c-.402 0-.639.4506-.412.7824z"/><path d="m401.599-85.2367c.199.29.627.29.825 0l4.075-5.9513c.227-.3318-.01-.7825-.413-.7825h-8.149c-.402 0-.64.4507-.413.7825z"/><path d="m381.558-85.2074c.198.29.626.29.825 0l4.114-6.0099c.228-.3318-.01-.7824-.412-.7824h-8.23c-.402 0-.639.4506-.412.7824z"/><path d="m361.516-85.2074c.199.29.627.29.825 0l4.115-6.0099c.227-.3318-.01-.7824-.412-.7824h-8.23c-.402 0-.64.4506-.413.7824z"/><path d="m341.475-85.2074c.198.29.626.29.825 0l4.115-6.0099c.227-.3318-.011-.7824-.413-.7824h-8.23c-.402 0-.639.4506-.412.7824z"/><path d="m321.433-85.2074c.199.29.627.29.825 0l4.115-6.0099c.227-.3318-.01-.7824-.412-.7824h-8.23c-.402 0-.64.4506-.413.7824z"/><path d="m301.392-85.2074c.198.29.626.29.825 0l4.115-6.0099c.227-.3318-.011-.7824-.413-.7824h-8.23c-.402 0-.639.4506-.412.7824z"/><path d="m281.35-85.2074c.199.29.627.29.825 0l4.115-6.0099c.227-.3318-.01-.7824-.412-.7824h-8.23c-.402 0-.64.4506-.413.7824z"/><path d="m261.309-85.2074c.198.29.626.29.825 0l4.115-6.0099c.227-.3318-.011-.7824-.413-.7824h-8.23c-.402 0-.639.4506-.412.7824z"/><path d="m241.267-85.2074c.199.29.627.29.825 0l4.115-6.0099c.227-.3318-.01-.7824-.412-.7824h-8.23c-.402 0-.64.4506-.413.7824z"/><path d="m221.226-85.2367c.198.29.626.29.825 0l4.075-5.9513c.227-.3318-.011-.7825-.413-.7825h-8.15c-.402 0-.639.4507-.412.7825z"/><path d="m201.184-85.3243c.199.29.627.29.825 0l3.955-5.7761c.227-.3318-.01-.7824-.413-.7824h-7.909c-.402 0-.64.4506-.413.7825z"/><path d="m181.142-85.4706c.198.2901.626.2901.825 0l3.754-5.4836c.227-.3318-.01-.7825-.412-.7825h-7.509c-.403 0-.64.4507-.413.7825z"/><path d="m161.1-85.6751c.199.29.627.29.825 0l3.475-5.0745c.227-.3318-.011-.7825-.413-.7825h-6.949c-.402 0-.64.4507-.412.7825z"/><path d="m141.059-85.9382c.198.29.626.29.825 0l3.114-4.5483c.227-.3319-.01-.7825-.413-.7825h-6.228c-.402 0-.64.4506-.412.7825z"/><path d="m121.017-86.2889c.199.29.627.29.825 0l2.634-3.8469c.227-.3319-.01-.7825-.412-.7825h-5.268c-.402 0-.64.4506-.413.7825z"/><path d="m100.976-86.6104c.198.29.626.29.825 0l2.193-3.2039c.228-.3318-.01-.7825-.412-.7825h-4.3874c-.4022 0-.6398.4506-.4126.7825z"/><path d="m80.9341-87.0781c.1987.29.6266.29.8252 0l1.5532-2.2685c.2272-.3318-.0104-.7825-.4125-.7825h-3.1065c-.4021 0-.6397.4506-.4125.7825z"/><path d="m60.8927-87.5165c.1985.29.6265.29.8251 0l.9529-1.3917c.2271-.3319-.0105-.7825-.4126-.7825h-1.9057c-.4021 0-.6398.4506-.4126.7825z"/><path d="m40.8512-88.0134c.1986.29.6266.29.8252 0l.2725-.3979c.2271-.3319-.0105-.7825-.4126-.7825h-.545c-.4022 0-.6397.4506-.4126.7825z"/><path d="m21.022-88.2587c.0964.1408.304.1408.4005 0 .1102-.161-.005-.3797-.2002-.3797s-.3106.2187-.2003.3797z"/><path d="m1079.34 30.0138c.04.0568.12.0568.16 0 .04-.0649 0-.1531-.08-.1531s-.13.0882-.08.1531z"/><path d="m1079.31 13.1212c.05.0796.17.0796.22 0 .07-.091 0-.2147-.11-.2147s-.18.1237-.11.2147z"/><path d="m1079.24-3.76332c.08.12852.27.12852.36 0 .1-.14705 0-.34677-.18-.34677s-.28.19972-.18.34677z"/><path d="m1079.18-20.6517c.12.1653.36.1653.47 0 .13-.1891 0-.4458-.23-.4458s-.36.2567-.24.4458z"/><path d="m1079.17-37.5477c.12.1776.38.1776.5 0 .14-.203 0-.4788-.25-.4788s-.39.2758-.25.4788z"/><path d="m1079.2-54.455c.11.153.33.153.44 0 .12-.1751-.01-.4128-.22-.4128s-.34.2377-.22.4128z"/></g></svg>