<svg fill="none" height="9" viewBox="0 0 8 9" width="8" xmlns="http://www.w3.org/2000/svg"><path clip-rule="evenodd" d="m7.71719 4.66487c.10545.10548.16469.24853.16469.39769 0 .14915-.05924.2922-.16469.39769l-3.37504 3.37504c-.10549.10545-.24854.16469-.39769.16469-.14916 0-.29221-.05924-.3977-.16469l-3.375033-3.37504c-.053726-.05189-.0965785-.11396-.1260589-.18259-.0294804-.06862-.04499783-.14244-.04564686-.21713s.01358336-.14876.04186666-.21789.0700511-.13193.1228661-.18475c.052816-.05281.11562-.09458.18475-.12286.06913-.02829.143201-.04252.21789-.04187s.148501.01617.21713.04565c.068627.02948.130697.07233.182587.12606l2.414839 2.41484v-6.517204c0-.149186.05926-.292261.16476-.397752.10549-.1054901.24856-.164754.39775-.164754.14918 0 .29226.0592639.39775.164754.10549.105491.16475.248566.16475.397752v6.517204l2.41484-2.41484c.10549-.10546.24854-.1647.3977-.1647.14915 0 .2922.05924.39769.1647z" fill="#00d8c3" fill-rule="evenodd"/></svg>