<svg fill="none" height="48" viewBox="0 0 48 48" width="48" xmlns="http://www.w3.org/2000/svg"><path d="m24 .75c12.8406 0 23.25 10.4094 23.25 23.25s-10.4094 23.25-23.25 23.25-23.25-10.4094-23.25-23.25 10.4094-23.25 23.25-23.25z" stroke="#d9ff00" stroke-width="1.5"/><path d="m24 34c-1.3833 0-2.6833-.2625-3.9-.7875s-2.275-1.2375-3.175-2.1375-1.6125-1.9583-2.1375-3.175-.7875-2.5167-.7875-3.9.2625-2.6833.7875-3.9 1.2375-2.275 2.1375-3.175 1.9583-1.6125 3.175-2.1375 2.5167-.7875 3.9-.7875 2.6833.2625 3.9.7875 2.275 1.2375 3.175 2.1375 1.6125 1.9583 2.1375 3.175.7875 2.5167.7875 3.9-.2625 2.6833-.7875 3.9-1.2375 2.275-2.1375 3.175-1.9583 1.6125-3.175 2.1375-2.5167.7875-3.9.7875zm-2.9-2.55 1.2-2.75c-.7-.25-1.3042-.6375-1.8125-1.1625s-.9042-1.1375-1.1875-1.8375l-2.75 1.15c.3833 1.0667.975 2 1.775 2.8s1.725 1.4 2.775 1.8zm-1.8-9.15c.2833-.7.6792-1.3125 1.1875-1.8375s1.1125-.9125 1.8125-1.1625l-1.15-2.75c-1.0667.4-2 1-2.8 1.8s-1.4 1.7333-1.8 2.8zm4.7 4.7c.8333 0 1.5417-.2917 2.125-.875s.875-1.2917.875-2.125-.2917-1.5417-.875-2.125-1.2917-.875-2.125-.875-1.5417.2917-2.125.875-.875 1.2917-.875 2.125.2917 1.5417.875 2.125 1.2917.875 2.125.875zm2.9 4.45c1.05-.4 1.9708-.9958 2.7625-1.7875s1.3875-1.7125 1.7875-2.7625l-2.75-1.2c-.25.7-.6333 1.3042-1.15 1.8125s-1.1167.9042-1.8 1.1875zm1.8-9.2 2.75-1.15c-.4-1.05-.9958-1.9708-1.7875-2.7625s-1.7125-1.3875-2.7625-1.7875l-1.15 2.8c.6833.25 1.275.6292 1.775 1.1375s.8917 1.0958 1.175 1.7625z" fill="#d9ff00"/></svg>