<svg fill="none" height="48" viewBox="0 0 48 48" width="48" xmlns="http://www.w3.org/2000/svg"><path d="m24 .75c12.8406 0 23.25 10.4094 23.25 23.25s-10.4094 23.25-23.25 23.25-23.25-10.4094-23.25-23.25 10.4094-23.25 23.25-23.25z" stroke="#d9ff00" stroke-width="1.5"/><path d="m24 28.4444c-.6111 0-1.1343-.2175-1.5694-.6527-.4352-.4352-.6528-.9584-.6528-1.5695s.2176-1.1342.6528-1.5694c.4351-.4352.9583-.6528 1.5694-.6528s1.1343.2176 1.5694.6528c.4352.4352.6528.9583.6528 1.5694s-.2176 1.1343-.6528 1.5695c-.4351.4352-.9583.6527-1.5694.6527zm-5.1389-10h10.2778l2.2222-4.4444h-14.7222zm1.1389 15.5556h8c1.6667 0 3.0833-.5787 4.25-1.7361s1.75-2.5787 1.75-4.2639c0-.7037-.1204-1.3889-.3611-2.0556-.2408-.6666-.5833-1.2685-1.0278-1.8055l-2.8889-3.4722h-11.4444l-2.8889 3.4722c-.4445.537-.787 1.1389-1.0278 1.8055-.2407.6667-.3611 1.3519-.3611 2.0556 0 1.6852.5787 3.1065 1.7361 4.2639s2.5787 1.7361 4.2639 1.7361z" fill="#d9ff00"/></svg>