<svg fill="none" height="18" viewBox="0 0 18 18" width="18" xmlns="http://www.w3.org/2000/svg"><g fill="#fff" opacity=".3"><path d="m4.72761 13.7277 8.99999-9.00003-.4545-.4545-8.99999 9.00003z"/><path d="m14.4642 4.50007c.5323 0 .9643-.432.9643-.96429 0-.53228-.432-.96428-.9643-.96428s-.9643.432-.9643.96428c0 .53229.432.96429.9643.96429zm0 .64286c-.8878 0-1.6072-.71936-1.6072-1.60715 0-.88778.7194-1.60714 1.6072-1.60714s1.6071.71936 1.6071 1.60714c0 .88779-.7193 1.60715-1.6071 1.60715zm-10.9286 10.28567c.53229 0 .96429-.432.96429-.9642 0-.5323-.432-.9643-.96429-.9643s-.96429.432-.96429.9643c0 .5322.432.9642.96429.9642zm0 .6429c-.88779 0-1.60714-.7194-1.60714-1.6071 0-.8878.71935-1.6072 1.60714-1.6072s1.60714.7194 1.60714 1.6072c0 .8877-.71935 1.6071-1.60714 1.6071z"/></g></svg>