<svg fill="none" height="18" viewBox="0 0 18 18" width="18" xmlns="http://www.w3.org/2000/svg"><g fill="#fff" opacity=".3"><path d="m13.1459 5.46744 1.3519 5.85776.6262-.1447-1.3519-5.8577zm-4.18241 3.53957 4.90561 3.12169.3452-.5425-4.9056-3.12176zm.28028-1.47536 3.09343-2.32007-.3857-.51428-3.09344 2.32007zm-2.19793 1.35772-3.03493 4.33543.5265.3684 3.03493-4.33547zm-2.97578 4.39843 1.485-8.41372-.63322-.11186-1.485 8.41368zm1.74214-8.496 1.2825 2.24485.558-.31885-1.2825-2.24486z"/><path d="m5.46417 4.49995c.53229 0 .96429-.432.96429-.96429 0-.53228-.432-.96428-.96429-.96428-.53228 0-.96428.432-.96428.96428 0 .53229.432.96429.96428.96429zm0 .64286c-.88778 0-1.60714-.71936-1.60714-1.60715 0-.88778.71936-1.60714 1.60714-1.60714.88779 0 1.60715.71936 1.60715 1.60714 0 .88779-.71936 1.60715-1.60715 1.60715zm-1.92857 10.28569c.53229 0 .96429-.432.96429-.9643 0-.5322-.432-.9642-.96429-.9642s-.96429.432-.96429.9642c0 .5323.432.9643.96429.9643zm0 .6429c-.88779 0-1.60714-.7194-1.60714-1.6072s.71935-1.6071 1.60714-1.6071 1.60714.7193 1.60714 1.6071-.71935 1.6072-1.60714 1.6072zm4.5-7.07145c.53229 0 .96429-.432.96429-.96429 0-.53228-.432-.96428-.96429-.96428-.53228 0-.96428.432-.96428.96428 0 .53229.432.96429.96428.96429zm0 .64286c-.88779 0-1.60714-.71936-1.60714-1.60715 0-.88778.71935-1.60714 1.60714-1.60714s1.60714.71936 1.60714 1.60714c0 .88779-.71935 1.60715-1.60714 1.60715zm5.1429-4.5c.5322 0 .9642-.432.9642-.96429s-.432-.96429-.9642-.96429c-.5323 0-.9643.432-.9643.96429s.432.96429.9643.96429zm0 .64285c-.8878 0-1.6072-.71935-1.6072-1.60714s.7194-1.60714 1.6072-1.60714c.8877 0 1.6071.71935 1.6071 1.60714s-.7194 1.60714-1.6071 1.60714zm1.9285 7.71434c.5323 0 .9643-.4321.9643-.9643 0-.5323-.432-.9643-.9643-.9643s-.9643.432-.9643.9643c0 .5322.432.9643.9643.9643zm0 .6428c-.8878 0-1.6071-.7194-1.6071-1.6071 0-.8878.7193-1.6072 1.6071-1.6072s1.6072.7194 1.6072 1.6072c0 .8877-.7194 1.6071-1.6072 1.6071z"/></g></svg>