<svg fill="none" height="24" viewBox="0 0 24 24" width="24" xmlns="http://www.w3.org/2000/svg"><g clip-rule="evenodd" fill="#d9ff00" fill-rule="evenodd"><path d="m10 11.9004c0 1.1046.8954 2 2 2s2-.8954 2-2-.8954-2.00001-2-2.00001-2 .89541-2 2.00001z"/><path d="m16 11.9004c0-1.144-.383-2.19563-1.0282-3.03775-.3359-.43839-.2528-1.06608.1856-1.40198.4384-.33591 1.066-.25282 1.402.18557.9033 1.17898 1.4406 2.65526 1.4406 4.25416 0 1.6664-.5836 3.1993-1.5566 4.4014-.3475.4293-.9772.4956-1.4065.1481-.4292-.3474-.4956-.9771-.1481-1.4064.6954-.8591 1.1112-1.9512 1.1112-3.1431z"/><path d="m8 11.9005c0-1.1455.38397-2.19842 1.03075-3.0411.33627-.43811.25371-1.06587-.1844-1.40214-.43811-.33626-1.06587-.2537-1.40214.18441-.9055 1.17974-1.44421 2.65773-1.44421 4.25883 0 1.6651.58267 3.1969 1.55437 4.3986.34726.4294.97691.4961 1.40637.1488.42945-.3472.49608-.9769.14882-1.4063-.69438-.8588-1.10956-1.9501-1.10956-3.1411z"/><path d="m20 11.9003c0-2.23205-.8112-4.27207-2.1562-5.84516-.3589-.41977-.3096-1.05101.1102-1.40991s1.051-.30955 1.4099.11022c1.643 1.92162 2.6361 4.41852 2.6361 7.14485 0 2.7891-1.0393 5.3378-2.7503 7.2763-.3654.4141-.9974.4535-1.4114.088-.4141-.3654-.4535-.9974-.088-1.4115 1.4008-1.5871 2.2497-3.6696 2.2497-5.9528z"/><path d="m4 11.9004c0-2.23185.81114-4.27176 2.15595-5.84481.35888-.41979.3095-1.05102-.11029-1.40991-.41978-.35888-1.05102-.3095-1.4099.11029-1.64277 1.92157-2.63576 4.41834-2.63576 7.14443 0 2.7853 1.03649 5.331 2.74335 7.2685.36507.4144.99697.4544 1.41139.0893.41441-.365.45441-.9969.08934-1.4113-1.39748-1.5864-2.24408-3.6663-2.24408-5.9465z"/></g></svg>