<svg fill="none" height="32" viewBox="0 0 47 32" width="47" xmlns="http://www.w3.org/2000/svg"><rect fill="#fff" height="32" rx="2.66667" width="46.6667"/><g fill="#010202"><path d="m16.7554 9.02202c.7379 0 1.3105.15418 1.74.46253.4185.30835.6277.78185.6387 1.40955 0 .3084-.0661.6167-.2092.892-.1212.2533-.3304.4626-.5837.5837v.0441c.2863.1321.5286.3413.7048.6167.1101.1651.1872.3413.2423.5286.0661.2202.0991.4625.0881.6937.011.3524-.0661.6938-.2092 1.0022-.1322.2863-.3414.5286-.5837.7158-.2533.1982-.5396.3414-.848.4295-.3193.0991-.6607.1431-.9911.1431h-4.0305v-7.5435h4.0415zm-2.1033 2.77518h1.773c.2202.022.4294-.0441.5946-.1873.1102-.1211.1762-.2863.1652-.4515 0-.1541-.055-.3083-.1652-.4294-.1652-.1432-.3854-.2093-.5946-.1873h-1.773zm0 3.2376h1.795c.2753.022.5506-.055.7598-.2312.1542-.1652.2313-.3745.2203-.6057.022-.2533-.0771-.4956-.2643-.6608-.2092-.1542-.4625-.2312-.7158-.2202h-1.795z"/><path d="m21.2151 16.5657h-2.0484l2.6651-7.5325h1.9822l2.7311 7.5325h-2.1585l-.3634-1.3105h-2.4337zm1.5968-5.5613h-.0441l-.7819 2.7972h1.5968z"/><path d="m28.8133 12.1059h-.0441v4.4601h-1.9381v-7.54354h2.1474l2.5659 4.20674h.044v-4.20674h1.9382v7.54354h-1.9492z"/><path d="m36.2256 9.02246v2.64294l2.4778-2.64294h2.5549l-3.0395 2.87424 3.2157 4.6693h-2.4338l-2.2245-3.3478-.5616.5396v2.8082h-1.9382v-7.54354z"/><path d="m8.40753 17.7217v1.2664h-1.32149v4.438h-1.39858v-4.438h-1.32149v-1.2664z"/><path d="m11.7664 17.7217c.1982 0 .4074.044.5836.1211s.3414.1982.4625.3524c.1322.1542.2313.3304.2974.5286.0771.2092.1101.4295.1101.6497.011.3304-.0771.6498-.2423.9361-.1652.2643-.3964.4625-.6717.5947l1.0351 2.5218h-1.4866l-.859-2.3236h-1.12329v2.3236h-1.39858v-5.7044zm-.4185 2.1915c.1321.011.2643-.0441.3414-.1542.0771-.0991.1101-.2203.1101-.3414 0-.0551-.011-.1211-.022-.1762s-.0441-.1101-.0771-.1652c-.0331-.044-.0881-.0881-.1432-.1211-.0661-.0331-.1321-.0551-.2092-.0441h-1.46468v1.0022z"/><path d="m14.4534 23.4261h-1.4756l1.9161-5.7044h1.4317l1.9602 5.7044h-1.5528l-.2643-.9911h-1.751zm1.1564-4.2067h-.0221l-.5616 2.1144h1.1453z"/><path d="m19.7177 20.0563h-.033v3.3698h-1.3986v-5.7044h1.5418l1.8501 3.1826h.033v-3.1826h1.3986v5.7044h-1.4096z"/><path d="m25.499 23.5692c-.3083.011-.6167-.0331-.914-.1212-.2423-.0771-.4625-.1872-.6607-.3303-.1762-.1432-.3304-.3084-.4405-.5176-.1102-.2093-.1983-.4295-.2533-.6498l1.3325-.5396c.011.2863.1211.5506.3193.7489.2093.1762.4736.2643.7379.2533.0771 0 .1541-.0111.2312-.0221s.1432-.033.2093-.0771c.066-.033.1101-.0881.1541-.1541.0441-.0661.0661-.1542.0661-.2313s-.011-.1542-.033-.2313c-.0331-.077-.0771-.1431-.1322-.1872-.0771-.066-.1652-.1211-.2643-.1652-.1431-.066-.2863-.1101-.4295-.1541-.3083-.0881-.6056-.1982-.892-.3194-.2312-.0991-.4405-.2312-.6387-.3964-.1652-.1432-.2973-.3194-.3854-.5176-.0881-.2203-.1322-.4515-.1322-.6828 0-.2533.0551-.5066.1652-.7268.1101-.2092.2643-.3965.4625-.5396.2093-.1542.4405-.2643.6938-.3304.2863-.0771.5837-.1101.881-.1101.2643 0 .5396.022.7929.0881.2092.055.4075.1431.5837.2643.1652.1101.3083.2533.4184.4185.1212.1872.2093.3744.2864.5836l-1.2004.5286c-.044-.2202-.1542-.4185-.3083-.5726-.3304-.2203-.7489-.2313-1.0903-.0331-.0991.0771-.1541.1872-.1652.3084 0 .0771.0111.1431.0441.2092s.0881.1322.1542.1762c.0881.0661.1872.1211.2973.1542.1652.0661.3194.1101.4846.1542.2643.077.5286.1541.7598.2312.2203.0771.4295.1872.6167.3304.1762.1432.3194.3194.4185.5176.1101.2533.1652.5396.1542.8149.011.2753-.0551.5396-.1762.7929-.1212.2202-.2864.4185-.4956.5616-.2203.1542-.4735.2753-.7378.3414-.3084.0991-.6167.1432-.9141.1322z"/><path d="m29.3202 19.8361h2.1695v1.2664h-2.1695v2.3236h-1.3986v-5.7044h4.2288v1.2664h-2.8302z"/><path d="m32.2605 17.7217h4.2288v1.2664h-2.8302v.7709h2.4778v1.2664h-2.4778v1.1453h2.9073v1.2664h-4.3059z"/><path d="m39.9587 17.7217c.1983 0 .4075.044.5837.1211s.3414.1982.4625.3524c.1322.1542.2313.3304.2974.5286.077.2092.1101.4295.1101.6497.011.3304-.0771.6498-.2423.9361-.1652.2643-.3964.4625-.6718.5947l1.0352 2.5218h-1.4867l-.8589-2.3236h-1.1233v2.3236h-1.3986v-5.7044zm-.4184 2.1915c.1321.011.2643-.0441.3413-.1542.0771-.0991.1102-.2203.1102-.3414 0-.0551-.011-.1211-.0221-.1762-.011-.0551-.044-.1101-.077-.1652-.0331-.044-.0881-.0881-.1432-.1211-.0661-.0331-.1322-.0551-.2092-.0441h-1.4647v1.0022z"/><path d="m11.9646 9.02246h-7.63159v1.53074h7.63159z"/><path d="m11.9646 11.8965h-7.63159v1.5307h7.63159z"/><path d="m11.9646 15.0459h-7.63159v1.5307h7.63159z"/></g></svg>