<svg fill="none" height="19" viewBox="0 0 24 19" width="24" xmlns="http://www.w3.org/2000/svg" xmlns:xlink="http://www.w3.org/1999/xlink"><mask id="a" height="20" maskUnits="userSpaceOnUse" width="24" x="0" y="-1"><path d="m24-.139648h-24v18.591548h24z" fill="#fff"/></mask><g mask="url(#a)"><path d="m20.317 1.51641c-1.5297-.701879-3.17-1.218994-4.8851-1.51516759-.0312-.00571606-.0624.00856868-.0785.03713879-.211.3752148-.4447.8647138-.6083 1.2494588-1.8447-.27617-3.6799-.27617-5.48678 0-.16367-.393297-.40584-.874244-.61775-1.2494588-.01608-.0276169-.04729-.04190161-.07852-.03713879-1.71414.29522659-3.35449.81234259-4.88512 1.51516759-.01325.00572-.0246.01525-.03214.02762-3.111398 4.64836-3.96374 9.18247-3.5456099 13.66037.0018919.0219.0141899.0429.0312179.0562 2.052812 1.5075 4.041312 2.4227 5.992882 3.0293.03123.0096.06433-.0018.0842-.0276.46165-.6304.87316-1.2951 1.226-1.9942.02082-.0409.00094-.0895-.04162-.1057-.65273-.2476-1.27426-.5495-1.87213-.8923-.04729-.0276-.05108-.0953-.00757-.1276.12581-.0943.25166-.1924.3718-.2915.02173-.018.05202-.0219.07757-.0104 3.92775 1.7932 8.17997 1.7932 12.06147 0 .0255-.0124.0558-.0086.0785.0095.1201.099.246.1981.3727.2924.0435.0323.0407.1-.0066.1276-.5979.3495-1.2194.6447-1.8731.8914-.0425.0162-.0615.0657-.0407.1066.3605.6981.772 1.3628 1.2251 1.9933.0189.0267.053.0381.0842.0285 1.961-.6066 3.9495-1.5218 6.0023-3.0293.018-.0133.0294-.0334.0313-.0553.5004-5.1769-.8382-9.67382-3.5485-13.66032-.0066-.01332-.0179-.02285-.0312-.02857zm-12.29698 10.96139c-1.18252 0-2.15689-1.0856-2.15689-2.4189 0-1.33329.95547-2.41894 2.15689-2.41894 1.21085 0 2.17578 1.09518 2.15688 2.41894 0 1.3333-.95549 2.4189-2.15688 2.4189zm7.97468 0c-1.1824 0-2.1568-1.0856-2.1568-2.4189 0-1.33329.9554-2.41894 2.1568-2.41894 1.2109 0 2.1758 1.09518 2.1569 2.41894 0 1.3333-.946 2.4189-2.1569 2.4189z" fill="#fff"/></g></svg>