<svg fill="none" height="22" viewBox="0 0 22 22" width="22" xmlns="http://www.w3.org/2000/svg"><g fill="#fff"><path d="m11 1.98795h4.506c1.0603 0 1.5904.26506 1.988.39759.5301.26506.9277.39759 1.3253.79518s.6626.79518.7952 1.32531c.1325.39759.265.92771.3975 1.98795v4.50602 4.506c0 1.0603-.265 1.5904-.3975 1.988-.2651.5301-.3976.9277-.7952 1.3253s-.7952.6626-1.3253.7952c-.3976.1325-.9277.265-1.988.3975-1.1927 0-1.4578 0-4.506 0-3.04819 0-3.31325 0-4.50602 0-1.06024 0-1.59036-.265-1.98795-.3975-.53013-.2651-.92772-.3976-1.32531-.7952s-.66265-.7952-.79518-1.3253c-.13253-.3976-.26506-.9277-.39759-1.988 0-1.1927 0-1.4578 0-4.506 0-3.04819 0-3.31325 0-4.50602 0-1.06024.26506-1.59036.39759-1.98795.26506-.53013.39759-.92772.79518-1.32531s.79518-.66265 1.32531-.79518c.39759-.13253.92771-.26506 1.98795-.39759zm0-1.98795c-3.04819 0-3.31325 0-4.50602 0s-1.98795.265061-2.65061.530121c-.66265.265061-1.3253.662649-1.98795 1.325299s-.927708 1.19277-1.325299 1.98795c-.26506.66266-.397591 1.45784-.530121 2.65061v4.50602 4.506c0 1.1928.265061 1.988.530121 2.6506.265061.6627.662649 1.3253 1.325299 1.988.66265.6626 1.19277.9277 1.98795 1.3253.66266.265 1.45784.3976 2.65061.5301h4.50602 4.506c1.1928 0 1.988-.2651 2.6506-.5301.6627-.2651 1.3253-.6627 1.988-1.3253.6626-.6627.9277-1.1928 1.3253-1.988.265-.6626.3976-1.4578.5301-2.6506 0-1.1927 0-1.5903 0-4.506 0-2.91566 0-3.31325 0-4.50602s-.2651-1.98795-.5301-2.65061c-.2651-.66265-.6627-1.3253-1.3253-1.98795-.6627-.66265-1.1928-.927708-1.988-1.325299-.6626-.26506-1.4578-.397591-2.6506-.530121-1.1927 0-1.4578 0-4.506 0z"/><path d="m11 5.30121c-3.18072 0-5.69879 2.51807-5.69879 5.69879 0 3.1807 2.51807 5.6988 5.69879 5.6988 3.1807 0 5.6988-2.5181 5.6988-5.6988 0-3.18072-2.5181-5.69879-5.6988-5.69879zm0 9.40959c-1.98795 0-3.71084-1.5903-3.71084-3.7108 0-1.98795 1.59036-3.71084 3.71084-3.71084 1.988 0 3.7108 1.59036 3.7108 3.71084 0 1.988-1.7228 3.7108-3.7108 3.7108z"/><path d="m16.8313 6.49398c.732 0 1.3253-.59336 1.3253-1.3253 0-.73195-.5933-1.32531-1.3253-1.32531-.7319 0-1.3253.59336-1.3253 1.32531 0 .73194.5934 1.3253 1.3253 1.3253z"/></g></svg>