<svg fill="none" height="48" viewBox="0 0 48 48" width="48" xmlns="http://www.w3.org/2000/svg"><path d="m24 .75c12.8406 0 23.25 10.4094 23.25 23.25s-10.4094 23.25-23.25 23.25-23.25-10.4094-23.25-23.25 10.4094-23.25 23.25-23.25z" stroke="#d9ff00" stroke-width="1.5"/><path d="m17 33c-.55 0-1.0208-.1958-1.4125-.5875s-.5875-.8625-.5875-1.4125v-14c0-.55.1958-1.0208.5875-1.4125s.8625-.5875 1.4125-.5875h14c.55 0 1.0208.1958 1.4125.5875s.5875.8625.5875 1.4125v14c0 .55-.1958 1.0208-.5875 1.4125s-.8625.5875-1.4125.5875zm7-9 2.5-1.5 2.5 1.5v-7h-5z" fill="#d9ff00"/></svg>