<svg fill="none" height="32" viewBox="0 0 47 32" width="47" xmlns="http://www.w3.org/2000/svg"><rect fill="#50af95" height="32" rx="2.66667" width="46.6667"/><path d="m29.9126 6.77491c.0298-.00002.0589.00845.084.02442.0252.01614.0461.03921.0586.0664l3.8672 8.12407c.0145.03.0186.0638.0127.0966-.0061.0331-.0224.0639-.0469.087l-10.4443 10.0078c-.0297.0283-.0693.0439-.1104.0439-.041 0-.0807-.0156-.1103-.0439l-10.4444-10.0088c-.0244-.023-.0407-.0531-.0469-.086-.006-.033-.0019-.0674.0127-.0976l3.8672-8.12307c.0126-.02724.0333-.05033.0586-.0664.0255-.01608.0558-.02479.086-.02442zm-11.6084 4.97949h3.6983v1.6152c-3.0058.1381-5.266.7339-5.2666 1.4473 0 .7136 2.2604 1.3085 5.2666 1.4473v5.1806h2.6728v-5.1826c2.9989-.1381 5.2562-.7325 5.2568-1.4453 0-.7129-2.2549-1.3085-5.2558-1.4473v-1.6152h3.6992v-2.46484h-10.0713zm3.6992 3.6084c.174.0125.6715.042 1.3584.042.823 0 1.236-.0341 1.3116-.041v-1.8067c2.6499.1181 4.6279.5807 4.6289 1.1329 0 .5523-1.9777 1.0153-4.6289 1.1328h.0029c-.075.0056-.4623.0293-1.3262.0293-.6869 0-1.1752-.0212-1.3467-.0293-2.6563-.1169-4.6396-.5792-4.6396-1.1328.001-.5535 1.984-1.0151 4.6396-1.1338z" fill="#fff"/></svg>