<?xml version="1.0" encoding="UTF-8" standalone="no"?>
<svg
   fill="none"
   height="46"
   viewBox="0 0 46 46"
   width="46"
   version="1.1"
   id="svg3"
   sodipodi:docname="img_frame_427321661.svg"
   inkscape:version="1.3.2 (091e20e, 2023-11-25)"
   xmlns:inkscape="http://www.inkscape.org/namespaces/inkscape"
   xmlns:sodipodi="http://sodipodi.sourceforge.net/DTD/sodipodi-0.dtd"
   xmlns="http://www.w3.org/2000/svg"
   xmlns:svg="http://www.w3.org/2000/svg">
  <defs
     id="defs3" />
  <sodipodi:namedview
     id="namedview3"
     pagecolor="#ffffff"
     bordercolor="#000000"
     borderopacity="0.25"
     inkscape:showpageshadow="2"
     inkscape:pageopacity="0.0"
     inkscape:pagecheckerboard="0"
     inkscape:deskcolor="#d1d1d1"
     inkscape:zoom="5.1304348"
     inkscape:cx="23.389831"
     inkscape:cy="23"
     inkscape:window-width="1728"
     inkscape:window-height="1387"
     inkscape:window-x="0"
     inkscape:window-y="25"
     inkscape:window-maximized="0"
     inkscape:current-layer="svg3" />
  <clipPath
     id="a">
    <path
       d="m11 14.5742h24v16.8511h-24z"
       id="path1" />
  </clipPath>
  <rect
     fill="#262626"
     height="46"
     rx="23"
     width="46"
     id="rect1" />
  <g
     clip-path="url(#a)"
     id="g3"
     transform="matrix(1.641596,0,0,1.641596,-14.756708,-14.756708)">
    <path
       d="M 34.4985,17.2061 C 34.2225,16.1703 33.4093,15.3546 32.3766,15.0778 30.505,14.5747 23,14.5747 23,14.5747 c 0,0 -7.505,0 -9.3767,0.5031 -1.0325,0.2768 -1.8458,1.0925 -2.1218,2.1283 C 11,19.0834 11,23.0002 11,23.0002 c 0,0 0,3.9169 0.5015,5.7944 0.276,1.0356 1.0893,1.8513 2.1218,2.1282 1.8717,0.503 9.3767,0.503 9.3767,0.503 0,0 7.505,0 9.3766,-0.503 1.0327,-0.2769 1.8459,-1.0926 2.1219,-2.1282 C 35,26.9171 35,23.0002 35,23.0002 c 0,0 0,-3.9168 -0.5015,-5.7941 z"
       fill="#ffffff"
       id="path2" />
    <path
       d="m 20.5454,26.5566 6.2727,-3.556 -6.2727,-3.5564 z"
       fill="#262626"
       id="path3" />
  </g>
</svg>
