<svg fill="none" height="80" viewBox="0 0 155 80" width="155" xmlns="http://www.w3.org/2000/svg" xmlns:xlink="http://www.w3.org/1999/xlink"><clipPath id="a"><path d="m0 0h80v80h-80z" transform="matrix(-1 0 0 1 80 0)"/></clipPath><clipPath id="b"><path d="m0 0h80v80h-80z" transform="matrix(1 0 0 -1 75 80)"/></clipPath><g clip-path="url(#a)"><path d="m77.7275 0c1.2559 0 2.2725 1.0166 2.2725 2.27252v29.95638c0 2.0239-2.4469 3.0387-3.879 1.6065l-29.9565-29.95635c-1.4302-1.43215-.4174-3.87905 1.6066-3.87905z" fill="#00d8c3"/><path d="m77.5032.224609c1.2541 0 2.2725 1.016601 2.2725 2.272521v29.95637c0 2.024-2.4469 3.0387-3.879 1.6066l-29.9564-29.95644c-1.4303-1.4303-.4174-3.879051 1.6065-3.879051z" fill="#00d7c2"/><path d="m77.2788.451074c1.254 0 2.2725 1.016606 2.2725 2.272516v29.95641c0 2.0239-2.4469 3.0387-3.8791 1.6065l-29.9582-29.95823c-1.4303-1.4303-.4174-3.879051 1.6065-3.879051h29.9583z" fill="#00d6c1"/><path d="m77.0522.675781c1.254 0 2.2725 1.016599 2.2725 2.272519v29.9564c0 2.0239-2.4469 3.0387-3.879 1.6065l-29.9564-29.95637c-1.4303-1.4303-.4174-3.879049 1.6065-3.879049z" fill="#00d5c0"/><path d="m76.8276.902246c1.254 0 2.2725 1.016604 2.2725 2.272514v29.95644c0 2.0239-2.4469 3.0386-3.879 1.6065l-29.9565-29.95826c-1.4302-1.4303-.4174-3.879049 1.6066-3.879049h29.9564z" fill="#00d4bf"/><path d="m76.6014 1.12598c1.2541 0 2.2726 1.0166 2.2726 2.27251v29.95641c0 2.0239-2.4469 3.0387-3.8791 1.6065l-29.9564-29.95638c-1.4303-1.43029-.4174-3.87904 1.6065-3.87904z" fill="#00d3bf"/><path d="m76.377 1.35059c1.2541 0 2.2725 1.0166 2.2725 2.27251v29.9564c0 2.0239-2.4469 3.0387-3.879 1.6065l-29.9564-29.95637c-1.4303-1.43029-.4174-3.87904 1.6065-3.87904z" fill="#00d2be"/><path d="m76.1507 1.57705c1.254 0 2.2725 1.0166 2.2725 2.27252v29.95643c0 2.0239-2.4469 3.0387-3.8791 1.6065l-29.9564-29.95826c-1.4303-1.43029-.4174-3.87904 1.6066-3.87904h29.9564z" fill="#00d1bd"/><path d="m75.9262 1.80176c1.2541 0 2.2725 1.0166 2.2725 2.27251v29.95643c0 2.0239-2.4469 3.0387-3.879 1.6065l-29.9564-29.9564c-1.4303-1.43029-.4174-3.87904 1.6065-3.87904z" fill="#01d0bc"/><path d="m75.7017 2.02822c1.2541 0 2.2725 1.01661 2.2725 2.27252v29.95636c0 2.024-2.4469 3.0387-3.879 1.6066l-29.9564-29.95829c-1.4303-1.43029-.4174-3.87904 1.6065-3.87904h29.9564z" fill="#01cfbb"/><path d="m75.4754 2.25195c1.254 0 2.2725 1.01661 2.2725 2.27252v29.95643c0 2.0239-2.4469 3.0387-3.8791 1.6065l-29.9564-29.9564c-1.4303-1.43029-.4174-3.87905 1.6066-3.87905z" fill="#01ceba"/><path d="m75.2509 2.47656c1.2541 0 2.2725 1.01661 2.2725 2.27252v29.95642c0 2.0239-2.4469 3.0387-3.879 1.6065l-29.9564-29.95639c-1.4303-1.4303-.4174-3.87905 1.6065-3.87905z" fill="#01cdb9"/><path d="m75.0244 2.70312c1.254 0 2.2725 1.01661 2.2725 2.27252v29.95636c0 2.024-2.4469 3.0387-3.8791 1.6066l-29.9564-29.95643c-1.4303-1.43029-.4174-3.87905 1.6066-3.87905z" fill="#01ccb8"/><path d="m74.8001 2.92773c1.2541 0 2.2725 1.01661 2.2725 2.27252v29.95645c0 2.0239-2.4469 3.0386-3.879 1.6065l-29.9564-29.95642c-1.4303-1.43029-.4174-3.87905 1.6065-3.87905z" fill="#01cbb7"/><path d="m74.5756 3.15322c1.2541 0 2.2725 1.01661 2.2725 2.27252v29.95636c0 2.024-2.4469 3.0387-3.879 1.6066l-29.9583-29.95829c-1.4302-1.43029-.4174-3.87904 1.6066-3.87904h29.9582z" fill="#01cab6"/><path d="m74.3496 3.37793c1.254 0 2.2725 1.0166 2.2725 2.27252v29.95645c0 2.0239-2.4469 3.0386-3.8791 1.6065l-29.9564-29.95642c-1.4303-1.4303-.4174-3.87905 1.6065-3.87905z" fill="#01c9b6"/><path d="m74.1249 3.60439c1.2541 0 2.2726 1.01661 2.2726 2.27252v29.95639c0 2.0239-2.4469 3.0387-3.8791 1.6065l-29.9564-29.95821c-1.4303-1.4303-.4174-3.87905 1.6065-3.87905h29.9564z" fill="#01c8b5"/><path d="m73.8986 3.8291c1.254 0 2.2725 1.0166 2.2725 2.27252v29.95638c0 2.024-2.4469 3.0387-3.8791 1.6066l-29.9564-29.95645c-1.4303-1.4303-.4174-3.87905 1.6066-3.87905z" fill="#01c7b4"/><path d="m73.6741 4.05371c1.254 0 2.2725 1.0166 2.2725 2.27252v29.95637c0 2.024-2.4469 3.0387-3.8791 1.6066l-29.9564-29.95644c-1.4302-1.4303-.4174-3.87905 1.6066-3.87905z" fill="#01c6b3"/><path d="m73.4497 4.28018c1.254 0 2.2725 1.0166 2.2725 2.27251v29.95641c0 2.0239-2.4469 3.0387-3.8791 1.6065l-29.9582-29.95823c-1.4303-1.4303-.4174-3.87905 1.6065-3.87905h29.9583z" fill="#01c5b2"/><path d="m73.2231 4.50391c1.254 0 2.2725 1.0166 2.2725 2.27251v29.95638c0 2.024-2.4469 3.0369-3.879 1.6066l-29.9564-29.95645c-1.4303-1.43029-.4174-3.87904 1.6065-3.87904z" fill="#01c4b1"/><path d="m72.999 4.73135c1.254 0 2.2725 1.0166 2.2725 2.27251v29.95644c0 2.0239-2.4469 3.0386-3.8791 1.6065l-29.9564-29.95826c-1.4303-1.4303-.4174-3.87905 1.6066-3.87905h29.9564z" fill="#01c3b0"/><path d="m72.7725 4.95508c1.2541 0 2.2725 1.0166 2.2725 2.27251v29.95641c0 2.0239-2.4469 3.0387-3.879 1.6065l-29.9564-29.95638c-1.4303-1.43029-.4174-3.87904 1.6065-3.87904z" fill="#02c2af"/><path d="m72.548 5.17969c1.2541 0 2.2725 1.0166 2.2725 2.27251v29.9564c0 2.0239-2.4469 3.0387-3.879 1.6065l-29.9564-29.95637c-1.4303-1.43029-.4174-3.87904 1.6065-3.87904z" fill="#02c1ae"/><path d="m72.3237 5.40615c1.254 0 2.2725 1.01661 2.2725 2.27252v29.95643c0 2.0239-2.4469 3.0387-3.8791 1.6065l-29.9582-29.95826c-1.4303-1.43029-.4174-3.87904 1.6065-3.87904h29.9583z" fill="#02c0ad"/><path d="m72.0971 5.63086c1.2541 0 2.2725 1.0166 2.2725 2.27252v29.95642c0 2.0239-2.4469 3.0387-3.879 1.6065l-29.9564-29.95639c-1.4303-1.4303-.4174-3.87905 1.6065-3.87905z" fill="#02bfad"/><path d="m71.873 5.85635c1.254 0 2.2725 1.0166 2.2725 2.27251v29.95644c0 2.0239-2.4469 3.0386-3.879 1.6065l-29.9564-29.95826c-1.4303-1.4303-.4174-3.87905 1.6065-3.87905h29.9564z" fill="#02beac"/><path d="m71.6464 6.08105c1.2541 0 2.2725 1.01661 2.2725 2.27252v29.95643c0 2.0239-2.4469 3.0387-3.879 1.6065l-29.9564-29.9564c-1.4303-1.43029-.4174-3.87905 1.6065-3.87905z" fill="#02bdab"/><path d="m71.422 6.30566c1.254 0 2.2725 1.01661 2.2725 2.27252v29.95642c0 2.0239-2.4469 3.0387-3.8791 1.6065l-29.9564-29.9564c-1.4303-1.43028-.4174-3.87904 1.6066-3.87904z" fill="#02bcaa"/><path d="m71.1975 6.53213c1.2541 0 2.2725 1.0166 2.2725 2.27251v29.95636c0 2.024-2.4469 3.0369-3.879 1.6066l-29.9583-29.9583c-1.4303-1.43027-.4174-3.87903 1.6066-3.87903h29.9582z" fill="#02bba9"/><path d="m70.9711 6.75684c1.2541 0 2.2726 1.0166 2.2726 2.27251v29.95645c0 2.0239-2.4469 3.0386-3.8791 1.6065l-29.9564-29.9564c-1.4303-1.43031-.4174-3.87906 1.6065-3.87906z" fill="#02baa8"/><path d="m70.7465 6.98232c1.2541 0 2.2725 1.01661 2.2725 2.27252v29.95636c0 2.024-2.4469 3.0369-3.879 1.6066l-29.9564-29.9583c-1.4303-1.43028-.4174-3.87903 1.6065-3.87903h29.9564z" fill="#02b9a7"/><path d="m70.5204 7.20703c1.254 0 2.2725 1.0166 2.2725 2.27252v29.95645c0 2.0239-2.4469 3.0386-3.879 1.6065l-29.9564-29.9564c-1.4303-1.43032-.4174-3.87907 1.6065-3.87907z" fill="#02b8a6"/><path d="m70.2959 7.43164c1.2541 0 2.2726 1.0166 2.2726 2.27252v29.95644c0 2.0239-2.4469 3.0386-3.8791 1.6065l-29.9564-29.9564c-1.4303-1.43031-.4174-3.87906 1.6065-3.87906z" fill="#02b7a5"/><path d="m70.0696 7.6581c1.2541 0 2.2725 1.01661 2.2725 2.27252v29.95638c0 2.024-2.4469 3.0387-3.879 1.6066l-29.9564-29.9583c-1.4303-1.4303-.4174-3.87905 1.6065-3.87905h29.9564z" fill="#02b6a5"/><path d="m69.8451 7.88281c1.2541 0 2.2725 1.01661 2.2725 2.27249v29.9564c0 2.024-2.4469 3.0387-3.879 1.6066l-29.9564-29.9564c-1.4303-1.4303-.4174-3.87909 1.6065-3.87909z" fill="#02b5a4"/><path d="m69.6205 8.1083c1.2541 0 2.2726 1.0166 2.2726 2.2725v29.9564c0 2.024-2.4469 3.0387-3.8791 1.6066l-29.9564-29.9583c-1.4303-1.4303-.4174-3.87905 1.6065-3.87905h29.9564z" fill="#02b4a3"/><path d="m69.3945 8.33301c1.254 0 2.2725 1.0166 2.2725 2.27249v29.9564c0 2.024-2.4469 3.0387-3.8791 1.6066l-29.9564-29.9564c-1.4303-1.4303-.4174-3.87909 1.6066-3.87909z" fill="#03b3a2"/><path d="m69.1699 8.55762c1.254 0 2.2725 1.0166 2.2725 2.27248v29.9564c0 2.024-2.4469 3.0387-3.8791 1.6066l-29.9564-29.9564c-1.4303-1.4303-.4174-3.87908 1.6066-3.87908z" fill="#03b2a1"/><path d="m68.9435 8.78418c1.2541 0 2.2725 1.0166 2.2725 2.27252v29.9564c0 2.0239-2.4469 3.0387-3.879 1.6065l-29.9564-29.9564c-1.4303-1.4303-.4174-3.87902 1.6065-3.87902z" fill="#03b1a0"/><path d="m68.7191 9.00879c1.254 0 2.2725 1.01661 2.2725 2.27251v29.9564c0 2.0239-2.4469 3.0387-3.8791 1.6065l-29.9564-29.9564c-1.4303-1.4303-.4174-3.87901 1.6066-3.87901z" fill="#03b09f"/><path d="m68.4946 9.23428c1.254 0 2.2725 1.01662 2.2725 2.27252v29.9564c0 2.0239-2.4469 3.0387-3.8791 1.6065l-29.9582-29.9582c-1.4303-1.4303-.4174-3.87908 1.6065-3.87908h29.9583z" fill="#03af9e"/><path d="m68.2685 9.45898c1.2541 0 2.2725 1.01662 2.2725 2.27252v29.9564c0 2.0239-2.4469 3.0368-3.879 1.6065l-29.9564-29.9564c-1.4303-1.4303-.4174-3.87902 1.6065-3.87902z" fill="#03ae9d"/><path d="m68.0439 9.68545c1.254 0 2.2725 1.01665 2.2725 2.27255v29.9564c0 2.0239-2.4469 3.0386-3.879 1.6065l-29.9564-29.9583c-1.4303-1.4303-.4174-3.87901 1.6065-3.87901h29.9564z" fill="#03ad9c"/><path d="m67.8175 9.91016c1.254 0 2.2725 1.01664 2.2725 2.27254v29.9564c0 2.0239-2.4469 3.0387-3.8791 1.6065l-29.9564-29.9564c-1.4303-1.4303-.4174-3.87904 1.6066-3.87904z" fill="#03ac9c"/><path d="m67.593 10.1348c1.2541 0 2.2725 1.0166 2.2725 2.2725v29.9564c0 2.0239-2.4469 3.0387-3.879 1.6065l-29.9564-29.9564c-1.4303-1.4303-.4174-3.879 1.6065-3.879z" fill="#03ab9b"/><path d="m67.3686 10.3612c1.2541 0 2.2725 1.0166 2.2725 2.2725v29.9565c0 2.0239-2.4469 3.0386-3.879 1.6065l-29.9583-29.9583c-1.4303-1.4303-.4174-3.879 1.6065-3.879h29.9583z" fill="#03aa9a"/><path d="m67.142 10.585c1.2541 0 2.2726 1.0166 2.2726 2.2725v29.9564c0 2.0239-2.4469 3.0368-3.8791 1.6065l-29.9564-29.9564c-1.4303-1.4303-.4174-3.879 1.6065-3.879z" fill="#03a999"/><path d="m66.9178 10.8114c1.254 0 2.2725 1.0166 2.2725 2.2725v29.9564c0 2.024-2.4469 3.0369-3.8791 1.6066l-29.9564-29.9583c-1.4303-1.4303-.4174-3.879 1.6066-3.879h29.9564z" fill="#03a898"/><path d="m66.6914 11.0361c1.2541 0 2.2726 1.0166 2.2726 2.2725v29.9565c0 2.0239-2.4469 3.0386-3.8791 1.6065l-29.9564-29.9564c-1.4303-1.4303-.4174-3.8791 1.6065-3.8791z" fill="#03a797"/><path d="m66.467 11.2607c1.254 0 2.2725 1.0166 2.2725 2.2726v29.9564c0 2.0239-2.4469 3.0386-3.879 1.6065l-29.9565-29.9564c-1.4302-1.4303-.4174-3.8791 1.6066-3.8791z" fill="#03a696"/><path d="m66.2426 11.4872c1.2541 0 2.2725 1.0166 2.2725 2.2725v29.9564c0 2.024-2.4469 3.0387-3.879 1.6066l-29.9583-29.9583c-1.4303-1.4303-.4174-3.879 1.6066-3.879h29.9582z" fill="#04a595"/><path d="m66.0161 11.7119c1.254 0 2.2725 1.0166 2.2725 2.2725v29.9564c0 2.024-2.4469 3.0387-3.8791 1.6066l-29.9564-29.9564c-1.4303-1.4303-.4174-3.8791 1.6066-3.8791z" fill="#04a494"/><path d="m65.7917 11.9374c1.254 0 2.2725 1.0166 2.2725 2.2725v29.9564c0 2.024-2.4469 3.0368-3.8791 1.6066l-29.9564-29.9583c-1.4303-1.4303-.4174-3.8791 1.6066-3.8791h29.9564z" fill="#04a394"/><path d="m65.5653 12.1621c1.2541 0 2.2726 1.0166 2.2726 2.2725v29.9564c0 2.024-2.4469 3.0387-3.8791 1.6066l-29.9564-29.9564c-1.4303-1.4303-.4174-3.8791 1.6065-3.8791z" fill="#04a293"/><path d="m65.3409 12.3867c1.254 0 2.2725 1.0166 2.2725 2.2725v29.9564c0 2.024-2.4469 3.0387-3.879 1.6066l-29.9564-29.9564c-1.4303-1.4303-.4175-3.8791 1.6065-3.8791z" fill="#04a192"/><path d="m65.1146 12.6132c1.254 0 2.2725 1.0166 2.2725 2.2725v29.9564c0 2.0239-2.4469 3.0387-3.8791 1.6065l-29.9564-29.9582c-1.4303-1.4303-.4174-3.8791 1.6066-3.8791h29.9564z" fill="#04a091"/><path d="m64.8901 12.8379c1.254 0 2.2725 1.0166 2.2725 2.2725v29.9564c0 2.0239-2.4469 3.0387-3.879 1.6065l-29.9565-29.9564c-1.4302-1.4303-.4174-3.879 1.6066-3.879z" fill="#049f90"/><path d="m64.6655 13.0634c1.254 0 2.2725 1.0166 2.2725 2.2725v29.9564c0 2.0239-2.4469 3.0368-3.8791 1.6065l-29.9564-29.9582c-1.4303-1.4303-.4174-3.8791 1.6066-3.8791h29.9564z" fill="#049e8f"/><path d="m64.4393 13.2881c1.2541 0 2.2725 1.0166 2.2725 2.2725v29.9564c0 2.0239-2.4469 3.0368-3.879 1.6065l-29.9564-29.9564c-1.4303-1.4303-.4174-3.879 1.6065-3.879z" fill="#049d8e"/><path d="m64.2148 13.5127c1.254 0 2.2725 1.0166 2.2725 2.2725v29.9564c0 2.0239-2.4469 3.0387-3.879 1.6065l-29.9564-29.9564c-1.4303-1.4303-.4174-3.879 1.6065-3.879z" fill="#049c8d"/><path d="m63.9887 13.7393c1.2541 0 2.2725 1.0166 2.2725 2.2725v29.9564c0 2.0239-2.4469 3.0387-3.879 1.6065l-29.9564-29.9564c-1.4303-1.4303-.4174-3.879 1.6065-3.879z" fill="#049b8c"/><path d="m63.764 13.9639c1.2541 0 2.2726 1.0166 2.2726 2.2725v29.9564c0 2.0239-2.4469 3.0387-3.8791 1.6065l-29.9564-29.9564c-1.4303-1.4303-.4174-3.879 1.6065-3.879z" fill="#049a8b"/><path d="m63.5396 14.1895c1.254 0 2.2725 1.0166 2.2725 2.2725v29.9564c0 2.0239-2.4469 3.0387-3.879 1.6065l-29.9564-29.9564c-1.4303-1.4303-.4175-3.879 1.6065-3.879z" fill="#04998b"/><path d="m63.3134 14.4141c1.2541 0 2.2725 1.0166 2.2725 2.2725v29.9564c0 2.0239-2.4469 3.0368-3.879 1.6065l-29.9564-29.9564c-1.4303-1.4303-.4174-3.879 1.6065-3.879z" fill="#04988a"/><path d="m63.0888 14.6406c1.254 0 2.2725 1.0166 2.2725 2.2725v29.9564c0 2.024-2.4469 3.0387-3.879 1.6066l-29.9565-29.9564c-1.4302-1.4303-.4174-3.8791 1.6066-3.8791z" fill="#059789"/><path d="m62.8625 14.8652c1.2541 0 2.2725 1.0166 2.2725 2.2726v29.9564c0 2.0239-2.4469 3.0386-3.879 1.6065l-29.9564-29.9564c-1.4303-1.4303-.4174-3.8791 1.6065-3.8791z" fill="#059688"/><path d="m62.638 15.0898c1.2541 0 2.2725 1.0166 2.2725 2.2726v29.9564c0 2.0239-2.4469 3.0386-3.879 1.6065l-29.9564-29.9564c-1.4303-1.4303-.4174-3.8791 1.6065-3.8791z" fill="#059587"/><path d="m62.4135 15.3154c1.2541 0 2.2725 1.0166 2.2725 2.2725v29.9565c0 2.0239-2.4469 3.0386-3.879 1.6065l-29.9564-29.9564c-1.4303-1.4303-.4174-3.8791 1.6065-3.8791z" fill="#059486"/><path d="m62.187 15.54c1.254 0 2.2725 1.0166 2.2725 2.2726v29.9564c0 2.0239-2.4469 3.0386-3.8791 1.6065l-29.9564-29.9564c-1.4303-1.4303-.4174-3.8791 1.6065-3.8791z" fill="#059385"/><path d="m61.9628 15.7666c1.2541 0 2.2726 1.0166 2.2726 2.2725v29.9564c0 2.024-2.4469 3.0368-3.8791 1.6066l-29.9564-29.9565c-1.4303-1.4302-.4174-3.879 1.6065-3.879z" fill="#059284"/><path d="m61.7364 15.9912c1.2541 0 2.2725 1.0166 2.2725 2.2725v29.9564c0 2.024-2.4469 3.0387-3.879 1.6066l-29.9564-29.9564c-1.4303-1.4303-.4174-3.8791 1.6065-3.8791z" fill="#059183"/><path d="m61.5119 16.2158c1.2541 0 2.2726 1.0166 2.2726 2.2725v29.9564c0 2.024-2.4469 3.0387-3.8791 1.6066l-29.9564-29.9564c-1.4303-1.4303-.4174-3.8791 1.6065-3.8791z" fill="#059082"/><path d="m61.2875 16.4414c1.2541 0 2.2726 1.0166 2.2726 2.2725v29.9564c0 2.024-2.4469 3.0387-3.8791 1.6066l-29.9564-29.9564c-1.4303-1.4303-.4174-3.8791 1.6065-3.8791z" fill="#058f82"/><path d="m61.061 16.667c1.254 0 2.2725 1.0166 2.2725 2.2725v29.9564c0 2.0239-2.4469 3.0387-3.8791 1.6065l-29.9564-29.9564c-1.4303-1.4303-.4174-3.879 1.6066-3.879z" fill="#058e81"/><path d="m60.8369 16.8926c1.254 0 2.2725 1.0166 2.2725 2.2725v29.9564c0 2.0239-2.4469 3.0368-3.8791 1.6065l-29.9564-29.9564c-1.4303-1.4303-.4174-3.879 1.6066-3.879z" fill="#058d80"/><path d="m60.6104 17.1172c1.254 0 2.2725 1.0166 2.2725 2.2725v29.9564c0 2.0239-2.4469 3.0387-3.8791 1.6065l-29.9564-29.9564c-1.4303-1.4303-.4174-3.879 1.6065-3.879z" fill="#058c7f"/><path d="m60.3859 17.3418c1.2541 0 2.2725 1.0166 2.2725 2.2725v29.9564c0 2.0239-2.4469 3.0387-3.879 1.6065l-29.9564-29.9564c-1.4303-1.4303-.4174-3.879 1.6065-3.879z" fill="#058b7e"/><path d="m60.1616 17.5684c1.254 0 2.2725 1.0166 2.2725 2.2725v29.9564c0 2.0239-2.4469 3.0387-3.8791 1.6065l-29.9564-29.9564c-1.4303-1.4303-.4174-3.879 1.6066-3.879z" fill="#058a7d"/><path d="m59.935 17.793c1.2541 0 2.2725 1.0166 2.2725 2.2725v29.9564c0 2.0239-2.4469 3.0387-3.879 1.6065l-29.9564-29.9564c-1.4303-1.4303-.4174-3.879 1.6065-3.879z" fill="#05897c"/><path d="m59.7104 18.0195c1.2541 0 2.2725 1.0166 2.2725 2.2725v29.9564c0 2.024-2.4469 3.0387-3.879 1.6066l-29.9564-29.9564c-1.4303-1.4303-.4174-3.8791 1.6065-3.8791z" fill="#06887b"/><path d="m59.4843 18.2432c1.2541 0 2.2725 1.0166 2.2725 2.2725v29.9564c0 2.0239-2.4469 3.0387-3.879 1.6065l-29.9564-29.9564c-1.4303-1.4303-.4174-3.879 1.6065-3.879z" fill="#06877a"/><path d="m59.2599 18.4678c1.254 0 2.2725 1.0166 2.2725 2.2725v29.9564c0 2.0239-2.4469 3.0387-3.8791 1.6065l-29.9564-29.9564c-1.4303-1.4303-.4174-3.879 1.6066-3.879z" fill="#06867a"/><path d="m59.0336 18.6943c1.2541 0 2.2726 1.0166 2.2726 2.2726v29.9564c0 2.0239-2.4469 3.0386-3.8791 1.6065l-29.9564-29.9564c-1.4303-1.4303-.4174-3.8791 1.6065-3.8791z" fill="#068579"/><path d="m58.809 18.9189c1.2541 0 2.2725 1.0166 2.2725 2.2726v29.9564c0 2.0239-2.4469 3.0386-3.879 1.6065l-29.9564-29.9564c-1.4303-1.4303-.4174-3.8791 1.6065-3.8791z" fill="#068478"/><path d="m58.5845 19.1445c1.2541 0 2.2726 1.0166 2.2726 2.2725v29.9564c0 2.024-2.4469 3.0387-3.8791 1.6066l-29.9564-29.9564c-1.4303-1.4303-.4174-3.8791 1.6065-3.8791z" fill="#068377"/><path d="m58.3583 19.3691c1.2541 0 2.2726 1.0166 2.2726 2.2726v29.9564c0 2.0239-2.4469 3.0368-3.8791 1.6065l-29.9564-29.9564c-1.4303-1.4303-.4174-3.8791 1.6065-3.8791z" fill="#068276"/><path d="m58.1337 19.5938c1.2541 0 2.2725 1.0166 2.2725 2.2725v29.9564c0 2.0239-2.4468 3.0387-3.879 1.6065l-29.9564-29.9564c-1.4303-1.4303-.4174-3.879 1.6065-3.879z" fill="#068175"/><path d="m57.9074 19.8203c1.2541 0 2.2726 1.0166 2.2726 2.2725v29.9564c0 2.024-2.4469 3.0387-3.8791 1.6066l-29.9564-29.9564c-1.4303-1.4303-.4174-3.8791 1.6065-3.8791z" fill="#068074"/><path d="m57.683 20.0449c1.254 0 2.2725 1.0166 2.2725 2.2725v29.9564c0 2.024-2.4469 3.0387-3.879 1.6066l-29.9564-29.9564c-1.4303-1.4303-.4174-3.8791 1.6065-3.8791z" fill="#067f73"/><path d="m57.4584 20.2705c1.2541 0 2.2726 1.0166 2.2726 2.2725v29.9564c0 2.024-2.4469 3.0387-3.8791 1.6066l-29.9564-29.9564c-1.4303-1.4303-.4174-3.8791 1.6065-3.8791z" fill="#067e72"/><path d="m57.2324 20.4951c1.254 0 2.2725 1.0166 2.2725 2.2725v29.9564c0 2.024-2.4469 3.0387-3.8791 1.6066l-29.9564-29.9564c-1.4303-1.4303-.4174-3.8791 1.6066-3.8791z" fill="#067d71"/><path d="m57.0078 20.7217c1.254 0 2.2725 1.0166 2.2725 2.2725v29.9564c0 2.0239-2.4469 3.0387-3.8791 1.6065l-29.9564-29.9564c-1.4303-1.4303-.4174-3.879 1.6065-3.879z" fill="#067c71"/><path d="m56.7814 20.9463c1.2541 0 2.2725 1.0166 2.2725 2.2725v29.9564c0 2.0239-2.4469 3.0387-3.879 1.6065l-29.9564-29.9564c-1.4303-1.4303-.4174-3.879 1.6065-3.879z" fill="#067b70"/><path d="m56.557 21.1709c1.254 0 2.2725 1.0166 2.2725 2.2725v29.9564c0 2.024-2.4469 3.0368-3.8791 1.6066l-29.9564-29.9565c-1.4303-1.4302-.4174-3.879 1.6065-3.879z" fill="#077a6f"/><path d="m56.3325 21.3965c1.254 0 2.2725 1.0166 2.2725 2.2725v29.9564c0 2.0239-2.4469 3.0387-3.8791 1.6065l-29.9564-29.9564c-1.4303-1.4303-.4174-3.879 1.6066-3.879z" fill="#07796e"/><path d="m56.1064 21.6211c1.254 0 2.2725 1.0166 2.2725 2.2725v29.9564c0 2.0239-2.4469 3.0387-3.879 1.6065l-29.9564-29.9564c-1.4303-1.4303-.4174-3.879 1.6065-3.879z" fill="#07786d"/><path d="m55.8818 21.8477c1.254 0 2.2725 1.0166 2.2725 2.2725v29.9564c0 2.0239-2.4469 3.0387-3.879 1.6065l-29.9565-29.9564c-1.4302-1.4303-.4174-3.879 1.6066-3.879z" fill="#07776c"/><path d="m55.6553 22.0723c1.2541 0 2.2726 1.0166 2.2726 2.2725v29.9564c0 2.0239-2.4469 3.0387-3.8791 1.6065l-29.9564-29.9564c-1.4303-1.4303-.4174-3.879 1.6065-3.879z" fill="#07766b"/><path d="m55.4309 22.2969c1.254 0 2.2725 1.0166 2.2725 2.2725v29.9564c0 2.0239-2.4469 3.0387-3.8791 1.6065l-29.9564-29.9564c-1.4303-1.4303-.4174-3.879 1.6065-3.879z" fill="#07756a"/><path d="m55.2065 22.5234c1.254 0 2.2725 1.0166 2.2725 2.2726v29.9564c0 2.0239-2.4469 3.0386-3.879 1.6065l-29.9564-29.9564c-1.4303-1.4303-.4174-3.8791 1.6065-3.8791z" fill="#077469"/><path d="m54.9799 22.748c1.2541 0 2.2725 1.0166 2.2725 2.2726v29.9564c0 2.0239-2.4469 3.0368-3.879 1.6065l-29.9564-29.9564c-1.4303-1.4303-.4174-3.8791 1.6065-3.8791z" fill="#077369"/><path d="m54.7558 22.9736c1.2541 0 2.2725 1.0166 2.2725 2.2725v29.9565c0 2.0239-2.4469 3.0386-3.879 1.6065l-29.9564-29.9564c-1.4303-1.4303-.4174-3.8791 1.6065-3.8791z" fill="#077268"/><path d="m54.5293 23.1982c1.254 0 2.2725 1.0166 2.2725 2.2726v29.9564c0 2.0239-2.4469 3.0386-3.8791 1.6065l-29.9564-29.9564c-1.4303-1.4303-.4174-3.8791 1.6066-3.8791z" fill="#077167"/><path d="m54.3046 23.4229c1.2541 0 2.2725 1.0166 2.2725 2.2725v29.9564c0 2.0239-2.4468 3.0386-3.879 1.6065l-29.9564-29.9564c-1.4303-1.4303-.4174-3.879 1.6065-3.879z" fill="#077066"/><path d="m54.0805 23.6494c1.2541 0 2.2725 1.0166 2.2725 2.2725v29.9564c0 2.024-2.4469 3.0387-3.879 1.6066l-29.9564-29.9564c-1.4303-1.4303-.4174-3.8791 1.6065-3.8791z" fill="#076f65"/><path d="m53.8539 23.874c1.2541 0 2.2726 1.0166 2.2726 2.2725v29.9564c0 2.024-2.4469 3.0387-3.8791 1.6066l-29.9564-29.9564c-1.4303-1.4303-.4174-3.8791 1.6065-3.8791z" fill="#076e64"/><path d="m53.6296 24.0996c1.254 0 2.2725 1.0166 2.2725 2.2725v29.9564c0 2.024-2.4469 3.0387-3.8791 1.6066l-29.9564-29.9564c-1.4303-1.4303-.4174-3.8791 1.6065-3.8791z" fill="#076d63"/><path d="m53.4032 24.3242c1.2541 0 2.2726 1.0166 2.2726 2.2725v29.9564c0 2.024-2.4469 3.0387-3.8791 1.6066l-29.9564-29.9564c-1.4303-1.4303-.4174-3.8791 1.6065-3.8791z" fill="#076c62"/><path d="m53.1787 24.5488c1.254 0 2.2725 1.0166 2.2725 2.2725v29.9564c0 2.024-2.4469 3.0387-3.8791 1.6066l-29.9564-29.9564c-1.4303-1.4303-.4174-3.8791 1.6065-3.8791z" fill="#086b61"/><path d="m52.9526 24.7754c1.254 0 2.2725 1.0166 2.2725 2.2725v29.9564c0 2.0239-2.4469 3.0387-3.879 1.6065l-29.9565-29.9564c-1.4302-1.4303-.4174-3.879 1.6066-3.879z" fill="#086a60"/><path d="m52.728 25c1.254 0 2.2725 1.0166 2.2725 2.2725v29.9564c0 2.024-2.4469 3.0368-3.8791 1.6066l-29.9564-29.9565c-1.4303-1.4302-.4174-3.879 1.6066-3.879z" fill="#086960"/><path d="m52.5035 25.2256c1.2541 0 2.2725 1.0166 2.2725 2.2725v29.9564c0 2.0239-2.4469 3.0387-3.879 1.6065l-29.9564-29.9564c-1.4303-1.4303-.4174-3.879 1.6065-3.879z" fill="#08685f"/><path d="m52.2773 25.4502c1.254 0 2.2725 1.0166 2.2725 2.2725v29.9564c0 2.0239-2.4469 3.0387-3.879 1.6065l-29.9564-29.9564c-1.4303-1.4303-.4175-3.879 1.6065-3.879z" fill="#08675e"/><path d="m52.0527 25.6748c1.254 0 2.2725 1.0166 2.2725 2.2725v29.9564c0 2.024-2.4469 3.0387-3.8791 1.6066l-29.9564-29.9564c-1.4303-1.4303-.4174-3.8791 1.6066-3.8791z" fill="#08665d"/><path d="m51.8264 25.9014c1.254 0 2.2725 1.0166 2.2725 2.2725v29.9564c0 2.0239-2.4469 3.0387-3.8791 1.6065l-29.9564-29.9564c-1.4303-1.4303-.4174-3.879 1.6066-3.879z" fill="#08655c"/><path d="m51.6019 26.126c1.2541 0 2.2725 1.0166 2.2725 2.2725v29.9564c0 2.0239-2.4469 3.0387-3.879 1.6065l-29.9564-29.9564c-1.4303-1.4303-.4174-3.879 1.6065-3.879z" fill="#08645b"/><path d="m51.3774 26.3516c1.254 0 2.2725 1.0166 2.2725 2.2725v29.9564c0 2.0239-2.4469 3.0387-3.879 1.6065l-29.9565-29.9564c-1.4302-1.4303-.4174-3.879 1.6066-3.879z" fill="#08635a"/><path d="m51.1513 26.5762c1.2541 0 2.2725 1.0166 2.2725 2.2725v29.9564c0 2.0239-2.4469 3.0387-3.879 1.6065l-29.9564-29.9564c-1.4303-1.4303-.4174-3.879 1.6065-3.879z" fill="#086259"/><path d="m50.9266 26.8027c1.2541 0 2.2726 1.0166 2.2726 2.2726v29.9564c0 2.0239-2.4469 3.0386-3.8791 1.6065l-29.9564-29.9564c-1.4303-1.4303-.4174-3.8791 1.6065-3.8791z" fill="#086158"/><path d="m50.7003 27.0273c1.2541 0 2.2725 1.0166 2.2725 2.2726v29.9564c0 2.0239-2.4469 3.0386-3.879 1.6065l-29.9564-29.9564c-1.4303-1.4303-.4174-3.8791 1.6065-3.8791z" fill="#086057"/><path d="m50.476 27.252c1.2541 0 2.2725 1.0166 2.2725 2.2725v29.9564c0 2.0239-2.4469 3.0387-3.879 1.6065l-29.9564-29.9564c-1.4303-1.4303-.4174-3.879 1.6065-3.879z" fill="#085f57"/><path d="m50.2514 27.4775c1.2541 0 2.2725 1.0166 2.2725 2.2726v29.9564c0 2.0239-2.4469 3.0386-3.879 1.6065l-29.9564-29.9564c-1.4303-1.4303-.4174-3.8791 1.6065-3.8791z" fill="#085e56"/><path d="m50.0248 27.7031c1.2541 0 2.2726 1.0166 2.2726 2.2725v29.9564c0 2.024-2.4469 3.0387-3.8791 1.6066l-29.9564-29.9564c-1.4303-1.4303-.4174-3.8791 1.6065-3.8791z" fill="#095d55"/><path d="m49.8007 27.9287c1.2541 0 2.2725 1.0166 2.2725 2.2725v29.9564c0 2.024-2.4469 3.0387-3.879 1.6066l-29.9564-29.9564c-1.4303-1.4303-.4174-3.8791 1.6065-3.8791z" fill="#095c54"/><path d="m49.5743 28.1533c1.254 0 2.2725 1.0166 2.2725 2.2725v29.9564c0 2.024-2.4469 3.0387-3.879 1.6066l-29.9565-29.9564c-1.4302-1.4303-.4174-3.8791 1.6066-3.8791z" fill="#095b53"/><path d="m49.3498 28.3779c1.2541 0 2.2725 1.0166 2.2725 2.2725v29.9564c0 2.024-2.4469 3.0387-3.879 1.6066l-29.9564-29.9564c-1.4303-1.4303-.4174-3.8791 1.6065-3.8791z" fill="#095a52"/><path d="m49.1254 28.6045c1.2541 0 2.2725 1.0166 2.2725 2.2725v29.9564c0 2.0239-2.4468 3.0368-3.879 1.6065l-29.9564-29.9564c-1.4303-1.4303-.4174-3.879 1.6065-3.879z" fill="#095951"/><path d="m48.899 28.8291c1.2541 0 2.2725 1.0166 2.2725 2.2725v29.9564c0 2.024-2.4469 3.0387-3.879 1.6066l-29.9564-29.9565c-1.4303-1.4302-.4174-3.879 1.6065-3.879z" fill="#095850"/><path d="m48.6745 29.0547c1.2541 0 2.2726 1.0166 2.2726 2.2725v29.9564c0 2.0239-2.4469 3.0387-3.8791 1.6065l-29.9564-29.9564c-1.4303-1.4303-.4174-3.879 1.6065-3.879z" fill="#09574f"/><path d="m48.4482 29.2793c1.2541 0 2.2725 1.0166 2.2725 2.2725v29.9564c0 2.024-2.4469 3.0368-3.879 1.6065l-29.9564-29.9564c-1.4303-1.4302-.4174-3.879 1.6065-3.879z" fill="#09564f"/><path d="m48.2237 29.5039c1.2541 0 2.2725 1.0166 2.2725 2.2725v29.9564c0 2.024-2.4469 3.0387-3.879 1.6066l-29.9564-29.9564c-1.4303-1.4303-.4174-3.8791 1.6065-3.8791z" fill="#09554e"/><path d="m47.9975 29.7305c1.2541 0 2.2725 1.0166 2.2725 2.2725v29.9564c0 2.0239-2.4469 3.0387-3.879 1.6065l-29.9564-29.9564c-1.4303-1.4303-.4174-3.879 1.6065-3.879z" fill="#09544d"/><path d="m47.7729 29.9551c1.2541 0 2.2725 1.0166 2.2725 2.2725v29.9564c0 2.0239-2.4469 3.0387-3.879 1.6065l-29.9564-29.9564c-1.4303-1.4303-.4174-3.879 1.6065-3.879z" fill="#09534c"/><path d="m47.5485 30.1807c1.254 0 2.2725 1.0166 2.2725 2.2725v29.9564c0 2.0239-2.4469 3.0387-3.8791 1.6065l-29.9564-29.9564c-1.4303-1.4303-.4174-3.879 1.6066-3.879z" fill="#09524b"/><path d="m47.3222 30.4053c1.2541 0 2.2725 1.0166 2.2725 2.2725v29.9564c0 2.0239-2.4469 3.0387-3.879 1.6065l-29.9564-29.9564c-1.4303-1.4303-.4174-3.879 1.6065-3.879z" fill="#09514a"/><path d="m47.0977 30.6299c1.2541 0 2.2725 1.0166 2.2725 2.2725v29.9564c0 2.0239-2.4469 3.0387-3.879 1.6065l-29.9564-29.9564c-1.4303-1.4303-.4174-3.879 1.6065-3.879z" fill="#095049"/><path d="m46.8714 30.8564c1.254 0 2.2725 1.0166 2.2725 2.2726v29.9564c0 2.0239-2.4469 3.0386-3.8791 1.6065l-29.9564-29.9564c-1.4303-1.4303-.4174-3.8791 1.6066-3.8791z" fill="#094f48"/><path d="m46.6469 31.0811c1.2541 0 2.2725 1.0166 2.2725 2.2725v29.9564c0 2.0239-2.4469 3.0387-3.879 1.6065l-29.9564-29.9564c-1.4303-1.4303-.4174-3.879 1.6065-3.879z" fill="#0a4e47"/><path d="m46.4223 31.3066c1.2541 0 2.2725 1.0166 2.2725 2.2726v29.9564c0 2.0239-2.4469 3.0386-3.879 1.6065l-29.9564-29.9564c-1.4303-1.4303-.4174-3.8791 1.6065-3.8791z" fill="#0a4d46"/><path d="m46.1962 31.5312c1.2541 0 2.2726 1.0167 2.2726 2.2726v29.9564c0 2.0239-2.4469 3.0386-3.8791 1.6065l-29.9564-29.9564c-1.4303-1.4303-.4174-3.8791 1.6065-3.8791z" fill="#0a4c46"/><path d="m45.9716 31.7578c1.2541 0 2.2725 1.0166 2.2725 2.2725v29.9564c0 2.024-2.4469 3.0387-3.879 1.6066l-29.9564-29.9564c-1.4303-1.4303-.4174-3.8791 1.6065-3.8791z" fill="#0a4b45"/><path d="m45.7453 31.9824c1.2541 0 2.2726 1.0166 2.2726 2.2725v29.9564c0 2.024-2.4469 3.0387-3.8791 1.6066l-29.9564-29.9564c-1.4303-1.4303-.4174-3.8791 1.6065-3.8791z" fill="#0a4a44"/><path d="m45.5209 32.207c1.254 0 2.2725 1.0166 2.2725 2.2725v29.9564c0 2.024-2.4469 3.0387-3.8791 1.6066l-29.9564-29.9564c-1.4303-1.4303-.4174-3.8791 1.6066-3.8791z" fill="#0a4943"/><path d="m45.2963 32.4326c1.2541 0 2.2725 1.0166 2.2725 2.2725v29.9564c0 2.024-2.4468 3.0387-3.879 1.6066l-29.9564-29.9564c-1.4303-1.4303-.4174-3.8791 1.6065-3.8791z" fill="#0a4842"/><path d="m45.0703 32.6572c1.254 0 2.2725 1.0166 2.2725 2.2725v29.9565c0 2.0239-2.4469 3.0368-3.8791 1.6065l-29.9564-29.9564c-1.4303-1.4303-.4174-3.8791 1.6065-3.8791z" fill="#0a4741"/><path d="m44.8456 32.8838c1.2541 0 2.2726 1.0166 2.2726 2.2725v29.9564c0 2.0239-2.4469 3.0387-3.8791 1.6065l-29.9564-29.9564c-1.4303-1.4303-.4174-3.879 1.6065-3.879z" fill="#0a4640"/><path d="m44.6192 33.1084c1.2541 0 2.2726 1.0166 2.2726 2.2725v29.9564c0 2.0239-2.4469 3.0387-3.8791 1.6065l-29.9564-29.9564c-1.4303-1.4302-.4174-3.879 1.6065-3.879z" fill="#0a453f"/><path d="m44.395 33.333c1.254 0 2.2725 1.0166 2.2725 2.2725v29.9564c0 2.024-2.4469 3.0369-3.8791 1.6066l-29.9564-29.9564c-1.4303-1.4303-.4174-3.8791 1.6066-3.8791z" fill="#0a443e"/><path d="m44.1704 33.5596c1.254 0 2.2725 1.0166 2.2725 2.2725v29.9564c0 2.0239-2.4469 3.0387-3.8791 1.6065l-29.9564-29.9564c-1.4303-1.4303-.4174-3.879 1.6065-3.879z" fill="#0a433d"/><path d="m43.9438 33.7842c1.2541 0 2.2725 1.0166 2.2725 2.2725v29.9564c0 2.0239-2.4469 3.0387-3.879 1.6065l-29.9564-29.9564c-1.4303-1.4303-.4174-3.879 1.6065-3.879z" fill="#0a423d"/><path d="m43.7195 34.0098c1.2541 0 2.2725 1.0166 2.2725 2.2725v29.9564c0 2.0239-2.4469 3.0387-3.879 1.6065l-29.9564-29.9564c-1.4303-1.4303-.4174-3.879 1.6065-3.879z" fill="#0a413c"/><path d="m43.4932 34.2344c1.2541 0 2.2725 1.0166 2.2725 2.2725v29.9564c0 2.0239-2.4469 3.0387-3.879 1.6065l-29.9564-29.9564c-1.4303-1.4303-.4174-3.879 1.6065-3.879z" fill="#0b403b"/><path d="m43.2685 34.459c1.2541 0 2.2725 1.0166 2.2725 2.2725v29.9564c0 2.0239-2.4469 3.0387-3.879 1.6065l-29.9564-29.9564c-1.4303-1.4303-.4174-3.879 1.6065-3.879z" fill="#0b3f3a"/><path d="m43.0444 34.6855c1.254 0 2.2725 1.0167 2.2725 2.2726v29.9564c0 2.0239-2.4469 3.0386-3.8791 1.6065l-29.9564-29.9564c-1.4303-1.4303-.4174-3.8791 1.6066-3.8791z" fill="#0b3e39"/><path d="m42.8178 34.9102c1.2541 0 2.2725 1.0166 2.2725 2.2725v29.9564c0 2.0239-2.4469 3.0387-3.879 1.6065l-29.9564-29.9564c-1.43032-1.4303-.4174-3.879 1.6065-3.879z" fill="#0b3d38"/><path d="m42.5935 35.1357c1.254 0 2.2725 1.0166 2.2725 2.2726v29.9564c0 2.0239-2.4469 3.0386-3.8791 1.6065l-29.9564-29.9564c-1.43025-1.4303-.4174-3.8791 1.6066-3.8791z" fill="#0b3c37"/><path d="m42.3672 35.3604c1.254 0 2.2725 1.0166 2.2725 2.2725v29.9564c0 2.0239-2.4469 3.0386-3.8791 1.6065l-29.9564-29.9564c-1.43027-1.4303-.4174-3.879 1.6066-3.879z" fill="#0b3b36"/><path d="m42.1426 35.585c1.2541 0 2.2726 1.0166 2.2726 2.2725v29.9564c0 2.0239-2.4469 3.0387-3.8791 1.6065l-29.9564-29.9564c-1.43028-1.4303-.4174-3.879 1.6065-3.879z" fill="#0b3a35"/><path d="m41.9164 35.8115c1.2541 0 2.2726 1.0166 2.2726 2.2725v29.9564c0 2.024-2.4469 3.0387-3.8791 1.6066l-29.9564-29.9564c-1.43028-1.4303-.41739-3.8791 1.6065-3.8791z" fill="#0b3935"/><path d="m41.6919 36.0361c1.254 0 2.2725 1.0166 2.2725 2.2725v29.9565c0 2.0239-2.4469 3.0386-3.8791 1.6065l-29.9564-29.9564c-1.43026-1.4303-.41737-3.8791 1.6066-3.8791z" fill="#0b3834"/><path d="m41.4674 36.2617c1.2541 0 2.2725 1.0166 2.2725 2.2725v29.9564c0 2.024-2.4469 3.0387-3.879 1.6066l-29.95642-29.9564c-1.4303-1.4303-.4174-3.8791 1.60652-3.8791z" fill="#0b3733"/><path d="m41.2412 36.4863c1.254 0 2.2725 1.0166 2.2725 2.2725v29.9565c0 2.0239-2.4469 3.0386-3.8791 1.6065l-29.95638-29.9564c-1.4303-1.4303-.4174-3.8791 1.60648-3.8791z" fill="#0b3632"/><path d="m41.0166 36.7109c1.2541 0 2.2725 1.0166 2.2725 2.2726v29.9564c0 2.0239-2.4469 3.0386-3.879 1.6065l-29.95643-29.9564c-1.43029-1.4303-.4174-3.8791 1.60653-3.8791z" fill="#0b3531"/><path d="m40.7903 36.9375c1.254 0 2.2725 1.0166 2.2725 2.2725v29.9564c0 2.0239-2.4469 3.0387-3.879 1.6065l-29.95645-29.9564c-1.43029-1.4302-.4174-3.879 1.60655-3.879z" fill="#0b3430"/><path d="m40.5658 37.1621c1.2541 0 2.2725 1.0166 2.2725 2.2725v29.9564c0 2.024-2.4468 3.0387-3.879 1.6066l-29.9564-29.9564c-1.43029-1.4303-.4174-3.8791 1.6065-3.8791z" fill="#0b332f"/><path d="m40.3413 37.3877c1.254 0 2.2725 1.0166 2.2725 2.2725v29.9564c0 2.0239-2.4469 3.0387-3.8791 1.6065l-29.95638-29.9564c-1.4303-1.4303-.4174-3.879 1.60648-3.879z" fill="#0c322e"/><path d="m40.1152 37.6123c1.254 0 2.2725 1.0166 2.2725 2.2725v29.9564c0 2.024-2.4469 3.0369-3.8791 1.6066l-29.95636-29.9564c-1.43029-1.4303-.4174-3.8791 1.60656-3.8791z" fill="#0c312d"/><path d="m39.8906 37.8389c1.254 0 2.2725 1.0166 2.2725 2.2725v29.9564c0 2.0239-2.4469 3.0387-3.8791 1.6065l-29.95637-29.9564c-1.43029-1.4303-.4174-3.879 1.60653-3.879z" fill="#0c302c"/><path d="m39.6643 38.0635c1.254 0 2.2725 1.0166 2.2725 2.2725v29.9564c0 2.0239-2.4469 3.0387-3.8791 1.6065l-29.95639-29.9564c-1.43029-1.4303-.4174-3.879 1.60653-3.879z" fill="#0c2f2c"/><path d="m39.4398 38.2881c1.2541 0 2.2725 1.0166 2.2725 2.2725v29.9564c0 2.0239-2.4469 3.0387-3.879 1.6065l-29.95644-29.9564c-1.4303-1.4303-.4174-3.879 1.60653-3.879z" fill="#0c2e2b"/><path d="m39.2153 38.5137c1.254 0 2.2725 1.0166 2.2725 2.2725v29.9564c0 2.0239-2.4469 3.0387-3.8791 1.6065l-29.95636-29.9564c-1.43029-1.4303-.4174-3.879 1.60654-3.879z" fill="#0c2d2a"/><path d="m38.9892 38.7393c1.2541 0 2.2725 1.0166 2.2725 2.2725v29.9564c0 2.0239-2.4469 3.0386-3.879 1.6065l-29.95643-29.9564c-1.43029-1.4303-.4174-3.879 1.60653-3.879z" fill="#0c2c29"/><path d="m38.7645 38.9648c1.2541 0 2.2725 1.0166 2.2725 2.2726v29.9564c0 2.0239-2.4469 3.0386-3.879 1.6065l-29.95644-29.9564c-1.43029-1.4303-.4174-3.8791 1.60653-3.8791z" fill="#0c2b28"/><path d="m38.5382 39.1895c1.254 0 2.2725 1.0166 2.2725 2.2725v29.9564c0 2.0239-2.4469 3.0387-3.879 1.6065l-29.95645-29.9564c-1.4303-1.4303-.4174-3.879 1.60653-3.879z" fill="#0c2a27"/><path d="m38.3139 39.4141c1.2541 0 2.2725 1.0166 2.2725 2.2725v29.9564c0 2.0239-2.4469 3.0387-3.879 1.6065l-29.95643-29.9564c-1.43029-1.4303-.4174-3.879 1.60653-3.879z" fill="#0c2926"/><path d="m38.0893 39.6406c1.2541 0 2.2725 1.0166 2.2725 2.2725v29.9564c0 2.024-2.4469 3.0387-3.879 1.6066l-29.95644-29.9564c-1.43029-1.4303-.4174-3.8791 1.60653-3.8791z" fill="#0c2825"/><path d="m37.8627 39.8652c1.2541 0 2.2726 1.0166 2.2726 2.2726v29.9564c0 2.0239-2.4469 3.0386-3.8791 1.6065l-29.9564-29.9564c-1.43029-1.4303-.4174-3.8791 1.60653-3.8791z" fill="#0c2724"/><path d="m37.6385 40.0908c1.254 0 2.2725 1.0166 2.2725 2.2725v29.9564c0 2.024-2.4469 3.0387-3.8791 1.6066l-29.95637-29.9564c-1.43029-1.4303-.4174-3.8791 1.60653-3.8791z" fill="#0c2624"/><path d="m37.4121 40.3154c1.2541 0 2.2725 1.0166 2.2725 2.2725v29.9564c0 2.024-2.4469 3.0387-3.879 1.6066l-29.95642-29.9564c-1.43029-1.4303-.4174-3.8791 1.60654-3.8791z" fill="#0c2523"/><path d="m37.1877 40.54c1.254 0 2.2725 1.0166 2.2725 2.2726v29.9564c0 2.0239-2.4469 3.0386-3.8791 1.6065l-29.95638-29.9564c-1.43029-1.4303-.4174-3.8791 1.60653-3.8791z" fill="#0c2422"/><path d="m36.9633 40.7666c1.2541 0 2.2725 1.0166 2.2725 2.2725v29.9564c0 2.024-2.4469 3.0387-3.879 1.6066l-29.95641-29.9565c-1.4303-1.4302-.4174-3.879 1.60653-3.879z" fill="#0d2321"/><path d="m36.7368 40.9912c1.254 0 2.2725 1.0166 2.2725 2.2725v29.9564c0 2.024-2.4469 3.0369-3.8791 1.6066l-29.95638-29.9564c-1.43029-1.4303-.4174-3.8791 1.60653-3.8791z" fill="#0d2220"/><path d="m36.5124 41.2168c1.2541 0 2.2725 1.0166 2.2725 2.2725v29.9564c0 2.024-2.4469 3.0387-3.879 1.6065l-29.95641-29.9564c-1.43029-1.4303-.4174-3.879 1.60653-3.879z" fill="#0d211f"/><path d="m36.2861 41.4414c1.254 0 2.2725 1.0166 2.2725 2.2725v29.9564c0 2.024-2.4469 3.0387-3.8791 1.6066l-29.95636-29.9564c-1.43029-1.4303-.4174-3.8791 1.60653-3.8791z" fill="#0d201e"/><path d="m36.0616 41.666c1.2541 0 2.2725 1.0166 2.2725 2.2725v29.9564c0 2.024-2.4469 3.0387-3.879 1.6066l-29.95641-29.9564c-1.4303-1.4303-.4174-3.8791 1.60653-3.8791z" fill="#0d1f1d"/><path d="m35.8353 41.8926c1.2541 0 2.2725 1.0166 2.2725 2.2725v29.9564c0 2.0239-2.4469 3.0387-3.879 1.6065l-29.95643-29.9564c-1.43029-1.4303-.4174-3.879 1.60653-3.879z" fill="#0d1e1c"/><path d="m35.6108 42.1172c1.2541 0 2.2726 1.0166 2.2726 2.2725v29.9564c0 2.0239-2.4469 3.0387-3.8791 1.6065l-29.95639-29.9564c-1.4303-1.4303-.4174-3.879 1.60653-3.879z" fill="#0d1d1b"/><path d="m35.3862 42.3428c1.254 0 2.2725 1.0166 2.2725 2.2725v29.9564c0 2.0239-2.4469 3.0387-3.8791 1.6065l-29.95636-29.9564c-1.4303-1.4303-.4174-3.879 1.60653-3.879z" fill="#0d1c1b"/><path d="m35.1601 42.5674c1.2541 0 2.2725 1.0166 2.2725 2.2725v29.9564c0 2.0239-2.4469 3.0387-3.879 1.6065l-29.95644-29.9564c-1.43029-1.4303-.4174-3.879 1.60653-3.879z" fill="#0d1b1a"/><path d="m34.9356 42.792c1.254 0 2.2725 1.0166 2.2725 2.2725v29.9564c0 2.0239-2.4469 3.0387-3.8791 1.6065l-29.95638-29.9564c-1.4303-1.4303-.4174-3.879 1.60653-3.879z" fill="#0d1a19"/><path d="m34.7092 43.0186c1.2541 0 2.2726 1.0166 2.2726 2.2725v29.9564c0 2.0239-2.4469 3.0387-3.8791 1.6065l-29.9564-29.9564c-1.4303-1.4303-.4174-3.879 1.60653-3.879z" fill="#0d1918"/><path d="m34.4848 43.2432c1.254 0 2.2725 1.0166 2.2725 2.2725v29.9564c0 2.0239-2.4469 3.0387-3.8791 1.6065l-29.95636-29.9564c-1.43029-1.4303-.4174-3.879 1.60654-3.879z" fill="#0d1817"/><path d="m34.2602 43.4688c1.2541 0 2.2725 1.0166 2.2725 2.2725v29.9564c0 2.0239-2.4469 3.0386-3.879 1.6065l-29.95644-29.9564c-1.43029-1.4303-.4174-3.879 1.60653-3.879z" fill="#0d1716"/><path d="m34.0341 43.6934c1.2541 0 2.2725 1.0166 2.2725 2.2725v29.9564c0 2.0239-2.4469 3.0387-3.879 1.6065l-29.95641-29.9564c-1.4303-1.4303-.4174-3.879 1.60653-3.879z" fill="#0d1615"/><path d="m33.8095 43.9199c1.2541 0 2.2725 1.0166 2.2725 2.2725v29.9564c0 2.024-2.4469 3.0387-3.879 1.6066l-29.95642-29.9564c-1.430296-1.4303-.4174-3.8791 1.60653-3.8791z" fill="#0e1514"/><path d="m33.5832 44.1445c1.254 0 2.2725 1.0166 2.2725 2.2725v29.9564c0 2.024-2.4469 3.0387-3.8791 1.6066l-29.95637-29.9564c-1.430295-1.4303-.4174-3.8791 1.60653-3.8791z" fill="#0e1413"/><path d="m33.3588 44.3691c1.2541 0 2.2725 1.0166 2.2725 2.2726v29.9564c0 2.0239-2.4468 3.0386-3.879 1.6065l-29.95641-29.9564c-1.430289-1.4303-.4174-3.8791 1.60653-3.8791z" fill="#0e1312"/><path d="m33.1342 44.5947c1.2541 0 2.2725 1.0166 2.2725 2.2725v29.9564c0 2.024-2.4469 3.0387-3.879 1.6066l-29.95641-29.9564c-1.430295-1.4303-.4174-3.8791 1.60653-3.8791z" fill="#0e1212"/><path d="m32.9081 44.8203c1.2541 0 2.2726 1.0166 2.2726 2.2725v29.9564c0 2.024-2.4469 3.0387-3.8791 1.6066l-29.95639-29.9564c-1.4302892-1.4303-.417396-3.8791 1.60654-3.8791z" fill="#0e1111"/><path d="m32.6834 45.0459c1.2541 0 2.2726 1.0166 2.2726 2.2725v29.9564c0 2.0239-2.4469 3.0387-3.8791 1.6065l-29.95639-29.9564c-1.430294-1.4302-.4174-3.879 1.60653-3.879z" fill="#0e1010"/><path d="m32.4571 45.2705c1.2541 0 2.2725 1.0166 2.2725 2.2725v29.9564c0 2.024-2.4469 3.0387-3.879 1.6066l-29.956408-29.9564c-1.430294-1.4303-.417401-3.8791 1.606528-3.8791z" fill="#0e0f0f"/><path d="m32.2329 45.4951c1.254 0 2.2725 1.0166 2.2725 2.2725v29.9564c0 2.024-2.4469 3.0387-3.8791 1.6066l-29.956382-29.9564c-1.430294-1.4303-.4174-3.8791 1.606532-3.8791z" fill="#0e0e0e"/></g><g clip-path="url(#b)"><path d="m77.2725 80c-1.2559 0-2.2725-1.0166-2.2725-2.2725v-29.9564c0-2.0239 2.4469-3.0387 3.879-1.6065l29.956 29.9564c1.431 1.4321.418 3.879-1.606 3.879z" fill="#00d8c3"/><path d="m77.4968 79.7754c-1.2541 0-2.2725-1.0166-2.2725-2.2725v-29.9564c0-2.024 2.4469-3.0387 3.879-1.6066l29.9567 29.9564c1.43 1.4303.417 3.8791-1.607 3.8791z" fill="#00d7c2"/><path d="m77.7212 79.5489c-1.254 0-2.2725-1.0166-2.2725-2.2725v-29.9564c0-2.0239 2.4469-3.0387 3.8791-1.6065l29.9582 29.9582c1.43 1.4303.417 3.8791-1.606 3.8791h-29.9588z" fill="#00d6c1"/><path d="m77.9478 79.3242c-1.254 0-2.2725-1.0166-2.2725-2.2725v-29.9564c0-2.0239 2.4469-3.0387 3.879-1.6065l29.9567 29.9564c1.43 1.4303.417 3.879-1.607 3.879z" fill="#00d5c0"/><path d="m78.1724 79.0978c-1.254 0-2.2725-1.0166-2.2725-2.2726v-29.9564c0-2.0239 2.4469-3.0386 3.879-1.6065l29.9561 29.9583c1.431 1.4303.418 3.879-1.606 3.879h-29.9566z" fill="#00d4bf"/><path d="m78.3986 78.874c-1.2541 0-2.2726-1.0166-2.2726-2.2725v-29.9564c0-2.0239 2.4469-3.0387 3.8791-1.6065l29.9559 29.9564c1.431 1.4303.418 3.879-1.606 3.879z" fill="#00d3bf"/><path d="m78.623 78.6494c-1.2541 0-2.2725-1.0166-2.2725-2.2725v-29.9564c0-2.0239 2.4469-3.0387 3.879-1.6065l29.9565 29.9564c1.43 1.4303.417 3.879-1.607 3.879z" fill="#00d2be"/><path d="m78.8493 78.4229c-1.254 0-2.2725-1.0166-2.2725-2.2725v-29.9564c0-2.0239 2.4469-3.0387 3.8791-1.6065l29.9561 29.9583c1.431 1.4303.418 3.879-1.606 3.879h-29.9567z" fill="#00d1bd"/><path d="m79.0738 78.1982c-1.2541 0-2.2725-1.0166-2.2725-2.2725v-29.9564c0-2.0239 2.4469-3.0387 3.879-1.6065l29.9567 29.9564c1.43 1.4303.417 3.879-1.607 3.879z" fill="#01d0bc"/><path d="m79.2983 77.9718c-1.2541 0-2.2725-1.0166-2.2725-2.2725v-29.9564c0-2.024 2.4469-3.0387 3.879-1.6066l29.9562 29.9583c1.431 1.4303.418 3.879-1.606 3.879h-29.9567z" fill="#01cfbb"/><path d="m79.5246 77.748c-1.254 0-2.2725-1.0166-2.2725-2.2725v-29.9564c0-2.0239 2.4469-3.0387 3.8791-1.6065l29.9568 29.9564c1.43 1.4303.417 3.879-1.607 3.879z" fill="#01ceba"/><path d="m79.7491 77.5234c-1.2541 0-2.2725-1.0166-2.2725-2.2725v-29.9564c0-2.0239 2.4469-3.0387 3.879-1.6065l29.9564 29.9564c1.43 1.4303.417 3.879-1.607 3.879z" fill="#01cdb9"/><path d="m79.9756 77.2969c-1.254 0-2.2725-1.0166-2.2725-2.2725v-29.9564c0-2.024 2.4469-3.0387 3.8791-1.6066l29.9568 29.9564c1.43 1.4303.417 3.8791-1.607 3.8791z" fill="#01ccb8"/><path d="m80.1999 77.0723c-1.2541 0-2.2725-1.0166-2.2725-2.2726v-29.9564c0-2.0239 2.4469-3.0386 3.879-1.6065l29.9566 29.9564c1.43 1.4303.417 3.8791-1.607 3.8791z" fill="#01cbb7"/><path d="m80.4244 76.8468c-1.2541 0-2.2725-1.0166-2.2725-2.2725v-29.9564c0-2.024 2.4469-3.0387 3.879-1.6066l29.9581 29.9583c1.43 1.4303.418 3.879-1.606 3.879h-29.9586z" fill="#01cab6"/><path d="m80.6504 76.6221c-1.254 0-2.2725-1.0166-2.2725-2.2725v-29.9565c0-2.0239 2.4469-3.0386 3.8791-1.6065l29.956 29.9564c1.431 1.4303.418 3.8791-1.606 3.8791z" fill="#01c9b6"/><path d="m80.8751 76.3956c-1.2541 0-2.2726-1.0166-2.2726-2.2725v-29.9564c0-2.0239 2.4469-3.0387 3.8791-1.6065l29.9564 29.9582c1.43 1.4303.417 3.8791-1.607 3.8791h-29.9559z" fill="#01c8b5"/><path d="m81.1014 76.1709c-1.254 0-2.2725-1.0166-2.2725-2.2725v-29.9564c0-2.024 2.4469-3.0387 3.8791-1.6066l29.956 29.9565c1.431 1.4302.418 3.879-1.606 3.879z" fill="#01c7b4"/><path d="m81.3259 75.9463c-1.254 0-2.2725-1.0166-2.2725-2.2725v-29.9564c0-2.024 2.4469-3.0387 3.8791-1.6066l29.9565 29.9564c1.43 1.4303.417 3.8791-1.607 3.8791z" fill="#01c6b3"/><path d="m81.5503 75.7198c-1.254 0-2.2725-1.0166-2.2725-2.2725v-29.9564c0-2.0239 2.4469-3.0387 3.8791-1.6065l29.9581 29.9582c1.43 1.4303.418 3.8791-1.606 3.8791h-29.9587z" fill="#01c5b2"/><path d="m81.7769 75.4961c-1.254 0-2.2725-1.0166-2.2725-2.2725v-29.9564c0-2.024 2.4469-3.0369 3.879-1.6066l29.9566 29.9564c1.43 1.4303.417 3.8791-1.607 3.8791z" fill="#01c4b1"/><path d="m82.001 75.2687c-1.254 0-2.2725-1.0167-2.2725-2.2726v-29.9564c0-2.0239 2.4469-3.0386 3.8791-1.6065l29.9564 29.9583c1.43 1.4303.417 3.879-1.607 3.879h-29.956z" fill="#01c3b0"/><path d="m82.2275 75.0449c-1.2541 0-2.2725-1.0166-2.2725-2.2725v-29.9564c0-2.0239 2.4469-3.0387 3.879-1.6065l29.956 29.9564c1.431 1.4303.418 3.879-1.606 3.879z" fill="#02c2af"/><path d="m82.452 74.8203c-1.2541 0-2.2725-1.0166-2.2725-2.2725v-29.9564c0-2.0239 2.4469-3.0387 3.879-1.6065l29.9565 29.9564c1.43 1.4303.417 3.879-1.607 3.879z" fill="#02c1ae"/><path d="m82.6763 74.5938c-1.254 0-2.2725-1.0166-2.2725-2.2725v-29.9564c0-2.0239 2.4469-3.0387 3.8791-1.6065l29.9581 29.9583c1.43 1.4303.418 3.879-1.606 3.879h-29.9587z" fill="#02c0ad"/><path d="m82.9029 74.3691c-1.2541 0-2.2725-1.0166-2.2725-2.2725v-29.9564c0-2.0239 2.4469-3.0387 3.879-1.6065l29.9566 29.9564c1.43 1.4303.417 3.879-1.607 3.879z" fill="#02bfad"/><path d="m83.127 74.1437c-1.254 0-2.2725-1.0167-2.2725-2.2726v-29.9564c0-2.0239 2.4469-3.0386 3.879-1.6065l29.9565 29.9583c1.43 1.4303.417 3.879-1.607 3.879h-29.956z" fill="#02beac"/><path d="m83.3536 73.9189c-1.2541 0-2.2725-1.0166-2.2725-2.2725v-29.9564c0-2.0239 2.4469-3.0387 3.879-1.6065l29.9569 29.9564c1.43 1.4303.417 3.879-1.607 3.879z" fill="#02bdab"/><path d="m83.578 73.6943c-1.254 0-2.2725-1.0166-2.2725-2.2725v-29.9564c0-2.0239 2.4469-3.0387 3.8791-1.6065l29.9564 29.9564c1.43 1.4303.417 3.879-1.607 3.879z" fill="#02bcaa"/><path d="m83.8025 73.4679c-1.2541 0-2.2725-1.0166-2.2725-2.2725v-29.9564c0-2.024 2.4469-3.0369 3.879-1.6066l29.958 29.9583c1.431 1.4303.418 3.879-1.606 3.879h-29.9585z" fill="#02bba9"/><path d="m84.0289 73.2432c-1.2541 0-2.2726-1.0166-2.2726-2.2726v-29.9564c0-2.0239 2.4469-3.0386 3.8791-1.6065l29.9566 29.9564c1.43 1.4303.417 3.8791-1.607 3.8791z" fill="#02baa8"/><path d="m84.2535 73.0177c-1.2541 0-2.2725-1.0166-2.2725-2.2725v-29.9564c0-2.024 2.4469-3.0369 3.879-1.6066l29.956 29.9583c1.431 1.4303.418 3.879-1.606 3.879h-29.9565z" fill="#02b9a7"/><path d="m84.4796 72.793c-1.254 0-2.2725-1.0166-2.2725-2.2725v-29.9565c0-2.0239 2.4469-3.0386 3.879-1.6065l29.9569 29.9564c1.43 1.4303.417 3.8791-1.607 3.8791z" fill="#02b8a6"/><path d="m84.7041 72.5684c-1.2541 0-2.2726-1.0166-2.2726-2.2726v-29.9564c0-2.0239 2.4469-3.0386 3.8791-1.6065l29.9564 29.9564c1.43 1.4303.417 3.8791-1.607 3.8791z" fill="#02b7a5"/><path d="m84.9304 72.3419c-1.2541 0-2.2725-1.0166-2.2725-2.2725v-29.9564c0-2.024 2.4469-3.0387 3.879-1.6066l29.9561 29.9583c1.431 1.4303.418 3.8791-1.606 3.8791h-29.9566z" fill="#02b6a5"/><path d="m85.1549 72.1172c-1.2541 0-2.2725-1.0166-2.2725-2.2725v-29.9564c0-2.024 2.4469-3.0387 3.879-1.6066l29.9566 29.9564c1.43 1.4303.417 3.8791-1.607 3.8791z" fill="#02b5a4"/><path d="m85.3795 71.8917c-1.2541 0-2.2726-1.0166-2.2726-2.2725v-29.9564c0-2.024 2.4469-3.0387 3.8791-1.6066l29.956 29.9583c1.431 1.4303.418 3.8791-1.606 3.8791h-29.9565z" fill="#02b4a3"/><path d="m85.6055 71.667c-1.254 0-2.2725-1.0166-2.2725-2.2725v-29.9564c0-2.024 2.4469-3.0387 3.8791-1.6066l29.9559 29.9564c1.431 1.4303.418 3.8791-1.606 3.8791z" fill="#03b3a2"/><path d="m85.8301 71.4424c-1.254 0-2.2725-1.0166-2.2725-2.2725v-29.9564c0-2.024 2.4469-3.0387 3.8791-1.6066l29.9563 29.9564c1.43 1.4303.417 3.8791-1.606 3.8791z" fill="#03b2a1"/><path d="m86.0565 71.2158c-1.2541 0-2.2725-1.0166-2.2725-2.2725v-29.9564c0-2.0239 2.4469-3.0387 3.879-1.6065l29.956 29.9564c1.431 1.4303.418 3.879-1.606 3.879z" fill="#03b1a0"/><path d="m86.2809 70.9912c-1.254 0-2.2725-1.0166-2.2725-2.2725v-29.9564c0-2.0239 2.4469-3.0387 3.8791-1.6065l29.9565 29.9564c1.43 1.4303.417 3.879-1.607 3.879z" fill="#03b09f"/><path d="m86.5054 70.7657c-1.254 0-2.2725-1.0166-2.2725-2.2725v-29.9564c0-2.0239 2.4469-3.0387 3.8791-1.6065l29.958 29.9582c1.431 1.4303.418 3.8791-1.606 3.8791h-29.9586z" fill="#03af9e"/><path d="m86.7315 70.541c-1.2541 0-2.2725-1.0166-2.2725-2.2725v-29.9564c0-2.0239 2.4469-3.0368 3.879-1.6065l29.956 29.9564c1.431 1.4303.418 3.879-1.606 3.879z" fill="#03ae9d"/><path d="m86.9561 70.3146c-1.254 0-2.2725-1.0167-2.2725-2.2726v-29.9564c0-2.0239 2.4469-3.0386 3.879-1.6065l29.9564 29.9583c1.43 1.4303.417 3.879-1.606 3.879h-29.9569z" fill="#03ad9c"/><path d="m87.1825 70.0898c-1.254 0-2.2725-1.0166-2.2725-2.2725v-29.9564c0-2.0239 2.4469-3.0387 3.8791-1.6065l29.9559 29.9564c1.431 1.4303.418 3.879-1.606 3.879z" fill="#03ac9c"/><path d="m87.407 69.8652c-1.2541 0-2.2725-1.0166-2.2725-2.2725v-29.9564c0-2.0239 2.4469-3.0387 3.879-1.6065l29.9565 29.9564c1.43 1.4303.417 3.879-1.607 3.879z" fill="#03ab9b"/><path d="m87.6314 69.6388c-1.2541 0-2.2725-1.0166-2.2725-2.2725v-29.9565c0-2.0239 2.4469-3.0386 3.879-1.6065l29.9581 29.9583c1.43 1.4303.418 3.879-1.606 3.879h-29.9586z" fill="#03aa9a"/><path d="m87.858 69.415c-1.2541 0-2.2726-1.0166-2.2726-2.2725v-29.9564c0-2.0239 2.4469-3.0368 3.8791-1.6065l29.9565 29.9564c1.43 1.4303.417 3.879-1.607 3.879z" fill="#03a999"/><path d="m88.0822 69.1886c-1.254 0-2.2725-1.0166-2.2725-2.2725v-29.9564c0-2.024 2.4469-3.0369 3.8791-1.6066l29.9562 29.9583c1.43 1.4303.418 3.879-1.606 3.879h-29.9568z" fill="#03a898"/><path d="m88.3086 68.9639c-1.2541 0-2.2726-1.0166-2.2726-2.2725v-29.9565c0-2.0239 2.4469-3.0386 3.8791-1.6065l29.9559 29.9564c1.431 1.4303.418 3.8791-1.606 3.8791z" fill="#03a797"/><path d="m88.533 68.7393c-1.254 0-2.2725-1.0166-2.2725-2.2726v-29.9564c0-2.0239 2.4469-3.0386 3.879-1.6065l29.9565 29.9564c1.43 1.4303.417 3.8791-1.607 3.8791z" fill="#03a696"/><path d="m88.7574 68.5128c-1.2541 0-2.2725-1.0166-2.2725-2.2725v-29.9564c0-2.024 2.4469-3.0387 3.879-1.6066l29.9581 29.9583c1.43 1.4303.418 3.879-1.606 3.879h-29.9586z" fill="#04a595"/><path d="m88.9839 68.2881c-1.254 0-2.2725-1.0166-2.2725-2.2725v-29.9564c0-2.024 2.4469-3.0387 3.8791-1.6066l29.9565 29.9564c1.43 1.4303.417 3.8791-1.607 3.8791z" fill="#04a494"/><path d="m89.2083 68.0626c-1.254 0-2.2725-1.0166-2.2725-2.2725v-29.9564c0-2.024 2.4469-3.0368 3.8791-1.6066l29.9561 29.9583c1.431 1.4303.418 3.8791-1.606 3.8791h-29.9567z" fill="#04a394"/><path d="m89.4347 67.8379c-1.2541 0-2.2726-1.0166-2.2726-2.2725v-29.9564c0-2.024 2.4469-3.0387 3.8791-1.6066l29.9568 29.9564c1.43 1.4303.417 3.8791-1.607 3.8791z" fill="#04a293"/><path d="m89.6591 67.6133c-1.254 0-2.2725-1.0166-2.2725-2.2725v-29.9564c0-2.024 2.4469-3.0387 3.879-1.6066l29.9564 29.9564c1.43 1.4303.417 3.8791-1.606 3.8791z" fill="#04a192"/><path d="m89.8854 67.3868c-1.254 0-2.2725-1.0166-2.2725-2.2725v-29.9564c0-2.0239 2.4469-3.0387 3.8791-1.6065l29.956 29.9582c1.431 1.4303.418 3.8791-1.606 3.8791h-29.9566z" fill="#04a091"/><path d="m90.1099 67.1621c-1.254 0-2.2725-1.0166-2.2725-2.2725v-29.9564c0-2.0239 2.4469-3.0387 3.879-1.6065l29.9566 29.9564c1.43 1.4303.417 3.879-1.607 3.879z" fill="#049f90"/><path d="m90.3345 66.9366c-1.254 0-2.2725-1.0166-2.2725-2.2725v-29.9564c0-2.0239 2.4469-3.0368 3.8791-1.6065l29.9559 29.9582c1.431 1.4303.418 3.8791-1.606 3.8791h-29.9565z" fill="#049e8f"/><path d="m90.5607 66.7119c-1.2541 0-2.2725-1.0166-2.2725-2.2725v-29.9564c0-2.0239 2.4469-3.0368 3.879-1.6065l29.9568 29.9564c1.43 1.4303.417 3.879-1.607 3.879z" fill="#049d8e"/><path d="m90.7852 66.4873c-1.254 0-2.2725-1.0166-2.2725-2.2725v-29.9564c0-2.0239 2.4469-3.0387 3.879-1.6065l29.9563 29.9564c1.43 1.4303.418 3.879-1.606 3.879z" fill="#049c8d"/><path d="m91.0113 66.2607c-1.2541 0-2.2725-1.0166-2.2725-2.2725v-29.9564c0-2.0239 2.4469-3.0387 3.879-1.6065l29.9562 29.9564c1.431 1.4303.418 3.879-1.606 3.879z" fill="#049b8c"/><path d="m91.236 66.0361c-1.2541 0-2.2726-1.0166-2.2726-2.2725v-29.9564c0-2.0239 2.4469-3.0387 3.8791-1.6065l29.9565 29.9564c1.43 1.4303.417 3.879-1.607 3.879z" fill="#049a8b"/><path d="m91.4604 65.8105c-1.254 0-2.2725-1.0166-2.2725-2.2725v-29.9564c0-2.0239 2.4469-3.0387 3.879-1.6065l29.9561 29.9564c1.431 1.4303.418 3.879-1.606 3.879z" fill="#04998b"/><path d="m91.6866 65.5859c-1.2541 0-2.2725-1.0166-2.2725-2.2725v-29.9564c0-2.0239 2.4469-3.0368 3.879-1.6065l29.9569 29.9564c1.43 1.4303.417 3.879-1.607 3.879z" fill="#04988a"/><path d="m91.9112 65.3594c-1.254 0-2.2725-1.0166-2.2725-2.2725v-29.9564c0-2.024 2.4469-3.0387 3.879-1.6066l29.9563 29.9564c1.43 1.4303.418 3.8791-1.606 3.8791z" fill="#059789"/><path d="m92.1375 65.1348c-1.2541 0-2.2725-1.0166-2.2725-2.2726v-29.9564c0-2.0239 2.4469-3.0386 3.879-1.6065l29.956 29.9564c1.431 1.4303.418 3.8791-1.606 3.8791z" fill="#059688"/><path d="m92.362 64.9102c-1.2541 0-2.2725-1.0166-2.2725-2.2726v-29.9564c0-2.0239 2.4469-3.0386 3.879-1.6065l29.9565 29.9564c1.43 1.4303.417 3.8791-1.607 3.8791z" fill="#059587"/><path d="m92.5865 64.6846c-1.2541 0-2.2725-1.0166-2.2725-2.2725v-29.9565c0-2.0239 2.4469-3.0386 3.879-1.6065l29.956 29.9564c1.431 1.4303.418 3.8791-1.606 3.8791z" fill="#059486"/><path d="m92.813 64.46c-1.254 0-2.2725-1.0166-2.2725-2.2726v-29.9564c0-2.0239 2.4469-3.0386 3.8791-1.6065l29.9564 29.9564c1.43 1.4303.417 3.8791-1.607 3.8791z" fill="#059385"/><path d="m93.0372 64.2334c-1.2541 0-2.2726-1.0166-2.2726-2.2725v-29.9564c0-2.024 2.4469-3.0368 3.8791-1.6066l29.9563 29.9565c1.43 1.4302.417 3.879-1.606 3.879z" fill="#059284"/><path d="m93.2636 64.0088c-1.2541 0-2.2725-1.0166-2.2725-2.2725v-29.9564c0-2.024 2.4469-3.0387 3.879-1.6066l29.9569 29.9564c1.43 1.4303.417 3.8791-1.607 3.8791z" fill="#059183"/><path d="m93.4881 63.7842c-1.2541 0-2.2726-1.0166-2.2726-2.2725v-29.9564c0-2.024 2.4469-3.0387 3.8791-1.6066l29.9564 29.9564c1.43 1.4303.417 3.8791-1.607 3.8791z" fill="#059082"/><path d="m93.7125 63.5586c-1.2541 0-2.2726-1.0166-2.2726-2.2725v-29.9564c0-2.024 2.4469-3.0387 3.8791-1.6066l29.956 29.9564c1.431 1.4303.418 3.8791-1.606 3.8791z" fill="#058f82"/><path d="m93.939 63.333c-1.254 0-2.2725-1.0166-2.2725-2.2725v-29.9564c0-2.0239 2.4469-3.0387 3.8791-1.6065l29.9564 29.9564c1.43 1.4303.417 3.879-1.607 3.879z" fill="#058e81"/><path d="m94.1631 63.1074c-1.254 0-2.2725-1.0166-2.2725-2.2725v-29.9564c0-2.0239 2.4469-3.0368 3.8791-1.6065l29.9563 29.9564c1.43 1.4303.417 3.879-1.606 3.879z" fill="#058d80"/><path d="m94.3896 62.8828c-1.254 0-2.2725-1.0166-2.2725-2.2725v-29.9564c0-2.0239 2.4469-3.0387 3.8791-1.6065l29.9568 29.9564c1.43 1.4303.417 3.879-1.607 3.879z" fill="#058c7f"/><path d="m94.6141 62.6582c-1.2541 0-2.2725-1.0166-2.2725-2.2725v-29.9564c0-2.0239 2.4469-3.0387 3.879-1.6065l29.9564 29.9564c1.43 1.4303.417 3.879-1.606 3.879z" fill="#058b7e"/><path d="m94.8384 62.4316c-1.254 0-2.2725-1.0166-2.2725-2.2725v-29.9564c0-2.0239 2.4469-3.0387 3.8791-1.6065l29.956 29.9564c1.431 1.4303.418 3.879-1.606 3.879z" fill="#058a7d"/><path d="m95.065 62.207c-1.2541 0-2.2725-1.0166-2.2725-2.2725v-29.9564c0-2.0239 2.4469-3.0387 3.879-1.6065l29.9565 29.9564c1.43 1.4303.417 3.879-1.607 3.879z" fill="#05897c"/><path d="m95.2896 61.9805c-1.2541 0-2.2725-1.0166-2.2725-2.2725v-29.9564c0-2.024 2.4469-3.0387 3.879-1.6066l29.9569 29.9564c1.43 1.4303.417 3.8791-1.607 3.8791z" fill="#06887b"/><path d="m95.5157 61.7568c-1.2541 0-2.2725-1.0166-2.2725-2.2725v-29.9564c0-2.0239 2.4469-3.0387 3.879-1.6065l29.9568 29.9564c1.43 1.4303.417 3.879-1.607 3.879z" fill="#06877a"/><path d="m95.7401 61.5322c-1.254 0-2.2725-1.0166-2.2725-2.2725v-29.9564c0-2.0239 2.4469-3.0387 3.8791-1.6065l29.9563 29.9564c1.43 1.4303.417 3.879-1.606 3.879z" fill="#06867a"/><path d="m95.9664 61.3057c-1.2541 0-2.2726-1.0166-2.2726-2.2726v-29.9564c0-2.0239 2.4469-3.0386 3.8791-1.6065l29.9561 29.9564c1.431 1.4303.418 3.8791-1.606 3.8791z" fill="#068579"/><path d="m96.191 61.0811c-1.2541 0-2.2725-1.0166-2.2725-2.2726v-29.9564c0-2.0239 2.4469-3.0386 3.879-1.6065l29.9565 29.9564c1.43 1.4303.417 3.8791-1.607 3.8791z" fill="#068478"/><path d="m96.4155 60.8555c-1.2541 0-2.2726-1.0166-2.2726-2.2725v-29.9564c0-2.024 2.4469-3.0387 3.8791-1.6066l29.956 29.9564c1.431 1.4303.418 3.8791-1.606 3.8791z" fill="#068377"/><path d="m96.6417 60.6309c-1.2541 0-2.2726-1.0166-2.2726-2.2726v-29.9564c0-2.0239 2.4469-3.0368 3.8791-1.6065l29.9568 29.9564c1.43 1.4303.417 3.8791-1.607 3.8791z" fill="#068276"/><path d="m96.8663 60.4062c-1.2541 0-2.2725-1.0166-2.2725-2.2725v-29.9564c0-2.0239 2.4468-3.0387 3.879-1.6065l29.9562 29.9564c1.43 1.4303.418 3.879-1.606 3.879z" fill="#068175"/><path d="m97.0926 60.1797c-1.2541 0-2.2726-1.0166-2.2726-2.2725v-29.9564c0-2.024 2.4469-3.0387 3.8791-1.6066l29.9559 29.9564c1.431 1.4303.418 3.8791-1.606 3.8791z" fill="#068074"/><path d="m97.317 59.9551c-1.254 0-2.2725-1.0166-2.2725-2.2725v-29.9564c0-2.024 2.4469-3.0387 3.879-1.6066l29.9565 29.9564c1.43 1.4303.417 3.8791-1.607 3.8791z" fill="#067f73"/><path d="m97.5416 59.7295c-1.2541 0-2.2726-1.0166-2.2726-2.2725v-29.9564c0-2.024 2.4469-3.0387 3.8791-1.6066l29.9559 29.9564c1.431 1.4303.418 3.8791-1.606 3.8791z" fill="#067e72"/><path d="m97.7676 59.5049c-1.254 0-2.2725-1.0166-2.2725-2.2725v-29.9564c0-2.024 2.4469-3.0387 3.8791-1.6066l29.9568 29.9564c1.43 1.4303.417 3.8791-1.607 3.8791z" fill="#067d71"/><path d="m97.9922 59.2783c-1.254 0-2.2725-1.0166-2.2725-2.2725v-29.9564c0-2.0239 2.4469-3.0387 3.8791-1.6065l29.9562 29.9564c1.43 1.4303.418 3.879-1.606 3.879z" fill="#067c71"/><path d="m98.2186 59.0537c-1.2541 0-2.2725-1.0166-2.2725-2.2725v-29.9564c0-2.0239 2.4469-3.0387 3.879-1.6065l29.9569 29.9564c1.43 1.4303.417 3.879-1.607 3.879z" fill="#067b70"/><path d="m98.443 58.8291c-1.254 0-2.2725-1.0166-2.2725-2.2725v-29.9564c0-2.024 2.4469-3.0368 3.8795-1.6066l29.956 29.9565c1.43 1.4302.417 3.879-1.607 3.879z" fill="#077a6f"/><path d="m98.6675 58.6035c-1.254 0-2.2725-1.0166-2.2725-2.2725v-29.9564c0-2.0239 2.4469-3.0387 3.879-1.6065l29.956 29.9564c1.431 1.4303.418 3.879-1.606 3.879z" fill="#07796e"/><path d="m98.8936 58.3789c-1.254 0-2.2725-1.0166-2.2725-2.2725v-29.9564c0-2.0239 2.4469-3.0387 3.8789-1.6065l29.957 29.9564c1.43 1.4303.417 3.879-1.607 3.879z" fill="#07786d"/><path d="m99.1182 58.1523c-1.254 0-2.2725-1.0166-2.2725-2.2725v-29.9564c0-2.0239 2.4469-3.0387 3.8793-1.6065l29.956 29.9564c1.43 1.4303.418 3.879-1.606 3.879z" fill="#07776c"/><path d="m99.3447 57.9277c-1.2541 0-2.2726-1.0166-2.2726-2.2725v-29.9564c0-2.0239 2.4469-3.0387 3.8789-1.6065l29.957 29.9564c1.43 1.4303.417 3.879-1.607 3.879z" fill="#07766b"/><path d="m99.5691 57.7031c-1.254 0-2.2725-1.0166-2.2725-2.2725v-29.9564c0-2.0239 2.4469-3.0387 3.8794-1.6065l29.956 29.9564c1.43 1.4303.417 3.879-1.606 3.879z" fill="#07756a"/><path d="m99.7935 57.4766c-1.254 0-2.2725-1.0166-2.2725-2.2726v-29.9564c0-2.0239 2.4469-3.0386 3.879-1.6065l29.956 29.9564c1.431 1.4303.418 3.8791-1.606 3.8791z" fill="#077469"/><path d="m100.02 57.252c-1.254 0-2.2724-1.0166-2.2724-2.2726v-29.9564c0-2.0239 2.4464-3.0368 3.8794-1.6065l29.956 29.9564c1.43 1.4303.417 3.8791-1.607 3.8791z" fill="#077369"/><path d="m100.244 57.0264c-1.2539 0-2.2723-1.0166-2.2723-2.2725v-29.9565c0-2.0239 2.4473-3.0386 3.8793-1.6065l29.956 29.9564c1.43 1.4303.418 3.8791-1.606 3.8791z" fill="#077268"/><path d="m100.471 56.8018c-1.2543 0-2.2728-1.0166-2.2728-2.2726v-29.9564c0-2.0239 2.4468-3.0386 3.8788-1.6065l29.957 29.9564c1.43 1.4303.417 3.8791-1.607 3.8791z" fill="#077167"/><path d="m100.695 56.5771c-1.2537 0-2.2721-1.0166-2.2721-2.2725v-29.9564c0-2.0239 2.4471-3.0386 3.8791-1.6065l29.956 29.9564c1.431 1.4303.418 3.879-1.606 3.879z" fill="#077066"/><path d="m100.919 56.3506c-1.2536 0-2.272-1.0166-2.272-2.2725v-29.9564c0-2.024 2.447-3.0387 3.879-1.6066l29.956 29.9564c1.431 1.4303.418 3.8791-1.606 3.8791z" fill="#076f65"/><path d="m101.146 56.126c-1.254 0-2.2725-1.0166-2.2725-2.2725v-29.9564c0-2.024 2.4465-3.0387 3.8795-1.6066l29.956 29.9564c1.43 1.4303.417 3.8791-1.607 3.8791z" fill="#076e64"/><path d="m101.37 55.9004c-1.254 0-2.2721-1.0166-2.2721-2.2725v-29.9564c0-2.024 2.4471-3.0387 3.8791-1.6066l29.956 29.9564c1.431 1.4303.418 3.8791-1.606 3.8791z" fill="#076d63"/><path d="m101.597 55.6758c-1.254 0-2.2728-1.0166-2.2728-2.2725v-29.9564c0-2.024 2.4468-3.0387 3.8788-1.6066l29.957 29.9564c1.43 1.4303.417 3.8791-1.607 3.8791z" fill="#076c62"/><path d="m101.821 55.4512c-1.254 0-2.2722-1.0166-2.2722-2.2725v-29.9564c0-2.024 2.4472-3.0387 3.8792-1.6066l29.956 29.9564c1.431 1.4303.418 3.8791-1.606 3.8791z" fill="#086b61"/><path d="m102.047 55.2246c-1.254 0-2.2721-1.0166-2.2721-2.2725v-29.9564c0-2.0239 2.4471-3.0387 3.8791-1.6065l29.956 29.9564c1.431 1.4303.418 3.879-1.606 3.879z" fill="#086a60"/><path d="m102.272 55c-1.254 0-2.2725-1.0166-2.2725-2.2725v-29.9564c0-2.024 2.4465-3.0368 3.8795-1.6066l29.956 29.9565c1.43 1.4302.417 3.879-1.607 3.879z" fill="#086960"/><path d="m102.496 54.7744c-1.254 0-2.272-1.0166-2.272-2.2725v-29.9564c0-2.0239 2.447-3.0387 3.879-1.6065l29.956 29.9564c1.431 1.4303.418 3.879-1.606 3.879z" fill="#08685f"/><path d="m102.723 54.5498c-1.254 0-2.273-1.0166-2.273-2.2725v-29.9564c0-2.0239 2.447-3.0387 3.879-1.6065l29.957 29.9564c1.43 1.4303.417 3.879-1.607 3.879z" fill="#08675e"/><path d="m102.947 54.3252c-1.254 0-2.272-1.0166-2.272-2.2725v-29.9564c0-2.024 2.447-3.0387 3.879-1.6066l29.956 29.9564c1.431 1.4303.418 3.8791-1.606 3.8791z" fill="#08665d"/><path d="m103.174 54.0986c-1.254 0-2.273-1.0166-2.273-2.2725v-29.9564c0-2.0239 2.447-3.0387 3.879-1.6065l29.957 29.9564c1.43 1.4303.417 3.879-1.607 3.879z" fill="#08655c"/><path d="m103.398 53.874c-1.254 0-2.272-1.0166-2.272-2.2725v-29.9564c0-2.0239 2.446-3.0387 3.879-1.6065l29.956 29.9564c1.43 1.4303.417 3.879-1.606 3.879z" fill="#08645b"/><path d="m103.623 53.6484c-1.254 0-2.273-1.0166-2.273-2.2725v-29.9564c0-2.0239 2.447-3.0387 3.879-1.6065l29.957 29.9564c1.43 1.4303.417 3.879-1.607 3.879z" fill="#08635a"/><path d="m103.849 53.4238c-1.254 0-2.273-1.0166-2.273-2.2725v-29.9564c0-2.0239 2.447-3.0387 3.879-1.6065l29.957 29.9564c1.43 1.4303.417 3.879-1.607 3.879z" fill="#086259"/><path d="m104.073 53.1973c-1.254 0-2.272-1.0166-2.272-2.2726v-29.9564c0-2.0239 2.447-3.0386 3.879-1.6065l29.956 29.9564c1.431 1.4303.418 3.8791-1.606 3.8791z" fill="#086158"/><path d="m104.3 52.9727c-1.254 0-2.273-1.0166-2.273-2.2726v-29.9564c0-2.0239 2.447-3.0386 3.879-1.6065l29.957 29.9564c1.43 1.4303.417 3.8791-1.607 3.8791z" fill="#086057"/><path d="m104.524 52.748c-1.254 0-2.273-1.0166-2.273-2.2725v-29.9564c0-2.0239 2.447-3.0387 3.88-1.6065l29.956 29.9564c1.43 1.4303.417 3.879-1.607 3.879z" fill="#085f57"/><path d="m104.749 52.5225c-1.254 0-2.273-1.0166-2.273-2.2726v-29.9564c0-2.0239 2.447-3.0386 3.879-1.6065l29.957 29.9564c1.43 1.4303.417 3.8791-1.607 3.8791z" fill="#085e56"/><path d="m104.975 52.2969c-1.254 0-2.272-1.0166-2.272-2.2725v-29.9564c0-2.024 2.447-3.0387 3.879-1.6066l29.956 29.9564c1.43 1.4303.417 3.8791-1.606 3.8791z" fill="#095d55"/><path d="m105.199 52.0713c-1.254 0-2.272-1.0166-2.272-2.2725v-29.9564c0-2.024 2.447-3.0387 3.879-1.6066l29.956 29.9564c1.431 1.4303.418 3.8791-1.606 3.8791z" fill="#095c54"/><path d="m105.426 51.8467c-1.254 0-2.273-1.0166-2.273-2.2725v-29.9564c0-2.024 2.447-3.0387 3.879-1.6066l29.957 29.9564c1.43 1.4303.417 3.8791-1.607 3.8791z" fill="#095b53"/><path d="m105.65 51.6221c-1.254 0-2.272-1.0166-2.272-2.2725v-29.9564c0-2.024 2.447-3.0387 3.879-1.6066l29.956 29.9564c1.43 1.4303.418 3.8791-1.606 3.8791z" fill="#095a52"/><path d="m105.875 51.3955c-1.254 0-2.273-1.0166-2.273-2.2725v-29.9564c0-2.0239 2.447-3.0368 3.879-1.6065l29.957 29.9564c1.43 1.4303.417 3.879-1.607 3.879z" fill="#095951"/><path d="m106.101 51.1709c-1.254 0-2.273-1.0166-2.273-2.2725v-29.9564c0-2.024 2.447-3.0387 3.88-1.6066l29.956 29.9565c1.43 1.4302.417 3.879-1.607 3.879z" fill="#095850"/><path d="m106.325 50.9453c-1.254 0-2.272-1.0166-2.272-2.2725v-29.9564c0-2.0239 2.447-3.0387 3.879-1.6065l29.956 29.9564c1.431 1.4303.418 3.879-1.606 3.879z" fill="#09574f"/><path d="m106.552 50.7207c-1.254 0-2.273-1.0166-2.273-2.2725v-29.9564c0-2.024 2.447-3.0368 3.879-1.6065l29.957 29.9564c1.43 1.4302.417 3.879-1.607 3.879z" fill="#09564f"/><path d="m106.776 50.4961c-1.254 0-2.272-1.0166-2.272-2.2725v-29.9564c0-2.024 2.447-3.0387 3.879-1.6066l29.956 29.9564c1.431 1.4303.418 3.8791-1.606 3.8791z" fill="#09554e"/><path d="m107.002 50.2695c-1.254 0-2.272-1.0166-2.272-2.2725v-29.9564c0-2.0239 2.447-3.0387 3.879-1.6065l29.956 29.9564c1.431 1.4303.418 3.879-1.606 3.879z" fill="#09544d"/><path d="m107.227 50.0449c-1.254 0-2.272-1.0166-2.272-2.2725v-29.9564c0-2.0239 2.446-3.0387 3.879-1.6065l29.956 29.9564c1.43 1.4303.417 3.879-1.606 3.879z" fill="#09534c"/><path d="m107.452 49.8193c-1.255 0-2.273-1.0166-2.273-2.2725v-29.9564c0-2.0239 2.447-3.0387 3.879-1.6065l29.956 29.9564c1.431 1.4303.418 3.879-1.606 3.879z" fill="#09524b"/><path d="m107.678 49.5947c-1.254 0-2.273-1.0166-2.273-2.2725v-29.9564c0-2.0239 2.447-3.0387 3.879-1.6065l29.957 29.9564c1.43 1.4303.417 3.879-1.607 3.879z" fill="#09514a"/><path d="m107.902 49.3701c-1.254 0-2.272-1.0166-2.272-2.2725v-29.9564c0-2.0239 2.447-3.0387 3.879-1.6065l29.956 29.9564c1.431 1.4303.418 3.879-1.606 3.879z" fill="#095049"/><path d="m108.129 49.1436c-1.254 0-2.273-1.0166-2.273-2.2726v-29.9564c0-2.0239 2.447-3.0386 3.879-1.6065l29.957 29.9564c1.43 1.4303.417 3.8791-1.607 3.8791z" fill="#094f48"/><path d="m108.353 48.9189c-1.254 0-2.272-1.0166-2.272-2.2725v-29.9564c0-2.0239 2.446-3.0387 3.879-1.6065l29.956 29.9564c1.43 1.4303.417 3.879-1.607 3.879z" fill="#0a4e47"/><path d="m108.578 48.6934c-1.254 0-2.273-1.0166-2.273-2.2726v-29.9564c0-2.0239 2.447-3.0386 3.879-1.6065l29.957 29.9564c1.43 1.4303.417 3.8791-1.607 3.8791z" fill="#0a4d46"/><path d="m108.804 48.4688c-1.254 0-2.273-1.0167-2.273-2.2726v-29.9564c0-2.0239 2.447-3.0386 3.879-1.6065l29.957 29.9564c1.43 1.4303.417 3.8791-1.607 3.8791z" fill="#0a4c46"/><path d="m109.028 48.2422c-1.254 0-2.272-1.0166-2.272-2.2725v-29.9564c0-2.024 2.447-3.0387 3.879-1.6066l29.956 29.9564c1.431 1.4303.418 3.8791-1.606 3.8791z" fill="#0a4b45"/><path d="m109.255 48.0176c-1.254 0-2.273-1.0166-2.273-2.2725v-29.9564c0-2.024 2.447-3.0387 3.879-1.6066l29.957 29.9564c1.43 1.4303.417 3.8791-1.607 3.8791z" fill="#0a4a44"/><path d="m109.479 47.793c-1.254 0-2.272-1.0166-2.272-2.2725v-29.9564c0-2.024 2.447-3.0387 3.879-1.6066l29.956 29.9564c1.43 1.4303.417 3.8791-1.606 3.8791z" fill="#0a4943"/><path d="m109.704 47.5674c-1.254 0-2.273-1.0166-2.273-2.2725v-29.9564c0-2.024 2.447-3.0387 3.879-1.6066l29.957 29.9564c1.43 1.4303.417 3.8791-1.607 3.8791z" fill="#0a4842"/><path d="m109.93 47.3428c-1.254 0-2.273-1.0166-2.273-2.2725v-29.9565c0-2.0239 2.447-3.0368 3.879-1.6065l29.957 29.9564c1.43 1.4303.417 3.8791-1.607 3.8791z" fill="#0a4741"/><path d="m110.154 47.1162c-1.254 0-2.272-1.0166-2.272-2.2725v-29.9564c0-2.0239 2.447-3.0387 3.879-1.6065l29.956 29.9564c1.431 1.4303.418 3.879-1.606 3.879z" fill="#0a4640"/><path d="m110.381 46.8916c-1.254 0-2.273-1.0166-2.273-2.2725v-29.9564c0-2.0239 2.447-3.0387 3.879-1.6065l29.957 29.9564c1.43 1.4302.417 3.879-1.607 3.879z" fill="#0a453f"/><path d="m110.605 46.667c-1.254 0-2.272-1.0166-2.272-2.2725v-29.9564c0-2.024 2.446-3.0369 3.879-1.6066l29.956 29.9564c1.43 1.4303.417 3.8791-1.607 3.8791z" fill="#0a443e"/><path d="m110.83 46.4404c-1.254 0-2.273-1.0166-2.273-2.2725v-29.9564c0-2.0239 2.447-3.0387 3.879-1.6065l29.957 29.9564c1.43 1.4303.417 3.879-1.607 3.879z" fill="#0a433d"/><path d="m111.056 46.2158c-1.254 0-2.272-1.0166-2.272-2.2725v-29.9564c0-2.0239 2.447-3.0387 3.879-1.6065l29.956 29.9564c1.43 1.4303.418 3.879-1.606 3.879z" fill="#0a423d"/><path d="m111.28 45.9902c-1.254 0-2.272-1.0166-2.272-2.2725v-29.9564c0-2.0239 2.447-3.0387 3.879-1.6065l29.956 29.9564c1.431 1.4303.418 3.879-1.606 3.879z" fill="#0a413c"/><path d="m111.507 45.7656c-1.254 0-2.273-1.0166-2.273-2.2725v-29.9564c0-2.0239 2.447-3.0387 3.879-1.6065l29.957 29.9564c1.43 1.4303.417 3.879-1.607 3.879z" fill="#0b403b"/><path d="m111.732 45.541c-1.255 0-2.273-1.0166-2.273-2.2725v-29.9564c0-2.0239 2.447-3.0387 3.879-1.6065l29.956 29.9564c1.431 1.4303.418 3.879-1.606 3.879z" fill="#0b3f3a"/><path d="m111.956 45.3145c-1.254 0-2.273-1.0167-2.273-2.2726v-29.9564c0-2.0239 2.447-3.0386 3.879-1.6065l29.957 29.9564c1.43 1.4303.417 3.8791-1.607 3.8791z" fill="#0b3e39"/><path d="m112.182 45.0898c-1.254 0-2.272-1.0166-2.272-2.2725v-29.9564c0-2.0239 2.447-3.03866 3.879-1.6065l29.956 29.9564c1.43 1.4303.418 3.879-1.606 3.879z" fill="#0b3d38"/><path d="m112.407 44.8643c-1.255 0-2.273-1.0166-2.273-2.2726v-29.9564c0-2.0239 2.447-3.03864 3.879-1.6065l29.956 29.9564c1.431 1.4303.418 3.8791-1.606 3.8791z" fill="#0b3c37"/><path d="m112.633 44.6396c-1.254 0-2.273-1.0166-2.273-2.2725v-29.9564c0-2.0239 2.447-3.03865 3.879-1.6065l29.957 29.9564c1.43 1.4303.417 3.879-1.607 3.879z" fill="#0b3b36"/><path d="m112.857 44.415c-1.254 0-2.272-1.0166-2.272-2.2725v-29.9564c0-2.0239 2.447-3.03865 3.879-1.6065l29.956 29.9564c1.431 1.4303.418 3.879-1.606 3.879z" fill="#0b3a35"/><path d="m113.084 44.1885c-1.255 0-2.273-1.0166-2.273-2.2725v-29.9564c0-2.02397 2.447-3.03872 3.879-1.6066l29.956 29.9564c1.431 1.4303.418 3.8791-1.606 3.8791z" fill="#0b3935"/><path d="m113.308 43.9639c-1.254 0-2.272-1.0166-2.272-2.2725v-29.9565c0-2.02389 2.447-3.03863 3.879-1.6065l29.956 29.9564c1.43 1.4303.417 3.8791-1.606 3.8791z" fill="#0b3834"/><path d="m113.533 43.7383c-1.254 0-2.273-1.0166-2.273-2.2725v-29.9564c0-2.02397 2.447-3.03871 3.879-1.60656l29.957 29.95636c1.43 1.4303.417 3.8791-1.607 3.8791z" fill="#0b3733"/><path d="m113.759 43.5137c-1.254 0-2.273-1.0166-2.273-2.2725v-29.9565c0-2.02388 2.447-3.03863 3.879-1.60648l29.957 29.95638c1.43 1.4303.417 3.8791-1.607 3.8791z" fill="#0b3632"/><path d="m113.983 43.2891c-1.254 0-2.272-1.0166-2.272-2.2726v-29.9564c0-2.02389 2.447-3.03863 3.879-1.60649l29.956 29.95639c1.431 1.4303.418 3.8791-1.606 3.8791z" fill="#0b3531"/><path d="m114.21 43.0625c-1.254 0-2.273-1.0166-2.273-2.2725v-29.9564c0-2.02395 2.447-3.0387 3.879-1.60655l29.957 29.95645c1.43 1.4302.417 3.879-1.607 3.879z" fill="#0b3430"/><path d="m114.434 42.8379c-1.254 0-2.272-1.0166-2.272-2.2725v-29.9564c0-2.02395 2.447-3.0387 3.879-1.60655l29.956 29.95635c1.43 1.4303.418 3.8791-1.606 3.8791z" fill="#0b332f"/><path d="m114.659 42.6123c-1.254 0-2.273-1.0166-2.273-2.2725v-29.9564c0-2.02394 2.447-3.03869 3.879-1.60654l29.957 29.95644c1.43 1.4303.417 3.879-1.607 3.879z" fill="#0c322e"/><path d="m114.885 42.3877c-1.254 0-2.273-1.0166-2.273-2.2725v-29.9564c0-2.02396 2.447-3.03685 3.879-1.60656l29.957 29.95636c1.43 1.4303.417 3.8791-1.607 3.8791z" fill="#0c312d"/><path d="m115.109 42.1611c-1.254 0-2.272-1.0166-2.272-2.2725v-29.95639c0-2.02393 2.447-3.03867 3.879-1.60652l29.956 29.95641c1.431 1.4303.418 3.879-1.606 3.879z" fill="#0c302c"/><path d="m115.336 41.9365c-1.254 0-2.273-1.0166-2.273-2.2725v-29.9564c0-2.02393 2.447-3.03868 3.879-1.60653l29.957 29.95643c1.43 1.4303.417 3.879-1.607 3.879z" fill="#0c2f2c"/><path d="m115.56 41.7119c-1.254 0-2.272-1.0166-2.272-2.2725v-29.9564c0-2.02394 2.447-3.03868 3.879-1.60654l29.956 29.95644c1.43 1.4303.418 3.879-1.606 3.879z" fill="#0c2e2b"/><path d="m115.785 41.4863c-1.254 0-2.273-1.0166-2.273-2.2725v-29.95639c0-2.02393 2.447-3.03868 3.879-1.60653l29.957 29.95642c1.43 1.4303.417 3.879-1.607 3.879z" fill="#0c2d2a"/><path d="m116.011 41.2607c-1.254 0-2.273-1.0166-2.273-2.2725v-29.95637c0-2.02393 2.447-3.03868 3.879-1.60653l29.957 29.9564c1.43 1.4303.417 3.879-1.607 3.879z" fill="#0c2c29"/><path d="m116.235 41.0352c-1.254 0-2.272-1.0166-2.272-2.2726v-29.95636c0-2.02393 2.447-3.03868 3.879-1.60653l29.956 29.95639c1.431 1.4303.418 3.8791-1.606 3.8791z" fill="#0c2b28"/><path d="m116.462 40.8105c-1.254 0-2.273-1.0166-2.273-2.2725v-29.95638c0-2.02393 2.447-3.03867 3.879-1.60653l29.957 29.95641c1.43 1.4303.417 3.879-1.607 3.879z" fill="#0c2a27"/><path d="m116.686 40.5859c-1.254 0-2.272-1.0166-2.272-2.2725v-29.95638c0-2.02393 2.446-3.03868 3.879-1.60653l29.956 29.95641c1.43 1.4303.417 3.879-1.607 3.879z" fill="#0c2926"/><path d="m116.911 40.3594c-1.254 0-2.273-1.0166-2.273-2.2725v-29.95645c0-2.02393 2.447-3.03868 3.879-1.60653l29.957 29.95638c1.43 1.4303.417 3.8791-1.607 3.8791z" fill="#0c2825"/><path d="m117.137 40.1348c-1.254 0-2.272-1.0166-2.272-2.2726v-29.95635c0-2.02393 2.447-3.03868 3.879-1.60653l29.956 29.95638c1.43 1.4303.418 3.8791-1.606 3.8791z" fill="#0c2724"/><path d="m117.362 39.9092c-1.255 0-2.273-1.0166-2.273-2.2725v-29.95644c0-2.02393 2.447-3.03868 3.879-1.60653l29.956 29.95637c1.431 1.4303.418 3.8791-1.606 3.8791z" fill="#0c2624"/><path d="m117.588 39.6846c-1.254 0-2.273-1.0166-2.273-2.2725v-29.95644c0-2.02393 2.447-3.03868 3.879-1.60653l29.957 29.95637c1.43 1.4303.417 3.8791-1.607 3.8791z" fill="#0c2523"/><path d="m117.812 39.46c-1.254 0-2.272-1.0166-2.272-2.2726v-29.95636c0-2.02393 2.447-3.03868 3.879-1.60653l29.956 29.95639c1.431 1.4303.418 3.8791-1.606 3.8791z" fill="#0c2422"/><path d="m118.037 39.2334c-1.254 0-2.273-1.0166-2.273-2.2725v-29.95643c0-2.02392 2.447-3.03867 3.879-1.60652l29.957 29.95645c1.43 1.4302.417 3.879-1.607 3.879z" fill="#0d2321"/><path d="m118.263 39.0088c-1.254 0-2.272-1.0166-2.272-2.2725v-29.95643c0-2.02393 2.447-3.03683 3.879-1.60653l29.956 29.95636c1.43 1.4303.418 3.8791-1.606 3.8791z" fill="#0d2220"/><path d="m118.488 38.7832c-1.254 0-2.273-1.0166-2.273-2.2725v-29.95642c0-2.02393 2.447-3.03868 3.879-1.60653l29.957 29.95645c1.43 1.4303.417 3.879-1.607 3.879z" fill="#0d211f"/><path d="m118.714 38.5586c-1.254 0-2.273-1.0166-2.273-2.2725v-29.95642c0-2.02394 2.447-3.03868 3.879-1.60654l29.957 29.95636c1.43 1.4303.417 3.8791-1.607 3.8791z" fill="#0d201e"/><path d="m118.938 38.334c-1.254 0-2.272-1.0166-2.272-2.2725v-29.95643c0-2.02393 2.447-3.03868 3.879-1.60653l29.956 29.95636c1.431 1.4303.418 3.8791-1.606 3.8791z" fill="#0d1f1d"/><path d="m119.165 38.1074c-1.254 0-2.273-1.0166-2.273-2.2725v-29.95639c0-2.02393 2.447-3.03868 3.879-1.60653l29.957 29.95642c1.43 1.4303.417 3.879-1.607 3.879z" fill="#0d1e1c"/><path d="m119.389 37.8828c-1.254 0-2.272-1.0166-2.272-2.2725v-29.95641c0-2.02393 2.447-3.03868 3.879-1.60653l29.956 29.95644c1.43 1.4303.417 3.879-1.606 3.879z" fill="#0d1d1b"/><path d="m119.614 37.6572c-1.254 0-2.273-1.0166-2.273-2.2725v-29.9564c0-2.02393 2.447-3.03867 3.879-1.60653l29.957 29.95643c1.43 1.4303.417 3.879-1.607 3.879z" fill="#0d1c1b"/><path d="m119.84 37.4326c-1.254 0-2.273-1.0166-2.273-2.2725v-29.9564c0-2.02393 2.447-3.03868 3.879-1.60653l29.957 29.95643c1.43 1.4303.417 3.879-1.607 3.879z" fill="#0d1b1a"/><path d="m120.064 37.208c-1.254 0-2.272-1.0166-2.272-2.2725v-29.95641c0-2.02393 2.447-3.03868 3.879-1.60653l29.956 29.95644c1.431 1.4303.418 3.879-1.606 3.879z" fill="#0d1a19"/><path d="m120.291 36.9814c-1.254 0-2.273-1.0166-2.273-2.2725v-29.95637c0-2.02393 2.447-3.03868 3.879-1.60653l29.957 29.9564c1.43 1.4303.417 3.879-1.607 3.879z" fill="#0d1918"/><path d="m120.515 36.7568c-1.254 0-2.272-1.0166-2.272-2.2725v-29.95638c0-2.02393 2.447-3.03867 3.879-1.60653l29.956 29.95641c1.43 1.4303.418 3.879-1.606 3.879z" fill="#0d1817"/><path d="m120.74 36.5312c-1.254 0-2.273-1.0166-2.273-2.2725v-29.95636c0-2.02393 2.447-3.03868 3.879-1.60653l29.957 29.95639c1.43 1.4303.417 3.879-1.607 3.879z" fill="#0d1716"/><path d="m120.966 36.3066c-1.254 0-2.273-1.0166-2.273-2.2725v-29.95638c0-2.02393 2.447-3.03868 3.879-1.60653l29.957 29.95641c1.43 1.4303.417 3.879-1.607 3.879z" fill="#0d1615"/><path d="m121.19 36.0801c-1.254 0-2.272-1.0166-2.272-2.2725v-29.95645c0-2.02393 2.447-3.038673 3.879-1.60652l29.956 29.95637c1.431 1.4303.418 3.8791-1.606 3.8791z" fill="#0e1514"/><path d="m121.417 35.8555c-1.254 0-2.273-1.0166-2.273-2.2725v-29.95645c0-2.02393 2.447-3.038678 3.879-1.60653l29.957 29.95638c1.43 1.4303.417 3.8791-1.607 3.8791z" fill="#0e1413"/><path d="m121.641 35.6309c-1.254 0-2.272-1.0166-2.272-2.2726v-29.95636c0-2.02393 2.447-3.038678 3.879-1.60653l29.956 29.95639c1.43 1.4303.418 3.8791-1.606 3.8791z" fill="#0e1312"/><path d="m121.866 35.4053c-1.254 0-2.273-1.0166-2.273-2.2725v-29.95644c0-2.02394 2.447-3.038684 3.879-1.60654l29.957 29.95638c1.43 1.4303.417 3.8791-1.607 3.8791z" fill="#0e1212"/><path d="m122.092 35.1797c-1.254 0-2.273-1.0166-2.273-2.2725v-29.95642c0-2.023934 2.447-3.0386821 3.879-1.60653l29.957 29.95635c1.43 1.4303.417 3.8791-1.607 3.8791z" fill="#0e1111"/><path d="m122.317 34.9541c-1.255 0-2.273-1.0166-2.273-2.2725v-29.95641c0-2.02393 2.447-3.038678 3.879-1.60653l29.956 29.95644c1.431 1.4302.418 3.879-1.606 3.879z" fill="#0e1010"/><path d="m122.543 34.7295c-1.254 0-2.273-1.0166-2.273-2.2725v-29.95643c0-2.023931 2.447-3.038679 3.879-1.606531l29.957 29.956361c1.43 1.4303.417 3.8791-1.607 3.8791z" fill="#0e0f0f"/><path d="m122.767 34.5049c-1.254 0-2.272-1.0166-2.272-2.2725v-29.95643c0-2.023937 2.447-3.038684 3.879-1.606536l29.956 29.956366c1.43 1.4303.417 3.8791-1.606 3.8791z" fill="#0e0e0e"/></g></svg>