<svg fill="none" height="24" viewBox="0 0 24 24" width="24" xmlns="http://www.w3.org/2000/svg"><g fill="#d9ff00"><path d="m7.30033 12.1691h-1.16073v-2.44272c0-.38081-.30357-.69659-.66964-.69659s-.66964.31578-.66964.69659v2.44272h-1.16071c-.36607 0-.66964.3158-.66964.6966v5.4985c0 .3808.30357.6965.66964.6965h1.16071v1.2725c0 .3808.30357.6966.66964.6966s.66964-.3158.66964-.6966v-1.2725h1.16073c.36607 0 .66964-.3157.66964-.6965v-5.4985c0-.3808-.30357-.6966-.66964-.6966z"/><path d="m13.4235 7.39534h-.9107v-2.7065c0-.36029-.2477-.65905-.5465-.65905-.2987 0-.5464.29876-.5464.65905v2.7065h-.9035c-.2987 0-.54643.29877-.54643.65905v8.45341c0 .3603.24773.6591.54643.6591h.9108v1.2038c0 .3603.2477.6591.5464.6591s.5465-.2988.5465-.6591v-1.2038h.9034c.2987 0 .5465-.2988.5465-.6591v-8.45341c0-.36028-.2478-.65905-.5465-.65905z"/><path d="m20.3003 4.80742h-1.1607v-1.11434c0-.3626-.3036-.66329-.6696-.66329-.3661 0-.6697.30069-.6697.66329v1.11434h-1.1607c-.3661 0-.6696.3007-.6696.6633v8.34868c0 .3626.3035.6633.6696.6633h1.1607v1.8838c0 .3626.3036.6633.6697.6633.366 0 .6696-.3007.6696-.6633v-1.8838h1.1607c.3661 0 .6697-.3007.6697-.6633v-8.34868c0-.3626-.3036-.6633-.6697-.6633z"/></g></svg>