<svg fill="none" height="24" viewBox="0 0 24 24" width="24" xmlns="http://www.w3.org/2000/svg"><path d="m16.5 12c.4945 0 .9778-.1466 1.389-.4213.4111-.2747.7315-.6652.9207-1.122.1892-.45681.2388-.95947.1423-1.44443-.0965-.48495-.3346-.9304-.6842-1.28004-.3496-.34963-.7951-.58773-1.28-.68419-.485-.09647-.9877-.04696-1.4445.14226s-.8472.50965-1.1219.92078c-.2748.41112-.4214.89447-.4214 1.38892-.0013.32868.0625.6544.1876.9583.1252.3039.3093.58.5417.8124s.5085.4165.8125.5417c.3039.1252.6296.1889.9582.1876zm-7.49997-1c.59334 0 1.17337-.1759 1.66667-.5056.4934-.3296.8779-.79817 1.105-1.34635.227-.54818.2864-1.15138.1707-1.73332-.1158-.58194-.4015-1.11649-.8211-1.53605-.4195-.41956-.9541-.70528-1.536-.82103-.58195-.11576-1.18515-.05635-1.73332.17071-.54818.22707-1.01672.61158-1.34636 1.10493-.32965.49335-.50559 1.07337-.50559 1.66671 0 .79565.31607 1.55871.87868 2.1213.5626.5626 1.32567.8787 2.12132.8787zm2.75997 2c-.6293.4601-1.1401 1.0634-1.49 1.76l-.94997 1.89c-.18059.362-.28608.7568-.31014 1.1607-.02406.4038.03381.8084.17014 1.1893h-6.18c-.17047-.0005-.33797-.0446-.4866-.1281-.14864-.0834-.27347-.2035-.36264-.3488s-.13973-.3109-.14686-.4812c-.00714-.1704.02939-.3397.1061-.4919l1.44-2.89c.24944-.4996.63339-.9197 1.10863-1.213.47525-.2933 1.02292-.4481 1.58137-.447zm.24 6c-.1704-.0005-.3379-.0446-.4866-.1281-.1486-.0834-.2734-.2035-.3626-.3488s-.1397-.3109-.1469-.4812c-.0071-.1704.0294-.3397.1061-.4919l1-1.9c.2462-.4887.6214-.9008 1.085-1.1917.4636-.2908.9978-.4493 1.545-.4583h3.52c.5557-.0002 1.1006.154 1.5738.4454.4732.2913.8562.7083 1.1062 1.2046l.95 1.9c.0767.1522.1133.3215.1061.4919-.0071.1703-.0577.3359-.1468.4812-.0892.1453-.214.2654-.3627.3488-.1486.0835-.3161.1276-.4866.1281z" fill="#d9ff00"/></svg>