<svg fill="none" height="18" viewBox="0 0 21 18" width="21" xmlns="http://www.w3.org/2000/svg" xmlns:xlink="http://www.w3.org/1999/xlink"><clipPath id="a"><path d="m0 0h20.9998976v17.77141344h-20.9998976z"/></clipPath><g clip-path="url(#a)" fill="#d9ff00"><path d="m8.96721 0c.56276 0 .84414.681241.44428 1.0811l-7.09379 7.08639h6.64951c.56276 0 .84414.68124.44428 1.0811l-8.33039 8.33041c-.399859.3998-1.0811.1185-1.0811-.4443v-16.505292c0-.348026.281382-.629408.629408-.629408h8.330392z"/><path d="m16.1574 0c2.6731 0 4.8427 2.16961 4.8427 4.84274s-2.1696 4.84273-4.8427 4.84273h-2.5917l7.0124 7.00493c.3998.3999.1185 1.0811-.4443 1.0811h-8.3304c-.348 0-.6294-.2814-.6294-.6294v-16.512692c0-.348026.2814-.629408.6294-.629408h4.3614z"/></g></svg>