<svg fill="none" height="48" viewBox="0 0 48 48" width="48" xmlns="http://www.w3.org/2000/svg"><path d="m24 .75c12.8406 0 23.25 10.4094 23.25 23.25s-10.4094 23.25-23.25 23.25-23.25-10.4094-23.25-23.25 10.4094-23.25 23.25-23.25z" stroke="#d9ff00" stroke-width="1.5"/><path d="m24 35c-.4782 0-.9103-.1146-1.2966-.3438-.3862-.2291-.6896-.5362-.9103-.9212-.6069 0-1.1264-.2154-1.5586-.6462-.4322-.4309-.6483-.9488-.6483-1.5538v-3.905c-1.0851-.715-1.954-1.6592-2.6069-2.8325s-.9793-2.4475-.9793-3.8225c0-2.2183.777-4.1021 2.331-5.6512 1.5541-1.5492 3.4437-2.3238 5.669-2.3238s4.1149.7746 5.669 2.3238c1.554 1.5491 2.331 3.4329 2.331 5.6512 0 1.4117-.3264 2.695-.9793 3.85s-1.5218 2.09-2.6069 2.805v3.905c0 .605-.2161 1.1229-.6483 1.5538-.4322.4308-.9517.6462-1.5586.6462-.2207.385-.5241.6921-.9103.9212-.3863.2292-.8184.3438-1.2966.3438zm-2.2069-3.465h4.4138v-.99h-4.4138zm0-2.09h4.4138v-1.045h-4.4138zm3.0345-3.245v-2.97l2.4276-2.42-1.1586-1.155-2.0966 2.09-2.0966-2.09-1.1586 1.155 2.4276 2.42v2.97z" fill="#d9ff00"/></svg>