<svg fill="none" height="205" viewBox="0 0 446 205" width="446" xmlns="http://www.w3.org/2000/svg" xmlns:xlink="http://www.w3.org/1999/xlink"><linearGradient id="a" gradientUnits="userSpaceOnUse" x1="223.068" x2="223.068" y1="-51.9535" y2="190.827"><stop offset="0" stop-color="#00d8c3"/><stop offset="1" stop-color="#151515" stop-opacity="0"/></linearGradient><linearGradient id="b" gradientUnits="userSpaceOnUse" x1="447.671" x2="-8.43081" y1="118.327" y2="109.87"><stop offset="0" stop-color="#77fc02"/><stop offset=".350962" stop-color="#00d8c3"/><stop offset="1" stop-color="#151515"/></linearGradient><path d="m51.5331 113.321c-22.2305 26.911-43.52783 27.51-51.397666 24.445l-8.566284 81.276h462.99685v-98.617c-22.982 2.089-17.759-17.551-53.696-23.1918-35.936-5.6412-26.743-33.6383-49.726-35.7277-22.983-2.0893-30.295-14.4164-37.817-30.5043s-17.968-39.73454-29.669-26.36276c-13.291 15.19046-25.072 119.54756-54.322 127.90456-29.251 8.357-29.669-29.042-55.786-29.042-26.116 0-21.311 32.594-54.74 35.728-33.4296 3.134-39.4887-59.5463-67.2769-25.908z" fill="url(#a)"/><path d="m51.5331 113.321c-22.2305 26.911-43.52783 27.51-51.397666 24.445l-8.566284 81.276h462.99685v-98.617c-22.982 2.089-17.759-17.551-53.696-23.1918-35.936-5.6412-26.743-33.6383-49.726-35.7277-22.983-2.0893-30.295-14.4164-37.817-30.5043s-17.968-39.73454-29.669-26.36276c-13.291 15.19046-25.072 119.54756-54.322 127.90456-29.251 8.357-29.669-29.042-55.786-29.042-26.116 0-21.311 32.594-54.74 35.728-33.4296 3.134-39.4887-59.5463-67.2769-25.908z" stroke="url(#b)" stroke-width="1.2536"/></svg>