<svg fill="none" height="32" viewBox="0 0 47 32" width="47" xmlns="http://www.w3.org/2000/svg" xmlns:xlink="http://www.w3.org/1999/xlink"><clipPath id="a"><path d="m13.333 5h20.4286v22h-20.4286z"/></clipPath><rect fill="#5e59ec" height="32" rx="2.66667" width="46.6667"/><g clip-path="url(#a)"><path d="m23.3054 5.94824c-5.4868 0-9.9724 4.50326-9.9724 10.05186 0 5.5487 4.4455 10.052 9.9724 10.052s9.9724-4.5033 9.9724-10.052c0-5.5486-4.4455-10.05186-9.9724-10.05186zm2.8436 15.07786-.0401-6.2724-6.2077 6.2724h-3.0438l7.8097-7.8405h-2.8435c-.8811 0-1.602.7238-1.602 1.6083 0 .3619.1201.7238.3204.965l-1.5219 1.5279c-.6008-.6835-.9612-1.5681-.9612-2.5331 0-2.0908 1.6821-3.7795 3.7647-3.7795h6.488v10.0117z" fill="#fff"/></g></svg>