<svg fill="none" height="24" viewBox="0 0 24 24" width="24" xmlns="http://www.w3.org/2000/svg"><path d="m2 5.83v12.33c0 2.12 1.71999 3.84 3.82999 3.84h12.34001c2.11 0 3.83-1.72 3.83-3.84v-12.33c0-2.11-1.72-3.83-3.83-3.83h-12.34001c-2.11 0-3.82999 1.72-3.82999 3.83zm4.01001 1.71c0-.85.68998-1.54 1.53998-1.54s1.54001.69 1.54001 1.54c0 .22-.04001.42-.13001.61l2.38001 2.68c.09-.02.19-.03.3-.03.85 0 1.54.69 1.54 1.54 0 .09-.01.19-.03.28l2.79 2.41c.16-.06.34-.1.52-.1.85 0 1.54.69 1.54 1.54s-.69 1.54-1.54 1.54-1.54-.69-1.54-1.54c0-.11.01-.21.03-.31l-2.75-2.39c-.17.07-.36.11-.56.11-.86 0-1.55-.69-1.55-1.54 0-.19.04-.37.11-.54l-2.43001-2.74c-.07.01-.14.02-.22.02-.85 0-1.53998-.69-1.53998-1.54z" fill="#d9ff00"/></svg>