<svg fill="none" height="24" viewBox="0 0 24 24" width="24" xmlns="http://www.w3.org/2000/svg"><g fill="#0e0e0e"><path d="m18.0599 12v3.34c0 .6-.3 1.15-.79 1.48-1.21.8-3.19 1.75-5.79 1.75-1.18 0-3.49999-.23-5.78999-1.76-.49-.32-.78-.87-.78-1.47v-3.33l1.5.66 4.04999 1.81c.23.11.45.15.57.16.3.06.6.06.88.01.14-.02.36-.06.59-.17l4.06-1.81z"/><path d="m22 17.1399c0 .71-.42 1.33-1.03 1.61v1.4699c0 .42-.34.75-.75.75-.42 0-.75-.33-.75-.75v-1.4699c-.61-.28-1.03-.9-1.03-1.61s.42-1.33 1.03-1.61v-5.57997l-1.41.62997-1.5.67-4.06 1.81c-.23.11-.45.15-.59.17-.28.05-.58.0499-.88-.0101-.12-.01-.34-.0499-.57-.1599l-4.05-1.81-1.5-.66-1.73999-.77999c-.72-.32-1.17001-.94997-1.17001-1.65997s.45001-1.35004 1.17001-1.67004l7.29999-3.25c.64-.27 1.38-.27001 2.01-.01001l7.32 3.26001c.72.32 1.17.96004 1.17 1.67004v7.37996c.61.28 1.03.9 1.03 1.61z"/></g></svg>