<svg fill="none" height="48" viewBox="0 0 48 48" width="48" xmlns="http://www.w3.org/2000/svg"><path d="m24 .75c12.8406 0 23.25 10.4094 23.25 23.25s-10.4094 23.25-23.25 23.25-23.25-10.4094-23.25-23.25 10.4094-23.25 23.25-23.25z" stroke="#d9ff00" stroke-width="1.5"/><path d="m19.1215 34c-.2279 0-.4402-.0573-.637-.1719s-.347-.276-.4506-.4843l-2.4237-4.3438h1.8022l1.243 2.5h2.8587v-1.25h-2.113l-1.2429-2.5h-3.2316l-1.7712-3.125c-.0415-.1042-.0777-.2083-.1088-.3125s-.0466-.2083-.0466-.3125c0-.0833.0518-.2917.1554-.625l1.7712-3.125h3.2316l1.2429-2.5h2.113v-1.25h-2.8587l-1.243 2.5h-1.8022l2.4237-4.3438c.1036-.2083.2538-.3697.4506-.4843s.4091-.1719.637-.1719h3.0141c.3522 0 .6474.1198.8856.3594s.3573.5364.3573.8906v5h-1.8644l-1.2429 1.25h3.1073v3.75h-2.7344l-1.243-2.5h-2.8587l-1.243 1.25h3.356l1.2429 2.5h3.4802v6.25c0 .3542-.1191.651-.3573.8906s-.5334.3594-.8856.3594zm6.7429 0c-.3522 0-.6474-.1198-.8856-.3594s-.3573-.5364-.3573-.8906v-6.25h3.4802l1.2429-2.5h3.356l-1.243-1.25h-2.8587l-1.243 2.5h-2.7344v-3.75h3.1073l-1.2429-1.25h-1.8644v-5c0-.3542.1191-.651.3573-.8906s.5334-.3594.8856-.3594h3.0141c.2279 0 .4402.0573.637.1719s.347.276.4506.4843l2.4237 4.3438h-1.8022l-1.243-2.5h-2.8587v1.25h2.113l1.2429 2.5h3.2316l1.7712 3.125c.0415.1042.0777.2083.1088.3125s.0466.2083.0466.3125c0 .0833-.0518.2917-.1554.625l-1.7712 3.125h-3.2316l-1.2429 2.5h-2.113v1.25h2.8587l1.243-2.5h1.8022l-2.4237 4.3438c-.1036.2083-.2538.3697-.4506.4843s-.4091.1719-.637.1719z" fill="#d9ff00"/></svg>