<svg fill="none" height="48" viewBox="0 0 48 48" width="48" xmlns="http://www.w3.org/2000/svg"><path d="m24 .75c12.8406 0 23.25 10.4094 23.25 23.25s-10.4094 23.25-23.25 23.25-23.25-10.4094-23.25-23.25 10.4094-23.25 23.25-23.25z" stroke="#d9ff00" stroke-width="1.5"/><path d="m20.9487 33h-3.8974c-.5641 0-1.047-.2009-1.4487-.6026s-.6026-.8846-.6026-1.4487v-3.8974c.8205 0 1.5385-.2607 2.1538-.7821.6154-.5213.9231-1.1837.9231-1.9871 0-.8035-.3077-1.4659-.9231-1.9872-.6153-.5214-1.3333-.7821-2.1538-.7821v-3.8974c0-.5641.2009-1.047.6026-1.4487s.8846-.6026 1.4487-.6026h4.1025c0-.7179.2479-1.3248.7436-1.8205.4958-.4957 1.1026-.7436 1.8205-.7436.718 0 1.3248.2479 1.8206.7436.4957.4957.7436 1.1026.7436 1.8205h4.1025c.5641 0 1.047.2009 1.4487.6026s.6026.8846.6026 1.4487v4.1025c.7179 0 1.3248.2479 1.8205.7436.4957.4958.7436 1.1026.7436 1.8206 0 .7179-.2479 1.3247-.7436 1.8205-.4957.4957-1.1026.7436-1.8205.7436v4.1025c0 .5641-.2009 1.047-.6026 1.4487s-.8846.6026-1.4487.6026h-3.8974c0-.8547-.2693-1.5812-.8077-2.1795-.5385-.5983-1.1923-.8974-1.9616-.8974-.7692 0-1.423.2991-1.9615.8974s-.8077 1.3248-.8077 2.1795z" fill="#d9ff00"/></svg>