<svg fill="none" height="32" viewBox="0 0 47 32" width="47" xmlns="http://www.w3.org/2000/svg"><rect fill="#fff" height="32" rx="2.66667" width="46.6667"/><path d="m29.5681 6.6665c5.0249 0 9.0986 4.1209 9.0986 9.2041s-4.0737 9.2041-9.0986 9.2041c-2.2529-.0001-4.3133-.83-5.9023-2.2021-1.5889 1.3715-3.6481 2.202-5.9004 2.2021-5.0249 0-9.09859-4.1209-9.09865-9.2041 0-5.0832 4.07375-9.2041 9.09865-9.2041 2.2524.00007 4.3125.82956 5.9013 2.20118 1.5889-1.37158 3.649-2.20111 5.9014-2.20118z" fill="#ed0006"/><path d="m29.5681 6.6665c5.0249 0 9.0986 4.1209 9.0986 9.2041s-4.0737 9.2041-9.0986 9.2041c-2.2526-.0001-4.3124-.8303-5.9014-2.2021 1.9554-1.6882 3.1963-4.1977 3.1963-7.002 0-2.8045-1.2406-5.3148-3.1963-7.00292 1.5889-1.37158 3.649-2.20111 5.9014-2.20118z" fill="#f9a000"/><path d="m23.6665 8.86768c1.9557 1.68812 3.1973 4.19832 3.1973 7.00292 0 2.8044-1.2419 5.3138-3.1973 7.002-1.9552-1.6882-3.1963-4.1978-3.1963-7.002 0-2.8044 1.2409-5.3148 3.1963-7.00292z" fill="#ff5e00"/></svg>