<svg fill="none" height="21" viewBox="0 0 25 21" width="25" xmlns="http://www.w3.org/2000/svg"><path clip-rule="evenodd" d="m10.9031 2.29072c-1.45849-1.866667-3.50189-2.578865-5.24316-2.186438-1.77043.399001-3.10205 1.916258-3.10205 4.190968 0 3.50319 2.08711 5.92285 4.54011 7.67455-1.18622 1.0782-2.08703 2.3333-2.62464 3.551-.05674.1285-.10975.2574-.15882.3862h-3.720047c-.328329 0-.594493.2666-.594493.5955s.266164.5955.594493.5955h3.384317c-.08222.4634-.10177.9149-.04754 1.3401.11783.9237.58934 1.7228 1.48184 2.1698.95062.4761 1.86557.4334 2.67839.0551.78339-.3646 1.4443-1.0259 1.9834-1.7475.4226-.5657.7918-1.1978 1.1031-1.8175h13.2275c.3283 0 .5945-.2666.5945-.5955s-.2662-.5955-.5945-.5955h-12.6873c.2076-.5078.3666-.9643.4739-1.3135.2681-.8727.5804-2.5424.6474-4.4445.1286-.0405.253-.0772.3735-.1102.8145-.22312 1.4034-.26594 1.7894-.20405.3715.05956.4769.19605.5163.29285.0562.1381.0745.4299-.1342.9375-.2682.6523-.4042 1.2499-.275 1.7271.0721.2662.2291.4998.4774.6487.2349.1408.4935.1713.7188.1572.4375-.0275.9159-.2326 1.3564-.4984.4549-.2744.9291-.6499 1.3677-1.0893.3944-.395.7993-.7555 1.1802-1.0379.3889-.2883.7185-.4693.9651-.5427.1201-.0358.1933-.0376.2297-.0331.0248.0031.0294.0079.0323.0108.025.0239.1442.1846.1442.7353 0 1.0205.2723 1.8226 1.0055 2.1164.3323.1332.675.1185.9645.0581.2918-.0609.5749-.1774.8228-.3016.2937-.1471.4127-.5047.2659-.7989-.1468-.2941-.5039-.4134-.7976-.2663-.1979.0991-.3793.1687-.5335.2009-.1563.0326-.2411.0178-.2804.0021-.0134-.0053-.2582-.1022-.2582-1.0107 0-.64-.1229-1.22429-.5112-1.59575-.4281-.40957-.983-.38978-1.4228-.25884-.4407.13121-.9005.40598-1.3336.72699-.441.327-.8907.7294-1.3137 1.1531-.3788.3795-.7778.6925-1.1404.9112-.0825.0498-.1605.0932-.2337.1306-.2896.148-.548-.0813-.4444-.3896.0303-.0901.0676-.1904.1134-.3019.2596-.6314.3634-1.2813.1359-1.84054-.2445-.60058-.7921-.91709-1.4295-1.01928-.6229-.09987-1.3986-.01319-2.291.23133-.0177.00483-.0354.00973-.0531.0147-.0583-2.26849-.5235-4.79718-1.9431-6.61409zm-.4776 13.61628c.2852-.6421.4988-1.2361.6302-1.6637.2134-.6947.4781-2.051.5725-3.647-.4262.1778-.8841.388-1.3733.633-.39003.1954-.76252.4137-1.11584.6502.1331.0795.26713.1578.40189.235.28505.1632.38404.5269.22111.8124-.16293.2856-.52609.3847-.81114.2215-.27638-.1582-.55346-.3232-.82897-.4955-1.14396.983-2.00953 2.1452-2.51823 3.2541zm-5.23403 1.191c-.09939.4411-.12493.8432-.0808 1.1891.07552.592.34872 1.0125.83417 1.2556.60992.3055 1.14405.2737 1.64562.0403.531-.2472 1.04979-.7349 1.53247-1.381.25727-.3444.4944-.7202.70928-1.104zm4.53172-6.9339c.69721-.34919 1.34451-.6363 1.94011-.86422-.0004-.06443-.0011-.12904-.0022-.19382-.0364-2.22631-.4768-4.523-1.69435-6.08135-1.21674-1.55728-2.81461-2.036013-4.04581-1.75854-1.20203.2709-2.17407 1.28438-2.17407 3.02908 0 3.06756 1.88563 5.23095 4.30765 6.89155.51732-.3803 1.07508-.7254 1.66867-1.0227z" fill="#fff" fill-rule="evenodd"/></svg>