<svg fill="none" height="48" viewBox="0 0 48 48" width="48" xmlns="http://www.w3.org/2000/svg"><path d="m24 .75c12.8406 0 23.25 10.4094 23.25 23.25s-10.4094 23.25-23.25 23.25-23.25-10.4094-23.25-23.25 10.4094-23.25 23.25-23.25z" stroke="#d9ff00" stroke-width="1.5"/><path d="m24.11 34c-.3117 0-.5729-.1065-.7837-.3194-.2109-.213-.3163-.4769-.3163-.7917 0-.1296.0275-.2639.0825-.4028s.1375-.2639.2475-.375l5.0875-5.1389-.7975-.8055-5.06 5.1389c-.11.1111-.2292.1944-.3575.25-.1283.0555-.2658.0833-.4125.0833-.3117 0-.5729-.1065-.7838-.3195-.2108-.2129-.3162-.4768-.3162-.7916 0-.1852.0275-.338.0825-.4584.055-.1203.1283-.2268.22-.3194l5.0875-5.1389-.77-.7778-5.0875 5.1111c-.11.1112-.2292.1945-.3575.25-.1283.0556-.275.0834-.44.0834-.2933 0-.55-.1111-.77-.3334-.22-.2222-.33-.4814-.33-.7777 0-.1482.0275-.2871.0825-.4167s.1375-.25.2475-.3611l5.0875-5.1389-.7975-.7778-5.06 5.1389c-.0917.0926-.2017.1667-.33.2222-.1283.0556-.2842.0834-.4675.0834-.3117 0-.5729-.1065-.7837-.3195-.2109-.2129-.3163-.4768-.3163-.7916 0-.1482.0275-.2871.0825-.4167s.1375-.25.2475-.3611l6.1325-6.1945 4.125 4.1945c.2017.2037.44.3657.715.4861s.55.1805.825.1805c.5867 0 1.1-.2083 1.54-.625.44-.4166.66-.949.66-1.5972 0-.2592-.0458-.5278-.1375-.8055-.0917-.2778-.2567-.5371-.495-.7778l-4.9225-4.9722c.3117-.2963.66-.5232 1.045-.6806s.77-.2361 1.155-.2361c.4767 0 .9167.0787 1.32.2361s.77.4028 1.1.7361l4.6475 4.7222c.33.3334.5729.7037.7288 1.1112.1558.4074.2337.8796.2337 1.4166 0 .3704-.0825.7454-.2475 1.125-.165.3797-.4033.7269-.715 1.0417l-9.1575 9.2778c-.1467.1481-.275.2407-.385.2777-.11.0371-.2383.0556-.385.0556zm-9.4325-8.8889-.715-.7222c-.3117-.2963-.55-.6482-.715-1.0556s-.2475-.8333-.2475-1.2777c0-.4815.0917-.926.275-1.3334s.4125-.75.6875-1.0278l4.6475-4.7222c.2933-.2963.6417-.5324 1.045-.7083s.7975-.2639 1.1825-.2639c.495 0 .935.0694 1.32.2083s.7608.3936 1.1275.7639l5.6375 5.6945c.11.1111.1925.2314.2475.3611.055.1296.0825.2685.0825.4166 0 .2963-.11.5556-.33.7778s-.4767.3334-.77.3334c-.165 0-.3025-.0232-.4125-.0695s-.2292-.1342-.3575-.2639l-4.95-4.9444z" fill="#d9ff00"/></svg>