<svg fill="none" height="48" viewBox="0 0 48 48" width="48" xmlns="http://www.w3.org/2000/svg"><path d="m24 .75c12.8406 0 23.25 10.4094 23.25 23.25s-10.4094 23.25-23.25 23.25-23.25-10.4094-23.25-23.25 10.4094-23.25 23.25-23.25z" stroke="#d9ff00" stroke-width="1.5"/><path d="m16.1842 33c-.5732 0-1.0638-.1958-1.472-.5875-.4081-.3917-.6122-.8625-.6122-1.4125v-14c0-.55.2041-1.0208.6122-1.4125.4082-.3917.8988-.5875 1.472-.5875h14.5895c.5731 0 1.0638.1958 1.4719.5875.4082.3917.6123.8625.6123 1.4125h-8.3369c-1.2331 0-2.2362.3708-3.0091 1.1125-.7728.7417-1.1593 1.7042-1.1593 2.8875v6c0 1.1833.3865 2.1458 1.1593 2.8875.7729.7417 1.776 1.1125 3.0091 1.1125h8.3369c0 .55-.2041 1.0208-.6123 1.4125-.4081.3917-.8988.5875-1.4719.5875zm8.3368-4c-.5731 0-1.0638-.1958-1.4719-.5875-.4082-.3917-.6123-.8625-.6123-1.4125v-6c0-.55.2041-1.0208.6123-1.4125.4081-.3917.8988-.5875 1.4719-.5875h7.2948c.5731 0 1.0638.1958 1.4719.5875.4082.3917.6123.8625.6123 1.4125v6c0 .55-.2041 1.0208-.6123 1.4125-.4081.3917-.8988.5875-1.4719.5875zm3.1263-3.5c.4516 0 .825-.1417 1.1203-.425s.4429-.6417.4429-1.075-.1476-.7917-.4429-1.075-.6687-.425-1.1203-.425c-.4515 0-.825.1417-1.1202.425-.2953.2833-.4429.6417-.4429 1.075s.1476.7917.4429 1.075c.2952.2833.6687.425 1.1202.425z" fill="#d9ff00"/></svg>