<svg fill="none" height="32" viewBox="0 0 47 32" width="47" xmlns="http://www.w3.org/2000/svg"><rect fill="#00579f" height="32" rx="2.66667" width="46.6667"/><g fill="#fff"><path d="m19.9655 21.4436h-2.6386l1.6504-10.2048h2.6385z"/><path d="m29.5297 11.4887c-.5205-.2065-1.3459-.4345-2.3667-.4345-2.6057 0-4.4406 1.3895-4.4519 3.3761-.0216 1.4657 1.3138 2.2798 2.3126 2.7685 1.0208.4994 1.3678.8254 1.3678 1.2705-.0104.6836-.8249.9988-1.5846.9988-1.0534 0-1.6179-.1625-2.4757-.5429l-.3475-.163-.3692 2.2908c.6189.2819 1.759.5321 2.9428.5431 2.7687 0 4.5711-1.3681 4.5925-3.4851.0105-1.1617-.6946-2.0518-2.2149-2.7792-.9229-.4669-1.488-.7817-1.488-1.2595.0108-.4343.478-.8791 1.5198-.8791.8578-.0218 1.488.1844 1.9655.3907l.2386.1084z"/><path d="m33.0382 17.8284c.2173-.5863 1.0535-2.8552 1.0535-2.8552-.011.0217.2169-.5971.3471-.977l.1845.8793s.4996 2.4427.6081 2.9529c-.4123 0-1.672 0-2.1932 0zm3.2571-6.5896h-2.041c-.6294 0-1.1076.1844-1.3791.8467l-3.9194 9.3579h2.7687s.4558-1.2595.5537-1.5308h3.3878c.0758.3583.3149 1.5308.3149 1.5308h2.4431z"/><path d="m15.1227 11.2388-2.5841 6.9587-.2823-1.4113c-.4778-1.6285-1.9761-3.3978-3.64815-4.2775l2.36695 8.924h2.7903l4.1475-10.1939z"/></g><path d="m10.1391 11.2388h-4.24533l-.04343.2062c3.31161.8468 5.50486 2.8881 6.40596 5.3416l-.9229-4.69c-.152-.6518-.6189-.8363-1.1943-.8578z" fill="#faa61a"/></svg>