<?xml version="1.0" encoding="UTF-8" standalone="no"?>
<svg
   fill="none"
   height="46"
   viewBox="0 0 46 46"
   width="46"
   version="1.1"
   id="svg8"
   sodipodi:docname="img_frame_427321660.svg"
   inkscape:version="1.3.2 (091e20e, 2023-11-25)"
   xmlns:inkscape="http://www.inkscape.org/namespaces/inkscape"
   xmlns:sodipodi="http://sodipodi.sourceforge.net/DTD/sodipodi-0.dtd"
   xmlns="http://www.w3.org/2000/svg"
   xmlns:svg="http://www.w3.org/2000/svg">
  <defs
     id="defs8" />
  <sodipodi:namedview
     id="namedview8"
     pagecolor="#ffffff"
     bordercolor="#000000"
     borderopacity="0.25"
     inkscape:showpageshadow="2"
     inkscape:pageopacity="0.0"
     inkscape:pagecheckerboard="0"
     inkscape:deskcolor="#d1d1d1"
     inkscape:zoom="5.1304348"
     inkscape:cx="23"
     inkscape:cy="27.288136"
     inkscape:window-width="1312"
     inkscape:window-height="429"
     inkscape:window-x="0"
     inkscape:window-y="25"
     inkscape:window-maximized="0"
     inkscape:current-layer="svg8" />
  <clipPath
     id="a">
    <path
       d="m12.36 11h21.28v24h-21.28z"
       id="path1" />
  </clipPath>
  <rect
     fill="#262626"
     height="46"
     rx="23"
     width="46"
     id="rect1" />
  <g
     clip-path="url(#a)"
     id="g8"
     transform="matrix(1.9080935,0,0,1.9080935,-20.885769,-20.885769)">
    <g
       fill="#25f4ee"
       id="g4">
      <path
         d="m 20.6459,20.4501 v -0.9367 c -0.3225,-0.0439 -0.6499,-0.071 -0.984,-0.071 -4.0261,0 -7.3019,3.2646 -7.3019,7.2776 0,2.4622 1.2341,4.6408 3.1176,5.958 -1.2154,-1.3003 -1.9608,-3.0419 -1.9608,-4.9551 0,-3.9551 3.1828,-7.1807 7.1297,-7.2728 z"
         id="path2" />
      <path
         d="m 20.8181,31.0467 c 1.7964,0 3.2619,-1.4244 3.3284,-3.1985 l 0.0066,-15.8447 h 2.9043 C 26.997,11.6779 26.9638,11.3431 26.9638,11 h -3.9669 l -0.0066,15.8447 c -0.0665,1.7741 -1.5319,3.1984 -3.3284,3.1984 -0.5582,0 -1.0843,-0.139 -1.547,-0.3817 0.6058,0.8374 1.5905,1.3853 2.7032,1.3853 z"
         id="path3" />
      <path
         d="m 32.4832,17.3811 v -0.8808 c -1.1078,0 -2.1402,-0.3281 -3.0058,-0.8909 0.7708,0.8819 1.8176,1.5182 3.0058,1.7717 z"
         id="path4" />
    </g>
    <path
       d="m 29.478,15.6095 c -0.8445,-0.9662 -1.3573,-2.2274 -1.3573,-3.6066 h -1.0626 c 0.2797,1.5062 1.1767,2.7987 2.4199,3.6066 z"
       fill="#fe2c55"
       id="path5" />
    <path
       d="m 19.6619,23.3963 c -1.8387,0 -3.335,1.4912 -3.335,3.3237 0,1.2762 0.7267,2.3851 1.788,2.9414 -0.3956,-0.5467 -0.6312,-1.2149 -0.6312,-1.9385 0,-1.8325 1.4963,-3.3236 3.335,-3.3236 0.3431,0 0.6724,0.0565 0.9841,0.1535 v -4.0365 c -0.3226,-0.0439 -0.65,-0.071 -0.9841,-0.071 -0.058,0 -0.1147,0.003 -0.1721,0.0042 v 3.0997 c -0.3117,-0.0969 -0.6409,-0.1535 -0.984,-0.1535 z"
       fill="#fe2c55"
       id="path6" />
    <path
       d="m 32.4834,17.3809 v 3.0726 c -2.0568,0 -3.9633,-0.6556 -5.5193,-1.7687 v 8.0349 c 0,4.013 -3.2759,7.277 -7.302,7.277 -1.556,0 -2.9985,-0.4888 -4.1849,-1.319 1.3337,1.4274 3.2341,2.3219 5.3411,2.3219 4.0267,0 7.302,-3.2646 7.302,-7.277 v -8.0343 c 1.556,1.1131 3.4625,1.7687 5.5193,1.7687 v -3.9539 c -0.3969,0 -0.7835,-0.0428 -1.1562,-0.1222 z"
       fill="#fe2c55"
       id="path7" />
    <path
       d="m 26.9639,26.7201 v -8.035 c 1.5561,1.1131 3.4625,1.7687 5.5194,1.7687 v -3.0726 c -1.1882,-0.2534 -2.2351,-0.8891 -3.0059,-1.7717 -1.2431,-0.8079 -2.1402,-2.0998 -2.4198,-3.6066 h -2.9044 l -0.0066,15.8447 c -0.0665,1.7741 -1.5319,3.1984 -3.3284,3.1984 -1.1127,0 -2.0973,-0.5478 -2.7032,-1.3852 -1.0614,-0.5568 -1.7881,-1.6657 -1.7881,-2.9413 0,-1.8325 1.4963,-3.3237 3.3351,-3.3237 0.3431,0 0.6723,0.0566 0.984,0.1535 v -3.0997 c -3.9469,0.0921 -7.1298,3.3176 -7.1298,7.2728 0,1.9132 0.7455,3.6547 1.9608,4.9551 1.1858,0.8295 2.6289,1.319 4.185,1.319 4.0261,0 7.3019,-3.2647 7.3019,-7.277 z"
       fill="#ffffff"
       id="path8" />
  </g>
</svg>
