<svg fill="none" height="32" viewBox="0 0 47 32" width="47" xmlns="http://www.w3.org/2000/svg"><rect fill="#232342" height="32" rx="2.66667" width="46.6667"/><path d="m20.3335 32.0002 26.3333-7.6667v5c0 1.4728-1.1939 2.6667-2.6666 2.6667z" fill="#fd6020"/><path d="m19.1687 12.8141c.5069 0 1.086.072 1.5205.3584v1.4326c-.3621-.4296-.9412-.7166-1.5205-.7168-1.1588.0716-2.1005 1.0747-2.0283 2.2207v.1436c0 1.1461.9416 2.0058 2.1006 2.0058.5792-.0001 1.0861-.2862 1.4482-.7158v1.4326c-.5069.2149-1.0144.3574-1.5937.3574-1.8108-.0002-3.2598-1.5041-3.2598-3.2949.0001-1.8624 1.4497-3.3669 3.333-3.2236zm11.3721 4.2978 1.7383-4.2978h1.3046l-2.6806 6.5185h-.6524l-2.6797-6.5185h1.3038zm-17.167-4.4414c.6518.0002 1.3036.2871 1.8105.7168l-.6523.8594c-.2897-.2864-.6517-.5009-1.0137-.501-.4345-.0716-.7966.2862-.8691.7159 0 .3581.2171.5015.9414.788 1.4485.573 1.8112 1.003 1.8838 1.8623v.2159c-.0727 1.1459-1.015 2.0052-2.1739 1.9336-.8691-.0001-1.7382-.4299-2.1728-1.2178l.7969-.7881c.2173.5014.7242.8593 1.3037.8594h.0722c.4346 0 .8691-.4293.8692-.9307 0-.2863-.1443-.5012-.3614-.6445-.2897-.1433-.5803-.2868-.8701-.3584-1.1587-.3582-1.5205-.8602-1.5205-1.7197v-.0713c.0725-1.0029.942-1.7914 1.9561-1.7198zm-7.5342.1436c1.73844.0716 3.11533 1.5044 3.04297 3.2236-.00001.9312-.43493 1.7909-1.15918 2.4356-.65193.5014-1.44929.7884-2.2461.7168h-1.81054v-6.376zm4.7812 6.376h-1.2314v-6.376h1.2314zm27.0186-5.3018h-2.2451v1.4336h2.1728v1.0742h-2.1728v1.7188h2.2451v1.0752h-3.4766v-6.376h3.4766zm2.6074-1.0742c1.4486 0 2.246.6447 2.2461 1.8623.0725.9313-.58 1.719-1.4492 1.8623l1.9561 2.6514h-1.5215l-1.666-2.5791h-.1446v2.5791h-1.2314v-6.376zm-34.9863 1.0742h-.36231v4.2266h.36231c.57946.0716 1.23143-.1429 1.66601-.501.43451-.4297.6513-1.0029.65137-1.6475-.00003-.5729-.21687-1.1464-.65137-1.5761-.43455-.3581-1.0866-.5735-1.66601-.502zm34.4072 1.8633h.3623c.7966 0 1.1591-.3585 1.1592-1.0029 0-.573-.3625-.9316-1.1592-.9317h-.3623z" fill="#fff"/><path clip-rule="evenodd" d="m24.3844 12.6665c-1.811 0-3.3322 1.4327-3.3322 3.2953 0 1.7909 1.4488 3.2952 3.3322 3.3668 1.8833.0717 3.3321-1.4327 3.4045-3.2952-.0724-1.8625-1.5212-3.3669-3.4045-3.3669z" fill="#fd6020" fill-rule="evenodd"/></svg>