<svg fill="none" height="32" viewBox="0 0 47 32" width="47" xmlns="http://www.w3.org/2000/svg"><rect fill="#f7931a" height="32" rx="2.66667" width="46.6667"/><path d="m23.4167 5.3335c5.9384 0 10.753 4.8143 10.753 10.7529-.0001 5.9386-4.8147 10.753-10.753 10.753-5.9381-.0002-10.7518-4.8145-10.7519-10.753 0-5.9385 4.8138-10.75274 10.7519-10.7529zm-.7324 5.9326-2.3886-.5889-.3155 1.2608c.0136.0031.8785.2002.8604.2129.4798.1196.5675.4358.5527.6865l-1.3301 5.3115c-.0587.1445-.2077.3618-.5429.2793.012.0167-.8468-.21-.8614-.2138l-.5888 1.3515 2.3857.5996-.4902 1.961 1.1836.2949.4863-1.9404c.3231.0866.6374.1682.9443.2441l-.4843 1.9307 1.1845.2949.4903-1.957c2.0207.3805 3.5405.2268 4.1797-1.5938.3365-1.265-.0259-2.311-1.0889-2.8623.7747-.1775 1.3577-.6845 1.5137-1.7324.2145-1.4313-.8794-2.2012-2.375-2.7149l.4853-1.9394-1.1846-.29397-.4726 1.88867c-.311-.0773-.6309-.1508-.9492-.2227l.4755-1.90034-1.1835-.29492zm-.0127 5.1973c.8033.1996 3.3784.5945 2.9961 2.123-.3666 1.4653-2.8431.6737-3.6465.4746zm.8877-3.5459c.669.1667 2.8221.477 2.4746 1.8672-.3345 1.3315-2.3955.6556-3.0644.4902z" fill="#fff"/></svg>