<svg fill="none" height="300" viewBox="0 0 300 300" width="300" xmlns="http://www.w3.org/2000/svg" xmlns:xlink="http://www.w3.org/1999/xlink"><clipPath id="a"><path d="m0 0h340.76v340.76h-340.76z" transform="matrix(-1 0 0 1 311.76 -8)"/></clipPath><g clip-path="url(#a)"><path d="m302.08-8c5.35 0 9.68 4.33022 9.68 9.67978v127.59922c0 8.621-10.423 12.943-16.523 6.843l-127.599-127.5992c-6.093-6.10024-1.778-16.5228 6.843-16.5228z" fill="#ff2156"/><path d="m301.282-7.194c5.342 0 9.68 4.33022 9.68 9.67978v127.59922c0 8.621-10.422 12.943-16.523 6.843l-127.607-127.6071c-6.092-6.09234-1.778-16.5228 6.843-16.5228h127.607z" fill="#fe2156"/><path d="m300.476-6.38809c5.342 0 9.68 4.33022 9.68 9.67978v127.59931c0 8.621-10.422 12.943-16.523 6.843l-127.599-127.6072c-6.092-6.09233-1.778-16.5228 6.843-16.5228h127.599z" fill="#fd2155"/><path d="m299.67-5.58984c5.342 0 9.68 4.33022 9.68 9.67978v127.59906c0 8.621-10.422 12.944-16.523 6.843l-127.599-127.599c-6.092-6.09238-1.778-16.52284 6.843-16.52284z" fill="#fc2155"/><path d="m298.864-4.78394c5.342 0 9.68 4.330226 9.68 9.67979v127.59915c0 8.621-10.422 12.936-16.523 6.843l-127.599-127.5991c-6.092-6.09237-1.778-16.52284 6.843-16.52284z" fill="#fb2155"/><path d="m298.066-3.97794c5.342 0 9.68 4.330224 9.68 9.67979v127.59915c0 8.621-10.423 12.943-16.523 6.843l-127.607-127.607c-6.093-6.09238-1.778-16.52284 6.843-16.52284h127.607z" fill="#fa2155"/><path d="m297.26-3.17203c5.342 0 9.68 4.33022 9.68 9.67979v127.59924c0 8.621-10.423 12.943-16.523 6.843l-127.599-127.6071c-6.093-6.09237-1.778-16.52283 6.843-16.52283h127.599z" fill="#f92154"/><path d="m296.454-2.37378c5.342 0 9.68 4.33022 9.68 9.67979v127.59899c0 8.621-10.423 12.944-16.523 6.843l-127.599-127.599c-6.093-6.09232-1.778-16.52278 6.843-16.52278z" fill="#f82054"/><path d="m295.648-1.56787c5.342 0 9.68 4.33022 9.68 9.67978v127.59909c0 8.621-10.423 12.943-16.523 6.843l-127.599-127.5991c-6.093-6.09231-1.778-16.52277 6.843-16.52277z" fill="#f72054"/><path d="m294.842-.761873c5.342 0 9.68 4.330223 9.68 9.679783v127.59909c0 8.621-10.423 12.943-16.523 6.843l-127.599-127.607c-6.093-6.09231-1.778-16.522775 6.843-16.522775h127.599z" fill="#f62053"/><path d="m294.044.0440349c5.342 0 9.68 4.3302251 9.68 9.6797851v127.59918c0 8.621-10.423 12.943-16.523 6.843l-127.599-127.6071c-6.093-6.0923-1.778-16.5227672 6.843-16.5227672h127.599z" fill="#f52053"/><path d="m293.238.842041c5.342 0 9.68 4.330219 9.68 9.679759v127.5992c0 8.621-10.423 12.943-16.523 6.843l-127.599-127.5992c-6.093-6.0923-1.778-16.522759 6.843-16.522759z" fill="#f42053"/><path d="m292.432 1.64819c5.342 0 9.68 4.33022 9.68 9.67981v127.599c0 8.621-10.423 12.944-16.523 6.843l-127.599-127.599c-6.093-6.0923-1.778-16.52281 6.843-16.52281z" fill="#f32052"/><path d="m291.626 2.4541c5.342 0 9.68 4.33022 9.68 9.6798v127.5991c0 8.621-10.423 12.943-16.523 6.843l-127.599-127.5991c-6.093-6.0923-1.778-16.5228 6.843-16.5228z" fill="#f22052"/><path d="m290.828 3.2601c5.341 0 9.68 4.33022 9.68 9.6798v127.5991c0 8.621-10.423 12.943-16.523 6.843l-127.6-127.607c-6.092-6.0923-1.777-16.5228 6.843-16.5228h127.6z" fill="#f12052"/><path d="m290.022 4.05835c5.342 0 9.68 4.33022 9.68 9.67975v127.5989c0 8.621-10.423 12.944-16.523 6.843l-127.599-127.5989c-6.093-6.0923-1.778-16.52275 6.843-16.52275z" fill="#f02052"/><path d="m289.216 4.86426c5.342 0 9.68 4.33022 9.68 9.67974v127.599c0 8.621-10.423 12.936-16.523 6.843l-127.599-127.5989c-6.092-6.0924-1.778-16.52284 6.843-16.52284z" fill="#ef2051"/><path d="m288.41 5.67017c5.342 0 9.68 4.33023 9.68 9.67983v127.599c0 8.621-10.423 12.936-16.523 6.843l-127.599-127.599c-6.092-6.0924-1.778-16.52283 6.843-16.52283z" fill="#ee2051"/><path d="m287.612 6.47616c5.342 0 9.68 4.33024 9.68 9.67974v127.5991c0 8.621-10.423 12.936-16.523 6.843l-127.599-127.6069c-6.093-6.0924-1.778-16.52284 6.843-16.52284h127.599z" fill="#ed2051"/><path d="m286.806 7.27417c5.341 0 9.68 4.33023 9.68 9.67983v127.599c0 8.621-10.423 12.936-16.523 6.843l-127.6-127.599c-6.092-6.0924-1.777-16.52283 6.844-16.52283z" fill="#ec2050"/><path d="m286 8.08032c5.342 0 9.68 4.33018 9.68 9.67978v127.5989c0 8.621-10.423 12.944-16.523 6.843l-127.599-127.5989c-6.093-6.0923-1.778-16.52278 6.843-16.52278z" fill="#eb1f50"/><path d="m285.194 8.88623c5.342 0 9.68 4.33027 9.68 9.67977v127.599c0 8.621-10.423 12.944-16.523 6.843l-127.599-127.599c-6.093-6.0923-1.778-16.52277 6.843-16.52277z" fill="#ea1f50"/><path d="m284.396 9.69223c5.342 0 9.68 4.33027 9.68 9.67977v127.599c0 8.621-10.423 12.944-16.523 6.843l-127.607-127.6069c-6.093-6.0923-1.778-16.52277 6.843-16.52277h127.607z" fill="#e91f4f"/><path d="m283.59 10.4984c5.342 0 9.68 4.3302 9.68 9.6798v127.5988c0 8.621-10.423 12.944-16.523 6.844l-127.599-127.6077c-6.093-6.0924-1.778-16.5228 6.843-16.5228h127.599z" fill="#e81f4f"/><path d="m282.784 11.2964c5.342 0 9.68 4.3302 9.68 9.6798v127.5988c0 8.621-10.423 12.944-16.523 6.843l-127.599-127.5988c-6.093-6.0924-1.778-16.5228 6.843-16.5228z" fill="#e71f4f"/><path d="m281.978 12.1023c5.342 0 9.68 4.3302 9.68 9.6798v127.5989c0 8.621-10.423 12.944-16.523 6.843l-127.599-127.5989c-6.093-6.0923-1.778-16.5228 6.843-16.5228z" fill="#e61f4f"/><path d="m281.18 12.9083c5.341 0 9.679 4.3302 9.679 9.6798v127.5989c0 8.621-10.422 12.944-16.522 6.843l-127.608-127.6068c-6.092-6.0923-1.778-16.5228 6.843-16.5228h127.608z" fill="#e51f4e"/><path d="m280.374 13.7142c5.341 0 9.679 4.3302 9.679 9.6798v127.599c0 8.621-10.422 12.944-16.522 6.843l-127.6-127.6069c-6.092-6.0923-1.778-16.5228 6.843-16.5228h127.6z" fill="#e41f4e"/><path d="m279.568 14.5125c5.341 0 9.679 4.3302 9.679 9.6797v127.5998c0 8.62-10.422 12.935-16.522 6.843l-127.6-127.5997c-6.092-6.0924-1.778-16.5228 6.843-16.5228z" fill="#e31f4e"/><path d="m278.762 15.3184c5.342 0 9.68 4.3302 9.68 9.6797v127.5989c0 8.621-10.423 12.944-16.523 6.843l-127.599-127.5988c-6.093-6.0924-1.778-16.5228 6.843-16.5228z" fill="#e21f4d"/><path d="m277.964 16.1244c5.341 0 9.68 4.3302 9.68 9.6797v127.5989c0 8.621-10.423 12.936-16.523 6.843l-127.607-127.6067c-6.093-6.0924-1.778-16.5228 6.843-16.5228h127.607z" fill="#e11f4d"/><path d="m277.158 16.9305c5.341 0 9.68 4.3302 9.68 9.6798v127.5997c0 8.621-10.423 12.943-16.523 6.843l-127.6-127.6076c-6.092-6.0923-1.778-16.5228 6.843-16.5228h127.6z" fill="#e01f4d"/><path d="m276.352 17.7285c5.341 0 9.679 4.3302 9.679 9.6798v127.5997c0 8.621-10.422 12.935-16.522 6.843l-127.6-127.5997c-6.092-6.0923-1.778-16.5228 6.843-16.5228z" fill="#df1e4c"/><path d="m275.546 18.5344c5.341 0 9.679 4.3302 9.679 9.6798v127.5998c0 8.62-10.422 12.943-16.522 6.843l-127.6-127.5998c-6.092-6.0923-1.778-16.5228 6.843-16.5228z" fill="#de1e4c"/><path d="m274.74 19.3403c5.341 0 9.679 4.3303 9.679 9.6798v127.5989c0 8.621-10.422 12.936-16.522 6.843l-127.6-127.5989c-6.092-6.0923-1.778-16.5228 6.843-16.5228z" fill="#dd1e4c"/><path d="m273.942 20.1463c5.341 0 9.68 4.3303 9.68 9.6798v127.5989c0 8.621-10.423 12.944-16.523 6.843l-127.6-127.6068c-6.092-6.0923-1.777-16.5228 6.843-16.5228h127.6z" fill="#dc1e4c"/><path d="m273.136 20.9446c5.341 0 9.68 4.3302 9.68 9.6798v127.5996c0 8.621-10.423 12.943-16.523 6.843l-127.6-127.5996c-6.092-6.0924-1.777-16.5228 6.843-16.5228z" fill="#db1e4b"/><path d="m272.33 21.7505c5.341 0 9.68 4.3302 9.68 9.6798v127.5997c0 8.621-10.423 12.943-16.523 6.843l-127.6-127.5997c-6.092-6.0924-1.778-16.5228 6.843-16.5228z" fill="#da1e4b"/><path d="m271.524 22.5566c5.341 0 9.68 4.3303 9.68 9.6798v127.5996c0 8.621-10.423 12.943-16.523 6.843l-127.599-127.5996c-6.093-6.0923-1.778-16.5228 6.843-16.5228z" fill="#d91e4b"/><path d="m270.725 23.3626c5.342 0 9.68 4.3303 9.68 9.6798v127.5996c0 8.621-10.422 12.943-16.523 6.843l-127.599-127.6075c-6.092-6.0923-1.778-16.5228 6.843-16.5228h127.599z" fill="#d81e4a"/><path d="m269.919 24.1606c5.342 0 9.68 4.3303 9.68 9.6798v127.5996c0 8.621-10.422 12.935-16.523 6.843l-127.599-127.5996c-6.092-6.0923-1.778-16.5228 6.843-16.5228z" fill="#d71e4a"/><path d="m269.113 24.9666c5.342 0 9.68 4.3302 9.68 9.6797v127.5997c0 8.621-10.422 12.943-16.523 6.843l-127.599-127.5996c-6.092-6.0924-1.778-16.5228 6.843-16.5228z" fill="#d61e4a"/><path d="m268.308 25.7725c5.341 0 9.679 4.3302 9.679 9.6797v127.5998c0 8.62-10.422 12.935-16.522 6.843l-127.6-127.5997c-6.092-6.0924-1.778-16.5228 6.843-16.5228z" fill="#d51e49"/><path d="m267.51 26.5785c5.341 0 9.679 4.3302 9.679 9.6797v127.5998c0 8.621-10.422 12.943-16.522 6.843l-127.608-127.6076c-6.092-6.0924-1.778-16.5228 6.843-16.5228h127.608z" fill="#d41e49"/><path d="m266.704 27.3767c5.341 0 9.679 4.3302 9.679 9.6798v127.5995c0 8.621-10.422 12.935-16.522 6.843l-127.6-127.5995c-6.092-6.0923-1.778-16.5228 6.843-16.5228z" fill="#d31e49"/><path d="m265.898 28.1826c5.341 0 9.679 4.3302 9.679 9.6798v127.5996c0 8.621-10.422 12.943-16.522 6.843l-127.6-127.5996c-6.092-6.0923-1.778-16.5228 6.843-16.5228z" fill="#d21d49"/><path d="m265.092 28.9888c5.341 0 9.679 4.3302 9.679 9.6798v127.5994c0 8.621-10.422 12.943-16.522 6.843l-127.6-127.5994c-6.092-6.0924-1.778-16.5228 6.843-16.5228z" fill="#d11d48"/><path d="m264.294 29.7945c5.341 0 9.679 4.3302 9.679 9.6798v127.5997c0 8.621-10.422 12.943-16.522 6.843l-127.608-127.6076c-6.092-6.0923-1.778-16.5228 6.843-16.5228h127.608z" fill="#d01d48"/><path d="m263.488 30.6007c5.341 0 9.679 4.3302 9.679 9.6798v127.5995c0 8.621-10.422 12.943-16.522 6.843l-127.6-127.6074c-6.092-6.0924-1.778-16.5228 6.843-16.5228h127.6z" fill="#cf1d48"/><path d="m262.682 31.3987c5.341 0 9.679 4.3302 9.679 9.6798v127.5995c0 8.621-10.422 12.943-16.522 6.843l-127.6-127.5995c-6.092-6.0924-1.778-16.5228 6.843-16.5228z" fill="#ce1d47"/><path d="m261.876 32.2046c5.341 0 9.679 4.3302 9.679 9.6798v127.5996c0 8.621-10.422 12.943-16.522 6.843l-127.6-127.5996c-6.092-6.0923-1.778-16.5228 6.843-16.5228z" fill="#cd1d47"/><path d="m261.077 33.0106c5.342 0 9.68 4.3302 9.68 9.6798v127.5996c0 8.621-10.422 12.943-16.523 6.843l-127.607-127.6075c-6.092-6.0923-1.778-16.5228 6.843-16.5228h127.607z" fill="#cc1d47"/><path d="m260.271 33.8167c5.342 0 9.68 4.3303 9.68 9.6798v127.5995c0 8.621-10.422 12.943-16.523 6.843l-127.599-127.6074c-6.092-6.0923-1.778-16.5228 6.843-16.5228h127.599z" fill="#cb1d46"/><path d="m259.465 34.6147c5.342 0 9.68 4.3303 9.68 9.6798v127.5995c0 8.621-10.422 12.943-16.523 6.843l-127.599-127.5995c-6.092-6.0923-1.778-16.5228 6.843-16.5228z" fill="#ca1d46"/><path d="m258.659 35.4207c5.342 0 9.68 4.3302 9.68 9.6797v127.5996c0 8.621-10.422 12.943-16.523 6.843l-127.599-127.5995c-6.092-6.0924-1.778-16.5228 6.843-16.5228z" fill="#c91d46"/><path d="m257.853 36.2267c5.342 0 9.68 4.3302 9.68 9.6797v127.5996c0 8.621-10.422 12.943-16.523 6.843l-127.599-127.6074c-6.092-6.0924-1.778-16.5228 6.843-16.5228h127.599z" fill="#c81d46"/><path d="m257.055 37.0328c5.342 0 9.68 4.3302 9.68 9.6798v127.5994c0 8.621-10.422 12.943-16.523 6.843l-127.599-127.6073c-6.092-6.0923-1.778-16.5228 6.843-16.5228h127.599z" fill="#c71d45"/><path d="m256.249 37.8308c5.342 0 9.68 4.3302 9.68 9.6798v127.5994c0 8.621-10.422 12.943-16.523 6.843l-127.599-127.5994c-6.092-6.0923-1.778-16.5228 6.843-16.5228z" fill="#c61d45"/><path d="m255.443 38.6367c5.342 0 9.68 4.3302 9.68 9.6798v127.5995c0 8.621-10.422 12.943-16.523 6.843l-127.599-127.5995c-6.092-6.0923-1.778-16.5228 6.843-16.5228z" fill="#c51c45"/><path d="m254.637 39.4429c5.342 0 9.68 4.3302 9.68 9.6798v127.5993c0 8.621-10.422 12.943-16.523 6.843l-127.599-127.5993c-6.092-6.0924-1.778-16.5228 6.843-16.5228z" fill="#c41c44"/><path d="m253.839 40.2489c5.342 0 9.68 4.3302 9.68 9.6798v127.5993c0 8.621-10.422 12.943-16.523 6.843l-127.599-127.6072c-6.092-6.0924-1.778-16.5228 6.843-16.5228h127.599z" fill="#c31c44"/><path d="m253.033 41.0469c5.342 0 9.68 4.3302 9.68 9.6798v127.5993c0 8.621-10.422 12.943-16.523 6.843l-127.599-127.5993c-6.092-6.0924-1.778-16.5228 6.843-16.5228z" fill="#c21c44"/><path d="m252.227 41.8528c5.342 0 9.68 4.3302 9.68 9.6798v127.5994c0 8.621-10.422 12.943-16.523 6.843l-127.599-127.5994c-6.092-6.0924-1.778-16.5228 6.843-16.5228z" fill="#c11c43"/><path d="m251.422 42.6589c5.341 0 9.679 4.3303 9.679 9.6798v127.5993c0 8.621-10.422 12.943-16.522 6.843l-127.6-127.5993c-6.092-6.0923-1.778-16.5228 6.843-16.5228z" fill="#c01c43"/><path d="m250.623 43.4649c5.342 0 9.68 4.3303 9.68 9.6798v127.5993c0 8.621-10.423 12.935-16.523 6.843l-127.607-127.6072c-6.092-6.0923-1.778-16.5228 6.843-16.5228h127.607z" fill="#bf1c43"/><path d="m249.817 44.2629c5.342 0 9.68 4.3303 9.68 9.6798v127.5993c0 8.621-10.423 12.943-16.523 6.843l-127.599-127.5993c-6.092-6.0923-1.778-16.5228 6.843-16.5228z" fill="#be1c43"/><path d="m249.011 45.0688c5.342 0 9.68 4.3303 9.68 9.6798v127.5994c0 8.621-10.423 12.943-16.523 6.843l-127.599-127.5994c-6.093-6.0923-1.778-16.5228 6.843-16.5228z" fill="#bd1c42"/><path d="m248.205 45.875c5.342 0 9.68 4.3302 9.68 9.6798v127.5992c0 8.621-10.423 12.943-16.523 6.843l-127.599-127.5992c-6.092-6.0923-1.778-16.5228 6.843-16.5228z" fill="#bc1c42"/><path d="m247.407 46.6807c5.342 0 9.68 4.3303 9.68 9.6798v127.5995c0 8.621-10.423 12.943-16.523 6.843l-127.607-127.6074c-6.092-6.0923-1.778-16.5227 6.843-16.5227h127.607z" fill="#bb1c42"/><path d="m246.601 47.4869c5.342 0 9.68 4.3302 9.68 9.6798v127.5993c0 8.621-10.423 12.943-16.523 6.843l-127.599-127.6072c-6.092-6.0923-1.778-16.5228 6.843-16.5228h127.599z" fill="#ba1c41"/><path d="m245.795 48.2849c5.342 0 9.68 4.3302 9.68 9.6798v127.5993c0 8.621-10.422 12.943-16.523 6.843l-127.599-127.5993c-6.092-6.0923-1.778-16.5228 6.843-16.5228z" fill="#b91b41"/><path d="m244.989 49.0911c5.342 0 9.68 4.3302 9.68 9.6797v127.5992c0 8.621-10.422 12.943-16.523 6.843l-127.599-127.5991c-6.092-6.0924-1.778-16.5228 6.843-16.5228z" fill="#b81b41"/><path d="m244.191 49.8971c5.342 0 9.68 4.3302 9.68 9.6797v127.5992c0 8.621-10.422 12.943-16.523 6.843l-127.607-127.607c-6.092-6.0924-1.778-16.5228 6.843-16.5228h127.607z" fill="#b71b40"/><path d="m243.385 50.7029c5.342 0 9.68 4.3302 9.68 9.6798v127.5993c0 8.621-10.422 12.943-16.523 6.843l-127.599-127.5993c-6.092-6.0924-1.778-16.5228 6.843-16.5228z" fill="#b61b40"/><path d="m242.579 51.501c5.342 0 9.68 4.3302 9.68 9.6798v127.5992c0 8.621-10.422 12.943-16.523 6.843l-127.599-127.5992c-6.092-6.0924-1.778-16.5228 6.843-16.5228z" fill="#b51b40"/><path d="m241.773 52.3069c5.342 0 9.68 4.3302 9.68 9.6798v127.5993c0 8.621-10.422 12.943-16.523 6.843l-127.599-127.5993c-6.092-6.0924-1.778-16.5228 6.843-16.5228z" fill="#b41b40"/><path d="m240.967 53.113c5.342 0 9.68 4.3303 9.68 9.6798v127.5992c0 8.621-10.422 12.943-16.523 6.843l-127.599-127.5992c-6.092-6.0923-1.778-16.5228 6.843-16.5228z" fill="#b31b3f"/><path d="m240.169 53.9189c5.342 0 9.68 4.3303 9.68 9.6798v127.5993c0 8.621-10.423 12.943-16.523 6.843l-127.599-127.5993c-6.0926-6.0923-1.778-16.5228 6.843-16.5228z" fill="#b21b3f"/><path d="m239.363 54.717c5.342 0 9.68 4.3303 9.68 9.6798v127.5992c0 8.621-10.423 12.935-16.523 6.843l-127.599-127.5992c-6.0926-6.0923-1.778-16.5228 6.843-16.5228z" fill="#b11b3f"/><path d="m238.557 55.5232c5.342 0 9.68 4.3302 9.68 9.6798v127.599c0 8.621-10.423 12.944-16.523 6.843l-127.599-127.599c-6.0926-6.0923-1.778-16.5228 6.843-16.5228z" fill="#b01b3e"/><path d="m237.751 56.3291c5.342 0 9.68 4.3302 9.68 9.6798v127.5991c0 8.621-10.423 12.936-16.523 6.843l-127.599-127.5991c-6.0926-6.0923-1.778-16.5228 6.843-16.5228z" fill="#af1b3e"/><path d="m236.953 57.135c5.342 0 9.68 4.3302 9.68 9.6798v127.5992c0 8.621-10.423 12.943-16.523 6.843l-127.599-127.5992c-6.0925-6.0923-1.778-16.5228 6.843-16.5228z" fill="#ae1b3e"/><path d="m236.147 57.9331c5.342 0 9.68 4.3302 9.68 9.6798v127.5991c0 8.621-10.423 12.943-16.523 6.843l-127.599-127.5991c-6.0925-6.0923-1.7781-16.5228 6.843-16.5228z" fill="#ad1b3e"/><path d="m235.341 58.739c5.342 0 9.68 4.3302 9.68 9.6798v127.5992c0 8.621-10.423 12.943-16.523 6.843l-127.599-127.5992c-6.0926-6.0923-1.7782-16.5228 6.843-16.5228z" fill="#ac1a3d"/><path d="m234.535 59.5452c5.342 0 9.68 4.3302 9.68 9.6798v127.599c0 8.621-10.423 12.944-16.523 6.843l-127.599-127.599c-6.0926-6.0924-1.7782-16.5228 6.843-16.5228z" fill="#ab1a3d"/><path d="m233.737 60.3511c5.342 0 9.68 4.3302 9.68 9.6798v127.5991c0 8.621-10.423 12.943-16.523 6.843l-127.5995-127.5991c-6.0923-6.0924-1.7779-16.5228 6.8435-16.5228z" fill="#aa1a3d"/><path d="m232.931 61.1492c5.342 0 9.68 4.3302 9.68 9.6798v127.599c0 8.621-10.423 12.944-16.523 6.843l-127.5991-127.599c-6.0924-6.0924-1.778-16.5228 6.8431-16.5228z" fill="#a91a3c"/><path d="m232.125 61.9553c5.342 0 9.68 4.3302 9.68 9.6798v127.5989c0 8.621-10.423 12.944-16.523 6.843l-127.5992-127.5989c-6.0923-6.0923-1.7779-16.5228 6.8432-16.5228z" fill="#a81a3c"/><path d="m231.319 62.7612c5.342 0 9.68 4.3303 9.68 9.6798v127.599c0 8.621-10.423 12.944-16.523 6.843l-127.5991-127.599c-6.0923-6.0923-1.7779-16.5228 6.8431-16.5228z" fill="#a71a3c"/><path d="m230.521 63.5671c5.342 0 9.68 4.3303 9.68 9.6798v127.5991c0 8.621-10.423 12.936-16.523 6.843l-127.5994-127.5991c-6.0924-6.0923-1.778-16.5228 6.8434-16.5228z" fill="#a61a3b"/><path d="m229.715 64.3652c5.342 0 9.68 4.3303 9.68 9.6798v127.599c0 8.621-10.423 12.944-16.523 6.843l-127.5995-127.599c-6.0923-6.0923-1.7779-16.5228 6.8435-16.5228z" fill="#a51a3b"/><path d="m228.909 65.1711c5.341 0 9.68 4.3303 9.68 9.6798v127.5991c0 8.621-10.423 12.936-16.523 6.843l-127.5995-127.5991c-6.0923-6.0923-1.7779-16.5228 6.8435-16.5228z" fill="#a41a3b"/><path d="m228.103 65.9773c5.342 0 9.68 4.3302 9.68 9.6798v127.5989c0 8.621-10.423 12.944-16.523 6.843l-127.5994-127.5989c-6.0923-6.0923-1.7779-16.5228 6.8434-16.5228z" fill="#a31a3b"/><path d="m227.305 66.7832c5.342 0 9.68 4.3302 9.68 9.6798v127.599c0 8.621-10.423 12.936-16.523 6.843l-127.5994-127.599c-6.0923-6.0923-1.7779-16.5228 6.8431-16.5228z" fill="#a21a3a"/><path d="m226.499 67.5894c5.342 0 9.68 4.3302 9.68 9.6797v127.5989c0 8.621-10.423 12.944-16.523 6.843l-127.5994-127.5988c-6.0923-6.0924-1.7779-16.5228 6.843-16.5228z" fill="#a11a3a"/><path d="m225.693 68.3875c5.342 0 9.68 4.3302 9.68 9.6797v127.5998c0 8.62-10.423 12.935-16.523 6.843l-127.5993-127.5997c-6.0923-6.0924-1.7779-16.5228 6.843-16.5228z" fill="#a01a3a"/><path d="m224.887 69.1934c5.342 0 9.68 4.3302 9.68 9.6797v127.5989c0 8.621-10.423 12.944-16.523 6.843l-127.5993-127.5988c-6.0924-6.0924-1.778-16.5228 6.843-16.5228z" fill="#9f1939"/><path d="m224.089 69.9993c5.341 0 9.679 4.3302 9.679 9.6798v127.5989c0 8.621-10.422 12.944-16.522 6.843l-127.5997-127.5989c-6.0923-6.0924-1.7779-16.5228 6.843-16.5228z" fill="#9e1939"/><path d="m223.283 70.8052c5.341 0 9.679 4.3302 9.679 9.6798v127.599c0 8.621-10.422 12.944-16.522 6.843l-127.5997-127.599c-6.0923-6.0924-1.7779-16.5228 6.843-16.5228z" fill="#9d1939"/><path d="m222.477 71.6033c5.341 0 9.679 4.3302 9.679 9.6798v127.5989c0 8.621-10.422 12.944-16.522 6.843l-127.5996-127.5989c-6.0924-6.0924-1.7779-16.5228 6.843-16.5228z" fill="#9c1938"/><path d="m221.671 72.4094c5.342 0 9.68 4.3302 9.68 9.6798v127.5998c0 8.62-10.423 12.943-16.523 6.843l-127.5993-127.5998c-6.0923-6.0923-1.7779-16.5228 6.8431-16.5228z" fill="#9b1938"/><path d="m220.865 73.2153c5.342 0 9.68 4.3303 9.68 9.6798v127.5989c0 8.621-10.423 12.936-16.523 6.843l-127.5993-127.5989c-6.0924-6.0923-1.7779-16.5228 6.843-16.5228z" fill="#9a1938"/><path d="m220.067 74.0215c5.341 0 9.68 4.3302 9.68 9.6798v127.5997c0 8.621-10.423 12.943-16.523 6.843l-127.5995-127.5997c-6.0924-6.0924-1.7779-16.5228 6.843-16.5228z" fill="#991938"/><path d="m219.261 74.8196c5.341 0 9.68 4.3302 9.68 9.6798v127.5996c0 8.621-10.423 12.935-16.523 6.843l-127.5996-127.5996c-6.0923-6.0924-1.7779-16.5228 6.843-16.5228z" fill="#981937"/><path d="m218.455 75.6255c5.341 0 9.68 4.3302 9.68 9.6798v127.5997c0 8.621-10.423 12.943-16.523 6.843l-127.5996-127.5997c-6.0923-6.0924-1.7779-16.5228 6.843-16.5228z" fill="#971937"/><path d="m217.649 76.4314c5.341 0 9.679 4.3302 9.679 9.6798v127.5988c0 8.621-10.422 12.936-16.522 6.843l-127.5996-127.5988c-6.0923-6.0923-1.7779-16.5228 6.843-16.5228z" fill="#961937"/><path d="m216.851 77.2373c5.342 0 9.68 4.3302 9.68 9.6798v127.5989c0 8.621-10.423 12.944-16.523 6.843l-127.5995-127.5989c-6.0923-6.0923-1.7779-16.5228 6.843-16.5228z" fill="#951936"/><path d="m216.045 78.0354c5.341 0 9.68 4.3302 9.68 9.6798v127.5988c0 8.621-10.423 12.936-16.523 6.843l-127.5995-127.5988c-6.0923-6.0923-1.7779-16.5228 6.843-16.5228z" fill="#941936"/><path d="m215.239 78.8416c5.341 0 9.68 4.3302 9.68 9.6797v127.5997c0 8.621-10.423 12.943-16.523 6.843l-127.5995-127.5997c-6.0924-6.0923-1.778-16.5227 6.843-16.5227z" fill="#931836"/><path d="m214.433 79.6475c5.341 0 9.68 4.3302 9.68 9.6797v127.5998c0 8.62-10.423 12.935-16.523 6.843l-127.5996-127.5997c-6.0923-6.0924-1.7779-16.5228 6.8431-16.5228z" fill="#921835"/><path d="m213.635 80.4534c5.341 0 9.679 4.3302 9.679 9.6798v127.5988c0 8.621-10.422 12.944-16.522 6.843l-127.5998-127.5988c-6.0923-6.0924-1.7779-16.5228 6.843-16.5228z" fill="#911835"/><path d="m212.829 81.2515c5.341 0 9.679 4.3302 9.679 9.6797v127.5998c0 8.62-10.422 12.943-16.523 6.843l-127.5988-127.5997c-6.0923-6.0924-1.7779-16.5228 6.843-16.5228z" fill="#901835"/><path d="m212.022 82.0576c5.342 0 9.68 4.3302 9.68 9.6798v127.5996c0 8.621-10.422 12.943-16.523 6.843l-127.5988-127.5996c-6.0924-6.0923-1.778-16.5228 6.843-16.5228z" fill="#8f1835"/><path d="m211.216 82.8635c5.342 0 9.68 4.3302 9.68 9.6798v127.5997c0 8.621-10.422 12.943-16.523 6.843l-127.5989-127.5997c-6.0923-6.0923-1.7779-16.5228 6.843-16.5228z" fill="#8e1834"/><path d="m210.419 83.6694c5.341 0 9.679 4.3302 9.679 9.6798v127.5998c0 8.62-10.422 12.943-16.522 6.843l-127.5997-127.6c-6.0924-6.0921-1.7779-16.5226 6.843-16.5226z" fill="#8d1834"/><path d="m209.613 84.4756c5.341 0 9.679 4.3302 9.679 9.6798v127.5996c0 8.621-10.422 12.943-16.522 6.843l-127.5998-127.6c-6.0923-6.0919-1.7779-16.5224 6.8431-16.5224z" fill="#8c1834"/><path d="m208.807 85.2737c5.341 0 9.679 4.3302 9.679 9.6798v127.5995c0 8.621-10.422 12.943-16.522 6.843l-127.5998-127.6c-6.0923-6.0919-1.7779-16.5223 6.843-16.5223z" fill="#8b1833"/><path d="m208.001 86.0796c5.341 0 9.679 4.3302 9.679 9.6798v127.5996c0 8.621-10.422 12.943-16.522 6.843l-127.5997-127.6c-6.0923-6.0919-1.7779-16.5224 6.843-16.5224z" fill="#8a1833"/><path d="m207.203 86.8855c5.341 0 9.679 4.3302 9.679 9.6798v127.5997c0 8.621-10.422 12.943-16.522 6.843l-127.5997-127.6c-6.0923-6.092-1.7779-16.5225 6.8431-16.5225z" fill="#891833"/><path d="m206.397 87.6917c5.341 0 9.679 4.3302 9.679 9.6797v127.5996c0 8.621-10.422 12.943-16.522 6.843l-127.5997-127.6c-6.0923-6.0919-1.7779-16.5223 6.843-16.5223z" fill="#881832"/><path d="m205.591 88.4897c5.341 0 9.68 4.3303 9.68 9.6798v127.5995c0 8.621-10.423 12.943-16.523 6.843l-127.5996-127.599c-6.0923-6.0928-1.7779-16.5233 6.843-16.5233z" fill="#871832"/><path d="m204.785 89.2957c5.341 0 9.679 4.3302 9.679 9.6797v127.5996c0 8.621-10.422 12.943-16.522 6.843l-127.5996-127.6c-6.0924-6.0919-1.7779-16.5223 6.843-16.5223z" fill="#861732"/><path d="m203.979 90.1016c5.341 0 9.679 4.3302 9.679 9.6797v127.5997c0 8.621-10.422 12.943-16.522 6.843l-127.5997-127.6c-6.0923-6.092-1.7779-16.5224 6.843-16.5224z" fill="#851732"/><path d="m203.18 90.9077c5.342 0 9.68 4.3302 9.68 9.6793v127.6c0 8.621-10.422 12.943-16.523 6.843l-127.599-127.599c-6.0923-6.093-1.7779-16.5233 6.843-16.5233z" fill="#841731"/><path d="m202.374 91.7058c5.342 0 9.68 4.3302 9.68 9.6802v127.599c0 8.621-10.422 12.943-16.523 6.843l-127.5989-127.599c-6.0924-6.093-1.7779-16.5232 6.843-16.5232z" fill="#831731"/><path d="m201.568 92.5117c5.342 0 9.68 4.3302 9.68 9.6803v127.599c0 8.621-10.422 12.943-16.523 6.843l-127.5989-127.599c-6.0924-6.093-1.778-16.5233 6.843-16.5233z" fill="#821731"/><path d="m200.762 93.3176c5.342 0 9.68 4.3302 9.68 9.6794v127.6c0 8.621-10.422 12.943-16.523 6.843l-127.599-127.6c-6.0923-6.092-1.7779-16.5224 6.843-16.5224z" fill="#811730"/><path d="m199.965 94.1238c5.341 0 9.679 4.3302 9.679 9.6802v127.599c0 8.621-10.422 12.943-16.523 6.843l-127.5988-127.599c-6.0924-6.093-1.7779-16.5232 6.843-16.5232z" fill="#801730"/><path d="m199.158 94.9219c5.342 0 9.68 4.3302 9.68 9.6801v127.599c0 8.621-10.422 12.943-16.523 6.843l-127.5989-127.599c-6.0923-6.093-1.7779-16.5231 6.8431-16.5231z" fill="#7f1730"/><path d="m198.352 95.7278c5.342 0 9.68 4.3302 9.68 9.6802v127.599c0 8.621-10.422 12.935-16.523 6.843l-127.5989-127.599c-6.0923-6.093-1.7779-16.5232 6.843-16.5232z" fill="#7e172f"/><path d="m197.546 96.5337c5.342 0 9.68 4.3303 9.68 9.6793v127.6c0 8.621-10.422 12.943-16.523 6.843l-127.5989-127.6c-6.0924-6.092-1.7779-16.5223 6.843-16.5223z" fill="#7d172f"/><path d="m196.749 97.3398c5.341 0 9.679 4.3302 9.679 9.6802v127.599c0 8.621-10.422 12.943-16.522 6.843l-127.5998-127.599c-6.0923-6.093-1.7779-16.5232 6.8431-16.5232z" fill="#7c172f"/><path d="m195.943 98.1379c5.341 0 9.679 4.3301 9.679 9.6801v127.599c0 8.621-10.422 12.943-16.522 6.843l-127.5998-127.599c-6.0923-6.093-1.7779-16.5231 6.843-16.5231z" fill="#7b172f"/><path d="m195.136 98.9438c5.342 0 9.68 4.3302 9.68 9.6802v127.599c0 8.621-10.422 12.943-16.523 6.843l-127.5988-127.599c-6.0924-6.093-1.778-16.5232 6.843-16.5232z" fill="#7a172e"/><path d="m194.33 99.7498c5.342 0 9.68 4.3302 9.68 9.6802v127.599c0 8.621-10.422 12.943-16.523 6.843l-127.5989-127.599c-6.0923-6.093-1.7779-16.5232 6.8431-16.5232z" fill="#79162e"/><path d="m193.532 100.556c5.342 0 9.68 4.33 9.68 9.68v127.599c0 8.621-10.423 12.943-16.523 6.843l-127.5991-127.599c-6.0923-6.093-1.7779-16.523 6.843-16.523z" fill="#78162e"/><path d="m192.726 101.354c5.342 0 9.68 4.33 9.68 9.68v127.599c0 8.621-10.423 12.943-16.523 6.843l-127.5991-127.599c-6.0923-6.093-1.7779-16.523 6.843-16.523z" fill="#77162d"/><path d="m191.92 102.16c5.342 0 9.68 4.33 9.68 9.68v127.599c0 8.621-10.423 12.943-16.523 6.843l-127.5991-127.599c-6.0924-6.093-1.778-16.523 6.843-16.523z" fill="#76162d"/><path d="m191.114 102.966c5.342 0 9.68 4.33 9.68 9.68v127.599c0 8.621-10.423 12.943-16.523 6.843l-127.5992-127.599c-6.0923-6.093-1.7779-16.523 6.843-16.523z" fill="#75162d"/><path d="m190.316 103.772c5.342 0 9.68 4.33 9.68 9.68v127.599c0 8.621-10.422 12.943-16.523 6.843l-127.599-127.599c-6.0923-6.093-1.7779-16.523 6.843-16.523z" fill="#74162c"/><path d="m189.51 104.578c5.342 0 9.68 4.33 9.68 9.68v127.599c0 8.621-10.422 12.943-16.523 6.843l-127.599-127.599c-6.0924-6.093-1.778-16.523 6.843-16.523z" fill="#73162c"/><path d="m188.704 105.376c5.342 0 9.68 4.33 9.68 9.68v127.599c0 8.621-10.423 12.943-16.523 6.843l-127.5991-127.599c-6.0923-6.093-1.7779-16.523 6.843-16.523z" fill="#72162c"/><path d="m187.898 106.182c5.342 0 9.68 4.33 9.68 9.68v127.599c0 8.621-10.422 12.943-16.523 6.843l-127.599-127.599c-6.0923-6.093-1.7779-16.523 6.843-16.523z" fill="#71162c"/><path d="m187.1 106.988c5.342 0 9.68 4.33 9.68 9.68v127.599c0 8.621-10.422 12.943-16.523 6.843l-127.599-127.599c-6.0923-6.093-1.7779-16.523 6.8431-16.523z" fill="#70162b"/><path d="m186.294 107.794c5.342 0 9.68 4.33 9.68 9.68v127.599c0 8.621-10.422 12.943-16.523 6.843l-127.599-127.599c-6.0923-6.093-1.7779-16.523 6.843-16.523z" fill="#6f162b"/><path d="m185.488 108.592c5.342 0 9.68 4.33 9.68 9.68v127.599c0 8.621-10.422 12.943-16.523 6.843l-127.5989-127.599c-6.0923-6.092-1.7779-16.523 6.843-16.523z" fill="#6e162b"/><path d="m184.682 109.398c5.342 0 9.68 4.33 9.68 9.68v127.599c0 8.621-10.422 12.943-16.523 6.843l-127.5989-127.599c-6.0924-6.093-1.7779-16.523 6.843-16.523z" fill="#6d152a"/><path d="m183.876 110.204c5.342 0 9.68 4.33 9.68 9.68v127.599c0 8.621-10.422 12.943-16.523 6.843l-127.599-127.599c-6.0923-6.093-1.7779-16.523 6.843-16.523z" fill="#6c152a"/><path d="m183.078 111.01c5.342 0 9.68 4.33 9.68 9.68v127.599c0 8.621-10.423 12.943-16.523 6.843l-127.5993-127.599c-6.0923-6.093-1.7779-16.523 6.843-16.523z" fill="#6b152a"/><path d="m182.272 111.808c5.342 0 9.68 4.33 9.68 9.68v127.599c0 8.621-10.423 12.943-16.523 6.843l-127.5992-127.599c-6.0924-6.092-1.7779-16.523 6.843-16.523z" fill="#6a1529"/><path d="m181.466 112.614c5.342 0 9.68 4.33 9.68 9.68v127.599c0 8.621-10.423 12.943-16.523 6.843l-127.5992-127.599c-6.0924-6.093-1.778-16.523 6.843-16.523z" fill="#691529"/><path d="m180.66 113.42c5.342 0 9.68 4.33 9.68 9.68v127.599c0 8.621-10.423 12.944-16.523 6.843l-127.5993-127.599c-6.0923-6.092-1.7779-16.523 6.843-16.523z" fill="#681529"/><path d="m179.862 114.226c5.342 0 9.68 4.33 9.68 9.68v127.599c0 8.621-10.423 12.943-16.523 6.843l-127.5991-127.599c-6.0924-6.092-1.7779-16.523 6.843-16.523z" fill="#671529"/><path d="m179.056 115.024c5.342 0 9.68 4.33 9.68 9.68v127.599c0 8.621-10.423 12.944-16.523 6.843l-127.5991-127.599c-6.0924-6.092-1.778-16.523 6.843-16.523z" fill="#661528"/><path d="m178.25 115.83c5.342 0 9.68 4.33 9.68 9.68v127.599c0 8.621-10.423 12.943-16.523 6.843l-127.5992-127.599c-6.0923-6.092-1.7779-16.523 6.843-16.523z" fill="#651528"/><path d="m177.444 116.636c5.342 0 9.68 4.33 9.68 9.68v127.599c0 8.621-10.423 12.943-16.523 6.843l-127.5992-127.599c-6.0923-6.093-1.7779-16.523 6.843-16.523z" fill="#641528"/><path d="m176.646 117.442c5.342 0 9.68 4.33 9.68 9.68v127.599c0 8.621-10.423 12.943-16.523 6.843l-127.5994-127.599c-6.0924-6.092-1.7779-16.523 6.843-16.523z" fill="#631527"/><path d="m175.84 118.24c5.342 0 9.68 4.33 9.68 9.68v127.599c0 8.621-10.423 12.944-16.523 6.843l-127.5991-127.599c-6.0923-6.092-1.7779-16.523 6.843-16.523z" fill="#621527"/><path d="m175.034 119.046c5.342 0 9.68 4.33 9.68 9.68v127.599c0 8.621-10.423 12.944-16.523 6.843l-127.5991-127.599c-6.0924-6.092-1.7779-16.523 6.843-16.523z" fill="#611527"/><path d="m174.228 119.852c5.342 0 9.68 4.331 9.68 9.68v127.599c0 8.621-10.423 12.944-16.523 6.843l-127.5991-127.599c-6.0924-6.092-1.778-16.523 6.843-16.523z" fill="#601426"/><path d="m173.43 120.658c5.342 0 9.68 4.33 9.68 9.68v127.599c0 8.621-10.423 12.944-16.523 6.843l-127.5994-127.599c-6.0923-6.092-1.7779-16.523 6.843-16.523z" fill="#5f1426"/><path d="m172.624 121.464c5.342 0 9.68 4.33 9.68 9.68v127.599c0 8.621-10.423 12.943-16.523 6.843l-127.5994-127.599c-6.0923-6.092-1.7779-16.523 6.843-16.523z" fill="#5e1426"/><path d="m171.818 122.262c5.342 0 9.68 4.33 9.68 9.68v127.599c0 8.621-10.423 12.944-16.523 6.843l-127.5994-127.599c-6.0924-6.092-1.7779-16.523 6.843-16.523z" fill="#5d1426"/><path d="m171.012 123.068c5.342 0 9.68 4.331 9.68 9.68v127.599c0 8.621-10.423 12.944-16.523 6.843l-127.5995-127.599c-6.0923-6.092-1.7779-16.523 6.843-16.523z" fill="#5c1425"/><path d="m170.214 123.874c5.342 0 9.68 4.33 9.68 9.68v127.599c0 8.621-10.423 12.943-16.523 6.843l-127.5993-127.599c-6.0923-6.093-1.7779-16.523 6.843-16.523z" fill="#5b1425"/><path d="m169.408 124.68c5.342 0 9.68 4.33 9.68 9.68v127.599c0 8.621-10.423 12.944-16.523 6.843l-127.5994-127.599c-6.0923-6.092-1.7779-16.523 6.8431-16.523z" fill="#5a1425"/><path d="m168.602 125.478c5.342 0 9.68 4.33 9.68 9.68v127.599c0 8.621-10.423 12.944-16.523 6.843l-127.5994-127.599c-6.0923-6.092-1.7779-16.523 6.843-16.523z" fill="#591424"/><path d="m167.796 126.284c5.342 0 9.68 4.33 9.68 9.68v127.599c0 8.621-10.423 12.944-16.523 6.843l-127.5993-127.599c-6.0923-6.092-1.7779-16.523 6.843-16.523z" fill="#581424"/><path d="m166.99 127.09c5.342 0 9.68 4.331 9.68 9.68v127.599c0 8.621-10.423 12.944-16.523 6.843l-127.5993-127.599c-6.0923-6.092-1.7779-16.523 6.843-16.523z" fill="#571424"/><path d="m166.192 127.896c5.341 0 9.679 4.33 9.679 9.68v127.599c0 8.621-10.422 12.944-16.522 6.843l-127.5996-127.599c-6.0924-6.092-1.778-16.523 6.843-16.523z" fill="#561424"/><path d="m165.386 128.694c5.341 0 9.679 4.331 9.679 9.68v127.599c0 8.621-10.422 12.944-16.522 6.843l-127.5997-127.599c-6.0923-6.092-1.7779-16.523 6.843-16.523z" fill="#551423"/><path d="m164.58 129.5c5.342 0 9.68 4.33 9.68 9.68v127.599c0 8.621-10.423 12.944-16.523 6.843l-127.5992-127.599c-6.0924-6.092-1.7779-16.523 6.843-16.523z" fill="#541423"/><path d="m163.774 130.306c5.342 0 9.68 4.331 9.68 9.68v127.599c0 8.621-10.423 12.944-16.523 6.844l-127.5993-127.6c-6.0923-6.092-1.7779-16.523 6.8431-16.523z" fill="#531323"/><path d="m162.976 131.112c5.341 0 9.68 4.331 9.68 9.68v127.599c0 8.621-10.423 12.936-16.523 6.843l-127.5996-127.599c-6.0923-6.092-1.7779-16.523 6.843-16.523z" fill="#521322"/><path d="m162.17 131.91c5.341 0 9.68 4.331 9.68 9.68v127.6c0 8.62-10.423 12.943-16.523 6.843l-127.5995-127.6c-6.0923-6.092-1.7779-16.523 6.843-16.523z" fill="#511322"/><path d="m161.364 132.717c5.341 0 9.68 4.33 9.68 9.679v127.6c0 8.621-10.423 12.935-16.523 6.843l-127.5995-127.6c-6.0924-6.092-1.7779-16.522 6.843-16.522z" fill="#501322"/><path d="m160.558 133.522c5.341 0 9.68 4.331 9.68 9.68v127.6c0 8.62-10.423 12.943-16.523 6.843l-127.5996-127.6c-6.0923-6.092-1.7779-16.523 6.8431-16.523z" fill="#4f1321"/><path d="m159.76 134.328c5.342 0 9.68 4.331 9.68 9.68v127.599c0 8.621-10.423 12.944-16.523 6.843l-127.5994-127.599c-6.0923-6.092-1.7779-16.523 6.843-16.523z" fill="#4e1321"/><path d="m158.954 135.126c5.342 0 9.68 4.331 9.68 9.68v127.6c0 8.62-10.423 12.935-16.523 6.843l-127.5994-127.6c-6.0924-6.092-1.778-16.523 6.843-16.523z" fill="#4d1321"/><path d="m158.148 135.932c5.342 0 9.68 4.331 9.68 9.68v127.599c0 8.621-10.423 12.944-16.523 6.843l-127.5995-127.599c-6.0923-6.092-1.7779-16.523 6.843-16.523z" fill="#4c1321"/><path d="m157.342 136.738c5.341 0 9.68 4.331 9.68 9.68v127.599c0 8.621-10.423 12.944-16.523 6.843l-127.5995-127.599c-6.0923-6.092-1.7779-16.523 6.843-16.523z" fill="#4b1320"/><path d="m156.544 137.544c5.341 0 9.679 4.331 9.679 9.68v127.6c0 8.62-10.422 12.943-16.522 6.843l-127.5997-127.6c-6.0924-6.092-1.7779-16.523 6.843-16.523z" fill="#4a1320"/><path d="m155.738 138.343c5.341 0 9.679 4.33 9.679 9.679v127.6c0 8.621-10.422 12.943-16.522 6.843l-127.5998-127.6c-6.0923-6.092-1.7779-16.522 6.8431-16.522z" fill="#491320"/><path d="m154.932 139.148c5.341 0 9.679 4.331 9.679 9.68v127.6c0 8.62-10.422 12.943-16.522 6.843l-127.5998-127.6c-6.0923-6.092-1.7779-16.523 6.843-16.523z" fill="#48131f"/><path d="m154.126 139.955c5.341 0 9.679 4.33 9.679 9.679v127.6c0 8.621-10.422 12.943-16.522 6.843l-127.5998-127.6c-6.0923-6.092-1.7779-16.522 6.843-16.522z" fill="#47121f"/><path d="m153.328 140.76c5.341 0 9.679 4.331 9.679 9.68v127.6c0 8.621-10.422 12.943-16.522 6.843l-127.5997-127.6c-6.0923-6.092-1.7779-16.523 6.843-16.523z" fill="#46121f"/><path d="m152.522 141.566c5.341 0 9.679 4.331 9.679 9.68v127.6c0 8.62-10.422 12.943-16.522 6.843l-127.5997-127.6c-6.0923-6.092-1.7779-16.523 6.843-16.523z" fill="#45121e"/><path d="m151.716 142.365c5.341 0 9.679 4.33 9.679 9.679v127.6c0 8.621-10.422 12.943-16.522 6.843l-127.5997-127.6c-6.0924-6.092-1.7779-16.522 6.843-16.522z" fill="#44121e"/><path d="m150.91 143.171c5.341 0 9.679 4.33 9.679 9.679v127.6c0 8.621-10.422 12.943-16.522 6.843l-127.5998-127.6c-6.0923-6.092-1.7779-16.522 6.8431-16.522z" fill="#43121e"/><path d="m150.112 143.977c5.341 0 9.68 4.33 9.68 9.679v127.6c0 8.621-10.423 12.943-16.523 6.843l-127.5996-127.6c-6.09234-6.092-1.7779-16.522 6.843-16.522z" fill="#42121e"/><path d="m149.306 144.783c5.341 0 9.679 4.33 9.679 9.679v127.6c0 8.621-10.422 12.943-16.522 6.843l-127.5996-127.599c-6.09238-6.093-1.778-16.523 6.843-16.523z" fill="#41121d"/><path d="m148.5 145.581c5.341 0 9.679 4.33 9.679 9.68v127.599c0 8.621-10.422 12.943-16.522 6.843l-127.5997-127.599c-6.0923-6.093-1.7779-16.523 6.8431-16.523z" fill="#40121d"/><path d="m147.694 146.386c5.341 0 9.68 4.331 9.68 9.68v127.6c0 8.62-10.423 12.943-16.523 6.843l-127.5996-127.6c-6.09231-6.092-1.7779-16.523 6.843-16.523z" fill="#3f121d"/><path d="m146.888 147.193c5.341 0 9.68 4.33 9.68 9.679v127.6c0 8.621-10.423 12.943-16.523 6.843l-127.5996-127.6c-6.09235-6.092-1.7779-16.522 6.843-16.522z" fill="#3e121c"/><path d="m146.089 147.999c5.342 0 9.68 4.33 9.68 9.679v127.6c0 8.621-10.422 12.943-16.523 6.843l-127.5989-127.6c-6.09237-6.092-1.77797-16.522 6.843-16.522z" fill="#3d121c"/><path d="m145.283 148.797c5.342 0 9.68 4.33 9.68 9.679v127.6c0 8.621-10.422 12.943-16.523 6.843l-127.599-127.6c-6.09232-6.092-1.7779-16.522 6.843-16.522z" fill="#3c121c"/><path d="m144.477 149.603c5.342 0 9.68 4.33 9.68 9.679v127.6c0 8.621-10.422 12.943-16.523 6.843l-127.5989-127.6c-6.09232-6.092-1.7779-16.522 6.843-16.522z" fill="#3b121b"/><path d="m143.671 150.409c5.342 0 9.68 4.33 9.68 9.679v127.6c0 8.621-10.422 12.943-16.523 6.843l-127.5989-127.6c-6.09234-6.092-1.77794-16.522 6.843-16.522z" fill="#3a111b"/><path d="m142.873 151.215c5.342 0 9.68 4.33 9.68 9.679v127.6c0 8.621-10.422 12.943-16.523 6.843l-127.59889-127.6c-6.09233-6.092-1.77791-16.522 6.84299-16.522z" fill="#39111b"/><path d="m142.068 152.013c5.341 0 9.679 4.33 9.679 9.679v127.6c0 8.621-10.422 12.943-16.522 6.843l-127.59981-127.6c-6.09233-6.092-1.77791-16.522 6.84301-16.522z" fill="#38111b"/><path d="m141.261 152.819c5.342 0 9.68 4.33 9.68 9.68v127.599c0 8.621-10.422 12.943-16.523 6.843l-127.59882-127.599c-6.092342-6.093-1.77792-16.523 6.84302-16.523z" fill="#37111a"/><path d="m140.455 153.625c5.342 0 9.68 4.33 9.68 9.68v127.599c0 8.621-10.422 12.943-16.523 6.843l-127.59885-127.599c-6.0923426-6.093-1.77792-16.523 6.84305-16.523z" fill="#36111a"/><path d="m139.657 154.431c5.342 0 9.68 4.33 9.68 9.679v127.6c0 8.621-10.422 12.943-16.523 6.843l-127.59883-127.6c-6.092336-6.092-1.77792-16.522 6.84303-16.522z" fill="#35111a"/><path d="m138.852 155.229c5.341 0 9.679 4.33 9.679 9.68v127.599c0 8.621-10.422 12.943-16.522 6.843l-127.59974-127.599c-6.09233-6.093-1.77791-16.523 6.84304-16.523z" fill="#341119"/><path d="m138.046 156.035c5.341 0 9.679 4.33 9.679 9.68v127.599c0 8.621-10.422 12.943-16.522 6.843l-127.59978-127.599c-6.09234-6.093-1.77792-16.523 6.84298-16.523z" fill="#331119"/><path d="m137.24 156.841c5.341 0 9.679 4.33 9.679 9.68v127.599c0 8.621-10.422 12.943-16.522 6.843l-127.5998-127.599c-6.09233-6.093-1.77791-16.523 6.84302-16.523z" fill="#321119"/><path d="m136.441 157.647c5.342 0 9.68 4.33 9.68 9.68v127.599c0 8.621-10.422 12.943-16.523 6.843l-127.59903-127.599c-6.09233-6.093-1.777914-16.523 6.84302-16.523z" fill="#311118"/><path d="m135.635 158.453c5.342 0 9.68 4.33 9.68 9.679v127.6c0 8.621-10.422 12.943-16.523 6.843l-127.59905-127.6c-6.09233-6.092-1.777912-16.522 6.84302-16.522z" fill="#301118"/><path d="m134.829 159.251c5.342 0 9.68 4.33 9.68 9.68v127.599c0 8.621-10.423 12.943-16.523 6.843l-127.599064-127.599c-6.092336-6.093-1.777936-16.523 6.842994-16.523z" fill="#2f1118"/><path d="m134.023 160.057c5.342 0 9.68 4.33 9.68 9.68v127.599c0 8.621-10.423 12.943-16.523 6.843l-127.599118-127.599c-6.092342-6.093-1.777912-16.523 6.843018-16.523z" fill="#2e1118"/><path d="m133.225 160.863c5.342 0 9.68 4.33 9.68 9.68v127.599c0 8.621-10.422 12.943-16.523 6.843l-127.59895-127.599c-6.09233-6.093-1.77794-16.523 6.843-16.523z" fill="#2d1017"/><path d="m132.419 161.669c5.342 0 9.68 4.33 9.68 9.68v127.599c0 8.621-10.422 12.943-16.523 6.843l-127.59899-127.599c-6.09234-6.093-1.77791-16.523 6.84302-16.523z" fill="#2c1017"/><path d="m131.613 162.467c5.342 0 9.68 4.33 9.68 9.68v127.599c0 8.621-10.422 12.943-16.523 6.843l-127.59902-127.599c-6.09234-6.093-1.77791-16.523 6.84302-16.523z" fill="#2b1017"/><path d="m130.807 163.273c5.342 0 9.68 4.33 9.68 9.68v127.599c0 8.621-10.423 12.943-16.523 6.843l-127.59906-127.599c-6.09234-6.093-1.77792-16.523 6.84302-16.523z" fill="#2a1016"/><path d="m130.001 164.079c5.342 0 9.68 4.33 9.68 9.68v127.599c0 8.621-10.422 12.943-16.523 6.843l-127.59896-127.599c-6.09234-6.093-1.77791-16.523 6.84302-16.523z" fill="#291016"/><path d="m129.203 164.885c5.342 0 9.68 4.33 9.68 9.68v127.599c0 8.621-10.422 12.943-16.523 6.843l-127.59894-127.599c-6.09236-6.093-1.77792-16.523 6.84302-16.523z" fill="#281016"/><path d="m128.397 165.683c5.342 0 9.68 4.33 9.68 9.68v127.599c0 8.621-10.422 12.943-16.523 6.843l-127.59896-127.599c-6.09234-6.092-1.77792-16.523 6.843017-16.523z" fill="#271015"/><path d="m127.591 166.489c5.342 0 9.68 4.33 9.68 9.68v127.599c0 8.621-10.422 12.943-16.523 6.843l-127.59899-127.599c-6.09231-6.093-1.77792-16.523 6.84301871-16.523z" fill="#261015"/><path d="m126.785 167.295c5.342 0 9.68 4.33 9.68 9.68v127.599c0 8.621-10.422 12.943-16.523 6.843l-127.59891-127.599c-6.09229-6.093-1.77792-16.523 6.843017-16.523z" fill="#251015"/><path d="m125.987 168.101c5.342 0 9.68 4.33 9.68 9.68v127.599c0 8.621-10.423 12.943-16.523 6.843l-127.59924-127.599c-6.09236-6.092-1.77796-16.523 6.84302-16.523z" fill="#241015"/><path d="m125.181 168.899c5.342 0 9.68 4.33 9.68 9.68v127.599c0 8.621-10.423 12.944-16.523 6.843l-127.59928-127.599c-6.09232-6.092-1.77792-16.523 6.84302-16.523z" fill="#231014"/><path d="m124.375 169.705c5.342 0 9.68 4.33 9.68 9.68v127.599c0 8.621-10.423 12.943-16.523 6.843l-127.5992-127.599c-6.0923-6.092-1.7779-16.523 6.84304-16.523z" fill="#221014"/><path d="m123.569 170.511c5.342 0 9.68 4.33 9.68 9.68v127.599c0 8.621-10.423 12.943-16.523 6.843l-127.5992-127.599c-6.0923-6.093-1.7779-16.523 6.843-16.523z" fill="#210f14"/><path d="m122.771 171.317c5.342 0 9.68 4.33 9.68 9.68v127.599c0 8.621-10.423 12.943-16.523 6.843l-127.5992-127.599c-6.0923-6.093-1.7779-16.523 6.84304-16.523z" fill="#200f13"/><path d="m121.965 172.115c5.342 0 9.68 4.33 9.68 9.68v127.599c0 8.621-10.423 12.943-16.523 6.843l-127.5992-127.599c-6.0923-6.093-1.7779-16.523 6.84299-16.523z" fill="#1f0f13"/><path d="m121.159 172.921c5.342 0 9.68 4.33 9.68 9.68v127.599c0 8.621-10.423 12.943-16.523 6.843l-127.5991-127.599c-6.0924-6.092-1.7779-16.523 6.843-16.523z" fill="#1e0f13"/><path d="m120.353 173.727c5.342 0 9.68 4.33 9.68 9.68v127.599c0 8.621-10.423 12.943-16.523 6.843l-127.5991-127.599c-6.0924-6.092-1.778-16.523 6.84297-16.523z" fill="#1d0f12"/><path d="m119.555 174.533c5.341 0 9.68 4.33 9.68 9.68v127.599c0 8.621-10.423 12.944-16.523 6.843l-127.5995-127.599c-6.0923-6.092-1.7779-16.523 6.84303-16.523z" fill="#1c0f12"/><path d="m118.749 175.331c5.342 0 9.68 4.33 9.68 9.68v127.599c0 8.621-10.422 12.943-16.523 6.843l-127.599-127.599c-6.0924-6.092-1.7779-16.523 6.84299-16.523z" fill="#1b0f12"/><path d="m117.943 176.137c5.342 0 9.68 4.33 9.68 9.68v127.599c0 8.621-10.423 12.944-16.523 6.843l-127.5991-127.599c-6.0923-6.092-1.7779-16.523 6.84304-16.523z" fill="#1a0f12"/><path d="m117.137 176.943c5.342 0 9.68 4.33 9.68 9.68v127.599c0 8.621-10.423 12.943-16.523 6.843l-127.5991-127.599c-6.0923-6.092-1.7779-16.523 6.843-16.523z" fill="#190f11"/><path d="m116.339 177.749c5.342 0 9.68 4.33 9.68 9.68v127.599c0 8.621-10.423 12.944-16.523 6.843l-127.5994-127.599c-6.0924-6.092-1.778-16.523 6.843-16.523z" fill="#180f11"/><path d="m115.533 178.555c5.342 0 9.68 4.33 9.68 9.68v127.599c0 8.621-10.423 12.944-16.523 6.843l-127.5993-127.599c-6.0924-6.092-1.778-16.523 6.843-16.523z" fill="#170f11"/><path d="m114.727 179.353c5.342 0 9.68 4.33 9.68 9.68v127.599c0 8.621-10.423 12.944-16.523 6.843l-127.5994-127.599c-6.0923-6.092-1.7779-16.523 6.843-16.523z" fill="#160f10"/><path d="m113.921 180.159c5.342 0 9.68 4.33 9.68 9.68v127.599c0 8.621-10.423 12.944-16.523 6.843l-127.5994-127.599c-6.0924-6.092-1.7779-16.523 6.843-16.523z" fill="#150f10"/><path d="m113.123 180.965c5.342 0 9.68 4.33 9.68 9.68v127.599c0 8.621-10.423 12.943-16.523 6.843l-127.5993-127.599c-6.0923-6.092-1.7779-16.523 6.8431-16.523z" fill="#140e10"/><path d="m112.317 181.771c5.342 0 9.68 4.33 9.68 9.68v127.599c0 8.621-10.423 12.943-16.523 6.843l-127.5993-127.599c-6.0923-6.093-1.7779-16.523 6.843-16.523z" fill="#130e0f"/><path d="m111.511 182.569c5.342 0 9.68 4.331 9.68 9.68v127.599c0 8.621-10.423 12.944-16.523 6.843l-127.5993-127.599c-6.0924-6.092-1.7779-16.523 6.843-16.523z" fill="#120e0f"/><path d="m110.705 183.375c5.342 0 9.68 4.33 9.68 9.68v127.599c0 8.621-10.423 12.944-16.523 6.843l-127.5993-127.599c-6.0924-6.092-1.778-16.523 6.843-16.523z" fill="#110e0f"/><path d="m109.899 184.181c5.342 0 9.68 4.33 9.68 9.68v127.599c0 8.621-10.423 12.944-16.523 6.843l-127.5994-127.599c-6.0923-6.092-1.7779-16.523 6.843-16.523z" fill="#100e0f"/><path d="m109.101 184.987c5.341 0 9.68 4.331 9.68 9.68v127.599c0 8.621-10.423 12.944-16.523 6.843l-127.5996-127.599c-6.0923-6.092-1.7779-16.523 6.843-16.523z" fill="#0f0e0e"/><path d="m108.295 185.785c5.341 0 9.679 4.331 9.679 9.68v127.599c0 8.621-10.422 12.944-16.522 6.844l-127.5996-127.6c-6.0924-6.092-1.7779-16.523 6.843-16.523z" fill="#0e0e0e"/><path d="m297.079 93c5.35 0 9.68 4.3302 9.68 9.68v127.599c0 8.621-10.423 12.943-16.523 6.843l-127.599-127.599c-6.093-6.1-1.778-16.523 6.843-16.523z" fill="#ff2156"/><path d="m296.281 93.806c5.342 0 9.68 4.3302 9.68 9.68v127.599c0 8.621-10.422 12.943-16.523 6.843l-127.607-127.607c-6.092-6.092-1.778-16.5229 6.843-16.5229h127.607z" fill="#fe2156"/><path d="m295.475 94.6119c5.342 0 9.68 4.3302 9.68 9.6801v127.599c0 8.621-10.422 12.943-16.523 6.843l-127.599-127.607c-6.092-6.093-1.778-16.523 6.843-16.523h127.599z" fill="#fd2155"/><path d="m294.669 95.4102c5.342 0 9.68 4.3302 9.68 9.6798v127.599c0 8.621-10.422 12.944-16.523 6.843l-127.599-127.599c-6.092-6.092-1.778-16.5228 6.843-16.5228z" fill="#fc2155"/><path d="m293.863 96.2161c5.342 0 9.68 4.3299 9.68 9.6799v127.599c0 8.621-10.422 12.936-16.523 6.843l-127.599-127.599c-6.092-6.092-1.778-16.5229 6.843-16.5229z" fill="#fb2155"/><path d="m293.065 97.0221c5.342 0 9.68 4.3299 9.68 9.6799v127.599c0 8.621-10.423 12.943-16.523 6.843l-127.607-127.607c-6.092-6.092-1.778-16.5228 6.843-16.5228h127.607z" fill="#fa2155"/><path d="m292.259 97.828c5.342 0 9.68 4.33 9.68 9.68v127.599c0 8.621-10.423 12.943-16.523 6.843l-127.599-127.607c-6.093-6.092-1.778-16.5229 6.843-16.5229h127.599z" fill="#f92154"/><path d="m291.453 98.6262c5.342 0 9.68 4.3298 9.68 9.6798v127.599c0 8.621-10.423 12.944-16.523 6.843l-127.599-127.599c-6.093-6.092-1.778-16.5228 6.843-16.5228z" fill="#f82054"/><path d="m290.647 99.4321c5.342 0 9.68 4.3299 9.68 9.6799v127.599c0 8.621-10.423 12.943-16.523 6.843l-127.599-127.599c-6.093-6.092-1.778-16.5229 6.843-16.5229z" fill="#f72054"/><path d="m289.841 100.238c5.342 0 9.68 4.33 9.68 9.68v127.599c0 8.621-10.423 12.943-16.523 6.843l-127.599-127.607c-6.093-6.092-1.778-16.523 6.843-16.523h127.599z" fill="#f62053"/><path d="m289.043 101.044c5.342 0 9.68 4.33 9.68 9.68v127.599c0 8.621-10.423 12.943-16.523 6.843l-127.599-127.607c-6.093-6.092-1.778-16.523 6.843-16.523h127.599z" fill="#f52053"/><path d="m288.237 101.842c5.342 0 9.68 4.33 9.68 9.68v127.599c0 8.621-10.423 12.943-16.523 6.843l-127.599-127.599c-6.093-6.092-1.778-16.523 6.843-16.523z" fill="#f42053"/><path d="m287.431 102.648c5.342 0 9.68 4.33 9.68 9.68v127.599c0 8.621-10.423 12.944-16.523 6.843l-127.599-127.599c-6.093-6.092-1.778-16.523 6.843-16.523z" fill="#f32052"/><path d="m286.625 103.454c5.342 0 9.68 4.33 9.68 9.68v127.599c0 8.621-10.423 12.943-16.523 6.843l-127.599-127.599c-6.093-6.092-1.778-16.523 6.843-16.523z" fill="#f22052"/><path d="m285.827 104.26c5.341 0 9.68 4.33 9.68 9.68v127.599c0 8.621-10.423 12.943-16.523 6.843l-127.6-127.607c-6.092-6.092-1.777-16.523 6.844-16.523h127.599z" fill="#f12052"/><path d="m285.021 105.058c5.342 0 9.68 4.331 9.68 9.68v127.599c0 8.621-10.423 12.944-16.523 6.843l-127.599-127.599c-6.093-6.092-1.778-16.523 6.843-16.523z" fill="#f02052"/><path d="m284.215 105.864c5.342 0 9.68 4.33 9.68 9.68v127.599c0 8.621-10.423 12.936-16.523 6.843l-127.599-127.599c-6.092-6.092-1.778-16.523 6.843-16.523z" fill="#ef2051"/><path d="m283.409 106.67c5.342 0 9.68 4.33 9.68 9.68v127.599c0 8.621-10.423 12.936-16.523 6.843l-127.599-127.599c-6.092-6.092-1.778-16.523 6.843-16.523z" fill="#ee2051"/><path d="m282.611 107.476c5.342 0 9.68 4.33 9.68 9.68v127.599c0 8.621-10.423 12.936-16.523 6.843l-127.599-127.607c-6.093-6.092-1.778-16.523 6.843-16.523h127.599z" fill="#ed2051"/><path d="m281.805 108.274c5.341 0 9.68 4.33 9.68 9.68v127.599c0 8.621-10.423 12.936-16.523 6.843l-127.599-127.599c-6.093-6.092-1.778-16.523 6.843-16.523z" fill="#ec2050"/><path d="m280.999 109.08c5.342 0 9.68 4.331 9.68 9.68v127.599c0 8.621-10.423 12.944-16.523 6.843l-127.599-127.599c-6.093-6.092-1.778-16.523 6.843-16.523z" fill="#eb1f50"/><path d="m280.193 109.886c5.342 0 9.68 4.33 9.68 9.68v127.599c0 8.621-10.423 12.944-16.523 6.843l-127.599-127.599c-6.093-6.092-1.778-16.523 6.843-16.523z" fill="#ea1f50"/><path d="m279.395 110.692c5.342 0 9.68 4.33 9.68 9.68v127.599c0 8.621-10.423 12.944-16.523 6.843l-127.607-127.607c-6.093-6.092-1.778-16.523 6.843-16.523h127.607z" fill="#e91f4f"/><path d="m278.589 111.498c5.342 0 9.68 4.331 9.68 9.68v127.599c0 8.621-10.423 12.944-16.523 6.844l-127.599-127.608c-6.093-6.092-1.778-16.523 6.843-16.523h127.599z" fill="#e81f4f"/><path d="m277.783 112.296c5.342 0 9.68 4.331 9.68 9.68v127.599c0 8.621-10.423 12.944-16.523 6.843l-127.599-127.599c-6.093-6.092-1.778-16.523 6.843-16.523z" fill="#e71f4f"/><path d="m276.977 113.102c5.342 0 9.68 4.331 9.68 9.68v127.599c0 8.621-10.423 12.944-16.523 6.843l-127.599-127.599c-6.093-6.092-1.778-16.523 6.843-16.523z" fill="#e61f4f"/><path d="m276.179 113.908c5.341 0 9.679 4.331 9.679 9.68v127.599c0 8.621-10.422 12.944-16.522 6.843l-127.608-127.607c-6.092-6.092-1.778-16.523 6.843-16.523h127.608z" fill="#e51f4e"/><path d="m275.373 114.714c5.341 0 9.679 4.33 9.679 9.68v127.599c0 8.621-10.422 12.944-16.522 6.843l-127.6-127.607c-6.092-6.092-1.778-16.523 6.843-16.523h127.6z" fill="#e41f4e"/><path d="m274.567 115.512c5.341 0 9.679 4.331 9.679 9.68v127.6c0 8.62-10.422 12.935-16.522 6.843l-127.6-127.6c-6.092-6.092-1.778-16.523 6.843-16.523z" fill="#e31f4e"/><path d="m273.761 116.318c5.342 0 9.68 4.331 9.68 9.68v127.599c0 8.621-10.423 12.944-16.523 6.843l-127.599-127.599c-6.093-6.092-1.778-16.523 6.843-16.523z" fill="#e21f4d"/><path d="m272.963 117.124c5.341 0 9.68 4.331 9.68 9.68v127.599c0 8.621-10.423 12.936-16.523 6.843l-127.607-127.607c-6.093-6.092-1.778-16.523 6.843-16.523h127.607z" fill="#e11f4d"/><path d="m272.157 117.931c5.341 0 9.68 4.33 9.68 9.679v127.6c0 8.621-10.423 12.943-16.523 6.843l-127.6-127.608c-6.092-6.092-1.777-16.522 6.843-16.522h127.6z" fill="#e01f4d"/><path d="m271.351 118.729c5.341 0 9.68 4.33 9.68 9.679v127.6c0 8.621-10.423 12.935-16.523 6.843l-127.6-127.6c-6.092-6.092-1.778-16.522 6.843-16.522z" fill="#df1e4c"/><path d="m270.545 119.534c5.341 0 9.679 4.331 9.679 9.68v127.6c0 8.62-10.422 12.943-16.522 6.843l-127.6-127.6c-6.092-6.092-1.778-16.523 6.843-16.523z" fill="#de1e4c"/><path d="m269.739 120.34c5.341 0 9.679 4.331 9.679 9.68v127.599c0 8.621-10.422 12.936-16.522 6.843l-127.6-127.599c-6.092-6.092-1.778-16.523 6.843-16.523z" fill="#dd1e4c"/><path d="m268.941 121.146c5.341 0 9.68 4.331 9.68 9.68v127.599c0 8.621-10.423 12.944-16.523 6.843l-127.6-127.607c-6.092-6.092-1.777-16.523 6.844-16.523h127.599z" fill="#dc1e4c"/><path d="m268.135 121.945c5.341 0 9.68 4.33 9.68 9.679v127.6c0 8.621-10.423 12.943-16.523 6.843l-127.6-127.6c-6.092-6.092-1.777-16.522 6.843-16.522z" fill="#db1e4b"/><path d="m267.329 122.75c5.341 0 9.68 4.331 9.68 9.68v127.6c0 8.621-10.423 12.943-16.523 6.843l-127.6-127.6c-6.092-6.092-1.777-16.523 6.843-16.523z" fill="#da1e4b"/><path d="m266.523 123.557c5.342 0 9.68 4.33 9.68 9.679v127.6c0 8.621-10.423 12.943-16.523 6.843l-127.599-127.6c-6.093-6.092-1.778-16.522 6.843-16.522z" fill="#d91e4b"/><path d="m265.725 124.363c5.341 0 9.679 4.33 9.679 9.679v127.6c0 8.621-10.422 12.943-16.523 6.843l-127.599-127.607c-6.092-6.093-1.778-16.523 6.843-16.523h127.6z" fill="#d81e4a"/><path d="m264.918 125.161c5.342 0 9.68 4.33 9.68 9.679v127.6c0 8.621-10.422 12.935-16.523 6.843l-127.599-127.6c-6.092-6.092-1.778-16.522 6.843-16.522z" fill="#d71e4a"/><path d="m264.112 125.967c5.342 0 9.68 4.33 9.68 9.679v127.6c0 8.621-10.422 12.943-16.523 6.843l-127.599-127.6c-6.092-6.092-1.778-16.522 6.843-16.522z" fill="#d61e4a"/><path d="m263.307 126.772c5.341 0 9.679 4.331 9.679 9.68v127.6c0 8.62-10.422 12.935-16.522 6.843l-127.6-127.6c-6.092-6.092-1.778-16.523 6.843-16.523z" fill="#d51e49"/><path d="m262.509 127.578c5.341 0 9.679 4.331 9.679 9.68v127.6c0 8.621-10.422 12.943-16.522 6.843l-127.608-127.608c-6.092-6.092-1.778-16.522 6.843-16.522h127.608z" fill="#d41e49"/><path d="m261.703 128.377c5.341 0 9.679 4.33 9.679 9.679v127.6c0 8.621-10.422 12.935-16.522 6.843l-127.6-127.599c-6.092-6.093-1.778-16.523 6.843-16.523z" fill="#d31e49"/><path d="m260.897 129.183c5.341 0 9.679 4.33 9.679 9.679v127.6c0 8.621-10.422 12.943-16.522 6.843l-127.6-127.6c-6.092-6.092-1.778-16.522 6.843-16.522z" fill="#d21d49"/><path d="m260.091 129.989c5.341 0 9.679 4.33 9.679 9.68v127.599c0 8.621-10.422 12.943-16.522 6.843l-127.6-127.599c-6.092-6.093-1.778-16.523 6.843-16.523z" fill="#d11d48"/><path d="m259.293 130.795c5.341 0 9.679 4.33 9.679 9.679v127.6c0 8.621-10.422 12.943-16.522 6.843l-127.608-127.608c-6.092-6.092-1.778-16.522 6.843-16.522h127.608z" fill="#d01d48"/><path d="m258.487 131.601c5.341 0 9.68 4.33 9.68 9.679v127.6c0 8.621-10.423 12.943-16.523 6.843l-127.6-127.607c-6.092-6.093-1.778-16.523 6.843-16.523h127.6z" fill="#cf1d48"/><path d="m257.681 132.399c5.341 0 9.679 4.33 9.679 9.679v127.6c0 8.621-10.422 12.943-16.522 6.843l-127.6-127.6c-6.092-6.092-1.778-16.522 6.843-16.522z" fill="#ce1d47"/><path d="m256.875 133.205c5.341 0 9.679 4.33 9.679 9.679v127.6c0 8.621-10.422 12.943-16.522 6.843l-127.6-127.6c-6.092-6.092-1.778-16.522 6.843-16.522z" fill="#cd1d47"/><path d="m256.076 134.011c5.342 0 9.68 4.33 9.68 9.679v127.6c0 8.621-10.422 12.943-16.523 6.843l-127.607-127.608c-6.092-6.092-1.778-16.522 6.843-16.522h127.607z" fill="#cc1d47"/><path d="m255.27 134.817c5.342 0 9.68 4.33 9.68 9.68v127.599c0 8.621-10.422 12.943-16.523 6.843l-127.599-127.607c-6.092-6.093-1.778-16.523 6.843-16.523h127.599z" fill="#cb1d46"/><path d="m254.464 135.615c5.342 0 9.68 4.33 9.68 9.68v127.599c0 8.621-10.422 12.943-16.523 6.843l-127.599-127.599c-6.092-6.093-1.778-16.523 6.843-16.523z" fill="#ca1d46"/><path d="m253.658 136.421c5.342 0 9.68 4.33 9.68 9.679v127.6c0 8.621-10.422 12.943-16.523 6.843l-127.599-127.6c-6.092-6.092-1.778-16.522 6.843-16.522z" fill="#c91d46"/><path d="m252.852 137.227c5.342 0 9.68 4.33 9.68 9.679v127.6c0 8.621-10.422 12.943-16.523 6.843l-127.599-127.607c-6.092-6.093-1.778-16.523 6.843-16.523h127.599z" fill="#c81d46"/><path d="m252.054 138.033c5.342 0 9.68 4.33 9.68 9.68v127.599c0 8.621-10.422 12.943-16.523 6.843l-127.599-127.607c-6.092-6.093-1.778-16.523 6.843-16.523h127.599z" fill="#c71d45"/><path d="m251.248 138.831c5.342 0 9.68 4.33 9.68 9.68v127.599c0 8.621-10.422 12.943-16.523 6.843l-127.599-127.599c-6.092-6.093-1.778-16.523 6.843-16.523z" fill="#c61d45"/><path d="m250.442 139.637c5.342 0 9.68 4.33 9.68 9.679v127.6c0 8.621-10.422 12.943-16.523 6.843l-127.599-127.599c-6.092-6.093-1.778-16.523 6.843-16.523z" fill="#c51c45"/><path d="m249.636 140.443c5.342 0 9.68 4.33 9.68 9.68v127.599c0 8.621-10.422 12.943-16.523 6.843l-127.599-127.599c-6.092-6.093-1.778-16.523 6.843-16.523z" fill="#c41c44"/><path d="m248.839 141.249c5.341 0 9.679 4.33 9.679 9.68v127.599c0 8.621-10.422 12.943-16.522 6.843l-127.6-127.607c-6.092-6.093-1.778-16.523 6.843-16.523h127.6z" fill="#c31c44"/><path d="m248.032 142.047c5.342 0 9.68 4.33 9.68 9.68v127.599c0 8.621-10.422 12.943-16.523 6.843l-127.599-127.599c-6.092-6.093-1.778-16.523 6.843-16.523z" fill="#c21c44"/><path d="m247.226 142.853c5.342 0 9.68 4.33 9.68 9.68v127.599c0 8.621-10.422 12.943-16.523 6.843l-127.599-127.599c-6.092-6.093-1.778-16.523 6.843-16.523z" fill="#c11c43"/><path d="m246.421 143.659c5.341 0 9.679 4.33 9.679 9.68v127.599c0 8.621-10.422 12.943-16.522 6.843l-127.6-127.599c-6.092-6.093-1.778-16.523 6.843-16.523z" fill="#c01c43"/><path d="m245.622 144.465c5.342 0 9.68 4.33 9.68 9.68v127.599c0 8.621-10.423 12.935-16.523 6.843l-127.607-127.607c-6.092-6.093-1.778-16.523 6.843-16.523h127.607z" fill="#bf1c43"/><path d="m244.816 145.263c5.342 0 9.68 4.33 9.68 9.68v127.599c0 8.621-10.423 12.943-16.523 6.843l-127.599-127.599c-6.092-6.093-1.778-16.523 6.843-16.523z" fill="#be1c43"/><path d="m244.01 146.069c5.342 0 9.68 4.33 9.68 9.68v127.599c0 8.621-10.423 12.943-16.523 6.843l-127.599-127.599c-6.093-6.093-1.778-16.523 6.843-16.523z" fill="#bd1c42"/><path d="m243.204 146.875c5.342 0 9.68 4.33 9.68 9.68v127.599c0 8.621-10.423 12.943-16.523 6.843l-127.599-127.599c-6.092-6.093-1.778-16.523 6.843-16.523z" fill="#bc1c42"/><path d="m242.406 147.681c5.342 0 9.68 4.33 9.68 9.68v127.599c0 8.621-10.422 12.943-16.523 6.843l-127.607-127.607c-6.092-6.093-1.778-16.523 6.843-16.523h127.607z" fill="#bb1c42"/><path d="m241.6 148.487c5.342 0 9.68 4.33 9.68 9.68v127.599c0 8.621-10.423 12.943-16.523 6.843l-127.599-127.607c-6.092-6.093-1.778-16.523 6.843-16.523h127.599z" fill="#ba1c41"/><path d="m240.794 149.285c5.342 0 9.68 4.33 9.68 9.68v127.599c0 8.621-10.422 12.943-16.523 6.843l-127.599-127.599c-6.092-6.093-1.778-16.523 6.843-16.523z" fill="#b91b41"/><path d="m239.988 150.091c5.342 0 9.68 4.33 9.68 9.68v127.599c0 8.621-10.422 12.943-16.523 6.843l-127.599-127.599c-6.0924-6.092-1.778-16.523 6.843-16.523z" fill="#b81b41"/><path d="m239.19 150.897c5.342 0 9.68 4.33 9.68 9.68v127.599c0 8.621-10.422 12.943-16.523 6.843l-127.607-127.607c-6.0922-6.092-1.778-16.523 6.843-16.523h127.607z" fill="#b71b40"/><path d="m238.384 151.703c5.342 0 9.68 4.33 9.68 9.68v127.599c0 8.621-10.422 12.943-16.523 6.843l-127.599-127.599c-6.0922-6.093-1.778-16.523 6.843-16.523z" fill="#b61b40"/><path d="m237.578 152.501c5.342 0 9.68 4.33 9.68 9.68v127.599c0 8.621-10.422 12.943-16.523 6.843l-127.599-127.599c-6.0923-6.093-1.778-16.523 6.843-16.523z" fill="#b51b40"/><path d="m236.772 153.307c5.342 0 9.68 4.33 9.68 9.68v127.599c0 8.621-10.422 12.943-16.523 6.843l-127.599-127.599c-6.0923-6.093-1.778-16.523 6.843-16.523z" fill="#b41b40"/><path d="m235.966 154.113c5.342 0 9.68 4.33 9.68 9.68v127.599c0 8.621-10.422 12.943-16.523 6.843l-127.599-127.599c-6.0923-6.092-1.7779-16.523 6.843-16.523z" fill="#b31b3f"/><path d="m235.168 154.919c5.342 0 9.68 4.33 9.68 9.68v127.599c0 8.621-10.423 12.943-16.523 6.843l-127.599-127.599c-6.0925-6.093-1.7781-16.523 6.843-16.523z" fill="#b21b3f"/><path d="m234.362 155.717c5.342 0 9.68 4.33 9.68 9.68v127.599c0 8.621-10.423 12.935-16.523 6.843l-127.5993-127.599c-6.0923-6.093-1.7779-16.523 6.8433-16.523z" fill="#b11b3f"/><path d="m233.556 156.523c5.342 0 9.68 4.33 9.68 9.68v127.599c0 8.621-10.423 12.944-16.523 6.843l-127.5993-127.599c-6.0923-6.092-1.7779-16.523 6.8433-16.523z" fill="#b01b3e"/><path d="m232.75 157.329c5.342 0 9.68 4.33 9.68 9.68v127.599c0 8.621-10.423 12.936-16.523 6.843l-127.5993-127.599c-6.0923-6.092-1.7779-16.523 6.8433-16.523z" fill="#af1b3e"/><path d="m231.952 158.135c5.342 0 9.68 4.33 9.68 9.68v127.599c0 8.621-10.423 12.943-16.523 6.843l-127.5992-127.599c-6.0923-6.093-1.7779-16.523 6.8432-16.523z" fill="#ae1b3e"/><path d="m231.146 158.933c5.342 0 9.68 4.33 9.68 9.68v127.599c0 8.621-10.423 12.943-16.523 6.843l-127.5992-127.599c-6.0923-6.092-1.7779-16.523 6.8432-16.523z" fill="#ad1b3e"/><path d="m230.34 159.739c5.342 0 9.68 4.33 9.68 9.68v127.599c0 8.621-10.423 12.943-16.523 6.843l-127.5992-127.599c-6.0924-6.093-1.7779-16.523 6.8432-16.523z" fill="#ac1a3d"/><path d="m229.534 160.545c5.342 0 9.68 4.33 9.68 9.68v127.599c0 8.621-10.423 12.944-16.523 6.843l-127.5992-127.599c-6.0924-6.092-1.7779-16.523 6.8432-16.523z" fill="#ab1a3d"/><path d="m228.736 161.351c5.342 0 9.68 4.33 9.68 9.68v127.599c0 8.621-10.423 12.943-16.523 6.843l-127.5995-127.599c-6.0923-6.092-1.7779-16.523 6.8435-16.523z" fill="#aa1a3d"/><path d="m227.93 162.149c5.342 0 9.68 4.33 9.68 9.68v127.599c0 8.621-10.423 12.944-16.523 6.843l-127.5991-127.599c-6.0923-6.092-1.7779-16.523 6.8431-16.523z" fill="#a91a3c"/><path d="m227.124 162.955c5.342 0 9.68 4.331 9.68 9.68v127.599c0 8.621-10.423 12.944-16.523 6.843l-127.5992-127.599c-6.0923-6.092-1.7779-16.523 6.8431-16.523z" fill="#a81a3c"/><path d="m226.318 163.761c5.342 0 9.68 4.33 9.68 9.68v127.599c0 8.621-10.423 12.944-16.523 6.843l-127.5991-127.599c-6.0923-6.092-1.7779-16.523 6.8431-16.523z" fill="#a71a3c"/><path d="m225.52 164.567c5.342 0 9.68 4.33 9.68 9.68v127.599c0 8.621-10.423 12.936-16.523 6.843l-127.5994-127.599c-6.0924-6.092-1.7779-16.523 6.843-16.523z" fill="#a61a3b"/><path d="m224.714 165.365c5.342 0 9.68 4.33 9.68 9.68v127.599c0 8.621-10.423 12.944-16.523 6.843l-127.5994-127.599c-6.0924-6.092-1.7779-16.523 6.843-16.523z" fill="#a51a3b"/><path d="m223.908 166.171c5.342 0 9.68 4.33 9.68 9.68v127.599c0 8.621-10.423 12.936-16.523 6.843l-127.5995-127.599c-6.0923-6.092-1.7779-16.523 6.8431-16.523z" fill="#a41a3b"/><path d="m223.102 166.977c5.342 0 9.68 4.331 9.68 9.68v127.599c0 8.621-10.423 12.944-16.523 6.843l-127.5994-127.599c-6.0923-6.092-1.7779-16.523 6.843-16.523z" fill="#a31a3b"/><path d="m222.304 167.783c5.342 0 9.68 4.33 9.68 9.68v127.599c0 8.621-10.423 12.936-16.523 6.843l-127.5993-127.599c-6.0924-6.092-1.7779-16.523 6.843-16.523z" fill="#a21a3a"/><path d="m221.498 168.589c5.342 0 9.68 4.331 9.68 9.68v127.599c0 8.621-10.423 12.944-16.523 6.843l-127.5994-127.599c-6.0923-6.092-1.7779-16.523 6.843-16.523z" fill="#a11a3a"/><path d="m220.692 169.387c5.342 0 9.68 4.331 9.68 9.68v127.6c0 8.62-10.423 12.935-16.523 6.843l-127.5993-127.6c-6.0923-6.092-1.7779-16.523 6.843-16.523z" fill="#a01a3a"/><path d="m219.886 170.193c5.342 0 9.68 4.331 9.68 9.68v127.599c0 8.621-10.423 12.944-16.523 6.843l-127.5993-127.599c-6.0923-6.092-1.7779-16.523 6.843-16.523z" fill="#9f1939"/><path d="m219.088 170.999c5.341 0 9.679 4.33 9.679 9.68v127.599c0 8.621-10.422 12.944-16.522 6.843l-127.5997-127.599c-6.0923-6.092-1.7779-16.523 6.8431-16.523z" fill="#9e1939"/><path d="m218.282 171.805c5.341 0 9.679 4.33 9.679 9.68v127.599c0 8.621-10.422 12.944-16.522 6.843l-127.5997-127.599c-6.0923-6.092-1.7779-16.523 6.843-16.523z" fill="#9d1939"/><path d="m217.476 172.603c5.341 0 9.68 4.33 9.68 9.68v127.599c0 8.621-10.423 12.944-16.523 6.843l-127.5996-127.599c-6.0923-6.092-1.7779-16.523 6.843-16.523z" fill="#9c1938"/><path d="m216.67 173.409c5.342 0 9.68 4.331 9.68 9.68v127.6c0 8.62-10.423 12.943-16.523 6.843l-127.5992-127.6c-6.0924-6.092-1.778-16.523 6.843-16.523z" fill="#9b1938"/><path d="m215.864 174.215c5.342 0 9.68 4.331 9.68 9.68v127.599c0 8.621-10.423 12.936-16.523 6.843l-127.5993-127.599c-6.0923-6.092-1.7779-16.523 6.843-16.523z" fill="#9a1938"/><path d="m215.066 175.021c5.341 0 9.68 4.331 9.68 9.68v127.6c0 8.621-10.423 12.943-16.523 6.843l-127.5995-127.6c-6.0923-6.092-1.7779-16.523 6.843-16.523z" fill="#991938"/><path d="m214.26 175.82c5.341 0 9.68 4.33 9.68 9.679v127.6c0 8.621-10.423 12.935-16.523 6.843l-127.5995-127.6c-6.0924-6.092-1.778-16.522 6.843-16.522z" fill="#981937"/><path d="m213.454 176.625c5.341 0 9.68 4.331 9.68 9.68v127.6c0 8.621-10.423 12.943-16.523 6.843l-127.5996-127.6c-6.0923-6.092-1.7779-16.523 6.8431-16.523z" fill="#971937"/><path d="m212.648 177.431c5.341 0 9.68 4.331 9.68 9.68v127.599c0 8.621-10.423 12.936-16.523 6.843l-127.5996-127.599c-6.0923-6.092-1.7779-16.523 6.843-16.523z" fill="#961937"/><path d="m211.85 178.237c5.342 0 9.68 4.331 9.68 9.68v127.599c0 8.621-10.423 12.944-16.523 6.843l-127.5994-127.599c-6.0924-6.092-1.778-16.523 6.843-16.523z" fill="#951936"/><path d="m211.044 179.035c5.342 0 9.68 4.331 9.68 9.68v127.599c0 8.621-10.423 12.936-16.523 6.843l-127.5995-127.599c-6.0923-6.092-1.7779-16.523 6.8431-16.523z" fill="#941936"/><path d="m210.238 179.842c5.341 0 9.68 4.33 9.68 9.679v127.6c0 8.621-10.423 12.943-16.523 6.843l-127.5995-127.6c-6.0924-6.092-1.7779-16.522 6.843-16.522z" fill="#931836"/><path d="m209.432 180.647c5.341 0 9.68 4.331 9.68 9.68v127.6c0 8.62-10.423 12.935-16.523 6.843l-127.5995-127.6c-6.0924-6.092-1.778-16.523 6.843-16.523z" fill="#921835"/><path d="m208.634 181.453c5.341 0 9.679 4.331 9.679 9.68v127.599c0 8.621-10.422 12.944-16.522 6.843l-127.5998-127.599c-6.0923-6.092-1.7779-16.523 6.8431-16.523z" fill="#911835"/><path d="m207.828 182.251c5.341 0 9.679 4.331 9.679 9.68v127.6c0 8.62-10.422 12.943-16.522 6.843l-127.5998-127.6c-6.0923-6.092-1.7779-16.523 6.843-16.523z" fill="#901835"/><path d="m207.022 183.058c5.341 0 9.679 4.33 9.679 9.679v127.6c0 8.621-10.422 12.943-16.523 6.843l-127.5988-127.6c-6.0923-6.092-1.7779-16.522 6.843-16.522z" fill="#8f1835"/><path d="m206.215 183.864c5.342 0 9.68 4.33 9.68 9.679v127.6c0 8.621-10.422 12.943-16.523 6.843l-127.5989-127.6c-6.0923-6.092-1.7779-16.522 6.8431-16.522z" fill="#8e1834"/><path d="m205.418 184.669c5.341 0 9.679 4.331 9.679 9.68v127.6c0 8.62-10.422 12.943-16.522 6.843l-127.5997-127.6c-6.0923-6.092-1.7779-16.523 6.843-16.523z" fill="#8d1834"/><path d="m204.612 185.476c5.341 0 9.679 4.33 9.679 9.679v127.6c0 8.621-10.422 12.943-16.522 6.843l-127.5997-127.6c-6.0924-6.092-1.778-16.522 6.843-16.522z" fill="#8c1834"/><path d="m203.806 186.274c5.341 0 9.679 4.33 9.679 9.679v127.6c0 8.621-10.422 12.943-16.522 6.843l-127.5997-127.6c-6.0924-6.092-1.778-16.522 6.843-16.522z" fill="#8b1833"/><path d="m203 187.08c5.341 0 9.679 4.33 9.679 9.679v127.6c0 8.621-10.422 12.943-16.522 6.843l-127.5997-127.6c-6.0923-6.092-1.7779-16.522 6.843-16.522z" fill="#8a1833"/><path d="m202.202 187.885c5.341 0 9.679 4.331 9.679 9.68v127.6c0 8.621-10.422 12.943-16.522 6.843l-127.5996-127.6c-6.0924-6.092-1.7779-16.523 6.843-16.523z" fill="#891833"/><path d="m201.396 188.692c5.341 0 9.679 4.33 9.679 9.679v127.6c0 8.621-10.422 12.943-16.522 6.843l-127.5997-127.6c-6.0923-6.092-1.7779-16.522 6.843-16.522z" fill="#881832"/><path d="m200.59 189.49c5.341 0 9.68 4.33 9.68 9.68v127.599c0 8.621-10.423 12.943-16.523 6.843l-127.5996-127.599c-6.0923-6.093-1.7779-16.523 6.843-16.523z" fill="#871832"/><path d="m199.784 190.296c5.341 0 9.68 4.33 9.68 9.679v127.6c0 8.621-10.423 12.943-16.523 6.843l-127.5996-127.6c-6.0923-6.092-1.7779-16.522 6.843-16.522z" fill="#861732"/><path d="m198.978 191.102c5.341 0 9.679 4.33 9.679 9.679v127.6c0 8.621-10.422 12.943-16.522 6.843l-127.5997-127.6c-6.0923-6.092-1.7779-16.522 6.8431-16.522z" fill="#851732"/><path d="m198.179 191.908c5.342 0 9.68 4.33 9.68 9.679v127.6c0 8.621-10.422 12.943-16.523 6.843l-127.599-127.599c-6.0923-6.093-1.7779-16.523 6.843-16.523z" fill="#841731"/><path d="m197.373 192.706c5.342 0 9.68 4.33 9.68 9.68v127.599c0 8.621-10.422 12.943-16.523 6.843l-127.5989-127.599c-6.0923-6.093-1.7779-16.523 6.843-16.523z" fill="#831731"/><path d="m196.567 193.512c5.342 0 9.68 4.33 9.68 9.68v127.599c0 8.621-10.422 12.943-16.523 6.843l-127.5989-127.599c-6.0924-6.093-1.7779-16.523 6.843-16.523z" fill="#821731"/><path d="m195.761 194.318c5.342 0 9.68 4.33 9.68 9.679v127.6c0 8.621-10.422 12.943-16.523 6.843l-127.5989-127.6c-6.0924-6.092-1.778-16.522 6.843-16.522z" fill="#811730"/><path d="m194.964 195.124c5.341 0 9.679 4.33 9.679 9.68v127.599c0 8.621-10.422 12.943-16.522 6.843l-127.5998-127.599c-6.0923-6.093-1.7779-16.523 6.843-16.523z" fill="#801730"/><path d="m194.157 195.922c5.342 0 9.68 4.33 9.68 9.68v127.599c0 8.621-10.422 12.943-16.523 6.843l-127.5988-127.599c-6.0924-6.093-1.778-16.523 6.843-16.523z" fill="#7f1730"/><path d="m193.351 196.728c5.342 0 9.68 4.33 9.68 9.68v127.599c0 8.621-10.422 12.935-16.523 6.843l-127.5989-127.599c-6.0923-6.093-1.7779-16.523 6.8431-16.523z" fill="#7e172f"/><path d="m192.545 197.534c5.342 0 9.68 4.33 9.68 9.679v127.6c0 8.621-10.422 12.943-16.523 6.843l-127.5989-127.6c-6.0923-6.092-1.7779-16.522 6.843-16.522z" fill="#7d172f"/><path d="m191.748 198.34c5.341 0 9.679 4.33 9.679 9.68v127.599c0 8.621-10.422 12.943-16.522 6.843l-127.5997-127.599c-6.0924-6.093-1.778-16.523 6.843-16.523z" fill="#7c172f"/><path d="m190.942 199.138c5.341 0 9.679 4.33 9.679 9.68v127.599c0 8.621-10.422 12.943-16.522 6.843l-127.5998-127.599c-6.0923-6.093-1.7779-16.523 6.843-16.523z" fill="#7b172f"/><path d="m190.136 199.944c5.341 0 9.679 4.33 9.679 9.68v127.599c0 8.621-10.422 12.943-16.522 6.843l-127.5998-127.599c-6.0924-6.093-1.7779-16.523 6.843-16.523z" fill="#7a172e"/><path d="m189.329 200.75c5.342 0 9.68 4.33 9.68 9.68v127.599c0 8.621-10.422 12.943-16.523 6.843l-127.5988-127.599c-6.0924-6.093-1.7779-16.523 6.843-16.523z" fill="#79162e"/><path d="m188.531 201.556c5.342 0 9.68 4.33 9.68 9.68v127.599c0 8.621-10.423 12.943-16.523 6.843l-127.5991-127.599c-6.0923-6.093-1.7779-16.523 6.8431-16.523z" fill="#78162e"/><path d="m187.725 202.354c5.342 0 9.68 4.33 9.68 9.68v127.599c0 8.621-10.423 12.943-16.523 6.843l-127.5991-127.599c-6.0923-6.093-1.7779-16.523 6.843-16.523z" fill="#77162d"/><path d="m186.919 203.16c5.342 0 9.68 4.33 9.68 9.68v127.599c0 8.621-10.423 12.943-16.523 6.843l-127.5991-127.599c-6.0923-6.093-1.7779-16.523 6.843-16.523z" fill="#76162d"/><path d="m186.113 203.966c5.342 0 9.68 4.33 9.68 9.68v127.599c0 8.621-10.423 12.943-16.523 6.843l-127.5992-127.599c-6.0923-6.093-1.7779-16.523 6.8431-16.523z" fill="#75162d"/><path d="m185.315 204.772c5.342 0 9.68 4.33 9.68 9.68v127.599c0 8.621-10.422 12.943-16.523 6.843l-127.599-127.599c-6.0923-6.093-1.7779-16.523 6.843-16.523z" fill="#74162c"/><path d="m184.509 205.578c5.342 0 9.68 4.33 9.68 9.68v127.599c0 8.621-10.422 12.943-16.523 6.843l-127.599-127.599c-6.0924-6.093-1.7779-16.523 6.843-16.523z" fill="#73162c"/><path d="m183.703 206.376c5.342 0 9.68 4.33 9.68 9.68v127.599c0 8.621-10.423 12.943-16.523 6.843l-127.5991-127.599c-6.0923-6.093-1.7779-16.523 6.8431-16.523z" fill="#72162c"/><path d="m182.897 207.182c5.342 0 9.68 4.33 9.68 9.68v127.599c0 8.621-10.422 12.943-16.523 6.843l-127.599-127.599c-6.0923-6.093-1.7779-16.523 6.843-16.523z" fill="#71162c"/><path d="m182.099 207.988c5.342 0 9.68 4.33 9.68 9.68v127.599c0 8.621-10.422 12.943-16.523 6.843l-127.5989-127.599c-6.0924-6.093-1.778-16.523 6.843-16.523z" fill="#70162b"/><path d="m181.293 208.794c5.342 0 9.68 4.33 9.68 9.68v127.599c0 8.621-10.422 12.943-16.523 6.843l-127.599-127.599c-6.0923-6.093-1.7779-16.523 6.843-16.523z" fill="#6f162b"/><path d="m180.487 209.592c5.342 0 9.68 4.33 9.68 9.68v127.599c0 8.621-10.422 12.943-16.523 6.843l-127.5989-127.599c-6.0923-6.092-1.7779-16.523 6.843-16.523z" fill="#6e162b"/><path d="m179.681 210.398c5.342 0 9.68 4.33 9.68 9.68v127.599c0 8.621-10.422 12.943-16.523 6.843l-127.5989-127.599c-6.0923-6.093-1.7779-16.523 6.843-16.523z" fill="#6d152a"/><path d="m178.875 211.204c5.342 0 9.68 4.33 9.68 9.68v127.599c0 8.621-10.422 12.943-16.523 6.843l-127.5989-127.599c-6.0924-6.093-1.778-16.523 6.843-16.523z" fill="#6c152a"/><path d="m178.077 212.01c5.342 0 9.68 4.33 9.68 9.68v127.599c0 8.621-10.423 12.943-16.523 6.843l-127.5993-127.599c-6.0923-6.093-1.7779-16.523 6.843-16.523z" fill="#6b152a"/><path d="m177.271 212.808c5.342 0 9.68 4.33 9.68 9.68v127.599c0 8.621-10.423 12.943-16.523 6.843l-127.5992-127.599c-6.0923-6.092-1.7779-16.523 6.843-16.523z" fill="#6a1529"/><path d="m176.465 213.614c5.342 0 9.68 4.33 9.68 9.68v127.599c0 8.621-10.423 12.943-16.523 6.843l-127.5992-127.599c-6.0923-6.093-1.7779-16.523 6.843-16.523z" fill="#691529"/><path d="m175.659 214.42c5.342 0 9.68 4.33 9.68 9.68v127.599c0 8.621-10.423 12.944-16.523 6.843l-127.5992-127.599c-6.0924-6.092-1.778-16.523 6.843-16.523z" fill="#681529"/><path d="m174.861 215.226c5.342 0 9.68 4.33 9.68 9.68v127.599c0 8.621-10.423 12.943-16.523 6.843l-127.5991-127.599c-6.0923-6.092-1.7779-16.523 6.843-16.523z" fill="#671529"/><path d="m174.055 216.024c5.342 0 9.68 4.33 9.68 9.68v127.599c0 8.621-10.423 12.944-16.523 6.843l-127.5991-127.599c-6.0923-6.092-1.778-16.523 6.843-16.523z" fill="#661528"/><path d="m173.249 216.83c5.342 0 9.68 4.33 9.68 9.68v127.599c0 8.621-10.423 12.943-16.523 6.843l-127.5992-127.599c-6.0923-6.092-1.7779-16.523 6.8431-16.523z" fill="#651528"/><path d="m172.443 217.636c5.342 0 9.68 4.33 9.68 9.68v127.599c0 8.621-10.423 12.943-16.523 6.843l-127.5992-127.599c-6.0923-6.093-1.7779-16.523 6.843-16.523z" fill="#641528"/><path d="m171.645 218.442c5.342 0 9.68 4.33 9.68 9.68v127.599c0 8.621-10.423 12.943-16.523 6.843l-127.5994-127.599c-6.0923-6.092-1.7779-16.523 6.843-16.523z" fill="#631527"/><path d="m170.839 219.24c5.342 0 9.68 4.33 9.68 9.68v127.599c0 8.621-10.423 12.944-16.523 6.843l-127.5991-127.599c-6.0923-6.092-1.7779-16.523 6.8431-16.523z" fill="#621527"/><path d="m170.033 220.046c5.342 0 9.68 4.33 9.68 9.68v127.599c0 8.621-10.423 12.944-16.523 6.843l-127.5991-127.599c-6.0923-6.092-1.7779-16.523 6.843-16.523z" fill="#611527"/><path d="m169.227 220.852c5.342 0 9.68 4.331 9.68 9.68v127.599c0 8.621-10.423 12.944-16.523 6.843l-127.5991-127.599c-6.0924-6.092-1.7779-16.523 6.843-16.523z" fill="#601426"/><path d="m168.429 221.658c5.342 0 9.68 4.33 9.68 9.68v127.599c0 8.621-10.423 12.944-16.523 6.843l-127.5994-127.599c-6.0923-6.092-1.7779-16.523 6.8431-16.523z" fill="#5f1426"/><path d="m167.623 222.464c5.342 0 9.68 4.33 9.68 9.68v127.599c0 8.621-10.423 12.943-16.523 6.843l-127.5994-127.599c-6.0923-6.092-1.7779-16.523 6.843-16.523z" fill="#5e1426"/><path d="m166.817 223.262c5.342 0 9.68 4.33 9.68 9.68v127.599c0 8.621-10.423 12.944-16.523 6.843l-127.5994-127.599c-6.0923-6.092-1.7779-16.523 6.843-16.523z" fill="#5d1426"/><path d="m166.011 224.068c5.342 0 9.68 4.331 9.68 9.68v127.599c0 8.621-10.423 12.944-16.523 6.843l-127.5994-127.599c-6.0924-6.092-1.778-16.523 6.843-16.523z" fill="#5c1425"/><path d="m165.213 224.874c5.342 0 9.68 4.33 9.68 9.68v127.599c0 8.621-10.423 12.943-16.523 6.843l-127.5993-127.599c-6.0923-6.093-1.7779-16.523 6.843-16.523z" fill="#5b1425"/><path d="m164.407 225.68c5.342 0 9.68 4.33 9.68 9.68v127.599c0 8.621-10.423 12.944-16.523 6.843l-127.5993-127.599c-6.0924-6.092-1.7779-16.523 6.843-16.523z" fill="#5a1425"/><path d="m163.601 226.478c5.342 0 9.68 4.33 9.68 9.68v127.599c0 8.621-10.423 12.944-16.523 6.843l-127.5993-127.599c-6.0924-6.092-1.778-16.523 6.843-16.523z" fill="#591424"/><path d="m162.795 227.284c5.342 0 9.68 4.33 9.68 9.68v127.599c0 8.621-10.423 12.944-16.523 6.843l-127.5992-127.599c-6.0924-6.092-1.778-16.523 6.843-16.523z" fill="#581424"/><path d="m161.989 228.09c5.342 0 9.68 4.331 9.68 9.68v127.599c0 8.621-10.423 12.944-16.523 6.843l-127.5993-127.599c-6.0923-6.092-1.7779-16.523 6.843-16.523z" fill="#571424"/><path d="m161.191 228.896c5.341 0 9.679 4.33 9.679 9.68v127.599c0 8.621-10.422 12.944-16.522 6.843l-127.5996-127.599c-6.0924-6.092-1.778-16.523 6.843-16.523z" fill="#561424"/><path d="m160.385 229.694c5.341 0 9.679 4.331 9.679 9.68v127.599c0 8.621-10.422 12.944-16.522 6.843l-127.5997-127.599c-6.0923-6.092-1.7779-16.523 6.8431-16.523z" fill="#551423"/><path d="m159.579 230.5c5.342 0 9.68 4.33 9.68 9.68v127.599c0 8.621-10.423 12.944-16.523 6.843l-127.5992-127.599c-6.0923-6.092-1.7779-16.523 6.843-16.523z" fill="#541423"/><path d="m158.773 231.306c5.342 0 9.68 4.331 9.68 9.68v127.599c0 8.621-10.423 12.944-16.523 6.844l-127.5992-127.6c-6.0924-6.092-1.778-16.523 6.843-16.523z" fill="#531323"/><path d="m157.975 232.112c5.341 0 9.68 4.331 9.68 9.68v127.599c0 8.621-10.423 12.936-16.523 6.843l-127.5996-127.599c-6.0923-6.092-1.7779-16.523 6.843-16.523z" fill="#521322"/><path d="m157.169 232.91c5.342 0 9.68 4.331 9.68 9.68v127.6c0 8.62-10.423 12.943-16.523 6.843l-127.5995-127.6c-6.0923-6.092-1.7779-16.523 6.843-16.523z" fill="#511322"/><path d="m156.363 233.717c5.341 0 9.68 4.33 9.68 9.679v127.6c0 8.621-10.423 12.935-16.523 6.843l-127.5995-127.6c-6.0923-6.092-1.7779-16.522 6.843-16.522z" fill="#501322"/><path d="m155.557 234.522c5.341 0 9.68 4.331 9.68 9.68v127.6c0 8.62-10.423 12.943-16.523 6.843l-127.5995-127.6c-6.0924-6.092-1.778-16.523 6.843-16.523z" fill="#4f1321"/><path d="m154.759 235.328c5.342 0 9.68 4.331 9.68 9.68v127.599c0 8.621-10.423 12.944-16.523 6.843l-127.5994-127.599c-6.0923-6.092-1.7779-16.523 6.843-16.523z" fill="#4e1321"/><path d="m153.953 236.126c5.342 0 9.68 4.331 9.68 9.68v127.6c0 8.62-10.423 12.935-16.523 6.843l-127.5994-127.6c-6.0924-6.092-1.7779-16.523 6.843-16.523z" fill="#4d1321"/><path d="m153.147 236.932c5.342 0 9.68 4.331 9.68 9.68v127.599c0 8.621-10.423 12.944-16.523 6.843l-127.5995-127.599c-6.0923-6.092-1.7779-16.523 6.8431-16.523z" fill="#4c1321"/><path d="m152.341 237.738c5.342 0 9.68 4.331 9.68 9.68v127.599c0 8.621-10.423 12.944-16.523 6.843l-127.5995-127.599c-6.0923-6.092-1.7779-16.523 6.843-16.523z" fill="#4b1320"/><path d="m151.543 238.544c5.341 0 9.679 4.331 9.679 9.68v127.6c0 8.62-10.422 12.943-16.522 6.843l-127.5997-127.6c-6.0923-6.092-1.7779-16.523 6.843-16.523z" fill="#4a1320"/><path d="m150.737 239.343c5.341 0 9.679 4.33 9.679 9.679v127.6c0 8.621-10.422 12.943-16.522 6.843l-127.5997-127.6c-6.0924-6.092-1.7779-16.522 6.843-16.522z" fill="#491320"/><path d="m149.931 240.148c5.341 0 9.679 4.331 9.679 9.68v127.6c0 8.62-10.422 12.943-16.522 6.843l-127.5997-127.6c-6.09238-6.092-1.778-16.523 6.8429-16.523z" fill="#48131f"/><path d="m149.125 240.955c5.341 0 9.679 4.33 9.679 9.679v127.6c0 8.621-10.422 12.943-16.522 6.843l-127.5998-127.6c-6.09233-6.092-1.7779-16.522 6.843-16.522z" fill="#47121f"/><path d="m148.327 241.76c5.341 0 9.679 4.331 9.679 9.68v127.6c0 8.621-10.422 12.943-16.522 6.843l-127.5997-127.6c-6.09229-6.092-1.7779-16.523 6.8431-16.523z" fill="#46121f"/><path d="m147.521 242.566c5.341 0 9.679 4.331 9.679 9.68v127.6c0 8.62-10.422 12.943-16.522 6.843l-127.5997-127.6c-6.09231-6.092-1.7779-16.523 6.843-16.523z" fill="#45121e"/><path d="m146.715 243.365c5.341 0 9.679 4.33 9.679 9.679v127.6c0 8.621-10.422 12.943-16.522 6.843l-127.5997-127.6c-6.09234-6.092-1.7779-16.522 6.843-16.522z" fill="#44121e"/><path d="m145.909 244.171c5.341 0 9.679 4.33 9.679 9.679v127.6c0 8.621-10.422 12.943-16.522 6.843l-127.5997-127.6c-6.09238-6.092-1.77796-16.522 6.843-16.522z" fill="#43121e"/><path d="m145.111 244.977c5.341 0 9.68 4.33 9.68 9.679v127.6c0 8.621-10.423 12.943-16.523 6.843l-127.5996-127.6c-6.09232-6.092-1.7779-16.522 6.843-16.522z" fill="#42121e"/><path d="m144.305 245.783c5.341 0 9.679 4.33 9.679 9.679v127.6c0 8.621-10.422 12.943-16.522 6.843l-127.59962-127.599c-6.09234-6.093-1.77792-16.523 6.84302-16.523z" fill="#41121d"/><path d="m143.499 246.581c5.341 0 9.679 4.33 9.679 9.68v127.599c0 8.621-10.422 12.943-16.522 6.843l-127.59964-127.599c-6.09234-6.093-1.77792-16.523 6.84304-16.523z" fill="#40121d"/><path d="m142.693 247.386c5.341 0 9.68 4.331 9.68 9.68v127.6c0 8.62-10.423 12.943-16.523 6.843l-127.59955-127.6c-6.09234-6.092-1.77792-16.523 6.84305-16.523z" fill="#3f121d"/><path d="m141.887 248.193c5.341 0 9.68 4.33 9.68 9.679v127.6c0 8.621-10.423 12.943-16.523 6.843l-127.59959-127.6c-6.09234-6.092-1.77792-16.522 6.84299-16.522z" fill="#3e121c"/><path d="m141.088 248.999c5.342 0 9.68 4.33 9.68 9.679v127.6c0 8.621-10.422 12.943-16.523 6.843l-127.59891-127.6c-6.092336-6.092-1.77794-16.522 6.84301-16.522z" fill="#3d121c"/><path d="m140.282 249.797c5.342 0 9.68 4.33 9.68 9.679v127.6c0 8.621-10.422 12.943-16.523 6.843l-127.59896-127.6c-6.09234-6.092-1.77792-16.522 6.84306-16.522z" fill="#3c121c"/><path d="m139.476 250.603c5.342 0 9.68 4.33 9.68 9.679v127.6c0 8.621-10.422 12.943-16.523 6.843l-127.59886-127.6c-6.09234-6.092-1.77792-16.522 6.84306-16.522z" fill="#3b121b"/><path d="m138.67 251.409c5.342 0 9.68 4.33 9.68 9.679v127.6c0 8.621-10.422 12.943-16.523 6.843l-127.59888-127.6c-6.09233-6.092-1.77794-16.522 6.84298-16.522z" fill="#3a111b"/><path d="m137.872 252.215c5.342 0 9.68 4.33 9.68 9.679v127.6c0 8.621-10.422 12.943-16.523 6.843l-127.59886-127.6c-6.09234-6.092-1.77792-16.522 6.84306-16.522z" fill="#39111b"/><path d="m137.067 253.013c5.341 0 9.679 4.33 9.679 9.679v127.6c0 8.621-10.422 12.943-16.522 6.843l-127.59978-127.6c-6.09234-6.092-1.77792-16.522 6.84301-16.522z" fill="#38111b"/><path d="m136.261 253.819c5.341 0 9.679 4.33 9.679 9.68v127.599c0 8.621-10.422 12.943-16.522 6.843l-127.5998-127.599c-6.09234-6.093-1.7779177-16.523 6.84302-16.523z" fill="#37111a"/><path d="m135.454 254.625c5.342 0 9.68 4.33 9.68 9.68v127.599c0 8.621-10.422 12.943-16.523 6.843l-127.59883-127.599c-6.09234-6.093-1.777918-16.523 6.84302-16.523z" fill="#36111a"/><path d="m134.657 255.431c5.341 0 9.679 4.33 9.679 9.679v127.6c0 8.621-10.422 12.943-16.522 6.843l-127.599805-127.6c-6.092335-6.092-1.777915-16.522 6.843015-16.522z" fill="#35111a"/><path d="m133.851 256.229c5.341 0 9.679 4.33 9.679 9.68v127.599c0 8.621-10.422 12.943-16.522 6.843l-127.599712-127.599c-6.092338-6.093-1.777918-16.523 6.843022-16.523z" fill="#341119"/><path d="m133.045 257.035c5.341 0 9.679 4.33 9.679 9.68v127.599c0 8.621-10.422 12.943-16.522 6.843l-127.59976-127.599c-6.09233-6.093-1.77791-16.523 6.84302-16.523z" fill="#331119"/><path d="m132.239 257.841c5.341 0 9.679 4.33 9.679 9.68v127.599c0 8.621-10.422 12.943-16.522 6.843l-127.59977-127.599c-6.09234-6.093-1.77792-16.523 6.84301-16.523z" fill="#321119"/><path d="m131.44 258.647c5.342 0 9.68 4.33 9.68 9.68v127.599c0 8.621-10.422 12.943-16.523 6.843l-127.599-127.599c-6.09234-6.093-1.77792-16.523 6.84301-16.523z" fill="#311118"/><path d="m130.634 259.453c5.342 0 9.68 4.33 9.68 9.679v127.6c0 8.621-10.422 12.943-16.523 6.843l-127.59902-127.6c-6.09234-6.092-1.77792-16.522 6.84302-16.522z" fill="#301118"/><path d="m129.828 260.251c5.342 0 9.68 4.33 9.68 9.68v127.599c0 8.621-10.423 12.943-16.523 6.843l-127.59904-127.599c-6.09236-6.093-1.77794-16.523 6.84299-16.523z" fill="#2f1118"/><path d="m129.022 261.057c5.342 0 9.68 4.33 9.68 9.68v127.599c0 8.621-10.423 12.943-16.523 6.843l-127.59909-127.599c-6.09231-6.093-1.77792-16.523 6.84301-16.523z" fill="#2e1118"/><path d="m128.224 261.863c5.342 0 9.68 4.33 9.68 9.68v127.599c0 8.621-10.422 12.943-16.523 6.843l-127.59892-127.599c-6.09238-6.093-1.77794-16.523 6.842992-16.523z" fill="#2d1017"/><path d="m127.418 262.669c5.342 0 9.68 4.33 9.68 9.68v127.599c0 8.621-10.422 12.943-16.523 6.843l-127.59896-127.599c-6.09234-6.093-1.77792-16.523 6.843013-16.523z" fill="#2c1017"/><path d="m126.612 263.467c5.342 0 9.68 4.33 9.68 9.68v127.599c0 8.621-10.422 12.943-16.523 6.843l-127.59899-127.599c-6.09231-6.093-1.77792-16.523 6.843013-16.523z" fill="#2b1017"/><path d="m125.806 264.273c5.342 0 9.68 4.33 9.68 9.68v127.599c0 8.621-10.422 12.943-16.523 6.843l-127.59904-127.599c-6.09236-6.093-1.77796-16.523 6.84302-16.523z" fill="#2a1016"/><path d="m125 265.079c5.342 0 9.68 4.33 9.68 9.68v127.599c0 8.621-10.422 12.943-16.523 6.843l-127.59893-127.599c-6.09237-6.093-1.77787-16.523 6.84301-16.523z" fill="#291016"/><path d="m124.202 265.885c5.342 0 9.68 4.33 9.68 9.68v127.599c0 8.621-10.422 12.943-16.523 6.843l-127.5989-127.599c-6.0924-6.093-1.7779-16.523 6.843-16.523z" fill="#281016"/><path d="m123.396 266.683c5.342 0 9.68 4.33 9.68 9.68v127.599c0 8.621-10.422 12.943-16.523 6.843l-127.5989-127.599c-6.0924-6.092-1.778-16.523 6.84298-16.523z" fill="#271015"/><path d="m122.59 267.489c5.342 0 9.68 4.33 9.68 9.68v127.599c0 8.621-10.422 12.943-16.523 6.843l-127.599-127.599c-6.0923-6.093-1.7779-16.523 6.84305-16.523z" fill="#261015"/><path d="m121.784 268.295c5.342 0 9.68 4.33 9.68 9.68v127.599c0 8.621-10.422 12.943-16.523 6.843l-127.5989-127.599c-6.0923-6.093-1.7779-16.523 6.84303-16.523z" fill="#251015"/><path d="m120.986 269.101c5.342 0 9.68 4.33 9.68 9.68v127.599c0 8.621-10.423 12.943-16.523 6.843l-127.5992-127.599c-6.0924-6.092-1.7779-16.523 6.843-16.523z" fill="#241015"/><path d="m120.18 269.899c5.342 0 9.68 4.33 9.68 9.68v127.599c0 8.621-10.423 12.944-16.523 6.843l-127.5993-127.599c-6.0923-6.092-1.7779-16.523 6.84306-16.523z" fill="#231014"/><path d="m119.374 270.705c5.342 0 9.68 4.33 9.68 9.68v127.599c0 8.621-10.423 12.943-16.523 6.843l-127.5992-127.599c-6.0923-6.092-1.7779-16.523 6.84306-16.523z" fill="#221014"/><path d="m118.568 271.511c5.342 0 9.68 4.33 9.68 9.68v127.599c0 8.621-10.423 12.943-16.523 6.843l-127.5992-127.599c-6.0923-6.093-1.7779-16.523 6.84302-16.523z" fill="#210f14"/><path d="m117.77 272.317c5.342 0 9.68 4.33 9.68 9.68v127.599c0 8.621-10.423 12.943-16.523 6.843l-127.5992-127.599c-6.0923-6.093-1.7779-16.523 6.84306-16.523z" fill="#200f13"/><path d="m116.964 273.115c5.342 0 9.68 4.33 9.68 9.68v127.599c0 8.621-10.423 12.943-16.523 6.843l-127.5992-127.599c-6.0923-6.093-1.7779-16.523 6.843-16.523z" fill="#1f0f13"/><path d="m116.158 273.921c5.342 0 9.68 4.33 9.68 9.68v127.599c0 8.621-10.423 12.943-16.523 6.843l-127.5991-127.599c-6.0923-6.092-1.7779-16.523 6.843-16.523z" fill="#1e0f13"/><path d="m115.352 274.727c5.342 0 9.68 4.33 9.68 9.68v127.599c0 8.621-10.423 12.943-16.523 6.843l-127.5991-127.599c-6.0924-6.092-1.7779-16.523 6.843-16.523z" fill="#1d0f12"/><path d="m114.554 275.533c5.342 0 9.68 4.33 9.68 9.68v127.599c0 8.621-10.423 12.944-16.523 6.843l-127.5995-127.599c-6.0923-6.092-1.7779-16.523 6.8431-16.523z" fill="#1c0f12"/><path d="m113.748 276.331c5.342 0 9.68 4.33 9.68 9.68v127.599c0 8.621-10.422 12.943-16.523 6.843l-127.599-127.599c-6.0923-6.092-1.7779-16.523 6.843-16.523z" fill="#1b0f12"/><path d="m112.942 277.137c5.342 0 9.68 4.33 9.68 9.68v127.599c0 8.621-10.422 12.944-16.523 6.843l-127.5991-127.599c-6.0923-6.092-1.7779-16.523 6.8431-16.523z" fill="#1a0f12"/><path d="m112.136 277.943c5.342 0 9.68 4.33 9.68 9.68v127.599c0 8.621-10.423 12.943-16.523 6.843l-127.5991-127.599c-6.0923-6.092-1.7779-16.523 6.843-16.523z" fill="#190f11"/><path d="m111.338 278.749c5.342 0 9.68 4.33 9.68 9.68v127.599c0 8.621-10.423 12.944-16.523 6.843l-127.5994-127.599c-6.0924-6.092-1.7779-16.523 6.843-16.523z" fill="#180f11"/><path d="m110.532 279.555c5.342 0 9.68 4.33 9.68 9.68v127.599c0 8.621-10.423 12.944-16.523 6.843l-127.5993-127.599c-6.0924-6.092-1.7779-16.523 6.843-16.523z" fill="#170f11"/><path d="m109.726 280.353c5.342 0 9.68 4.33 9.68 9.68v127.599c0 8.621-10.423 12.944-16.523 6.843l-127.5993-127.599c-6.0924-6.092-1.778-16.523 6.843-16.523z" fill="#160f10"/><path d="m108.92 281.159c5.342 0 9.68 4.33 9.68 9.68v127.599c0 8.621-10.423 12.944-16.523 6.843l-127.5994-127.599c-6.0923-6.092-1.7779-16.523 6.843-16.523z" fill="#150f10"/><path d="m108.122 281.965c5.342 0 9.68 4.33 9.68 9.68v127.599c0 8.621-10.423 12.943-16.523 6.843l-127.5992-127.599c-6.0924-6.092-1.7779-16.523 6.843-16.523z" fill="#140e10"/><path d="m107.316 282.771c5.342 0 9.68 4.33 9.68 9.68v127.599c0 8.621-10.423 12.943-16.523 6.843l-127.5993-127.599c-6.0923-6.093-1.7779-16.523 6.843-16.523z" fill="#130e0f"/><path d="m106.51 283.569c5.342 0 9.68 4.331 9.68 9.68v127.599c0 8.621-10.423 12.944-16.523 6.843l-127.5993-127.599c-6.0923-6.092-1.7779-16.523 6.843-16.523z" fill="#120e0f"/><path d="m105.704 284.375c5.342 0 9.68 4.33 9.68 9.68v127.599c0 8.621-10.423 12.944-16.523 6.843l-127.5993-127.599c-6.0923-6.092-1.7779-16.523 6.843-16.523z" fill="#110e0f"/><path d="m104.898 285.181c5.342 0 9.68 4.33 9.68 9.68v127.599c0 8.621-10.423 12.944-16.523 6.843l-127.5994-127.599c-6.0923-6.092-1.7779-16.523 6.8431-16.523z" fill="#100e0f"/><path d="m104.1 285.987c5.341 0 9.68 4.331 9.68 9.68v127.599c0 8.621-10.423 12.944-16.5233 6.843l-127.5993-127.599c-6.0923-6.092-1.7779-16.523 6.843-16.523z" fill="#0f0e0e"/><path d="m103.294 286.785c5.341 0 9.68 4.331 9.68 9.68v127.599c0 8.621-10.423 12.944-16.5233 6.844l-127.5993-127.6c-6.0923-6.092-1.7779-16.523 6.843-16.523z" fill="#0e0e0e"/></g></svg>