<svg fill="none" height="300" viewBox="0 0 300 300" width="300" xmlns="http://www.w3.org/2000/svg" xmlns:xlink="http://www.w3.org/1999/xlink"><clipPath id="a"><path d="m0 0h615.755v615.755h-615.755z" transform="matrix(0 1 -1 0 498.755 -103)"/></clipPath><g clip-path="url(#a)"><path d="m498.755-85.5086c0-9.6667-7.825-17.4914-17.492-17.4914h-230.572c-15.578 0-23.389 18.8336-12.366 29.8568l230.573 230.5722c11.023 11.009 29.857 3.213 29.857-12.365z" fill="#8950ff"/><path d="m497.299-84.0667c0-9.6524-7.825-17.4913-17.492-17.4913h-230.572c-15.578 0-23.389 18.8335-12.366 29.8566l230.587 230.5864c11.009 11.009 29.857 3.213 29.857-12.365v-230.5867z" fill="#8850fe"/><path d="m495.841-82.6109c0-9.6524-7.825-17.4911-17.491-17.4911h-230.573c-15.578 0-23.388 18.8333-12.365 29.8565l230.587 230.5725c11.009 11.009 29.856 3.213 29.856-12.365v-230.5729z" fill="#884ffd"/><path d="m494.401-81.1543c0-9.6524-7.824-17.4915-17.491-17.4915h-230.573c-15.578 0-23.388 18.8336-12.365 29.8568l230.572 230.572c11.009 11.009 29.857 3.213 29.857-12.365z" fill="#874ffc"/><path d="m492.944-79.6978c0-9.6524-7.825-17.4914-17.492-17.4914h-230.572c-15.578 0-23.374 18.8336-12.365 29.8567l230.572 230.5725c11.009 11.009 29.857 3.213 29.857-12.365z" fill="#874ffb"/><path d="m491.488-78.2559c0-9.6524-7.825-17.4914-17.492-17.4914h-230.572c-15.578 0-23.389 18.8336-12.366 29.8567l230.587 230.5866c11.009 11.009 29.857 3.213 29.857-12.365v-230.5869z" fill="#864ffa"/><path d="m490.03-76.7994c0-9.6524-7.824-17.4914-17.491-17.4914h-230.572c-15.579 0-23.389 18.8336-12.366 29.8568l230.587 230.572c11.009 11.009 29.857 3.213 29.857-12.365v-230.5724z" fill="#864ef9"/><path d="m488.587-75.3426c0-9.6524-7.824-17.4914-17.491-17.4914h-230.573c-15.578 0-23.388 18.8336-12.365 29.8568l230.573 230.5722c11.008 11.009 29.856 3.213 29.856-12.365z" fill="#854ef8"/><path d="m487.133-73.886c0-9.6524-7.825-17.4914-17.491-17.4914l-230.573-.0001c-15.578 0-23.388 18.8337-12.365 29.8568l230.572 230.5727c11.009 11.009 29.857 3.213 29.857-12.366z" fill="#854ef7"/><path d="m485.677-72.4312c0-9.6524-7.825-17.4914-17.492-17.4914h-230.572c-15.578 0-23.389 18.8336-12.365 29.8567l230.586 230.5729c11.009 11.009 29.857 3.212 29.857-12.366v-230.5722z" fill="#844ef6"/><path d="m484.219-70.9883c0-9.6524-7.824-17.4914-17.491-17.4914h-230.572c-15.578 0-23.389 18.8336-12.366 29.8567l230.587 230.573c11.009 11.008 29.857 3.212 29.857-12.366v-230.5723z" fill="#844df5"/><path d="m482.776-69.531c0-9.6525-7.824-17.4915-17.491-17.4915h-230.572c-15.578 0-23.389 18.8336-12.366 29.8568l230.573 230.5727c11.009 11.009 29.856 3.213 29.856-12.366z" fill="#834df4"/><path d="m481.319-68.0745c0-9.6524-7.825-17.4914-17.491-17.4914h-230.573c-15.578 0-23.388 18.8336-12.365 29.8567l230.572 230.5722c11.009 11.009 29.857 3.213 29.857-12.365z" fill="#834df3"/><path d="m479.865-66.618c0-9.6524-7.825-17.4914-17.492-17.4914h-230.572c-15.578 0-23.389 18.8336-12.365 29.8568l230.572 230.5726c11.009 11.009 29.857 3.213 29.857-12.365z" fill="#824cf2"/><path d="m478.409-65.1761c0-9.6524-7.825-17.4914-17.492-17.4914h-230.572c-15.578 0-23.389 18.8336-12.366 29.8568l230.587 230.5727c11.009 11.009 29.857 3.212 29.857-12.366v-230.5721z" fill="#824cf1"/><path d="m476.966-63.7203c0-9.6524-7.825-17.4914-17.492-17.4914h-230.572c-15.578 0-23.389 18.8336-12.366 29.8568l230.573 230.5729c11.009 11.008 29.857 3.212 29.857-12.366z" fill="#814cf0"/><path d="m475.508-62.2637c0-9.6524-7.824-17.4914-17.491-17.4914h-230.573c-15.578 0-23.374 18.8336-12.365 29.8567l230.573 230.5724c11.008 11.009 29.856 3.213 29.856-12.365z" fill="#814cef"/><path d="m474.054-60.8062c0-9.6524-7.825-17.4914-17.491-17.4914h-230.573c-15.578 0-23.374 18.8336-12.365 29.8567l230.572 230.5729c11.009 11.009 29.857 3.212 29.857-12.366z" fill="#804bee"/><path d="m472.598-59.3643c0-9.6524-7.825-17.4914-17.492-17.4914h-230.572c-15.578 0-23.374 18.8336-12.365 29.8567l230.586 230.573c11.009 11.008 29.857 3.212 29.857-12.366v-230.5723z" fill="#804bed"/><path d="m471.155-57.9085c0-9.6524-7.825-17.4914-17.492-17.4914h-230.572c-15.578 0-23.374 18.8336-12.365 29.8568l230.572 230.5721c11.009 11.009 29.857 3.213 29.857-12.365z" fill="#7f4bec"/><path d="m469.697-56.4527c0-9.6524-7.824-17.4914-17.491-17.4914h-230.572c-15.579 0-23.389 18.8336-12.366 29.8568l230.573 230.5723c11.008 11.009 29.856 3.213 29.856-12.365z" fill="#7f4beb"/><path d="m468.24-54.9954c0-9.6524-7.825-17.4914-17.491-17.4914h-230.573c-15.578 0-23.388 18.8336-12.365 29.8567l230.572 230.5721c11.009 11.009 29.857 3.213 29.857-12.365z" fill="#7e4aea"/><path d="m466.784-53.5535c0-9.6524-7.825-17.4914-17.492-17.4914h-230.572c-15.578 0-23.389 18.8336-12.365 29.8567l230.586 230.5872c11.009 11.008 29.857 3.212 29.857-12.366v-230.5865z" fill="#7e4ae9"/><path d="m465.327-52.097c0-9.6524-7.825-17.4914-17.492-17.4914h-230.572c-15.578 0-23.389 18.8336-12.366 29.8568l230.587 230.5726c11.009 11.009 29.857 3.213 29.857-12.365v-230.573z" fill="#7d4ae8"/><path d="m463.887-50.6412c0-9.6524-7.825-17.4914-17.492-17.4914h-230.572c-15.578 0-23.389 18.8336-12.366 29.8568l230.573 230.5728c11.009 11.009 29.857 3.212 29.857-12.366z" fill="#7d49e7"/><path d="m462.429-49.1832c0-9.6524-7.825-17.4914-17.491-17.4914h-230.573c-15.578 0-23.388 18.8336-12.365 29.8568l230.572 230.5728c11.009 11.009 29.857 3.212 29.857-12.366z" fill="#7c49e6"/><path d="m460.973-47.742c0-9.6524-7.825-17.4914-17.491-17.4914h-230.573c-15.578 0-23.388 18.8336-12.365 29.8568l230.587 230.5866c11.008 11.009 29.856 3.213 29.856-12.365v-230.587z" fill="#7c49e5"/><path d="m459.516-46.2854c0-9.6524-7.825-17.4915-17.492-17.4915h-230.572c-15.578 0-23.389 18.8336-12.366 29.8568l230.587 230.5721c11.009 11.009 29.857 3.213 29.857-12.365v-230.5724z" fill="#7b49e4"/><path d="m458.076-44.8287c0-9.6524-7.825-17.4914-17.492-17.4914h-230.572c-15.578 0-23.374 18.8336-12.366 29.8568l230.573 230.5723c11.009 11.009 29.857 3.213 29.857-12.365z" fill="#7b48e3"/><path d="m456.618-43.3721c0-9.6524-7.824-17.4914-17.491-17.4914h-230.573c-15.578 0-23.388 18.8336-12.365 29.8567l230.573 230.5728c11.009 11.009 29.856 3.212 29.856-12.366z" fill="#7a48e2"/><path d="m455.162-41.931c0-9.6524-7.825-17.4914-17.491-17.4914h-230.573c-15.578 0-23.374 18.8336-12.365 29.8568l230.587 230.5866c11.008 11.009 29.856 3.213 29.856-12.365v-230.587z" fill="#7a48e1"/><path d="m453.705-40.4744c0-9.6524-7.825-17.4914-17.492-17.4914h-230.572c-15.578 0-23.389 18.8336-12.365 29.8567l230.586 230.5721c11.009 11.009 29.857 3.213 29.857-12.365v-230.5724z" fill="#7948e0"/><path d="m452.265-39.0171c0-9.6524-7.825-17.4914-17.492-17.4914l-230.572-.0001c-15.578 0-23.374 18.8337-12.365 29.8568l230.572 230.5728c11.009 11.009 29.857 3.212 29.857-12.366z" fill="#7947df"/><path d="m450.807-37.5606c0-9.6524-7.824-17.4914-17.491-17.4914h-230.572c-15.578 0-23.389 18.8336-12.366 29.8568l230.573 230.5722c11.009 11.009 29.856 3.213 29.856-12.365z" fill="#7847de"/><path d="m449.35-36.1048c0-9.6524-7.825-17.4914-17.491-17.4914h-230.573c-15.578 0-23.374 18.8336-12.365 29.8568l230.572 230.5724c11.009 11.009 29.857 3.213 29.857-12.365z" fill="#7847dd"/><path d="m447.894-34.6629c0-9.6524-7.825-17.4914-17.491-17.4914h-230.573c-15.578 0-23.388 18.8336-12.365 29.8568l230.586 230.5725c11.009 11.009 29.857 3.213 29.857-12.365v-230.5729z" fill="#7746dc"/><path d="m446.451-33.2063c0-9.6524-7.825-17.4915-17.491-17.4915h-230.573c-15.578 0-23.388 18.8336-12.365 29.8568l230.572 230.572c11.009 11.009 29.857 3.213 29.857-12.365z" fill="#7746db"/><path d="m444.997-31.7505c0-9.6524-7.825-17.4914-17.492-17.4914l-230.572-.0001c-15.578 0-23.389 18.8337-12.366 29.8568l230.573 230.5722c11.009 11.009 29.857 3.213 29.857-12.365z" fill="#7646da"/><path d="m443.539-30.293c0-9.6524-7.824-17.4914-17.491-17.4914h-230.573c-15.578 0-23.388 18.8336-12.365 29.8567l230.573 230.5727c11.008 11.009 29.856 3.213 29.856-12.366z" fill="#7646d9"/><path d="m442.083-28.8511c0-9.6524-7.825-17.4914-17.491-17.4914h-230.573c-15.578 0-23.388 18.8336-12.365 29.8567l230.587 230.5728c11.009 11.009 29.856 3.212 29.856-12.366v-230.5721z" fill="#7545d8"/><path d="m440.64-27.3946c0-9.6524-7.825-17.4914-17.491-17.4914h-230.573c-15.578 0-23.374 18.8336-12.365 29.8568l230.572 230.5722c11.009 11.009 29.857 3.213 29.857-12.365z" fill="#7545d7"/><path d="m439.183-25.9388c0-9.6524-7.825-17.4914-17.492-17.4914h-230.572c-15.578 0-23.389 18.8336-12.366 29.8568l230.573 230.5724c11.009 11.009 29.857 3.213 29.857-12.365z" fill="#7445d6"/><path d="m437.728-24.4815c0-9.6524-7.824-17.4914-17.491-17.4914h-230.572c-15.579 0-23.375 18.8336-12.366 29.8568l230.573 230.5721c11.008 11.009 29.856 3.213 29.856-12.365z" fill="#7444d5"/><path d="m436.272-23.0403c0-9.6524-7.825-17.4914-17.491-17.4914h-230.573c-15.578 0-23.388 18.8336-12.365 29.8567l230.587 230.587c11.009 11.009 29.856 3.212 29.856-12.366v-230.5863z" fill="#7344d4"/><path d="m434.829-21.5831c0-9.6524-7.825-17.4914-17.491-17.4914h-230.573c-15.578 0-23.374 18.8336-12.365 29.85679l230.572 230.57271c11.009 11.009 29.857 3.212 29.857-12.366z" fill="#7344d3"/><path d="m433.372-20.1272c0-9.6524-7.825-17.4915-17.492-17.4915h-230.572c-15.578 0-23.389 18.8336-12.365 29.8568l230.572 230.5729c11.009 11.008 29.857 3.212 29.857-12.366z" fill="#7244d2"/><path d="m431.917-18.67c0-9.6524-7.824-17.4914-17.491-17.4914h-230.573c-15.578 0-23.388 18.8336-12.365 29.85678l230.573 230.57262c11.008 11.009 29.856 3.213 29.856-12.365z" fill="#7243d1"/><path d="m430.461-17.2288c0-9.6524-7.824-17.4914-17.491-17.4914h-230.572c-15.579 0-23.389 18.8336-12.366 29.85674l230.587 230.58646c11.009 11.009 29.857 3.213 29.857-12.365v-230.5868z" fill="#7143d0"/><path d="m429.004-15.7706c0-9.6524-7.825-17.4914-17.491-17.4914h-230.573c-15.578 0-23.388 18.8336-12.365 29.85679l230.587 230.57221c11.008 11.009 29.856 3.213 29.856-12.365v-230.5726z" fill="#7143cf"/><path d="m427.561-14.3157c0-9.6524-7.825-17.4914-17.491-17.4914h-230.573c-15.578 0-23.388 18.8336-12.365 29.85672l230.572 230.57238c11.009 11.009 29.857 3.213 29.857-12.365z" fill="#7043ce"/><path d="m426.104-12.8606c0-9.6524-7.825-17.4915-17.492-17.4915h-230.572c-15.578 0-23.389 18.8336-12.366 29.856802l230.573 230.572298c11.009 11.009 29.857 3.213 29.857-12.365z" fill="#6f42cd"/><path d="m424.647-11.417c0-9.6524-7.824-17.4914-17.491-17.4914l-230.572-.0001c-15.579 0-23.389 18.8337-12.366 29.856811l230.587 230.586689c11.009 11.009 29.857 3.213 29.857-12.365v-230.587z" fill="#6f42cc"/><path d="m423.193-9.95976c0-9.65244-7.824-17.49144-17.491-17.49144h-230.573c-15.578 0-23.388 18.83362-12.365 29.85678l230.587 230.57242c11.009 11.009 29.857 3.213 29.857-12.365v-230.57276z" fill="#6e42cb"/><path d="m421.75-8.50395c0-9.65245-7.825-17.49145-17.491-17.49145h-230.573c-15.578 0-23.388 18.83363-12.365 29.85679l230.572 230.57261c11.009 11.009 29.857 3.213 29.857-12.365z" fill="#6e41ca"/><path d="m420.293-7.04741c0-9.65239-7.825-17.49139-17.492-17.49139h-230.572c-15.578 0-23.389 18.83358-12.365 29.85674l230.572 230.57206c11.009 11.009 29.857 3.213 29.857-12.365z" fill="#6d41c9"/><path d="m418.837-5.59233c0-9.65237-7.825-17.49137-17.492-17.49137l-230.572-.0001c-15.578 0-23.389 18.83365-12.366 29.85681l230.587 230.57299c11.009 11.008 29.857 3.212 29.857-12.366v-230.57233z" fill="#6d41c8"/><path d="m417.379-4.14896c0-9.65244-7.824-17.49144-17.491-17.49144h-230.573c-15.578 0-23.388 18.83362-12.365 29.85678l230.587 230.57262c11.009 11.009 29.857 3.213 29.857-12.365v-230.57296z" fill="#6c41c7"/><path d="m415.939-2.69243c0-9.65237-7.824-17.49137-17.491-17.49137h-230.573c-15.578 0-23.388 18.83356-12.365 29.85672l230.573 230.57208c11.008 11.009 29.856 3.213 29.856-12.365z" fill="#6c40c6"/><path d="m414.482-1.23589c0-9.65241-7.825-17.49141-17.491-17.49141h-230.573c-15.578 0-23.388 18.8336-12.365 29.8568l230.572 230.5725c11.009 11.009 29.857 3.213 29.857-12.365z" fill="#6b40c5"/><path d="m413.025.220903c0-9.652403-7.825-17.491403-17.492-17.491403h-230.572c-15.578 0-23.389 18.83358-12.366 29.8567l230.573 230.5728c11.009 11.009 29.857 3.212 29.857-12.366z" fill="#6b40c4"/><path d="m411.568 1.66183c0-9.65241-7.824-17.49143-17.491-17.49143h-230.573c-15.578 0-23.388 18.83361-12.365 29.8568l230.587 230.5728c11.009 11.009 29.857 3.212 29.857-12.366v-230.57217z" fill="#6a40c3"/><path d="m410.128 3.11861c0-9.65241-7.824-17.49141-17.491-17.49141h-230.572c-15.579 0-23.389 18.8336-12.366 29.8568l230.573 230.572c11.009 11.009 29.856 3.213 29.856-12.365z" fill="#6a3fc2"/><path d="m408.671 4.57515c0-9.65241-7.825-17.49145-17.491-17.49145h-230.573c-15.578 0-23.388 18.83364-12.365 29.8568l230.572 230.5725c11.009 11.009 29.857 3.213 29.857-12.365z" fill="#693fc1"/><path d="m407.214 6.03169c0-9.6524-7.825-17.49139-17.492-17.49139h-230.572c-15.578 0-23.389 18.83357-12.366 29.8567l230.573 230.573c11.009 11.008 29.857 3.212 29.857-12.366z" fill="#693fc0"/><path d="m405.758 7.47432c0-9.6524-7.825-17.49142-17.492-17.49142h-230.572c-15.578 0-23.375 18.8336-12.366 29.8568l230.587 230.5863c11.009 11.009 29.857 3.213 29.857-12.365v-230.58668z" fill="#683ebf"/><path d="m404.314 8.93013c0-9.652402-7.824-17.49141-17.491-17.49141l-230.572-.00001c-15.579 0-23.389 18.83359-12.366 29.85679l230.573 230.5725c11.009 11.009 29.856 3.213 29.856-12.365z" fill="#683ebe"/><path d="m402.857 10.3867c0-9.652429-7.825-17.49144-17.491-17.49144l-230.573-.00001c-15.578 0-23.388 18.83365-12.365 29.85675l230.572 230.573c11.009 11.008 29.857 3.212 29.857-12.366z" fill="#673ebd"/><path d="m401.403 11.8418c0-9.65245-7.825-17.49146-17.491-17.49146l-230.573-.00001c-15.578 0-23.388 18.83357-12.365 29.85677l230.572 230.5729c11.009 11.008 29.857 3.212 29.857-12.366z" fill="#673ebc"/><path d="m399.947 13.2851c0-9.65239-7.825-17.4914-17.492-17.4914l-230.572-.00001c-15.578 0-23.389 18.83361-12.366 29.85681l230.587 230.5865c11.009 11.009 29.857 3.213 29.857-12.365v-230.5869z" fill="#663dbb"/><path d="m398.489 14.7417c0-9.65245-7.824-17.49146-17.491-17.49146l-230.573-.00001c-15.578 0-23.388 18.83357-12.365 29.85677l230.587 230.573c11.009 11.008 29.857 3.212 29.857-12.366v-230.5723z" fill="#663dba"/><path d="m397.046 16.1984c0-9.65236-7.824-17.49137-17.491-17.49137l-230.573-.00001c-15.578 0-23.388 18.83358-12.365 29.85678l230.572 230.5722c11.009 11.009 29.857 3.213 29.857-12.365z" fill="#653db9"/><path d="m395.592 17.654c0-9.65239-7.825-17.491403-17.491-17.491403l-230.573-.00001c-15.578-.000001-23.388 18.833613-12.365 29.856813l230.572 230.5726c11.009 11.009 29.857 3.213 29.857-12.365z" fill="#653db8"/><path d="m394.136 19.0961c0-9.65236-7.825-17.49136-17.492-17.49136l-230.572-.00001c-15.578-.00001-23.389 18.83357-12.365 29.85677l230.586 230.5865c11.009 11.009 29.857 3.213 29.857-12.365v-230.5869z" fill="#643cb7"/><path d="m392.677 20.5534c0-9.6524-7.824-17.49139-17.491-17.49139l-230.573-.00001c-15.578 0-23.388 18.8336-12.365 29.8568l230.573 230.5722c11.008 11.009 29.856 3.213 29.856-12.365z" fill="#643cb6"/><path d="m391.235 22.01c0-9.6524-7.824-17.49145-17.491-17.49145l-230.572-.00001c-15.578 0-23.389 18.83356-12.366 29.85676l230.573 230.5727c11.009 11.009 29.856 3.213 29.856-12.366z" fill="#633cb5"/><path d="m389.781 23.4658c0-9.6524-7.824-17.49144-17.491-17.49144l-230.573-.00001c-15.578 0-23.388 18.83365-12.365 29.85675l230.572 230.5729c11.009 11.008 29.857 3.212 29.857-12.366z" fill="#633bb4"/><path d="m388.324 24.923c0-9.6524-7.825-17.49136-17.492-17.49136l-230.572-.00001c-15.578 0-23.389 18.83357-12.365 29.85677l230.572 230.5726c11.009 11.009 29.857 3.213 29.857-12.365z" fill="#623bb3"/><path d="m386.866 26.3642c0-9.6524-7.824-17.4914-17.491-17.4914l-230.572-.00001c-15.579 0-23.389 18.83361-12.366 29.85681l230.573 230.5724c11.009 11.009 29.856 3.213 29.856-12.365z" fill="#623bb2"/><path d="m385.425 27.8215c0-9.6524-7.825-17.4914-17.492-17.4914h-230.572c-15.578 0-23.375 18.8336-12.366 29.8567l230.573 230.5722c11.009 11.009 29.857 3.213 29.857-12.365z" fill="#613bb1"/><path d="m383.967 29.2773c0-9.6524-7.824-17.4914-17.491-17.4914h-230.573c-15.578 0-23.388 18.8336-12.365 29.8568l230.573 230.5723c11.008 11.009 29.856 3.213 29.856-12.365z" fill="#613ab0"/><path d="m382.513 30.7338c0-9.6524-7.825-17.4914-17.491-17.4914h-230.573c-15.578 0-23.374 18.8336-12.365 29.8568l230.572 230.5728c11.009 11.009 29.857 3.212 29.857-12.366z" fill="#603aaf"/><path d="m381.056 32.1757c0-9.6524-7.825-17.4914-17.492-17.4914h-230.572c-15.578 0-23.389 18.8336-12.366 29.8568l230.573 230.5729c11.009 11.008 29.857 3.212 29.857-12.366z" fill="#603aae"/><path d="m379.614 33.6325c0-9.6524-7.825-17.4914-17.492-17.4914h-230.572c-15.578 0-23.389 18.8336-12.365 29.8568l230.572 230.5721c11.009 11.009 29.857 3.213 29.857-12.365z" fill="#5f3aad"/><path d="m378.156 35.0891c0-9.6524-7.824-17.4914-17.491-17.4914l-230.573-.0001c-15.578 0-23.388 18.8337-12.365 29.8568l230.573 230.5726c11.008 11.009 29.856 3.213 29.856-12.365z" fill="#5f39ac"/><path d="m376.699 36.5456c0-9.6524-7.825-17.4914-17.491-17.4914h-230.573c-15.578 0-23.388 18.8336-12.365 29.8567l230.572 230.5721c11.009 11.009 29.857 3.213 29.857-12.365z" fill="#5e39ab"/><path d="m375.245 37.9875c0-9.6524-7.825-17.4914-17.492-17.4914h-230.572c-15.578 0-23.389 18.8336-12.366 29.8568l230.573 230.5721c11.009 11.009 29.857 3.213 29.857-12.365z" fill="#5e39aa"/><path d="m373.803 39.444c0-9.6524-7.825-17.4914-17.492-17.4914h-230.572c-15.578 0-23.389 18.8336-12.365 29.8568l230.572 230.5726c11.009 11.009 29.857 3.213 29.857-12.365z" fill="#5d38a9"/><path d="m372.346 40.8999c0-9.6524-7.825-17.4915-17.492-17.4915h-230.572c-15.578 0-23.389 18.8336-12.366 29.8568l230.573 230.5728c11.009 11.009 29.857 3.212 29.857-12.366z" fill="#5d38a8"/><path d="m370.888 42.3571c0-9.6524-7.825-17.4914-17.491-17.4914h-230.573c-15.578 0-23.3882 18.8336-12.365 29.8568l230.572 230.5725c11.009 11.009 29.857 3.213 29.857-12.365z" fill="#5c38a7"/><path d="m369.434 43.799c0-9.6524-7.825-17.4914-17.491-17.4914h-230.573c-15.578 0-23.3742 18.8336-12.365 29.8568l230.572 230.5726c11.009 11.009 29.857 3.213 29.857-12.365z" fill="#5c38a6"/><path d="m367.989 45.2548c0-9.6524-7.825-17.4914-17.492-17.4914h-230.572c-15.578 0-23.3885 18.8336-12.365 29.8568l230.572 230.5728c11.009 11.009 29.857 3.212 29.857-12.366z" fill="#5b37a5"/><path d="m366.535 46.7114c0-9.6524-7.825-17.4914-17.492-17.4914h-230.572c-15.578 0-23.3744 18.8336-12.366 29.8567l230.573 230.5723c11.009 11.009 29.857 3.213 29.857-12.365z" fill="#5b37a4"/><path d="m365.077 48.1689c0-9.6524-7.824-17.4914-17.491-17.4914h-230.573c-15.578 0-23.388 18.8336-12.365 29.8567l230.573 230.5728c11.009 11.009 29.856 3.212 29.856-12.366z" fill="#5a37a3"/><path d="m363.62 49.6101c0-9.6524-7.825-17.4914-17.491-17.4914l-230.573-.0001c-15.578 0-23.3741 18.8337-12.365 29.8568l230.572 230.5726c11.009 11.009 29.857 3.213 29.857-12.365z" fill="#5a37a2"/><path d="m362.166 51.0659c0-9.6524-7.825-17.4914-17.492-17.4914h-230.572c-15.5782 0-23.3886 18.8336-12.365 29.8567l230.572 230.5728c11.009 11.009 29.857 3.212 29.857-12.366z" fill="#5936a1"/><path d="m360.724 52.5231c0-9.6524-7.825-17.4914-17.492-17.4914h-230.572c-15.5781 0-23.3743 18.8336-12.365 29.8568l230.572 230.5725c11.009 11.009 29.857 3.213 29.857-12.365z" fill="#5936a0"/><path d="m359.266 53.9782c0-9.6524-7.824-17.4914-17.491-17.4914h-230.572c-15.5785 0-23.3889 18.8336-12.3658 29.8568l230.5728 230.5724c11.009 11.009 29.856 3.213 29.856-12.365z" fill="#58369f"/><path d="m357.809 55.4216c0-9.6524-7.825-17.4914-17.491-17.4914h-230.573c-15.5778 0-23.3882 18.8336-12.3651 29.8567l230.5721 230.5721c11.009 11.009 29.857 3.213 29.857-12.365z" fill="#57359e"/><path d="m356.355 56.8781c0-9.6524-7.825-17.4914-17.492-17.4914h-230.572c-15.5781 0-23.3885 18.8336-12.3654 29.8568l230.5724 230.5725c11.009 11.009 29.857 3.213 29.857-12.365z" fill="#57359d"/><path d="m354.91 58.3354c0-9.6524-7.825-17.4914-17.491-17.4914h-230.573c-15.5781 0-23.3885 18.8336-12.3653 29.8568l230.5723 230.5722c11.009 11.009 29.857 3.213 29.857-12.365z" fill="#56359c"/><path d="m353.456 59.7912c0-9.6524-7.825-17.4914-17.492-17.4914h-230.572c-15.5782 0-23.3887 18.8336-12.3655 29.8568l230.5725 230.5724c11.009 11.009 29.857 3.213 29.857-12.365z" fill="#56359b"/><path d="m351.998 61.247c0-9.6524-7.824-17.4914-17.491-17.4914h-230.573c-15.5777 0-23.3739 18.8336-12.365 29.8568l230.573 230.5726c11.008 11.009 29.856 3.213 29.856-12.365z" fill="#55349a"/><path d="m350.544 62.6889c0-9.6524-7.825-17.4914-17.491-17.4914h-230.573c-15.5779 0-23.3884 18.8336-12.3652 29.8568l230.5722 230.5727c11.009 11.009 29.857 3.212 29.857-12.366z" fill="#553499"/><path d="m349.099 64.1464c0-9.6524-7.825-17.4914-17.491-17.4914h-230.573c-15.578 0-23.3741 18.8336-12.3653 29.8568l230.5723 230.5722c11.009 11.009 29.857 3.213 29.857-12.365z" fill="#543498"/><path d="m347.642 65.603c0-9.6524-7.825-17.4914-17.492-17.4914h-230.5722c-15.578 0-23.3885 18.8336-12.3653 29.8567l230.5725 230.5727c11.009 11.009 29.857 3.213 29.857-12.366z" fill="#543497"/><path d="m346.187 67.0588c0-9.6524-7.824-17.4914-17.491-17.4914h-230.5724c-15.578 0-23.3742 18.8336-12.3653 29.8567l230.5727 230.5729c11.009 11.008 29.856 3.212 29.856-12.366z" fill="#533396"/><path d="m344.73 68.5014c0-9.6524-7.825-17.4914-17.492-17.4914h-230.572c-15.5781 0-23.3886 18.8336-12.3654 29.8568l230.5724 230.5722c11.009 11.009 29.857 3.213 29.857-12.365z" fill="#533395"/><path d="m343.288 69.9572c0-9.6524-7.825-17.4914-17.491-17.4914h-230.5727c-15.578 0-23.3742 18.8336-12.3653 29.8568l230.572 230.5724c11.009 11.009 29.857 3.213 29.857-12.365z" fill="#523394"/><path d="m341.831 71.4138c0-9.6524-7.825-17.4914-17.492-17.4914h-230.5721c-15.5781 0-23.3885 18.8336-12.3654 29.8567l230.5725 230.5729c11.009 11.009 29.857 3.212 29.857-12.366z" fill="#523293"/><path d="m340.377 72.8703c0-9.6524-7.825-17.4914-17.492-17.4914h-230.5723c-15.5781 0-23.3743 18.8336-12.3654 29.8568l230.5727 230.5723c11.009 11.009 29.857 3.213 29.857-12.365z" fill="#513292"/><path d="m338.919 74.3122c0-9.6524-7.825-17.4914-17.491-17.4914h-230.5727c-15.5781 0-23.3885 18.8336-12.3653 29.8567l230.572 230.5725c11.009 11.009 29.857 3.213 29.857-12.365z" fill="#513291"/><path d="m337.477 75.768c0-9.6524-7.824-17.4914-17.491-17.4914h-230.5726c-15.5781 0-23.3885 18.8336-12.3654 29.8568l230.573 230.5726c11.008 11.009 29.856 3.213 29.856-12.365z" fill="#503290"/><path d="m336.02 77.2246c0-9.6524-7.825-17.4914-17.491-17.4914l-230.5729-.0001c-15.578 0-23.3885 18.8337-12.3653 29.8568l230.5722 230.5721c11.009 11.009 29.857 3.213 29.857-12.365z" fill="#50318f"/><path d="m334.566 78.6821c0-9.6524-7.825-17.4914-17.492-17.4914h-230.5721c-15.5781 0-23.3885 18.8336-12.3654 29.8567l230.5725 230.5726c11.009 11.009 29.857 3.213 29.857-12.365z" fill="#4f318e"/><path d="m333.108 80.1247c0-9.6524-7.824-17.4914-17.491-17.4914h-230.5725c-15.578 0-23.3885 18.8336-12.3653 29.8568l230.5728 230.5729c11.009 11.008 29.856 3.212 29.856-12.366z" fill="#4f318d"/><path d="m331.651 81.5805c0-9.6524-7.825-17.4914-17.491-17.4914h-230.5728c-15.5781 0-23.3886 18.8336-12.3654 29.8568l230.5722 230.5721c11.009 11.009 29.857 3.213 29.857-12.365z" fill="#4e318c"/><path d="m330.209 83.0371c0-9.6524-7.825-17.4914-17.491-17.4914l-230.5727-.0001c-15.5781 0-23.3885 18.8336-12.3654 29.8568l230.5721 230.5726c11.009 11.009 29.857 3.213 29.857-12.365z" fill="#4e308b"/><path d="m328.752 84.4929c0-9.6524-7.825-17.4914-17.492-17.4914h-230.5721c-15.5781 0-23.3886 18.8336-12.3654 29.8567l230.5725 230.5728c11.009 11.009 29.857 3.212 29.857-12.366z" fill="#4d308a"/><path d="m327.298 85.9355c0-9.6524-7.825-17.4914-17.492-17.4914h-230.5724c-15.578 0-23.3885 18.8336-12.3653 29.8567l230.5727 230.5722c11.009 11.009 29.857 3.213 29.857-12.365z" fill="#4d3089"/><path d="m325.84 87.392c0-9.6524-7.825-17.4914-17.491-17.4914h-230.5727c-15.578 0-23.3885 18.8336-12.3653 29.8568l230.572 230.5726c11.009 11.009 29.857 3.213 29.857-12.365z" fill="#4c2f88"/><path d="m324.398 88.8479c0-9.6524-7.824-17.4915-17.491-17.4915h-230.5726c-15.5781 0-23.3885 18.8336-12.3653 29.8566l230.5729 230.573c11.008 11.009 29.856 3.212 29.856-12.366z" fill="#4c2f87"/><path d="m322.941 90.3044c0-9.6524-7.825-17.4914-17.492-17.4914h-230.572c-15.578 0-23.3885 18.8336-12.3653 29.857l230.5723 230.572c11.009 11.009 29.857 3.213 29.857-12.365z" fill="#4b2f86"/><path d="m321.484 91.7609c0-9.6524-7.825-17.4914-17.492-17.4914h-230.5723c-15.5781 0-23.3885 18.8336-12.3654 29.8565l230.5727 230.573c11.009 11.009 29.857 3.212 29.857-12.366z" fill="#4b2f85"/><path d="m320.029 93.2028c0-9.6524-7.824-17.4914-17.491-17.4914h-230.5725c-15.5781 0-23.3886 18.8336-12.3654 29.8566l230.5729 230.573c11.008 11.009 29.856 3.212 29.856-12.366z" fill="#4a2e84"/><path d="m318.584 94.6596c0-9.6524-7.824-17.4914-17.491-17.4914h-230.5726c-15.578 0-23.3885 18.8336-12.3653 29.8568l230.5729 230.572c11.008 11.009 29.856 3.213 29.856-12.365z" fill="#4a2e83"/><path d="m317.13 96.1169c0-9.6524-7.825-17.4914-17.491-17.4914h-230.5728c-15.5781 0-23.3886 18.8336-12.3654 29.8565l230.5722 230.573c11.009 11.009 29.857 3.212 29.857-12.366z" fill="#492e82"/><path d="m315.673 97.5727c0-9.6524-7.825-17.4914-17.492-17.4914h-230.5722c-15.578 0-23.3885 18.8336-12.3653 29.8567l230.5725 230.573c11.009 11.008 29.857 3.212 29.857-12.366z" fill="#492d81"/><path d="m314.215 99.0139c0-9.6524-7.824-17.4914-17.491-17.4914h-230.5725c-15.5781-.0001-23.3885 18.8335-12.3654 29.8565l230.5729 230.573c11.009 11.009 29.856 3.212 29.856-12.366z" fill="#482d80"/><path d="m312.773 100.47c0-9.652-7.824-17.491-17.491-17.491h-230.5724c-15.5781 0-23.3885 18.834-12.3654 29.857l230.5728 230.572c11.009 11.009 29.856 3.213 29.856-12.365z" fill="#482d7f"/><path d="m311.319 101.928c0-9.652-7.825-17.491-17.491-17.491h-230.5727c-15.5781 0-23.3742 18.834-12.3653 29.857l230.572 230.572c11.009 11.009 29.857 3.213 29.857-12.365z" fill="#472d7e"/><path d="m309.862 103.384c0-9.6522-7.825-17.4912-17.492-17.4912h-230.572c-15.5781 0-23.3885 18.8332-12.3654 29.8572l230.5724 230.572c11.009 11.009 29.857 3.213 29.857-12.365z" fill="#472c7d"/><path d="m308.405 104.826c0-9.6523-7.825-17.4913-17.492-17.4913h-230.5724c-15.578 0-23.3885 18.8333-12.3653 29.8563l230.5727 230.573c11.009 11.009 29.857 3.213 29.857-12.365z" fill="#462c7c"/><path d="m306.963 106.282c0-9.6525-7.825-17.4915-17.492-17.4915h-230.5722c-15.5781 0-23.3886 18.8335-12.3654 29.8565l230.5726 230.573c11.009 11.009 29.857 3.212 29.857-12.366z" fill="#462c7b"/><path d="m305.505 107.739c0-9.6522-7.824-17.4912-17.491-17.4912h-230.5726c-15.5781 0-23.3885 18.8332-12.3654 29.8572l230.573 230.572c11.008 11.009 29.856 3.213 29.856-12.365z" fill="#452c7a"/><path d="m304.051 109.195c0-9.6524-7.825-17.4914-17.491-17.4914h-230.5729c-15.578 0-23.3885 18.8334-12.3653 29.8564l230.5722 230.573c11.009 11.009 29.857 3.213 29.857-12.365z" fill="#452b79"/><path d="m302.594 110.637c0-9.652-7.825-17.4915-17.492-17.4915h-230.5722c-15.5781 0-23.3885 18.8335-12.3654 29.8565l230.5726 230.573c11.009 11.009 29.857 3.212 29.857-12.366z" fill="#442b78"/><path d="m301.152 112.094c0-9.653-7.825-17.4917-17.492-17.4917h-230.5721c-15.5781 0-23.3885 18.8337-12.3654 29.8567l230.5725 230.573c11.009 11.008 29.857 3.212 29.857-12.366z" fill="#442b77"/><path d="m299.694 113.55c0-9.652-7.824-17.4912-17.491-17.4912h-230.5725c-15.578 0-23.3884 18.8332-12.3653 29.8572l230.5728 230.572c11.009 11.009 29.856 3.213 29.856-12.365z" fill="#432a76"/><path d="m298.24 115.007c0-9.653-7.825-17.4916-17.491-17.4916h-230.5727c-15.5781 0-23.3886 18.8336-12.3654 29.8566l230.5721 230.573c11.009 11.009 29.857 3.212 29.857-12.366z" fill="#432a75"/><path d="m296.783 116.449c0-9.653-7.825-17.4917-17.491-17.4917h-230.5728c-15.5781 0-23.3885 18.8337-12.3654 29.8567l230.5722 230.573c11.009 11.008 29.857 3.212 29.857-12.366z" fill="#422a74"/><path d="m295.325 117.906c.001-9.652-7.824-17.491-17.491-17.491h-230.5724c-15.5781 0-23.3885 18.833-12.3653 29.856l230.5727 230.573c11.009 11.009 29.856 3.213 29.856-12.366z" fill="#422a73"/><path d="m293.884 119.362c0-9.653-7.825-17.492-17.492-17.492h-230.5723c-15.5781 0-23.3885 18.834-12.3654 29.857l230.5727 230.573c11.009 11.009 29.857 3.212 29.857-12.366z" fill="#412972"/><path d="m292.43 120.818c0-9.653-7.825-17.492-17.492-17.492h-230.5723c-15.5781 0-23.3886 18.834-12.3654 29.857l230.5727 230.572c11.009 11.009 29.857 3.213 29.857-12.365z" fill="#412971"/><path d="m290.972 122.26c0-9.652-7.825-17.491-17.491-17.491h-230.5729c-15.5781 0-23.3885 18.833-12.3654 29.857l230.5723 230.572c11.009 11.009 29.857 3.213 29.857-12.365z" fill="#402970"/><path d="m289.515 123.717c0-9.653-7.825-17.492-17.492-17.492h-230.5723c-15.578 0-23.3885 18.834-12.3653 29.857l230.5726 230.573c11.009 11.008 29.857 3.212 29.857-12.366z" fill="#40296f"/><path d="m288.073 125.174c0-9.653-7.825-17.492-17.492-17.492h-230.5721c-15.5781 0-23.3886 18.834-12.3654 29.857l230.5725 230.572c11.009 11.009 29.857 3.213 29.857-12.365z" fill="#3f286e"/><path d="m286.615 126.63c0-9.652-7.824-17.491-17.491-17.491h-230.5725c-15.5781 0-23.3885 18.833-12.3653 29.856l230.5728 230.573c11.009 11.009 29.856 3.213 29.856-12.365z" fill="#3e286d"/><path d="m285.161 128.087c0-9.653-7.825-17.492-17.491-17.492h-230.5728c-15.578 0-23.3885 18.834-12.3653 29.857l230.5721 230.572c11.009 11.009 29.857 3.213 29.857-12.365z" fill="#3e286c"/><path d="m283.704 129.529c0-9.653-7.825-17.492-17.492-17.492h-230.5721c-15.5781 0-23.3885 18.834-12.3654 29.857l230.5725 230.572c11.009 11.009 29.857 3.213 29.857-12.365z" fill="#3d276b"/><path d="m282.262 130.984c0-9.652-7.825-17.491-17.492-17.491h-230.572c-15.5781 0-23.3885 18.834-12.3654 29.857l230.5724 230.572c11.009 11.009 29.857 3.213 29.857-12.365z" fill="#3d276a"/><path d="m280.805 132.441c0-9.653-7.825-17.492-17.492-17.492h-230.5723c-15.5781 0-23.38856 18.834-12.3654 29.857l230.5727 230.573c11.009 11.009 29.857 3.212 29.857-12.366z" fill="#3c2769"/><path d="m279.347 133.897c0-9.652-7.825-17.491-17.491-17.491h-230.5728c-15.578 0-23.38843 18.834-12.3653 29.857l230.5721 230.572c11.009 11.009 29.857 3.213 29.857-12.365z" fill="#3c2768"/><path d="m277.893 135.339c0-9.652-7.825-17.491-17.491-17.491h-230.573c-15.578 0-23.38848 18.834-12.3653 29.857l230.5723 230.572c11.009 11.009 29.857 3.213 29.857-12.365z" fill="#3b2667"/><path d="m276.451 136.796c0-9.653-7.825-17.492-17.491-17.492h-230.5729c-15.578 0-23.38844 18.834-12.3653 29.857l230.5722 230.573c11.009 11.009 29.857 3.212 29.857-12.366z" fill="#3b2666"/><path d="m274.994 138.252c0-9.652-7.825-17.491-17.492-17.491h-230.5722c-15.5781 0-23.38851 18.834-12.3653 29.857l230.5725 230.572c11.009 11.009 29.857 3.213 29.857-12.365z" fill="#3a2665"/><path d="m273.536 139.71c0-9.652-7.824-17.491-17.491-17.491l-230.5726-.001c-15.57805 0-23.38851 18.834-12.3653 29.857l230.5729 230.573c11.008 11.009 29.856 3.212 29.856-12.366z" fill="#3a2664"/><path d="m272.082 141.152c0-9.653-7.825-17.492-17.491-17.492h-230.5728c-15.57808 0-23.388532 18.834-12.3654 29.857l230.5722 230.573c11.009 11.009 29.857 3.212 29.857-12.366z" fill="#392563"/><path d="m270.637 142.608c0-9.653-7.825-17.492-17.491-17.492h-230.5728c-15.57808 0-23.388539 18.834-12.3654 29.857l230.5722 230.572c11.009 11.009 29.857 3.213 29.857-12.365z" fill="#392562"/><path d="m269.183 144.063c0-9.652-7.825-17.491-17.492-17.491h-230.572c-15.57811 0-23.38856 18.834-12.3654 29.857l230.5724 230.572c11.009 11.009 29.857 3.213 29.857-12.365z" fill="#382561"/><path d="m267.725 145.521c0-9.653-7.824-17.492-17.491-17.492h-230.5724c-15.5781 0-23.38856 18.834-12.3654 29.857l230.5728 230.573c11.009 11.008 29.856 3.212 29.856-12.366z" fill="#382460"/><path d="m266.268 146.962c0-9.653-7.825-17.492-17.491-17.492h-230.5728c-15.57804 0-23.3885 18.834-12.36533 29.857l230.57213 230.573c11.009 11.009 29.857 3.212 29.857-12.366z" fill="#37245f"/><path d="m264.814 148.419c0-9.652-7.825-17.491-17.492-17.491h-230.572c-15.57806 0-23.38852 18.833-12.36536 29.856l230.57236 230.573c11.009 11.009 29.857 3.213 29.857-12.365z" fill="#37245e"/><path d="m263.369 149.876c0-9.653-7.825-17.492-17.492-17.492h-230.572c-15.578071 0-23.38853 18.834-12.36537 29.857l230.57237 230.573c11.009 11.008 29.857 3.212 29.857-12.366z" fill="#36245d"/><path d="m261.915 151.332c0-9.652-7.825-17.491-17.492-17.491h-230.5723c-15.57806 0-23.38851 18.833-12.36535 29.857l230.57265 230.572c11.009 11.009 29.857 3.213 29.857-12.365z" fill="#36235c"/><path d="m260.457 152.773c0-9.652-7.824-17.491-17.491-17.491h-230.5726c-15.57809 0-23.3885 18.834-12.3653862 29.857l230.5719862 230.572c11.009 11.009 29.857 3.213 29.857-12.365z" fill="#35235b"/><path d="m259 154.23c0-9.652-7.825-17.491-17.491-17.491h-230.573c-15.57803 0-23.3885 18.833-12.36529 29.856l230.57229 230.573c11.009 11.009 29.857 3.212 29.857-12.366z" fill="#35235a"/><path d="m257.558 155.686c0-9.652-7.825-17.491-17.491-17.491h-230.57286c-15.57806 0-23.38854 18.834-12.36536 29.857l230.57222 230.572c11.009 11.009 29.857 3.213 29.857-12.365z" fill="#342359"/><path d="m256.104 157.143c0-9.652-7.825-17.491-17.492-17.491h-230.57216c-15.57805 0-23.38844 18.833-12.36531 29.857l230.57247 230.572c11.009 11.009 29.857 3.213 29.857-12.365z" fill="#342258"/><path d="m254.646 158.6c0-9.653-7.824-17.492-17.491-17.492h-230.57248c-15.57806 0-23.38852 18.834-12.36536 29.857l230.57284 230.573c11.009 11.009 29.856 3.212 29.856-12.366z" fill="#332257"/><path d="m253.189 160.042c0-9.653-7.824-17.492-17.491-17.492h-230.57257c-15.57803 0-23.38853 18.834-12.36536 29.857l230.57293 230.573c11.008 11.008 29.856 3.212 29.856-12.366z" fill="#332256"/><path d="m251.747 161.499c0-9.652-7.825-17.491-17.491-17.491h-230.57271c-15.57809 0-23.38849 18.833-12.36536 29.856l230.57207 230.573c11.009 11.009 29.857 3.213 29.857-12.366z" fill="#322155"/><path d="m250.293 162.955c0-9.653-7.825-17.492-17.492-17.492h-230.572c-15.5781 0-23.3885 18.834-12.3654 29.857l230.5724 230.573c11.009 11.009 29.857 3.212 29.857-12.366z" fill="#322154"/><path d="m248.836 164.411c0-9.652-7.825-17.491-17.492-17.491h-230.572333c-15.578067 0-23.388567 18.834-12.365367 29.857l230.5727 230.572c11.009 11.009 29.857 3.213 29.857-12.365z" fill="#312153"/><path d="m247.378 165.853c0-9.652-7.824-17.491-17.491-17.491h-230.572669c-15.578031 0-23.374231 18.833-12.365331 29.857l230.572 230.572c11.009 11.009 29.857 3.213 29.857-12.365z" fill="#312152"/><path d="m245.936 167.31c0-9.653-7.824-17.492-17.491-17.492h-230.57256c-15.57804 0-23.38854 18.834-12.36534 29.857l230.5729 230.573c11.008 11.008 29.856 3.212 29.856-12.366z" fill="#302051"/><path d="m244.479 168.766c0-9.653-7.825-17.492-17.491-17.492h-230.5729c-15.5781 0-23.3742 18.834-12.3654 29.857l230.5723 230.572c11.009 11.009 29.857 3.213 29.857-12.365z" fill="#302050"/><path d="m243.025 170.223c0-9.652-7.825-17.491-17.492-17.491h-230.57217c-15.57803 0-23.38853 18.833-12.36533 29.856l230.5725 230.573c11.009 11.009 29.857 3.213 29.857-12.365z" fill="#2f204f"/><path d="m241.567 171.664c0-9.652-7.824-17.491-17.491-17.491h-230.57252c-15.57808 0-23.38848 18.833-12.36538 29.856l230.5729 230.573c11.008 11.009 29.856 3.213 29.856-12.365z" fill="#2f204e"/><path d="m240.125 173.122c0-9.653-7.824-17.492-17.491-17.492h-230.5724c-15.5781 0-23.3743 18.834-12.3654 29.857l230.5728 230.572c11.009 11.009 29.856 3.213 29.856-12.365z" fill="#2e1f4d"/><path d="m238.668 174.577c0-9.652-7.825-17.491-17.491-17.491h-230.57275c-15.57805 0-23.38855 18.834-12.36535 29.857l230.5721 230.572c11.009 11.009 29.857 3.213 29.857-12.365z" fill="#2e1f4c"/><path d="m237.214 176.035c0-9.653-7.825-17.492-17.492-17.492h-230.572c-15.5781 0-23.3886 18.834-12.3654 29.857l230.5724 230.572c11.009 11.009 29.857 3.213 29.857-12.365z" fill="#2d1f4b"/><path d="m235.757 177.477c0-9.653-7.825-17.492-17.492-17.492h-230.5724c-15.578 0-23.3885 18.834-12.3653 29.857l230.5727 230.572c11.009 11.009 29.857 3.213 29.857-12.365z" fill="#2d1e4a"/><path d="m234.315 178.933c0-9.652-7.825-17.491-17.492-17.491h-230.5723c-15.578 0-23.3885 18.833-12.3653 29.856l230.5726 230.573c11.009 11.009 29.857 3.213 29.857-12.365z" fill="#2c1e49"/><path d="m232.857 180.388c0-9.652-7.824-17.491-17.491-17.491h-230.5726c-15.5781 0-23.3885 18.833-12.3653 29.856l230.5729 230.573c11.008 11.009 29.856 3.213 29.856-12.365z" fill="#2c1e48"/><path d="m231.4 181.844c0-9.652-7.825-17.491-17.491-17.491h-230.5729c-15.5781 0-23.3886 18.833-12.3654 29.856l230.5723 230.573c11.009 11.009 29.857 3.213 29.857-12.366z" fill="#2b1e47"/><path d="m229.946 183.287c0-9.653-7.825-17.492-17.492-17.492h-230.5722c-15.5781 0-23.3885 18.834-12.3654 29.857l230.5726 230.572c11.009 11.009 29.857 3.213 29.857-12.365z" fill="#2b1d46"/><path d="m228.488 184.744c0-9.653-7.824-17.492-17.491-17.492h-230.5726c-15.578 0-23.3885 18.834-12.3653 29.857l230.5729 230.573c11.008 11.009 29.856 3.212 29.856-12.366z" fill="#2a1d45"/><path d="m227.046 186.2c0-9.652-7.824-17.491-17.491-17.491h-230.5725c-15.578 0-23.3885 18.834-12.3653 29.857l230.5728 230.572c11.009 11.009 29.856 3.213 29.856-12.365z" fill="#2a1d44"/><path d="m225.589 187.657c0-9.652-7.825-17.491-17.491-17.491h-230.5729c-15.578 0-23.3885 18.833-12.3653 29.857l230.5722 230.572c11.009 11.009 29.857 3.213 29.857-12.365z" fill="#291d43"/><path d="m224.132 189.099c0-9.652-7.825-17.491-17.492-17.491h-230.5722c-15.5781 0-23.3885 18.833-12.3653 29.856l230.5725 230.573c11.009 11.009 29.857 3.213 29.857-12.365z" fill="#291c42"/><path d="m222.677 190.556c0-9.653-7.824-17.492-17.491-17.492h-230.5724c-15.5781 0-23.3885 18.834-12.3654 29.857l230.5728 230.572c11.009 11.009 29.856 3.213 29.856-12.365z" fill="#281c41"/><path d="m221.232 192.012c0-9.652-7.824-17.491-17.491-17.491h-230.5724c-15.5781 0-23.3885 18.833-12.3654 29.857l230.5728 230.572c11.009 11.009 29.856 3.213 29.856-12.365z" fill="#281c40"/><path d="m219.778 193.468c0-9.652-7.825-17.491-17.491-17.491h-230.5727c-15.5781 0-23.3885 18.833-12.3654 29.856l230.5721 230.573c11.009 11.009 29.857 3.213 29.857-12.366z" fill="#271b3f"/><path d="m218.321 194.925c0-9.653-7.825-17.492-17.492-17.492h-230.572c-15.5781 0-23.3886 18.834-12.3654 29.857l230.5724 230.572c11.009 11.009 29.857 3.213 29.857-12.365z" fill="#261b3e"/><path d="m216.864 196.366c0-9.652-7.825-17.491-17.492-17.491h-230.5724c-15.578 0-23.3885 18.834-12.3653 29.857l230.5727 230.572c11.009 11.009 29.857 3.213 29.857-12.365z" fill="#261b3d"/><path d="m215.422 197.824c0-9.653-7.825-17.492-17.492-17.492h-230.5723c-15.578 0-23.3885 18.834-12.3653 29.857l230.5726 230.573c11.009 11.008 29.857 3.212 29.857-12.366z" fill="#251b3c"/><path d="m213.967 199.28c0-9.652-7.824-17.491-17.491-17.491h-230.5726c-15.578 0-23.3885 18.833-12.3653 29.857l230.5729 230.572c11.008 11.009 29.856 3.213 29.856-12.365z" fill="#251a3b"/><path d="m212.51 200.736c0-9.652-7.825-17.491-17.491-17.491h-230.5729c-15.5781 0-23.3885 18.833-12.3653 29.856l230.5722 230.573c11.009 11.009 29.857 3.213 29.857-12.365z" fill="#241a3a"/><path d="m211.053 202.177c0-9.652-7.825-17.491-17.492-17.491h-230.5722c-15.5781 0-23.3886 18.833-12.3654 29.857l230.5726 230.572c11.009 11.009 29.857 3.213 29.857-12.365z" fill="#241a39"/><path d="m209.611 203.635c0-9.653-7.825-17.492-17.492-17.492h-230.5721c-15.5781 0-23.3885 18.834-12.3654 29.857l230.5725 230.573c11.009 11.008 29.857 3.212 29.857-12.366z" fill="#231a38"/><path d="m208.153 205.091c0-9.652-7.825-17.491-17.491-17.491h-230.5727c-15.5781 0-23.3885 18.833-12.3654 29.857l230.5721 230.572c11.009 11.009 29.857 3.213 29.857-12.365z" fill="#231937"/><path d="m206.696 206.546c0-9.652-7.825-17.491-17.491-17.491h-230.5728c-15.5781 0-23.3885 18.833-12.3654 29.856l230.5722 230.573c11.009 11.009 29.857 3.213 29.857-12.365z" fill="#221936"/><path d="m205.242 207.99c0-9.653-7.825-17.492-17.492-17.492h-230.5721c-15.578 0-23.3885 18.834-12.3653 29.857l230.5724 230.573c11.009 11.008 29.857 3.212 29.857-12.366z" fill="#221935"/><path d="m203.8 209.446c0-9.652-7.825-17.491-17.492-17.491h-230.5722c-15.5781 0-23.3885 18.833-12.3654 29.857l230.5726 230.572c11.009 11.009 29.857 3.213 29.857-12.365z" fill="#211834"/><path d="m202.343 210.903c0-9.653-7.825-17.492-17.492-17.492h-230.5723c-15.5781 0-23.3885 18.834-12.3654 29.857l230.5727 230.573c11.009 11.009 29.857 3.212 29.857-12.366z" fill="#211833"/><path d="m200.888 212.359c0-9.653-7.824-17.492-17.491-17.492h-230.5726c-15.5781 0-23.3885 18.834-12.3654 29.857l230.573 230.572c11.008 11.009 29.856 3.213 29.856-12.365z" fill="#201832"/><path d="m199.431 213.8c0-9.652-7.825-17.491-17.491-17.491h-230.5729c-15.5781 0-23.3886 18.834-12.3654 29.857l230.5723 230.572c11.009 11.009 29.857 3.213 29.857-12.365z" fill="#201831"/><path d="m197.974 215.257c0-9.652-7.825-17.491-17.492-17.491h-230.5723c-15.578 0-23.3885 18.833-12.3653 29.856l230.5726 230.573c11.009 11.009 29.857 3.213 29.857-12.365z" fill="#1f1730"/><path d="m196.532 216.714c0-9.653-7.825-17.492-17.492-17.492h-230.5722c-15.578 0-23.3885 18.834-12.3653 29.857l230.5725 230.572c11.009 11.009 29.857 3.213 29.857-12.365z" fill="#1f172f"/><path d="m195.074 218.169c0-9.653-7.824-17.492-17.491-17.492h-230.5725c-15.5781 0-23.3885 18.834-12.3654 29.857l230.5729 230.573c11.008 11.008 29.856 3.212 29.856-12.366z" fill="#1e172e"/><path d="m193.62 219.613c0-9.652-7.825-17.491-17.491-17.491h-230.5728c-15.5781 0-23.3885 18.833-12.3653 29.856l230.5721 230.573c11.009 11.009 29.857 3.213 29.857-12.365z" fill="#1e162d"/><path d="m192.163 221.07c0-9.653-7.825-17.492-17.492-17.492h-230.5721c-15.5781 0-23.3885 18.834-12.3654 29.857l230.5725 230.572c11.009 11.009 29.857 3.213 29.857-12.365z" fill="#1d162c"/><path d="m190.721 222.525c0-9.652-7.825-17.491-17.492-17.491h-230.572c-15.5781 0-23.3885 18.834-12.3654 29.857l230.5724 230.572c11.009 11.009 29.857 3.213 29.857-12.365z" fill="#1d162b"/><path d="m189.264 223.982c0-9.653-7.825-17.492-17.492-17.492h-230.5724c-15.578 0-23.3885 18.834-12.3653 29.857l230.5727 230.573c11.009 11.009 29.857 3.212 29.857-12.366z" fill="#1c162a"/><path d="m187.806 225.437c0-9.652-7.825-17.491-17.491-17.491h-230.5727c-15.5781 0-23.3885 18.833-12.3653 29.856l230.572 230.573c11.009 11.009 29.857 3.213 29.857-12.366z" fill="#1c1529"/><path d="m186.352 226.88c0-9.652-7.825-17.491-17.491-17.491h-230.573c-15.578 0-23.3885 18.834-12.3653 29.857l230.5723 230.572c11.009 11.009 29.857 3.213 29.857-12.365z" fill="#1b1528"/><path d="m184.91 228.337c0-9.653-7.825-17.492-17.491-17.492h-230.5729c-15.578 0-23.3885 18.834-12.3653 29.857l230.5722 230.573c11.009 11.009 29.857 3.212 29.857-12.366z" fill="#1b1527"/><path d="m183.453 229.793c0-9.652-7.825-17.491-17.492-17.491h-230.5722c-15.5781 0-23.3885 18.834-12.3654 29.857l230.5726 230.572c11.009 11.009 29.857 3.213 29.857-12.365z" fill="#1a1526"/><path d="m181.995 231.25c0-9.652-7.824-17.491-17.491-17.491h-230.5725c-15.5781 0-23.3886 18.833-12.3654 29.856l230.5729 230.573c11.008 11.009 29.856 3.213 29.856-12.366z" fill="#1a1425"/><path d="m180.541 232.692c0-9.653-7.825-17.492-17.491-17.492h-230.5728c-15.5781 0-23.3885 18.834-12.3654 29.857l230.5722 230.573c11.009 11.009 29.857 3.212 29.857-12.366z" fill="#191424"/><path d="m179.096 234.148c0-9.653-7.825-17.492-17.491-17.492h-230.5728c-15.5781 0-23.3886 18.834-12.3654 29.857l230.5722 230.573c11.009 11.008 29.857 3.212 29.857-12.366z" fill="#191423"/><path d="m177.642 235.604c0-9.652-7.825-17.491-17.492-17.491h-230.5721c-15.578 0-23.3885 18.834-12.3653 29.857l230.5724 230.572c11.009 11.009 29.857 3.213 29.857-12.365z" fill="#181322"/><path d="m176.185 237.062c0-9.653-7.825-17.492-17.492-17.492h-230.5724c-15.5781 0-23.3885 18.834-12.3653 29.857l230.5727 230.573c11.009 11.008 29.856 3.212 29.856-12.366z" fill="#181321"/><path d="m174.727 238.503c0-9.653-7.825-17.492-17.491-17.492h-230.5728c-15.5781 0-23.3885 18.834-12.3653 29.857l230.5721 230.573c11.009 11.009 29.857 3.212 29.857-12.366z" fill="#171320"/><path d="m173.288 239.959c0-9.652-7.824-17.491-17.491-17.491h-230.5726c-15.578 0-23.3885 18.834-12.3653 29.857l230.5729 230.572c11.008 11.009 29.856 3.213 29.856-12.365z" fill="#17131f"/><path d="m171.831 241.416c0-9.652-7.825-17.491-17.491-17.491h-230.5729c-15.5781 0-23.3885 18.833-12.3654 29.856l230.5723 230.573c11.009 11.009 29.857 3.213 29.857-12.366z" fill="#16121e"/><path d="m170.374 242.873c0-9.653-7.825-17.492-17.492-17.492h-230.5723c-15.5781 0-23.3887 18.834-12.3654 29.857l230.5727 230.572c11.009 11.009 29.857 3.213 29.857-12.365z" fill="#16121d"/><path d="m168.916 244.314c0-9.652-7.824-17.491-17.491-17.491h-230.5726c-15.5781 0-23.3884 18.834-12.3654 29.857l230.572 230.572c11.009 11.009 29.857 3.213 29.857-12.365z" fill="#15121c"/><path d="m167.474 245.771c0-9.652-7.824-17.491-17.491-17.491h-230.5725c-15.5781 0-23.3885 18.833-12.3654 29.856l230.5729 230.573c11.008 11.009 29.856 3.213 29.856-12.366z" fill="#15121b"/><path d="m166.02 247.228c0-9.652-7.825-17.491-17.492-17.491h-230.572c-15.5781 0-23.389 18.834-12.3654 29.857l230.5724 230.572c11.009 11.009 29.857 3.213 29.857-12.365z" fill="#14111a"/><path d="m164.563 248.684c0-9.652-7.825-17.491-17.492-17.491h-230.5722c-15.578 0-23.3888 18.833-12.3653 29.857l230.5725 230.572c11.009 11.009 29.857 3.213 29.857-12.365z" fill="#141119"/><path d="m163.105 250.126c0-9.652-7.824-17.491-17.491-17.491h-230.5725c-15.5785 0-23.3885 18.833-12.3654 29.857l230.5729 230.572c11.009 11.009 29.856 3.213 29.856-12.365z" fill="#131118"/><path d="m161.648 251.583c0-9.653-7.825-17.492-17.491-17.492h-230.5728c-15.5782 0-23.3882 18.834-12.3654 29.857l230.5722 230.573c11.009 11.008 29.857 3.212 29.857-12.366z" fill="#131017"/><path d="m160.206 253.039c0-9.652-7.825-17.491-17.491-17.491h-230.5727c-15.5783 0-23.3883 18.833-12.3653 29.857l230.572 230.572c11.009 11.009 29.857 3.213 29.857-12.365z" fill="#121016"/><path d="m158.752 254.495c0-9.652-7.825-17.491-17.492-17.491h-230.572c-15.578 0-23.389 18.833-12.365 29.856l230.572 230.573c11.009 11.009 29.857 3.213 29.857-12.365z" fill="#121015"/><path d="m157.295 255.938c0-9.653-7.825-17.492-17.492-17.492h-230.5723c-15.5777 0-23.3887 18.834-12.3657 29.857l230.573 230.573c11.009 11.008 29.857 3.212 29.857-12.366z" fill="#111014"/><path d="m155.837 257.394c0-9.652-7.825-17.491-17.491-17.491h-230.5727c-15.5783 0-23.3883 18.833-12.3653 29.857l230.572 230.572c11.009 11.009 29.857 3.213 29.857-12.365z" fill="#110f13"/><path d="m154.395 258.851c0-9.653-7.824-17.492-17.491-17.492h-230.5726c-15.5784 0-23.3884 18.834-12.3654 29.857l230.573 230.573c11.008 11.009 29.856 3.212 29.856-12.366z" fill="#100f12"/><path d="m152.938 260.307c0-9.653-7.825-17.492-17.491-17.492h-230.5729c-15.5781 0-23.3881 18.834-12.3651 29.857l230.572 230.572c11.009 11.009 29.857 3.213 29.857-12.365z" fill="#100f11"/><path d="m151.484 261.762c0-9.653-7.825-17.492-17.492-17.492h-230.5722c-15.5778 0-23.3888 18.834-12.3658 29.857l230.573 230.573c11.009 11.008 29.857 3.212 29.857-12.366z" fill="#0f0f10"/><path d="m150.026 263.205c0-9.652-7.824-17.491-17.491-17.491h-230.5725c-15.5785 0-23.3885 18.833-12.3655 29.856l230.573 230.573c11.008 11.009 29.856 3.213 29.856-12.365z" fill="#0f0e0f"/><path d="m148.584 264.662c0-9.653-7.824-17.492-17.491-17.492h-230.5724c-15.5776 0-23.3886 18.834-12.3656 29.857l230.573 230.573c11.009 11.009 29.856 3.212 29.856-12.366z" fill="#0e0e0e"/></g><path d="m111 286.742c0 6.637 5.372 12.009 12.009 12.009h158.302c10.696 0 16.058-12.931 8.49-20.499l-158.303-158.302c-7.568-7.559-20.498-2.206-20.498 8.489z" fill="#8950ff"/><path d="m112 285.752c0 6.627 5.372 12.009 12.009 12.009h158.302c10.696 0 16.058-12.931 8.49-20.499l-158.312-158.312c-7.559-7.558-20.499-2.206-20.499 8.49v158.312z" fill="#8850fe"/><path d="m113 284.752c0 6.627 5.373 12.009 12.009 12.009h158.303c10.695 0 16.057-12.93 8.489-20.498l-158.312-158.303c-7.558-7.558-20.498-2.205-20.498 8.49v158.302z" fill="#884ffd"/><path d="m113.989 283.752c0 6.627 5.372 12.009 12.009 12.009h158.302c10.696 0 16.058-12.93 8.49-20.498l-158.303-158.303c-7.558-7.558-20.498-2.205-20.498 8.49z" fill="#874ffc"/><path d="m114.989 282.752c0 6.627 5.372 12.009 12.009 12.009h158.303c10.695 0 16.047-12.93 8.489-20.498l-158.302-158.303c-7.558-7.558-20.499-2.205-20.499 8.49z" fill="#874ffb"/><path d="m115.989 281.762c0 6.627 5.373 12.009 12.009 12.009h158.303c10.695 0 16.057-12.93 8.489-20.498l-158.312-158.313c-7.558-7.558-20.498-2.205-20.498 8.49v158.312z" fill="#864ffa"/><path d="m116.99 280.762c0 6.627 5.372 12.009 12.009 12.009h158.302c10.695 0 16.058-12.93 8.49-20.498l-158.313-158.303c-7.558-7.558-20.498-2.205-20.498 8.49v158.302z" fill="#864ef9"/><path d="m117.98 279.762c0 6.627 5.372 12.009 12.009 12.009h158.303c10.695 0 16.057-12.93 8.489-20.498l-158.302-158.303c-7.559-7.558-20.499-2.205-20.499 8.49z" fill="#854ef8"/><path d="m118.979 278.762c0 6.627 5.372 12.009 12.009 12.009h158.303c10.695 0 16.057-12.93 8.489-20.498l-158.302-158.303c-7.559-7.558-20.499-2.205-20.499 8.49z" fill="#854ef7"/><path d="m119.979 277.763c0 6.627 5.372 12.009 12.009 12.009h158.302c10.695 0 16.058-12.93 8.49-20.498l-158.313-158.303c-7.558-7.558-20.498-2.205-20.498 8.49v158.302z" fill="#844ef6"/><path d="m120.979 276.773c0 6.627 5.372 12.009 12.009 12.009h158.302c10.696 0 16.058-12.931 8.49-20.499l-158.312-158.302c-7.559-7.559-20.499-2.206-20.499 8.489v158.303z" fill="#844df5"/><path d="m121.97 275.772c0 6.627 5.372 12.009 12.009 12.009h158.303c10.695 0 16.057-12.93 8.489-20.498l-158.302-158.303c-7.559-7.558-20.499-2.205-20.499 8.49z" fill="#834df4"/><path d="m122.971 274.772c0 6.627 5.372 12.009 12.008 12.009h158.303c10.695 0 16.058-12.93 8.489-20.498l-158.302-158.303c-7.558-7.558-20.498-2.205-20.498 8.49z" fill="#834df3"/><path d="m123.969 273.772c0 6.627 5.372 12.009 12.009 12.009h158.302c10.696 0 16.058-12.93 8.49-20.498l-158.303-158.303c-7.558-7.558-20.498-2.205-20.498 8.49z" fill="#824cf2"/><path d="m124.969 272.782c0 6.627 5.372 12.009 12.009 12.009h158.302c10.696 0 16.058-12.93 8.49-20.498l-158.312-158.303c-7.559-7.558-20.499-2.205-20.499 8.49v158.302z" fill="#824cf1"/><path d="m125.959 271.783c0 6.627 5.373 12.009 12.009 12.009h158.303c10.695 0 16.058-12.931 8.489-20.499l-158.302-158.302c-7.558-7.5585-20.499-2.206-20.499 8.489z" fill="#814cf0"/><path d="m126.96 270.783c0 6.627 5.372 12.009 12.009 12.009h158.302c10.696 0 16.048-12.931 8.49-20.499l-158.303-158.302c-7.558-7.5585-20.498-2.206-20.498 8.489z" fill="#814cef"/><path d="m127.959 269.782c0 6.627 5.372 12.009 12.009 12.009h158.302c10.696 0 16.048-12.93 8.49-20.499l-158.303-158.302c-7.558-7.5582-20.498-2.206-20.498 8.49z" fill="#804bee"/><path d="m128.958 268.792c0 6.627 5.372 12.009 12.009 12.009h158.303c10.695 0 16.047-12.93 8.489-20.499l-158.312-158.302c-7.558-7.5582-20.499-2.2057-20.499 8.49v158.302z" fill="#804bed"/><path d="m129.949 267.793c0 6.627 5.372 12.009 12.009 12.009h158.302c10.695 0 16.048-12.931 8.49-20.499l-158.303-158.302c-7.558-7.5587-20.498-2.2062-20.498 8.489z" fill="#7f4bec"/><path d="m130.95 266.793c0 6.627 5.372 12.009 12.009 12.009h158.302c10.696 0 16.058-12.93 8.49-20.499l-158.303-158.302c-7.558-7.5582-20.498-2.2057-20.498 8.49z" fill="#7f4beb"/><path d="m131.95 265.793c0 6.627 5.372 12.009 12.009 12.009h158.303c10.695 0 16.057-12.931 8.489-20.499l-158.302-158.3025c-7.559-7.5582-20.499-2.2057-20.499 8.4895z" fill="#7e4aea"/><path d="m132.95 264.803c0 6.627 5.372 12.009 12.009 12.009h158.303c10.695 0 16.057-12.931 8.489-20.499l-158.312-158.3123c-7.558-7.5582-20.499-2.2057-20.499 8.4893v158.313z" fill="#7e4ae9"/><path d="m133.951 263.803c0 6.627 5.372 12.009 12.009 12.009h158.302c10.695 0 16.058-12.931 8.49-20.499l-158.313-158.3025c-7.558-7.5582-20.498-2.2057-20.498 8.4895v158.303z" fill="#7d4ae8"/><path d="m134.939 262.803c0 6.627 5.372 12.009 12.009 12.009h158.302c10.696 0 16.058-12.93 8.49-20.499l-158.302-158.302c-7.559-7.5582-20.499-2.2057-20.499 8.49z" fill="#7d49e7"/><path d="m135.939 261.802c0 6.627 5.373 12.009 12.009 12.009h158.303c10.695 0 16.058-12.93 8.489-20.498l-158.302-158.3029c-7.558-7.5583-20.499-2.2058-20.499 8.4899z" fill="#7c49e6"/><path d="m136.94 260.813c0 6.627 5.372 12.009 12.008 12.009h158.303c10.695 0 16.058-12.931 8.49-20.499l-158.313-158.3123c-7.558-7.5582-20.498-2.2057-20.498 8.4893v158.313z" fill="#7c49e5"/><path d="m137.94 259.813c0 6.627 5.372 12.009 12.009 12.009h158.302c10.696 0 16.058-12.931 8.49-20.499l-158.312-158.3024c-7.559-7.5583-20.499-2.2058-20.499 8.4894v158.303z" fill="#7b49e4"/><path d="m138.928 258.813c0 6.627 5.373 12.009 12.009 12.009h158.303c10.695 0 16.048-12.931 8.489-20.499l-158.302-158.3024c-7.558-7.5583-20.499-2.2057-20.499 8.4894z" fill="#7b48e3"/><path d="m139.929 257.812c0 6.627 5.373 12.009 12.009 12.009h158.303c10.695 0 16.058-12.93 8.489-20.498l-158.302-158.3027c-7.558-7.5583-20.499-2.2057-20.499 8.4896z" fill="#7a48e2"/><path d="m140.929 256.823c0 6.627 5.372 12.009 12.009 12.009h158.302c10.696 0 16.048-12.93 8.49-20.499l-158.312-158.3117c-7.559-7.5583-20.499-2.2058-20.499 8.4895v158.3122z" fill="#7a48e1"/><path d="m141.93 255.823c0 6.627 5.372 12.009 12.009 12.009h158.302c10.696 0 16.058-12.93 8.49-20.499l-158.312-158.3019c-7.559-7.5583-20.499-2.2058-20.499 8.4895v158.3024z" fill="#7948e0"/><path d="m142.918 254.823c0 6.627 5.373 12.009 12.009 12.009h158.303c10.695 0 16.048-12.931 8.489-20.499l-158.302-158.3024c-7.558-7.5583-20.499-2.2058-20.499 8.4896z" fill="#7947df"/><path d="m143.919 253.823c0 6.627 5.372 12.009 12.009 12.009h158.302c10.695 0 16.058-12.931 8.49-20.499l-158.303-158.3024c-7.558-7.5583-20.498-2.2058-20.498 8.4896z" fill="#7847de"/><path d="m144.919 252.823c0 6.627 5.372 12.009 12.009 12.009h158.302c10.696 0 16.048-12.93 8.49-20.499l-158.302-158.3019c-7.559-7.5583-20.499-2.2058-20.499 8.4896z" fill="#7847dd"/><path d="m145.919 251.833c0 6.627 5.373 12.009 12.009 12.009h158.303c10.695 0 16.057-12.93 8.489-20.498l-158.312-158.3029c-7.558-7.5583-20.498-2.2058-20.498 8.4896v158.3023z" fill="#7746dc"/><path d="m146.91 250.833c0 6.627 5.372 12.009 12.009 12.009h158.302c10.695 0 16.058-12.93 8.49-20.498l-158.303-158.3029c-7.558-7.5583-20.498-2.2057-20.498 8.4896z" fill="#7746db"/><path d="m147.908 249.834c0 6.627 5.372 12.009 12.009 12.009h158.302c10.696 0 16.058-12.931 8.49-20.499l-158.302-158.3024c-7.559-7.5583-20.499-2.2058-20.499 8.4895z" fill="#7646da"/><path d="m148.909 248.833c0 6.627 5.372 12.009 12.009 12.009h158.302c10.696 0 16.058-12.931 8.49-20.499l-158.302-158.3022c-7.559-7.5583-20.499-2.2057-20.499 8.4896z" fill="#7646d9"/><path d="m149.908 247.843c0 6.627 5.373 12.009 12.009 12.009h158.303c10.695 0 16.058-12.931 8.489-20.499l-158.312-158.3022c-7.558-7.5582-20.498-2.2057-20.498 8.4896v158.3026z" fill="#7545d8"/><path d="m150.899 246.843c0 6.627 5.372 12.009 12.009 12.009h158.302c10.696 0 16.048-12.931 8.49-20.499l-158.302-158.3022c-7.559-7.5582-20.499-2.2057-20.499 8.4896z" fill="#7545d7"/><path d="m151.9 245.843c0 6.627 5.372 12.009 12.009 12.009h158.302c10.696 0 16.058-12.93 8.49-20.498l-158.302-158.3027c-7.559-7.5583-20.499-2.2057-20.499 8.4896z" fill="#7445d6"/><path d="m152.898 244.843c0 6.627 5.373 12.009 12.009 12.009h158.303c10.695 0 16.048-12.931 8.489-20.499l-158.302-158.3021c-7.558-7.5583-20.499-2.2058-20.499 8.4896z" fill="#7444d5"/><path d="m153.898 243.853c0 6.627 5.372 12.009 12.009 12.009h158.302c10.695 0 16.058-12.93 8.49-20.498l-158.312-158.3125c-7.559-7.5582-20.499-2.2057-20.499 8.4896v158.3119z" fill="#7344d4"/><path d="m154.889 242.853c0 6.627 5.372 12.009 12.009 12.009h158.302c10.696 0 16.048-12.931 8.49-20.499l-158.302-158.3021c-7.559-7.5583-20.499-2.2058-20.499 8.4896z" fill="#7344d3"/><path d="m155.889 241.853c0 6.627 5.373 12.009 12.009 12.009h158.303c10.695 0 16.057-12.93 8.489-20.498l-158.302-158.3027c-7.558-7.5582-20.499-2.2057-20.499 8.4896z" fill="#7244d2"/><path d="m156.888 240.853c0 6.627 5.372 12.009 12.009 12.009h158.302c10.695 0 16.058-12.931 8.49-20.499l-158.303-158.3022c-7.558-7.5582-20.498-2.2057-20.498 8.4896z" fill="#7243d1"/><path d="m157.888 239.863c0 6.627 5.372 12.009 12.009 12.009h158.302c10.695 0 16.058-12.93 8.49-20.498l-158.313-158.3125c-7.558-7.5582-20.498-2.2057-20.498 8.4896v158.3119z" fill="#7143d0"/><path d="m158.888 238.862c0 6.627 5.372 12.009 12.009 12.009h158.302c10.696 0 16.058-12.93 8.49-20.498l-158.312-158.3029c-7.558-7.5583-20.499-2.2057-20.499 8.4896v158.3023z" fill="#7143cf"/><path d="m159.879 237.863c0 6.627 5.372 12.009 12.009 12.009h158.302c10.695 0 16.058-12.93 8.49-20.498l-158.303-158.3027c-7.558-7.5582-20.498-2.2057-20.498 8.4896z" fill="#7043ce"/><path d="m160.88 236.864c0 6.627 5.372 12.009 12.009 12.009h158.302c10.695 0 16.058-12.93 8.49-20.498l-158.303-158.3027c-7.558-7.5582-20.498-2.2057-20.498 8.4896z" fill="#6f42cd"/><path d="m161.879 235.873c0 6.627 5.372 12.009 12.009 12.009h158.302c10.696 0 16.058-12.93 8.49-20.498l-158.312-158.3125c-7.558-7.5582-20.499-2.2057-20.499 8.4896v158.3119z" fill="#6f42cc"/><path d="m162.877 234.873c0 6.627 5.373 12.009 12.009 12.009h158.303c10.695 0 16.057-12.931 8.489-20.499l-158.312-158.3021c-7.558-7.5583-20.498-2.2057-20.498 8.4896v158.3025z" fill="#6e42cb"/><path d="m163.869 233.873c0 6.627 5.372 12.009 12.009 12.009h158.302c10.695 0 16.058-12.93 8.49-20.498l-158.303-158.3026c-7.558-7.5583-20.498-2.2058-20.498 8.4896z" fill="#6e41ca"/><path d="m164.869 232.873c0 6.627 5.372 12.009 12.009 12.009h158.302c10.696 0 16.058-12.93 8.49-20.498l-158.303-158.3027c-7.558-7.5582-20.498-2.2057-20.498 8.4896z" fill="#6d41c9"/><path d="m165.869 231.874c0 6.627 5.372 12.009 12.009 12.009h158.302c10.696 0 16.058-12.93 8.49-20.498l-158.312-158.3027c-7.558-7.5583-20.499-2.2057-20.499 8.4896v158.3021z" fill="#6d41c8"/><path d="m166.869 230.883c0 6.627 5.373 12.009 12.009 12.009h158.303c10.695 0 16.057-12.93 8.489-20.498l-158.312-158.3026c-7.558-7.5583-20.498-2.2058-20.498 8.4895v158.3021z" fill="#6c41c7"/><path d="m167.858 229.883c0 6.627 5.372 12.009 12.009 12.009h158.302c10.696 0 16.058-12.93 8.49-20.498l-158.303-158.3026c-7.558-7.5583-20.498-2.2058-20.498 8.4895z" fill="#6c40c6"/><path d="m168.858 228.883c0 6.627 5.372 12.009 12.009 12.009h158.303c10.695 0 16.057-12.93 8.489-20.498l-158.302-158.3026c-7.558-7.5583-20.499-2.2057-20.499 8.4896z" fill="#6b40c5"/><path d="m169.859 227.883c0 6.627 5.372 12.009 12.009 12.009h158.303c10.695 0 16.057-12.93 8.489-20.498l-158.302-158.3029c-7.558-7.5582-20.499-2.2057-20.499 8.4896z" fill="#6b40c4"/><path d="m170.859 226.894c0 6.627 5.372 12.009 12.009 12.009h158.302c10.695 0 16.058-12.931 8.49-20.499l-158.313-158.3021c-7.558-7.5583-20.498-2.2057-20.498 8.4896v158.3025z" fill="#6a40c3"/><path d="m171.847 225.894c0 6.627 5.372 12.009 12.009 12.009h158.303c10.695 0 16.057-12.931 8.489-20.499l-158.302-158.3024c-7.559-7.5583-20.499-2.2057-20.499 8.4896z" fill="#6a3fc2"/><path d="m172.848 224.894c0 6.627 5.372 12.009 12.009 12.009h158.303c10.695 0 16.057-12.931 8.489-20.499l-158.302-158.3024c-7.559-7.5583-20.499-2.2057-20.499 8.4896z" fill="#693fc1"/><path d="m173.849 223.894c0 6.627 5.372 12.009 12.009 12.009h158.302c10.695 0 16.058-12.931 8.49-20.499l-158.303-158.3024c-7.558-7.5583-20.498-2.2057-20.498 8.4896z" fill="#693fc0"/><path d="m174.849 222.903c0 6.627 5.372 12.009 12.009 12.009h158.302c10.695 0 16.048-12.93 8.49-20.498l-158.313-158.3127c-7.558-7.5582-20.498-2.2057-20.498 8.4896v158.3121z" fill="#683ebf"/><path d="m175.839 221.904c0 6.627 5.372 12.009 12.009 12.009h158.303c10.695 0 16.057-12.931 8.489-20.499l-158.302-158.3024c-7.559-7.5583-20.499-2.2057-20.499 8.4896z" fill="#683ebe"/><path d="m176.84 220.904c0 6.627 5.372 12.009 12.009 12.009h158.302c10.695 0 16.058-12.931 8.49-20.499l-158.303-158.3024c-7.558-7.5583-20.498-2.2057-20.498 8.4896z" fill="#673ebd"/><path d="m177.838 219.905c0 6.627 5.372 12.009 12.009 12.009h158.302c10.696 0 16.058-12.931 8.49-20.499l-158.303-158.3024c-7.558-7.5583-20.498-2.2057-20.498 8.4896z" fill="#673ebc"/><path d="m178.838 218.914c0 6.627 5.372 12.009 12.009 12.009h158.302c10.696 0 16.058-12.931 8.49-20.499l-158.312-158.3122c-7.559-7.5583-20.499-2.2057-20.499 8.4896v158.3126z" fill="#663dbb"/><path d="m179.838 217.914c0 6.627 5.372 12.009 12.009 12.009h158.303c10.695 0 16.057-12.931 8.489-20.499l-158.312-158.3024c-7.558-7.5582-20.499-2.2057-20.499 8.4896v158.3028z" fill="#663dba"/><path d="m180.829 216.914c0 6.627 5.372 12.009 12.009 12.009h158.302c10.696 0 16.058-12.931 8.49-20.499l-158.303-158.3024c-7.558-7.5582-20.498-2.2057-20.498 8.4896z" fill="#653db9"/><path d="m181.828 215.914c0 6.627 5.372 12.009 12.009 12.009h158.302c10.696 0 16.058-12.93 8.49-20.498l-158.303-158.3029c-7.558-7.5583-20.498-2.2057-20.498 8.4896z" fill="#653db8"/><path d="m182.827 214.924c0 6.627 5.372 12.009 12.009 12.009h158.303c10.695 0 16.057-12.93 8.489-20.498l-158.312-158.3127c-7.558-7.5582-20.499-2.2057-20.499 8.4896v158.3121z" fill="#643cb7"/><path d="m183.829 213.924c0 6.627 5.372 12.009 12.009 12.009h158.302c10.695 0 16.058-12.931 8.49-20.499l-158.303-158.3023c-7.558-7.5583-20.498-2.2058-20.498 8.4896z" fill="#643cb6"/><path d="m184.819 212.924c0 6.627 5.372 12.009 12.009 12.009h158.302c10.696 0 16.058-12.931 8.49-20.499l-158.303-158.3024c-7.558-7.5582-20.498-2.2057-20.498 8.4896z" fill="#633cb5"/><path d="m185.817 211.924c0 6.627 5.372 12.009 12.009 12.009h158.303c10.695 0 16.057-12.93 8.489-20.498l-158.302-158.3029c-7.559-7.5582-20.499-2.2057-20.499 8.4896z" fill="#633bb4"/><path d="m186.818 210.924c0 6.627 5.372 12.009 12.008 12.009h158.303c10.695 0 16.058-12.931 8.489-20.499l-158.302-158.3023c-7.558-7.5583-20.498-2.2058-20.498 8.4895z" fill="#623bb3"/><path d="m187.819 209.934c0 6.627 5.372 12.009 12.008 12.009h158.303c10.695 0 16.058-12.93 8.49-20.498l-158.303-158.3028c-7.558-7.5583-20.498-2.2058-20.498 8.4895z" fill="#623bb2"/><path d="m188.808 208.934c0 6.627 5.372 12.009 12.009 12.009h158.302c10.696 0 16.048-12.931 8.49-20.499l-158.302-158.3023c-7.559-7.5583-20.499-2.2058-20.499 8.4896z" fill="#613bb1"/><path d="m189.808 207.934c0 6.627 5.373 12.009 12.009 12.009h158.303c10.695 0 16.058-12.93 8.489-20.498l-158.302-158.3029c-7.558-7.5582-20.499-2.2057-20.499 8.4896z" fill="#613ab0"/><path d="m190.807 206.934c0 6.627 5.373 12.009 12.009 12.009h158.303c10.695 0 16.048-12.93 8.489-20.498l-158.302-158.3028c-7.558-7.5583-20.499-2.2058-20.499 8.4895z" fill="#603aaf"/><path d="m191.808 205.944c0 6.627 5.372 12.009 12.009 12.009h158.302c10.695 0 16.058-12.93 8.49-20.498l-158.303-158.3029c-7.558-7.5582-20.498-2.2057-20.498 8.4896z" fill="#603aae"/><path d="m192.797 204.944c0 6.627 5.373 12.009 12.009 12.009h158.303c10.695 0 16.057-12.931 8.489-20.499l-158.302-158.3021c-7.558-7.5583-20.499-2.2057-20.499 8.4896z" fill="#5f3aad"/><path d="m193.798 203.944c0 6.627 5.373 12.009 12.009 12.009h158.303c10.695 0 16.058-12.931 8.489-20.499l-158.302-158.3021c-7.558-7.5583-20.499-2.2057-20.499 8.4896z" fill="#5f39ac"/><path d="m194.799 202.944c0 6.627 5.372 12.009 12.009 12.009h158.302c10.695 0 16.058-12.931 8.49-20.499l-158.303-158.3021c-7.558-7.5583-20.498-2.2057-20.498 8.4896z" fill="#5e39ab"/><path d="m195.797 201.954c0 6.627 5.372 12.009 12.009 12.009h158.303c10.695 0 16.057-12.931 8.489-20.499l-158.302-158.3021c-7.559-7.5583-20.499-2.2057-20.499 8.4896z" fill="#5e39aa"/><path d="m196.787 200.954c0 6.627 5.373 12.009 12.009 12.009h158.303c10.695 0 16.057-12.931 8.489-20.499l-158.302-158.3021c-7.558-7.5582-20.499-2.2057-20.499 8.4896z" fill="#5d38a9"/><path d="m197.788 199.954c0 6.627 5.372 12.009 12.009 12.009h158.302c10.695 0 16.058-12.93 8.49-20.498l-158.303-158.3026c-7.558-7.5583-20.498-2.2057-20.498 8.4896z" fill="#5d38a8"/><path d="m198.788 198.954c0 6.627 5.372 12.009 12.009 12.009h158.302c10.696 0 16.058-12.931 8.49-20.499l-158.302-158.3021c-7.559-7.5583-20.499-2.2057-20.499 8.4896z" fill="#5c38a7"/><path d="m199.787 197.964c0 6.627 5.372 12.009 12.009 12.009h158.302c10.696 0 16.048-12.931 8.49-20.499l-158.302-158.3021c-7.559-7.5583-20.499-2.2057-20.499 8.4896z" fill="#5c38a6"/><path d="m200.779 196.964c0 6.627 5.372 12.009 12.009 12.009h158.302c10.695 0 16.058-12.93 8.49-20.498l-158.303-158.3026c-7.558-7.5583-20.498-2.2057-20.498 8.4896z" fill="#5b37a5"/><path d="m201.777 195.964c0 6.627 5.372 12.009 12.009 12.009h158.302c10.696 0 16.048-12.93 8.49-20.498l-158.302-158.3026c-7.559-7.5582-20.499-2.2057-20.499 8.4896z" fill="#5b37a4"/><path d="m202.778 194.964c0 6.627 5.372 12.009 12.009 12.009h158.302c10.696 0 16.058-12.931 8.49-20.499l-158.302-158.3021c-7.559-7.5583-20.499-2.2057-20.499 8.4896z" fill="#5a37a3"/><path d="m203.778 193.974c0 6.627 5.373 12.009 12.009 12.009h158.303c10.695 0 16.048-12.93 8.489-20.498l-158.302-158.3026c-7.558-7.5582-20.499-2.2057-20.499 8.4896z" fill="#5a37a2"/><path d="m204.777 192.975c0 6.627 5.372 12.009 12.009 12.009h158.302c10.695 0 16.058-12.931 8.49-20.499l-158.303-158.3021c-7.558-7.5583-20.498-2.2057-20.498 8.4896z" fill="#5936a1"/><path d="m205.767 191.974c0 6.627 5.372 12.009 12.009 12.009h158.302c10.696 0 16.048-12.93 8.49-20.498l-158.302-158.3026c-7.559-7.5583-20.499-2.2057-20.499 8.4896z" fill="#5936a0"/><path d="m206.767 190.975c0 6.627 5.373 12.009 12.009 12.009h158.303c10.695 0 16.057-12.93 8.489-20.498l-158.302-158.3026c-7.558-7.5583-20.499-2.2057-20.499 8.4896z" fill="#58369f"/><path d="m207.768 189.984c0 6.627 5.372 12.009 12.009 12.009h158.302c10.695 0 16.058-12.93 8.49-20.498l-158.303-158.3026c-7.558-7.5582-20.498-2.2057-20.498 8.4896z" fill="#57359e"/><path d="m208.766 188.984c0 6.627 5.372 12.009 12.009 12.009h158.302c10.696 0 16.058-12.93 8.49-20.498l-158.302-158.3026c-7.559-7.5582-20.499-2.2057-20.499 8.4896z" fill="#57359d"/><path d="m209.758 187.984c0 6.627 5.373 12.009 12.009 12.009h158.303c10.695 0 16.057-12.931 8.489-20.499l-158.302-158.302c-7.558-7.5583-20.499-2.2058-20.499 8.4895z" fill="#56359c"/><path d="m210.757 186.984c0 6.627 5.372 12.009 12.009 12.009h158.302c10.695 0 16.058-12.93 8.49-20.498l-158.303-158.3026c-7.558-7.5582-20.498-2.2057-20.498 8.4896z" fill="#56359b"/><path d="m211.758 185.985c0 6.627 5.372 12.009 12.009 12.009h158.302c10.695 0 16.048-12.931 8.49-20.499l-158.303-158.3021c-7.558-7.5583-20.498-2.2057-20.498 8.4896z" fill="#55349a"/><path d="m212.756 184.995c0 6.627 5.372 12.009 12.009 12.009h158.302c10.696 0 16.058-12.931 8.49-20.499l-158.302-158.3021c-7.559-7.5582-20.499-2.2057-20.499 8.4896z" fill="#553499"/><path d="m213.748 183.994c0 6.627 5.372 12.009 12.009 12.009h158.302c10.695 0 16.048-12.93 8.49-20.498l-158.303-158.3028c-7.558-7.55828-20.498-2.2057-20.498 8.4896z" fill="#543498"/><path d="m214.749 182.994c0 6.627 5.372 12.009 12.009 12.009h158.302c10.695 0 16.058-12.93 8.49-20.498l-158.303-158.3028c-7.558-7.55828-20.498-2.2057-20.498 8.4896z" fill="#543497"/><path d="m215.747 181.995c0 6.627 5.372 12.009 12.009 12.009h158.302c10.696 0 16.048-12.931 8.49-20.499l-158.302-158.3023c-7.559-7.55828-20.499-2.2057-20.499 8.4896z" fill="#533396"/><path d="m216.747 181.004c0 6.627 5.372 12.009 12.009 12.009h158.303c10.695 0 16.057-12.93 8.489-20.498l-158.302-158.3028c-7.558-7.55827-20.499-2.2057-20.499 8.4896z" fill="#533395"/><path d="m217.738 180.005c0 6.627 5.372 12.009 12.009 12.009h158.302c10.695 0 16.048-12.931 8.49-20.499l-158.303-158.3023c-7.558-7.55827-20.498-2.2057-20.498 8.4896z" fill="#523394"/><path d="m218.738 179.005c0 6.627 5.372 12.009 12.009 12.009h158.302c10.696 0 16.058-12.931 8.49-20.499l-158.302-158.3023c-7.559-7.55828-20.499-2.2057-20.499 8.4896z" fill="#523293"/><path d="m219.736 178.005c0 6.627 5.372 12.009 12.009 12.009h158.303c10.695 0 16.048-12.931 8.489-20.499l-158.302-158.3023c-7.558-7.55828-20.499-2.20573-20.499 8.4896z" fill="#513292"/><path d="m220.737 177.015c0 6.627 5.372 12.009 12.009 12.009h158.303c10.695 0 16.057-12.931 8.489-20.499l-158.302-158.3023c-7.558-7.55827-20.499-2.2057-20.499 8.4896z" fill="#513291"/><path d="m221.727 176.015c0 6.627 5.372 12.009 12.009 12.009h158.302c10.696 0 16.058-12.93 8.49-20.498l-158.303-158.30281c-7.558-7.55827-20.498-2.20572-20.498 8.48961z" fill="#503290"/><path d="m222.727 175.015c0 6.627 5.372 12.009 12.009 12.009h158.303c10.695 0 16.057-12.93 8.489-20.498l-158.302-158.30279c-7.558-7.558278-20.499-2.20575-20.499 8.48959z" fill="#50318f"/><path d="m223.726 174.015c0 6.627 5.372 12.009 12.009 12.009h158.303c10.695 0 16.057-12.931 8.489-20.499l-158.302-158.30228c-7.558-7.558291-20.499-2.20572-20.499 8.48958z" fill="#4f318e"/><path d="m224.727 173.024c0 6.627 5.372 12.009 12.009 12.009h158.302c10.695 0 16.058-12.93 8.49-20.498l-158.303-158.30276c-7.558-7.55829-20.498-2.20572-20.498 8.48956z" fill="#4f318d"/><path d="m225.727 172.025c0 6.627 5.372 12.009 12.009 12.009h158.302c10.696 0 16.058-12.931 8.49-20.499l-158.303-158.30227c-7.558-7.55829-20.498-2.20572-20.498 8.48957z" fill="#4e318c"/><path d="m226.717 171.025c0 6.627 5.372 12.009 12.009 12.009h158.303c10.695 0 16.057-12.931 8.489-20.499l-158.302-158.30227c-7.559-7.55828-20.499-2.20572-20.499 8.48957z" fill="#4e308b"/><path d="m227.718 170.025c0 6.627 5.372 12.009 12.009 12.009h158.302c10.695 0 16.058-12.93 8.49-20.498l-158.303-158.30278c-7.558-7.55829-20.498-2.20572-20.498 8.48958z" fill="#4d308a"/><path d="m228.716 169.035c0 6.627 5.372 12.009 12.009 12.009h158.302c10.696 0 16.058-12.931 8.49-20.499l-158.303-158.30226c-7.558-7.55828-20.498-2.2057222-20.498 8.48956z" fill="#4d3089"/><path d="m229.717 168.035c0 6.627 5.372 12.009 12.009 12.009h158.302c10.696 0 16.058-12.931 8.49-20.499l-158.303-158.30226c-7.558-7.55829-20.498-2.205722-20.498 8.48959z" fill="#4c2f88"/><path d="m230.707 167.035c0 6.627 5.372 12.009 12.008 12.009h158.303c10.695 0 16.058-12.93 8.49-20.498l-158.303-158.30279c-7.558-7.55827-20.498-2.20572-20.498 8.48959z" fill="#4c2f87"/><path d="m231.707 166.035c0 6.627 5.372 12.009 12.009 12.009h158.302c10.696 0 16.058-12.93 8.49-20.498l-158.303-158.302775c-7.558-7.558275-20.498-2.205715-20.498 8.489595z" fill="#4b2f86"/><path d="m232.708 165.035c0 6.627 5.372 12.009 12.009 12.009h158.302c10.696 0 16.058-12.93 8.49-20.498l-158.303-158.30277c-7.558-7.55829-20.498-2.20572-20.498 8.48959z" fill="#4b2f85"/><path d="m233.706 164.045c0 6.627 5.372 12.009 12.009 12.009h158.303c10.695 0 16.057-12.93 8.489-20.498l-158.302-158.30276c-7.559-7.55824-20.499-2.20575-20.499 8.48956z" fill="#4a2e84"/><path d="m234.699 163.045c0 6.627 5.372 12.009 12.008 12.009h158.303c10.695 0 16.058-12.93 8.49-20.499l-158.303-158.30201c-7.558-7.55829-20.498-2.20572-20.498 8.48959z" fill="#4a2e83"/><path d="m235.697 162.045c0 6.626 5.372 12.008 12.009 12.008h158.302c10.696 0 16.058-12.93 8.49-20.498l-158.303-158.30251c-7.558-7.55829-20.498-2.20572-20.498 8.48959z" fill="#492e82"/><path d="m236.697 161.045c0 6.627 5.372 12.009 12.009 12.009h158.303c10.695 0 16.057-12.93 8.489-20.499l-158.302-158.30201c-7.559-7.55829-20.499-2.20575-20.499 8.48956z" fill="#492d81"/><path d="m237.698 160.056c0 6.626 5.372 12.008 12.009 12.008h158.302c10.695 0 16.058-12.93 8.49-20.498l-158.303-158.30253c-7.558-7.55827-20.498-2.20572-20.498 8.4896z" fill="#482d80"/><path d="m238.688 159.056c0 6.626 5.372 12.008 12.009 12.008h158.302c10.696 0 16.058-12.93 8.49-20.498l-158.303-158.30251c-7.558-7.55829-20.498-2.20572-20.498 8.489592z" fill="#482d7f"/><path d="m239.686 158.055c0 6.627 5.372 12.008 12.009 12.008h158.303c10.695 0 16.047-12.93 8.489-20.498l-158.302-158.3025c-7.559-7.5583-20.499-2.2057-20.499 8.48959z" fill="#472d7e"/><path d="m240.687 157.055c0 6.627 5.372 12.009 12.008 12.009h158.303c10.695 0 16.058-12.93 8.49-20.499l-158.303-158.30201c-7.558-7.55829-20.498-2.20569-20.498 8.48959z" fill="#472c7d"/><path d="m241.688 156.065c0 6.627 5.372 12.009 12.008 12.009h158.303c10.695 0 16.058-12.93 8.489-20.499l-158.302-158.302c-7.558-7.5583-20.498-2.2057-20.498 8.48959z" fill="#462c7c"/><path d="m242.677 155.066c0 6.626 5.372 12.008 12.009 12.008h158.303c10.695 0 16.057-12.93 8.489-20.498l-158.302-158.3025c-7.559-7.5583-20.499-2.2057-20.499 8.48959z" fill="#462c7b"/><path d="m243.677 154.065c0 6.627 5.373 12.009 12.009 12.009h158.303c10.695 0 16.058-12.93 8.489-20.499l-158.302-158.302c-7.558-7.5583-20.499-2.2057-20.499 8.4896z" fill="#452c7a"/><path d="m244.677 153.066c0 6.626 5.372 12.008 12.008 12.008h158.303c10.695 0 16.058-12.93 8.489-20.498l-158.302-158.3025c-7.558-7.5583-20.498-2.2057-20.498 8.48958z" fill="#452b79"/><path d="m245.677 152.076c0 6.627 5.372 12.008 12.009 12.008h158.302c10.696 0 16.058-12.93 8.49-20.498l-158.303-158.3025c-7.558-7.5583-20.498-2.2057-20.498 8.4896z" fill="#442b78"/><path d="m246.666 151.076c0 6.627 5.373 12.008 12.009 12.008h158.303c10.695 0 16.058-12.93 8.489-20.498l-158.302-158.3025c-7.558-7.5583-20.499-2.2057-20.499 8.48959z" fill="#442b77"/><path d="m247.667 150.076c0 6.627 5.373 12.008 12.009 12.008h158.303c10.695 0 16.058-12.93 8.489-20.498l-158.302-158.3025c-7.558-7.5583-20.499-2.2057-20.499 8.48957z" fill="#432a76"/><path d="m248.666 149.076c0 6.627 5.372 12.008 12.009 12.008h158.302c10.695 0 16.058-12.93 8.49-20.498l-158.303-158.3025c-7.558-7.5583-20.498-2.2057-20.498 8.4896z" fill="#432a75"/><path d="m249.666 148.086c0 6.627 5.372 12.008 12.009 12.008h158.303c10.695 0 16.057-12.93 8.489-20.498l-158.302-158.3025c-7.559-7.5583-20.499-2.2057-20.499 8.4896z" fill="#422a74"/><path d="m250.667 147.085c0 6.627 5.372 12.009 12.009 12.009h158.303c10.695 0 16.057-12.93 8.489-20.499l-158.302-158.302c-7.559-7.5583-20.499-2.2057-20.499 8.4896z" fill="#422a73"/><path d="m251.657 146.086c0 6.627 5.372 12.008 12.009 12.008h158.302c10.695 0 16.058-12.93 8.49-20.498l-158.303-158.3025c-7.558-7.5583-20.498-2.2057-20.498 8.4896z" fill="#412972"/><path d="m252.655 145.086c0 6.627 5.372 12.009 12.009 12.009h158.302c10.696 0 16.058-12.93 8.49-20.499l-158.302-158.302c-7.559-7.5583-20.499-2.2057-20.499 8.4896z" fill="#412971"/><path d="m253.656 144.096c0 6.627 5.372 12.008 12.009 12.008h158.303c10.695 0 16.057-12.93 8.489-20.498l-158.302-158.3025c-7.559-7.5583-20.499-2.2057-20.499 8.4896z" fill="#402970"/><path d="m254.656 143.096c0 6.627 5.373 12.008 12.009 12.008h158.303c10.695 0 16.057-12.93 8.489-20.498l-158.302-158.3025c-7.558-7.5583-20.499-2.2057-20.499 8.4896z" fill="#40296f"/><path d="m255.646 142.095c0 6.627 5.372 12.009 12.009 12.009h158.302c10.696 0 16.058-12.93 8.49-20.498l-158.302-158.3027c-7.559-7.5583-20.499-2.2058-20.499 8.4896z" fill="#3f286e"/><path d="m256.647 141.095c0 6.627 5.372 12.009 12.009 12.009h158.302c10.696 0 16.058-12.93 8.49-20.498l-158.302-158.3027c-7.559-7.5583-20.499-2.2057-20.499 8.4896z" fill="#3e286d"/><path d="m257.645 140.095c0 6.627 5.373 12.009 12.009 12.009h158.303c10.695 0 16.057-12.93 8.489-20.498l-158.302-158.3027c-7.558-7.5583-20.499-2.2057-20.499 8.4896z" fill="#3e286c"/><path d="m258.646 139.105c0 6.627 5.372 12.009 12.009 12.009h158.302c10.695 0 16.058-12.93 8.49-20.498l-158.303-158.3027c-7.558-7.5583-20.498-2.2057-20.498 8.4896z" fill="#3d276b"/><path d="m259.636 138.106c0 6.627 5.372 12.009 12.009 12.009h158.302c10.696 0 16.058-12.931 8.49-20.499l-158.302-158.3022c-7.559-7.5583-20.499-2.2057-20.499 8.4896z" fill="#3d276a"/><path d="m260.636 137.106c0 6.627 5.373 12.009 12.009 12.009h158.303c10.695 0 16.057-12.931 8.489-20.499l-158.302-158.3022c-7.558-7.5583-20.499-2.2058-20.499 8.4896z" fill="#3c2769"/><path d="m261.637 136.106c0 6.627 5.372 12.009 12.009 12.009h158.302c10.695 0 16.058-12.931 8.49-20.499l-158.303-158.3022c-7.558-7.5583-20.498-2.2058-20.498 8.4895z" fill="#3c2768"/><path d="m262.636 135.116c0 6.627 5.372 12.009 12.009 12.009h158.302c10.695 0 16.058-12.931 8.49-20.499l-158.303-158.3022c-7.558-7.5583-20.498-2.2057-20.498 8.4896z" fill="#3b2667"/><path d="m263.625 134.116c0 6.627 5.373 12.009 12.009 12.009h158.303c10.695 0 16.057-12.931 8.489-20.499l-158.302-158.3022c-7.558-7.5583-20.499-2.2058-20.499 8.4896z" fill="#3b2666"/><path d="m264.626 133.116c0 6.627 5.372 12.009 12.009 12.009h158.302c10.695 0 16.058-12.931 8.49-20.499l-158.303-158.3022c-7.558-7.5583-20.498-2.2057-20.498 8.4896z" fill="#3a2665"/><path d="m265.627 132.115c0 6.627 5.372 12.009 12.009 12.009h158.302c10.695 0 16.058-12.93 8.49-20.498l-158.303-158.3027c-7.558-7.5583-20.498-2.2057-20.498 8.4896z" fill="#3a2664"/><path d="m266.625 131.125c0 6.627 5.372 12.009 12.009 12.009h158.302c10.696 0 16.058-12.93 8.49-20.498l-158.302-158.3027c-7.559-7.5583-20.499-2.2057-20.499 8.4896z" fill="#392563"/><path d="m267.617 130.126c0 6.627 5.372 12.009 12.009 12.009h158.302c10.695 0 16.058-12.931 8.49-20.499l-158.303-158.3022c-7.558-7.5583-20.498-2.2057-20.498 8.4896z" fill="#392562"/><path d="m268.616 129.126c0 6.627 5.372 12.009 12.009 12.009h158.302c10.695 0 16.058-12.93 8.49-20.498l-158.303-158.3027c-7.558-7.5583-20.498-2.2057-20.498 8.4896z" fill="#382561"/><path d="m269.616 128.126c0 6.627 5.372 12.009 12.009 12.009h158.302c10.696 0 16.058-12.931 8.49-20.499l-158.302-158.3022c-7.559-7.5583-20.499-2.2057-20.499 8.4896z" fill="#382460"/><path d="m270.616 127.136c0 6.627 5.372 12.009 12.009 12.009h158.303c10.695 0 16.057-12.93 8.489-20.498l-158.302-158.3027c-7.558-7.5583-20.499-2.2057-20.499 8.4896z" fill="#37245f"/><path d="m271.615 126.136c0 6.627 5.372 12.009 12.009 12.009h158.302c10.695 0 16.058-12.931 8.49-20.499l-158.303-158.3022c-7.558-7.5583-20.498-2.2057-20.498 8.4896z" fill="#37245e"/><path d="m272.607 125.136c0 6.627 5.372 12.009 12.009 12.009h158.302c10.696 0 16.058-12.931 8.49-20.499l-158.302-158.3022c-7.559-7.5583-20.499-2.2057-20.499 8.4896z" fill="#36245d"/><path d="m273.605 124.136c0 6.627 5.372 12.009 12.009 12.009h158.303c10.695 0 16.057-12.931 8.489-20.499l-158.302-158.3022c-7.558-7.5583-20.499-2.2057-20.499 8.4896z" fill="#36235c"/><path d="m274.606 123.146c0 6.627 5.372 12.009 12.009 12.009h158.303c10.695 0 16.057-12.93 8.489-20.498l-158.302-158.3027c-7.558-7.5583-20.499-2.2057-20.499 8.4896z" fill="#35235b"/><path d="m275.607 122.146c0 6.627 5.372 12.009 12.009 12.009h158.302c10.695 0 16.058-12.93 8.49-20.498l-158.303-158.3027c-7.558-7.5583-20.498-2.2057-20.498 8.4896z" fill="#35235a"/><path d="m276.596 121.146c0 6.627 5.372 12.009 12.009 12.009h158.303c10.695 0 16.057-12.93 8.489-20.498l-158.302-158.3027c-7.558-7.5583-20.499-2.2057-20.499 8.4896z" fill="#342359"/><path d="m277.595 120.146c0 6.627 5.372 12.009 12.009 12.009h158.303c10.695 0 16.057-12.93 8.489-20.499l-158.302-158.3019c-7.558-7.5583-20.499-2.2058-20.499 8.4895z" fill="#342258"/><path d="m278.596 119.146c0 6.627 5.372 12.009 12.009 12.009h158.302c10.695 0 16.058-12.93 8.49-20.498l-158.303-158.303c-7.558-7.5582-20.498-2.2057-20.498 8.4896z" fill="#332257"/><path d="m279.596 118.156c0 6.627 5.372 12.009 12.009 12.009h158.302c10.696 0 16.058-12.93 8.49-20.498l-158.303-158.3029c-7.558-7.5583-20.498-2.2058-20.498 8.4895z" fill="#332256"/><path d="m280.586 117.156c0 6.627 5.372 12.009 12.009 12.009h158.303c10.695 0 16.057-12.931 8.489-20.499l-158.302-158.3024c-7.559-7.5583-20.499-2.2057-20.499 8.4896z" fill="#322155"/><path d="m281.585 116.156c0 6.627 5.372 12.009 12.009 12.009h158.302c10.695 0 16.058-12.93 8.49-20.498l-158.303-158.3029c-7.558-7.5583-20.498-2.2058-20.498 8.4896z" fill="#322154"/><path d="m282.585 115.156c0 6.627 5.372 12.009 12.009 12.009h158.302c10.696 0 16.058-12.93 8.49-20.498l-158.303-158.3029c-7.558-7.5583-20.498-2.2057-20.498 8.4896z" fill="#312153"/><path d="m283.586 114.166c0 6.627 5.372 12.009 12.009 12.009h158.302c10.696 0 16.048-12.93 8.49-20.498l-158.303-158.3029c-7.558-7.5583-20.498-2.2057-20.498 8.4896z" fill="#312152"/><path d="m284.576 113.166c0 6.627 5.372 12.009 12.009 12.009h158.302c10.695 0 16.058-12.93 8.49-20.498l-158.303-158.3029c-7.558-7.5583-20.498-2.2057-20.498 8.4896z" fill="#302051"/><path d="m285.576 112.167c0 6.627 5.372 12.009 12.009 12.009h158.302c10.696 0 16.048-12.931 8.49-20.499l-158.303-158.3024c-7.558-7.5583-20.498-2.2058-20.498 8.4896z" fill="#302050"/><path d="m286.575 111.166c0 6.627 5.372 12.009 12.009 12.009h158.303c10.695 0 16.057-12.93 8.489-20.498l-158.302-158.3029c-7.559-7.5583-20.499-2.2057-20.499 8.4896z" fill="#2f204f"/><path d="m287.575 110.177c0 6.627 5.372 12.009 12.009 12.009h158.303c10.695 0 16.057-12.931 8.489-20.499l-158.302-158.3024c-7.558-7.5583-20.499-2.2058-20.499 8.4896z" fill="#2f204e"/><path d="m288.565 109.176c0 6.627 5.372 12.009 12.009 12.009h158.302c10.696 0 16.048-12.93 8.49-20.498l-158.303-158.3029c-7.558-7.5583-20.498-2.2057-20.498 8.4896z" fill="#2e1f4d"/><path d="m289.566 108.177c0 6.627 5.372 12.009 12.009 12.009h158.302c10.696 0 16.058-12.931 8.49-20.499l-158.303-158.3024c-7.558-7.5583-20.498-2.2057-20.498 8.4896z" fill="#2e1f4c"/><path d="m290.564 107.176c0 6.627 5.372 12.009 12.009 12.009h158.303c10.695 0 16.057-12.93 8.489-20.4985l-158.302-158.3024c-7.559-7.5583-20.499-2.2057-20.499 8.4896z" fill="#2d1f4b"/><path d="m291.565 106.186c0 6.627 5.372 12.009 12.009 12.009h158.302c10.695 0 16.058-12.93 8.49-20.4985l-158.303-158.3024c-7.558-7.5583-20.498-2.2057-20.498 8.4896z" fill="#2d1e4a"/><path d="m292.555 105.186c0 6.627 5.372 12.009 12.009 12.009h158.302c10.696 0 16.058-12.93 8.49-20.4985l-158.303-158.3024c-7.558-7.5583-20.498-2.2057-20.498 8.4896z" fill="#2c1e49"/><path d="m293.555 104.187c0 6.627 5.372 12.009 12.009 12.009h158.303c10.695 0 16.057-12.93 8.489-20.4985l-158.302-158.3024c-7.559-7.5583-20.499-2.2058-20.499 8.4895z" fill="#2c1e48"/><path d="m294.556 103.188c0 6.627 5.372 12.009 12.008 12.009h158.303c10.695 0 16.058-12.931 8.49-20.499l-158.303-158.3024c-7.558-7.5583-20.498-2.2058-20.498 8.4895z" fill="#2b1e47"/><path d="m295.555 102.197c0 6.627 5.372 12.009 12.008 12.009h158.303c10.695 0 16.058-12.93 8.489-20.4985l-158.302-158.3024c-7.558-7.5583-20.498-2.2057-20.498 8.4896z" fill="#2b1d46"/><path d="m296.555 101.197c0 6.627 5.372 12.009 12.009 12.009h158.302c10.696 0 16.058-12.931 8.49-20.499l-158.303-158.3024c-7.558-7.5583-20.498-2.2057-20.498 8.4896z" fill="#2a1d45"/><path d="m297.544 100.197c0 6.627 5.373 12.009 12.009 12.009h158.303c10.695 0 16.058-12.9309 8.489-20.499l-158.302-158.3024c-7.558-7.5583-20.499-2.2057-20.499 8.4896z" fill="#2a1d44"/><path d="m298.545 99.1964c0 6.6266 5.373 12.0086 12.009 12.0086h158.303c10.695 0 16.058-12.9301 8.489-20.4982l-158.302-158.3024c-7.558-7.5583-20.499-2.2058-20.499 8.4896z" fill="#291d43"/><path d="m299.546 98.2064c0 6.6266 5.372 12.0086 12.009 12.0086h158.302c10.696 0 16.058-12.9301 8.49-20.4982l-158.303-158.3024c-7.558-7.5583-20.498-2.2058-20.498 8.4896z" fill="#291c42"/></svg>