<svg fill="none" height="195" viewBox="0 0 300 195" width="300" xmlns="http://www.w3.org/2000/svg" xmlns:xlink="http://www.w3.org/1999/xlink"><clipPath id="a"><path d="m0 0h431v431h-431z" transform="matrix(0 1 -1 0 358 0)"/></clipPath><g clip-path="url(#a)"><path d="m358 12.2432c0-6.76625-5.477-12.24320024-12.243-12.24320054l-161.39-.00000705c-10.904-.00000048-16.371 13.18270759-8.655 20.89840759l161.39 161.3906c7.715 7.705 20.898 2.248 20.898-8.656z" fill="#77fc02"/><path d="m356.971 13.2725c0-6.75626-5.477-12.2432-12.244-12.2432l-161.39-.00001c-10.904 0-16.371 13.18271-8.655 20.89841l161.39 161.3903c7.706 7.706 20.899 2.249 20.899-8.655z" fill="#77fb02"/><path d="m355.94 14.3018c0-6.75626-5.477-12.24321-12.243-12.24321h-161.39c-10.904 0-16.371 13.18261-8.655 20.89841l161.39 161.39c7.705 7.706 20.898 2.249 20.898-8.655z" fill="#76fa02"/><path d="m354.912 15.3316c0-6.75628-5.477-12.24322-12.243-12.24322l-161.39-.00001c-10.904 0-16.371 13.18263-8.656 20.89833l161.391 161.3903c7.705 7.706 20.898 2.249 20.898-8.655z" fill="#76f902"/><path d="m353.881 16.3609c0-6.75628-5.476-12.24322-12.243-12.24322l-161.39-.00001c-10.904 0-16.371 13.18263-8.655 20.89833l161.39 161.39c7.706 7.706 20.898 2.249 20.898-8.655z" fill="#75f802"/><path d="m352.853 17.3902c0-6.7563-5.477-12.24323-12.243-12.24323h-161.39c-10.904-.00001-16.371 13.18263-8.655 20.89833l161.39 161.3897c7.706 7.706 20.898 2.249 20.898-8.655z" fill="#75f702"/><path d="m351.823 18.4197c0-6.7562-5.477-12.24319-12.243-12.24319h-161.391c-10.903 0-16.37 13.18269-8.655 20.89839l161.39 161.3901c7.706 7.706 20.899 2.249 20.899-8.655z" fill="#74f602"/><path d="m350.793 19.4492c0-6.7562-5.476-12.24315-12.243-12.24315h-161.39c-10.904 0-16.371 13.18265-8.655 20.89835l161.39 161.3906c7.706 7.705 20.898 2.248 20.898-8.656z" fill="#74f502"/><path d="m349.764 20.4785c0-6.7562-5.477-12.24315-12.243-12.24315l-161.39-.00001c-10.904 0-16.371 13.18266-8.655 20.89836l161.39 161.3903c7.705 7.706 20.898 2.249 20.898-8.655z" fill="#73f402"/><path d="m348.735 21.5078c0-6.7562-5.477-12.24315-12.243-12.24315l-161.39-.00001c-10.904 0-16.361 13.18266-8.655 20.89836l161.39 161.39c7.706 7.706 20.898 2.249 20.898-8.655z" fill="#73f302"/><path d="m347.705 22.5374c0-6.7563-5.477-12.2432-12.243-12.2432h-161.39c-10.904 0-16.361 13.1826-8.655 20.8983l161.39 161.3905c7.706 7.705 20.898 2.248 20.898-8.655z" fill="#73f203"/><path d="m346.676 23.5667c0-6.7563-5.477-12.2432-12.244-12.2432h-161.39c-10.904 0-16.371 13.1826-8.655 20.8983l161.39 161.3902c7.706 7.706 20.899 2.249 20.899-8.655z" fill="#72f103"/><path d="m345.637 24.596c0-6.7563-5.477-12.2432-12.243-12.2432h-161.391c-10.903 0-16.37 13.1826-8.655 20.8983l161.4 161.3899c7.706 7.706 20.899 2.249 20.899-8.655v-161.39z" fill="#72f003"/><path d="m344.607 25.6255c0-6.7562-5.476-12.2432-12.243-12.2432h-161.39c-10.904 0-16.371 13.1827-8.655 20.8984l161.4 161.3903c7.706 7.706 20.898 2.249 20.898-8.655v-161.3905z" fill="#71ef03"/><path d="m343.578 26.6548c0-6.7562-5.477-12.2432-12.243-12.2432h-161.39c-10.904 0-16.371 13.1827-8.655 20.8984l161.4 161.39c7.705 7.706 20.898 2.249 20.898-8.655v-161.3902z" fill="#71ee03"/><path d="m342.548 27.6843c0-6.7562-5.477-12.2431-12.243-12.2431h-161.39c-10.904 0-16.371 13.1826-8.655 20.8983l161.4 161.3905c7.706 7.705 20.898 2.248 20.898-8.655v-161.3907z" fill="#70ed03"/><path d="m341.519 28.7144c0-6.7563-5.476-12.2432-12.243-12.2432h-161.39c-10.904 0-16.371 13.1826-8.655 20.8984l161.4 161.3904c7.706 7.705 20.898 2.248 20.898-8.655v-161.3906z" fill="#70ec03"/><path d="m340.489 29.7429c0-6.7562-5.477-12.2431-12.243-12.2431l-161.39-.0001c-10.904 0-16.371 13.1827-8.656 20.8984l161.401 161.3999c7.705 7.706 20.898 2.249 20.898-8.655v-161.4001z" fill="#6feb03"/><path d="m339.46 30.7725c0-6.7563-5.477-12.2432-12.244-12.2432h-161.39c-10.904 0-16.361 13.1826-8.655 20.8984l161.4 161.4003c7.706 7.706 20.899 2.249 20.899-8.655v-161.4005z" fill="#6fea03"/><path d="m338.431 31.8023c0-6.7563-5.477-12.2432-12.243-12.2432h-161.39c-10.904 0-16.371 13.1826-8.656 20.8983l161.4 161.4006c7.706 7.705 20.899 2.248 20.899-8.656v-161.3997z" fill="#6fe903"/><path d="m337.401 32.8416c0-6.7563-5.477-12.2432-12.243-12.2432h-161.39c-10.904 0-16.371 13.1826-8.655 20.8983l161.39 161.3903c7.706 7.706 20.898 2.249 20.898-8.655z" fill="#6ee803"/><path d="m336.372 33.8709c0-6.7563-5.477-12.2432-12.243-12.2432h-161.39c-10.904 0-16.371 13.1826-8.656 20.8983l161.391 161.39c7.705 7.706 20.898 2.249 20.898-8.655z" fill="#6ee703"/><path d="m335.342 34.9007c0-6.7563-5.477-12.2432-12.243-12.2432h-161.39c-10.904 0-16.371 13.1826-8.655 20.8983l161.39 161.3902c7.705 7.706 20.898 2.249 20.898-8.655z" fill="#6de603"/><path d="m334.313 35.93c0-6.7563-5.477-12.2432-12.243-12.2432h-161.391c-10.904 0-16.371 13.1826-8.655 20.8983l161.39 161.3899c7.706 7.706 20.899 2.249 20.899-8.655z" fill="#6de503"/><path d="m333.284 36.9592c0-6.7562-5.477-12.2431-12.243-12.2431h-161.39c-10.904 0-16.371 13.1826-8.655 20.8983l161.39 161.3906c7.705 7.705 20.898 2.248 20.898-8.656z" fill="#6ce403"/><path d="m332.255 37.9888c0-6.7563-5.477-12.2432-12.244-12.2432h-161.39c-10.904 0-16.371 13.1827-8.655 20.8984l161.39 161.39c7.706 7.706 20.899 2.249 20.899-8.655z" fill="#6ce303"/><path d="m331.224 39.0183c0-6.7562-5.477-12.2432-12.243-12.2432h-161.39c-10.904 0-16.371 13.1827-8.655 20.8984l161.39 161.3905c7.705 7.705 20.898 2.248 20.898-8.655z" fill="#6ce203"/><path d="m330.195 40.0476c0-6.7562-5.477-12.2432-12.243-12.2432h-161.391c-10.904 0-16.37 13.1827-8.655 20.8984l161.39 161.3902c7.706 7.706 20.899 2.249 20.899-8.655z" fill="#6be103"/><path d="m329.166 41.0769c0-6.7562-5.477-12.2432-12.243-12.2432h-161.39c-10.904 0-16.371 13.1827-8.655 20.8984l161.39 161.3899c7.705 7.706 20.898 2.249 20.898-8.655z" fill="#6be003"/><path d="m328.137 42.1062c0-6.7562-5.477-12.2432-12.243-12.2432h-161.39c-10.904 0-16.371 13.1827-8.655 20.8984l161.39 161.3906c7.706 7.705 20.898 2.248 20.898-8.656z" fill="#6adf03"/><path d="m327.107 43.1358c0-6.7563-5.477-12.2432-12.243-12.2432h-161.391c-10.903 0-16.37 13.1826-8.655 20.8983l161.39 161.3901c7.706 7.706 20.899 2.249 20.899-8.655z" fill="#6ade04"/><path d="m326.078 44.1658c0-6.7562-5.477-12.2432-12.243-12.2432h-161.39c-10.904 0-16.371 13.1827-8.655 20.8984l161.39 161.39c7.705 7.706 20.898 2.249 20.898-8.655z" fill="#69dd04"/><path d="m325.047 45.1944c0-6.7563-5.476-12.2432-12.243-12.2432h-161.39c-10.904 0-16.371 13.1826-8.655 20.8983l161.39 161.3905c7.706 7.705 20.898 2.248 20.898-8.655z" fill="#69dc04"/><path d="m324.018 46.2239c0-6.7562-5.477-12.2432-12.243-12.2432h-161.39c-10.904 0-16.361 13.1827-8.655 20.8984l161.39 161.3899c7.706 7.706 20.898 2.249 20.898-8.655z" fill="#68db04"/><path d="m322.989 47.2537c0-6.7563-5.477-12.2432-12.243-12.2432h-161.39c-10.904 0-16.371 13.1827-8.655 20.8984l161.39 161.3901c7.706 7.706 20.898 2.249 20.898-8.655z" fill="#68da04"/><path d="m321.95 48.2835c0-6.7563-5.477-12.2432-12.243-12.2432h-161.39c-10.904 0-16.371 13.1826-8.655 20.8983l161.4 161.3904c7.705 7.706 20.898 2.249 20.898-8.655v-161.3905z" fill="#68d904"/><path d="m320.92 49.3123c0-6.7563-5.477-12.2432-12.243-12.2432h-161.39c-10.904 0-16.371 13.1826-8.655 20.8984l161.4 161.3905c7.706 7.705 20.898 2.248 20.898-8.656v-161.3897z" fill="#67d804"/><path d="m319.89 50.3416c0-6.7563-5.477-12.2432-12.243-12.2432h-161.39c-10.904 0-16.371 13.1826-8.655 20.8983l161.4 161.3903c7.706 7.706 20.898 2.249 20.898-8.655v-161.3904z" fill="#67d704"/><path d="m318.862 51.3711c0-6.7562-5.477-12.2432-12.244-12.2432h-161.39c-10.904 0-16.371 13.1827-8.655 20.8984l161.4 161.3897c7.706 7.706 20.899 2.249 20.899-8.655v-161.3899z" fill="#66d604"/><path d="m317.833 52.4009c0-6.7562-5.477-12.2432-12.243-12.2432h-161.391c-10.903 0-16.37 13.1827-8.655 20.8984l161.4 161.3999c7.706 7.706 20.899 2.249 20.899-8.655v-161.4001z" fill="#66d504"/><path d="m316.803 53.43c0-6.7563-5.477-12.2432-12.243-12.2432h-161.39c-10.904 0-16.371 13.1826-8.656 20.8983l161.4 161.3999c7.706 7.706 20.899 2.249 20.899-8.655v-161.4z" fill="#65d404"/><path d="m315.773 54.4592c0-6.7562-5.477-12.2431-12.243-12.2431h-161.39c-10.904 0-16.371 13.1826-8.656 20.8983l161.401 161.4006c7.705 7.705 20.898 2.248 20.898-8.656v-161.3998z" fill="#65d304"/><path d="m314.744 55.499c0-6.7562-5.477-12.2431-12.244-12.2431h-161.39c-10.904 0-16.361 13.1826-8.655 20.8983l161.4 161.3898c7.706 7.706 20.899 2.249 20.899-8.655v-161.39z" fill="#64d204"/><path d="m313.715 56.5283c0-6.7562-5.477-12.2431-12.244-12.2431l-161.39-.0001c-10.904 0-16.371 13.1827-8.655 20.8984l161.39 161.3905c7.706 7.705 20.899 2.248 20.899-8.656z" fill="#64d104"/><path d="m312.685 57.5579c0-6.7563-5.477-12.2432-12.243-12.2432h-161.39c-10.904 0-16.371 13.1827-8.655 20.8984l161.39 161.3899c7.706 7.706 20.898 2.249 20.898-8.655z" fill="#64d004"/><path d="m311.656 58.5874c0-6.7562-5.477-12.2432-12.243-12.2432h-161.39c-10.904 0-16.371 13.1827-8.656 20.8984l161.391 161.3904c7.705 7.705 20.898 2.249 20.898-8.655z" fill="#63cf04"/><path d="m310.626 59.6167c0-6.7562-5.477-12.2432-12.243-12.2432h-161.39c-10.904 0-16.371 13.1827-8.655 20.8984l161.39 161.3901c7.705 7.706 20.898 2.249 20.898-8.655z" fill="#63ce04"/><path d="m309.597 60.646c0-6.7562-5.477-12.2432-12.244-12.2432h-161.39c-10.904 0-16.371 13.1827-8.655 20.8984l161.39 161.3898c7.706 7.706 20.899 2.249 20.899-8.655z" fill="#62cd04"/><path d="m308.567 61.6753c0-6.7562-5.477-12.2432-12.243-12.2432h-161.39c-10.904 0-16.361 13.1827-8.655 20.8984l161.39 161.3905c7.706 7.705 20.898 2.248 20.898-8.656z" fill="#62cc04"/><path d="m307.539 62.7049c0-6.7563-5.477-12.2432-12.244-12.2432h-161.39c-10.904 0-16.371 13.1826-8.655 20.8983l161.39 161.39c7.706 7.706 20.899 2.249 20.899-8.655z" fill="#61cb04"/><path d="m306.509 63.7342c0-6.7563-5.477-12.2432-12.243-12.2432h-161.391c-10.904 0-16.371 13.1826-8.655 20.8983l161.39 161.3897c7.706 7.706 20.899 2.249 20.899-8.655z" fill="#61ca05"/><path d="m305.479 64.7639c0-6.7562-5.477-12.2431-12.243-12.2431l-161.391-.0001c-10.903 0-16.37 13.1827-8.655 20.8984l161.39 161.3899c7.706 7.706 20.899 2.249 20.899-8.655z" fill="#60c905"/><path d="m304.449 65.7932c0-6.7562-5.477-12.2432-12.243-12.2432h-161.39c-10.904 0-16.371 13.1827-8.655 20.8984l161.39 161.3906c7.706 7.705 20.898 2.248 20.898-8.656z" fill="#60c805"/><path d="m303.419 66.8225c0-6.7562-5.476-12.2432-12.243-12.2432h-161.39c-10.904 0-16.371 13.1827-8.655 20.8984l161.39 161.3903c7.706 7.706 20.898 2.249 20.898-8.655z" fill="#60c705"/><path d="m302.391 67.8521c0-6.7563-5.477-12.2432-12.243-12.2432h-161.39c-10.904 0-16.361 13.1826-8.655 20.8983l161.39 161.3898c7.706 7.706 20.898 2.249 20.898-8.655z" fill="#5fc605"/><path d="m301.361 68.8814c0-6.7563-5.477-12.2432-12.243-12.2432h-161.39c-10.904 0-16.371 13.1826-8.655 20.8983l161.39 161.3905c7.706 7.705 20.898 2.248 20.898-8.655z" fill="#5fc505"/><path d="m300.332 69.9107c0-6.7563-5.477-12.2432-12.243-12.2432h-161.39c-10.904 0-16.371 13.1826-8.655 20.8983l161.39 161.3902c7.705 7.706 20.898 2.249 20.898-8.655z" fill="#5ec405"/><path d="m299.302 70.9407c0-6.7562-5.477-12.2432-12.243-12.2432h-161.39c-10.904 0-16.361 13.1827-8.655 20.8984l161.39 161.3901c7.705 7.706 20.898 2.249 20.898-8.655z" fill="#5ec305"/><path d="m298.263 71.97c0-6.7562-5.477-12.2432-12.243-12.2432h-161.391c-10.903 0-16.37 13.1827-8.655 20.8984l161.4 161.3898c7.706 7.706 20.899 2.249 20.899-8.655v-161.39z" fill="#5dc205"/><path d="m297.234 72.9998c0-6.7563-5.477-12.2432-12.244-12.2432h-161.39c-10.904 0-16.371 13.1826-8.655 20.8983l161.4 161.3901c7.706 7.706 20.898 2.249 20.898-8.655v-161.3902z" fill="#5dc105"/><path d="m296.205 74.0293c0-6.7562-5.477-12.2432-12.243-12.2432h-161.391c-10.903 0-16.37 13.1827-8.655 20.8984l161.4 161.3905c7.706 7.705 20.899 2.248 20.899-8.656v-161.3897z" fill="#5dc005"/><path d="m295.174 75.0586c0-6.7562-5.477-12.2432-12.243-12.2432h-161.39c-10.904 0-16.371 13.1827-8.655 20.8984l161.4 161.3902c7.706 7.706 20.898 2.249 20.898-8.655v-161.3904z" fill="#5cbf05"/><path d="m294.145 76.0879c0-6.7562-5.477-12.2432-12.243-12.2432h-161.39c-10.904 0-16.371 13.1827-8.656 20.8984l161.401 161.3999c7.705 7.706 20.898 2.249 20.898-8.655v-161.4001z" fill="#5cbe05"/><path d="m293.116 77.1172c0-6.7562-5.477-12.2432-12.243-12.2432h-161.39c-10.904 0-16.371 13.1827-8.655 20.8984l161.4 161.4006c7.706 7.705 20.898 2.248 20.898-8.656v-161.3998z" fill="#5bbd05"/><path d="m292.087 78.1467c0-6.7562-5.476-12.2431-12.243-12.2431h-161.39c-10.904 0-16.361 13.1826-8.655 20.8983l161.4 161.4001c7.706 7.706 20.898 2.249 20.898-8.655v-161.4003z" fill="#5bbc05"/><path d="m291.057 79.1858c0-6.7562-5.477-12.2432-12.243-12.2432h-161.39c-10.904 0-16.371 13.1827-8.656 20.8984l161.401 161.39c7.705 7.706 20.898 2.249 20.898-8.655v-161.3902z" fill="#5abb05"/><path d="m290.027 80.2151c0-6.7562-5.477-12.2432-12.243-12.2432h-161.39c-10.904 0-16.371 13.1827-8.655 20.8984l161.39 161.3897c7.706 7.706 20.898 2.249 20.898-8.655z" fill="#5aba05"/><path d="m288.998 81.2444c0-6.7562-5.477-12.2432-12.243-12.2432h-161.39c-10.904 0-16.3712 13.1827-8.655 20.8984l161.39 161.3904c7.705 7.705 20.898 2.249 20.898-8.655z" fill="#59b905"/><path d="m287.969 82.2742c0-6.7562-5.477-12.2432-12.244-12.2432h-161.39c-10.904 0-16.3706 13.1827-8.655 20.8984l161.39 161.3906c7.706 7.705 20.899 2.248 20.899-8.656z" fill="#59b805"/><path d="m286.94 83.3035c0-6.7563-5.477-12.2432-12.243-12.2432h-161.39c-10.904 0-16.3713 13.1827-8.656 20.8984l161.391 161.3903c7.705 7.706 20.898 2.249 20.898-8.655z" fill="#59b705"/><path d="m285.91 84.3328c0-6.7563-5.477-12.2432-12.243-12.2432h-161.39c-10.904 0-16.3713 13.1827-8.656 20.8984l161.391 161.39c7.705 7.706 20.898 2.249 20.898-8.655z" fill="#58b606"/><path d="m284.881 85.3623c0-6.7562-5.477-12.2432-12.244-12.2432h-161.39c-10.904 0-16.3706 13.1827-8.655 20.8984l161.39 161.3905c7.706 7.705 20.899 2.248 20.899-8.656z" fill="#58b506"/><path d="m283.851 86.3919c0-6.7563-5.477-12.2432-12.243-12.2432h-161.39c-10.904 0-16.3609 13.1826-8.655 20.8983l161.39 161.39c7.706 7.706 20.898 2.249 20.898-8.655z" fill="#57b406"/><path d="m282.821 87.4212c0-6.7563-5.477-12.2432-12.243-12.2432h-161.39c-10.9039 0-16.3708 13.1826-8.655 20.8983l161.39 161.3897c7.706 7.706 20.898 2.249 20.898-8.655z" fill="#57b306"/><path d="m281.792 88.4505c0-6.7563-5.477-12.2432-12.243-12.2432h-161.39c-10.9042 0-16.3712 13.1826-8.6555 20.8983l161.3905 161.3904c7.705 7.706 20.898 2.249 20.898-8.655z" fill="#56b206"/><path d="m280.763 89.4805c0-6.7562-5.477-12.2432-12.243-12.2432h-161.39c-10.9039 0-16.3709 13.1827-8.6552 20.8984l161.3902 161.3903c7.706 7.706 20.898 2.249 20.898-8.655z" fill="#56b106"/><path d="m279.733 90.5093c0-6.7562-5.477-12.2432-12.243-12.2432h-161.39c-10.9039 0-16.3708 13.1827-8.6551 20.8984l161.3901 161.3905c7.706 7.705 20.898 2.248 20.898-8.656z" fill="#55b006"/><path d="m278.703 91.5393c0-6.7562-5.476-12.2432-12.243-12.2432h-161.39c-10.9038 0-16.3708 13.1827-8.6551 20.8989l161.3901 161.39c7.706 7.705 20.898 2.248 20.898-8.656z" fill="#55af06"/><path d="m277.675 92.5689c0-6.7563-5.477-12.2432-12.243-12.2432h-161.391c-10.9035 0-16.3705 13.1826-8.6548 20.8983l161.3898 161.39c7.706 7.706 20.899 2.249 20.899-8.655z" fill="#55ae06"/><path d="m276.645 93.5984c0-6.7562-5.477-12.2432-12.243-12.2432h-161.39c-10.9039 0-16.3708 13.1827-8.6551 20.8988l161.3901 161.39c7.706 7.705 20.898 2.249 20.898-8.655z" fill="#54ad06"/><path d="m275.616 94.6277c0-6.7562-5.477-12.2432-12.243-12.2432h-161.39c-10.9042 0-16.3712 13.1827-8.6555 20.8985l161.3905 161.39c7.705 7.706 20.898 2.249 20.898-8.655z" fill="#54ac06"/><path d="m274.577 95.657c0-6.7562-5.477-12.2432-12.243-12.2432h-161.39c-10.9042 0-16.3611 13.1827-8.6554 20.8982l161.3904 161.39c7.705 7.706 20.898 2.249 20.898-8.655z" fill="#53ab06"/><path d="m273.547 96.6863c0-6.7562-5.477-12.2432-12.244-12.2432h-161.3898c-10.9039 0-16.3709 13.1827-8.6552 20.8979l161.39 161.391c7.706 7.705 20.899 2.248 20.899-8.656z" fill="#53aa06"/><path d="m272.517 97.7161c0-6.7563-5.477-12.2432-12.243-12.2432h-161.3901c-10.904 0-16.3709 13.1827-8.6552 20.8981l161.3903 161.39c7.706 7.706 20.898 2.249 20.898-8.655z" fill="#52a906"/><path d="m271.488 98.7454c0-6.7563-5.477-12.2432-12.243-12.2432h-161.3905c-10.9039 0-16.3708 13.1826-8.6551 20.8988l161.3906 161.39c7.705 7.705 20.898 2.248 20.898-8.655z" fill="#52a806"/><path d="m270.458 99.7747c0-6.7563-5.477-12.2432-12.243-12.2432h-161.3904c-10.9039 0-16.3709 13.1825-8.6552 20.8985l161.3906 161.39c7.705 7.706 20.898 2.249 20.898-8.655z" fill="#51a706"/><path d="m269.429 100.804c0-6.7565-5.477-12.2435-12.243-12.2435h-161.3901c-10.9039 0-16.3709 13.1825-8.6552 20.8985l161.3903 161.39c7.706 7.706 20.898 2.249 20.898-8.655z" fill="#51a606"/><path d="m268.4 101.834c0-6.7565-5.477-12.2434-12.243-12.2434h-161.3904c-10.904 0-16.3709 13.1824-8.6552 20.8984l161.3906 161.39c7.705 7.706 20.898 2.249 20.898-8.655z" fill="#51a506"/><path d="m267.371 102.873c0-6.7567-5.477-12.2436-12.244-12.2436h-161.3898c-10.9039 0-16.3609 13.1826-8.6552 20.8986l161.39 161.39c7.706 7.706 20.899 2.249 20.899-8.655z" fill="#50a406"/><path d="m266.341 103.902c0-6.7564-5.477-12.2433-12.244-12.2433h-161.3897c-10.904 0-16.3709 13.1823-8.6552 20.8983l161.3899 161.39c7.706 7.706 20.899 2.249 20.899-8.655z" fill="#50a306"/><path d="m265.312 104.932c0-6.7563-5.477-12.2433-12.243-12.2433h-161.3904c-10.904 0-16.3709 13.1823-8.6552 20.8983l161.3906 161.39c7.705 7.706 20.898 2.249 20.898-8.655z" fill="#4fa207"/><path d="m264.281 105.961c0-6.7563-5.477-12.2432-12.243-12.2432h-161.39c-10.9039 0-16.3709 13.1822-8.6552 20.8982l161.3902 161.39c7.706 7.706 20.898 2.249 20.898-8.655z" fill="#4fa107"/><path d="m263.253 106.99c0-6.756-5.477-12.2429-12.244-12.2429h-161.3897c-10.9039 0-16.3709 13.1829-8.6552 20.8979l161.3899 161.391c7.706 7.705 20.899 2.248 20.899-8.656z" fill="#4ea007"/><path d="m262.223 108.02c0-6.757-5.477-12.2436-12.243-12.2436h-161.3906c-10.904 0-16.3709 13.1826-8.6552 20.8986l161.3898 161.39c7.706 7.706 20.899 2.249 20.899-8.655z" fill="#4e9f07"/><path d="m261.194 109.049c0-6.756-5.477-12.2433-12.243-12.2433h-161.3903c-10.904 0-16.3709 13.1823-8.6552 20.8983l161.3905 161.39c7.705 7.706 20.898 2.249 20.898-8.655z" fill="#4e9e07"/><path d="m260.165 110.079c0-6.756-5.477-12.2431-12.244-12.2431h-161.3897c-10.9039 0-16.3709 13.1831-8.6552 20.8981l161.3899 161.39c7.706 7.706 20.899 2.249 20.899-8.655z" fill="#4d9d07"/><path d="m259.136 111.108c0-6.756-5.477-12.2433-12.243-12.2433h-161.3904c-10.9039 0-16.3709 13.1823-8.6552 20.8983l161.3906 161.39c7.705 7.706 20.898 2.249 20.898-8.655z" fill="#4d9c07"/><path d="m258.105 112.138c0-6.757-5.477-12.2435-12.243-12.2435h-161.39c-10.9039 0-16.3609 13.1825-8.6552 20.8985l161.3902 161.39c7.706 7.706 20.898 2.249 20.898-8.655z" fill="#4c9b07"/><path d="m257.076 113.167c0-6.757-5.477-12.244-12.243-12.244h-161.3903c-10.9039 0-16.3709 13.183-8.6552 20.899l161.3905 161.39c7.705 7.706 20.898 2.249 20.898-8.655z" fill="#4c9a07"/><path d="m256.047 114.197c0-6.756-5.477-12.243-12.243-12.243h-161.3906c-10.9039 0-16.3709 13.182-8.6552 20.898l161.3898 161.39c7.706 7.706 20.899 2.249 20.899-8.655z" fill="#4b9907"/><path d="m255.017 115.226c0-6.756-5.477-12.243-12.243-12.243h-161.3905c-10.904 0-16.3709 13.183-8.6552 20.898l161.3897 161.39c7.706 7.706 20.899 2.249 20.899-8.655z" fill="#4b9807"/><path d="m253.987 116.255c0-6.756-5.477-12.243-12.243-12.243h-161.3899c-10.9039 0-16.3709 13.183-8.6552 20.899l161.3901 161.39c7.706 7.705 20.898 2.248 20.898-8.655z" fill="#4a9707"/><path d="m252.957 117.284c0-6.756-5.476-12.243-12.243-12.243h-161.3898c-10.9039 0-16.3709 13.183-8.6552 20.898l161.39 161.391c7.706 7.705 20.898 2.248 20.898-8.656z" fill="#4a9607"/><path d="m251.929 118.314c0-6.756-5.477-12.243-12.243-12.243h-161.3899c-10.9039 0-16.3709 13.183-8.6552 20.899l161.3901 161.39c7.706 7.706 20.898 2.249 20.898-8.655z" fill="#4a9507"/><path d="m250.89 119.344c0-6.756-5.477-12.243-12.243-12.243h-161.3899c-10.904 0-16.3709 13.182-8.6552 20.898l161.3901 161.39c7.706 7.706 20.898 2.249 20.898-8.655z" fill="#499407"/><path d="m249.86 120.373c0-6.756-5.477-12.243-12.243-12.243h-161.3904c-10.904 0-16.3709 13.183-8.6552 20.898l161.3896 161.39c7.706 7.706 20.899 2.249 20.899-8.655z" fill="#499307"/><path d="m248.83 121.402c0-6.756-5.477-12.243-12.243-12.243h-161.3904c-10.9039 0-16.3609 13.182-8.6552 20.898l161.3906 161.39c7.705 7.706 20.898 2.249 20.898-8.655z" fill="#489207"/><path d="m247.801 122.432c0-6.756-5.477-12.243-12.243-12.243h-161.3901c-10.9039 0-16.3709 13.183-8.6552 20.898l161.3903 161.391c7.706 7.705 20.898 2.248 20.898-8.656z" fill="#489107"/><path d="m246.772 123.461c0-6.756-5.477-12.243-12.243-12.243h-161.3904c-10.904 0-16.3709 13.183-8.6552 20.899l161.3896 161.39c7.706 7.706 20.899 2.249 20.899-8.655z" fill="#479007"/><path d="m245.743 124.491c0-6.756-5.477-12.243-12.244-12.243h-161.3898c-10.9039 0-16.3709 13.182-8.6552 20.898l161.39 161.39c7.706 7.706 20.899 2.249 20.899-8.655z" fill="#478f07"/><path d="m244.713 125.52c0-6.756-5.477-12.243-12.243-12.243h-161.3901c-10.9039 0-16.3709 13.183-8.6552 20.898l161.3903 161.391c7.706 7.705 20.898 2.248 20.898-8.656z" fill="#468e08"/><path d="m243.684 126.559c0-6.756-5.477-12.243-12.243-12.243h-161.3904c-10.904 0-16.3709 13.183-8.6552 20.899l161.3906 161.39c7.705 7.705 20.898 2.248 20.898-8.656z" fill="#468d08"/><path d="m242.653 127.589c0-6.756-5.477-12.243-12.243-12.243h-161.39c-10.9039 0-16.3709 13.183-8.6552 20.899l161.3902 161.39c7.706 7.705 20.898 2.248 20.898-8.655z" fill="#468c08"/><path d="m241.625 128.618c0-6.756-5.477-12.243-12.244-12.243h-161.3898c-10.9039 0-16.3608 13.182-8.6551 20.898l161.3899 161.39c7.706 7.706 20.899 2.249 20.899-8.655z" fill="#458b08"/><path d="m240.596 129.648c0-6.756-5.477-12.243-12.243-12.243h-161.3905c-10.9039 0-16.3708 13.183-8.6551 20.898l161.3896 161.391c7.706 7.705 20.899 2.248 20.899-8.656z" fill="#458a08"/><path d="m239.566 130.677c0-6.756-5.477-12.243-12.243-12.243h-161.3904c-10.9039 0-16.3709 13.182-8.6552 20.898l161.3906 161.39c7.705 7.706 20.898 2.249 20.898-8.655z" fill="#448908"/><path d="m238.536 131.707c0-6.756-5.477-12.243-12.243-12.243h-161.3903c-10.904 0-16.3709 13.182-8.6552 20.898l161.3905 161.39c7.705 7.706 20.898 2.249 20.898-8.655z" fill="#448808"/><path d="m237.506 132.736c0-6.757-5.477-12.244-12.243-12.244h-161.3903c-10.9039 0-16.3709 13.183-8.6551 20.899l161.3904 161.39c7.705 7.706 20.898 2.249 20.898-8.655z" fill="#438708"/><path d="m236.477 133.766c0-6.756-5.477-12.243-12.243-12.243h-161.39c-10.9039 0-16.3709 13.182-8.6552 20.898l161.3902 161.39c7.706 7.706 20.898 2.249 20.898-8.655z" fill="#438608"/><path d="m235.449 134.795c0-6.756-5.477-12.243-12.244-12.243h-161.3897c-10.904 0-16.3709 13.183-8.6552 20.898l161.3899 161.391c7.706 7.705 20.899 2.248 20.899-8.656z" fill="#438508"/><path d="m234.419 135.824c0-6.756-5.477-12.243-12.243-12.243h-161.3901c-10.9039 0-16.3708 13.183-8.6551 20.899l161.3902 161.39c7.706 7.706 20.898 2.249 20.898-8.655z" fill="#428408"/><path d="m233.389 136.853c0-6.756-5.477-12.243-12.243-12.243h-161.3906c-10.904 0-16.3609 13.183-8.6552 20.898l161.3898 161.391c7.706 7.705 20.899 2.248 20.899-8.656z" fill="#428308"/><path d="m232.36 137.884c0-6.757-5.477-12.244-12.243-12.244h-161.3903c-10.904 0-16.3609 13.183-8.6552 20.899l161.3905 161.39c7.705 7.706 20.898 2.249 20.898-8.655z" fill="#418208"/><path d="m231.331 138.913c0-6.756-5.477-12.243-12.244-12.243h-161.3896c-10.904 0-16.3709 13.182-8.6552 20.898l161.3898 161.39c7.706 7.706 20.899 2.249 20.899-8.655z" fill="#418108"/><path d="m230.301 139.942c0-6.756-5.477-12.243-12.243-12.243h-161.3906c-10.9039 0-16.3709 13.183-8.6552 20.898l161.3898 161.391c7.706 7.705 20.899 2.248 20.899-8.656z" fill="#408008"/><path d="m229.271 140.972c0-6.757-5.477-12.243-12.243-12.243h-161.3899c-10.9039 0-16.3709 13.182-8.6552 20.898l161.3901 161.39c7.706 7.706 20.898 2.249 20.898-8.655z" fill="#407f08"/><path d="m228.241 142.001c0-6.756-5.476-12.243-12.243-12.243h-161.3898c-10.904 0-16.3709 13.182-8.6552 20.898l161.39 161.39c7.706 7.706 20.898 2.249 20.898-8.655z" fill="#3f7e08"/><path d="m227.202 143.031c0-6.757-5.476-12.244-12.243-12.244h-161.3899c-10.9039 0-16.3708 13.183-8.6551 20.899l161.39 161.39c7.706 7.706 20.898 2.249 20.898-8.655z" fill="#3f7d08"/><path d="m226.174 144.06c0-6.756-5.477-12.243-12.243-12.243h-161.3906c-10.9039 0-16.3709 13.182-8.6552 20.898l161.3898 161.39c7.706 7.706 20.899 2.249 20.899-8.655z" fill="#3f7c08"/><path d="m225.143 145.089c0-6.756-5.477-12.243-12.243-12.243h-161.3901c-10.9039 0-16.3709 13.183-8.6552 20.898l161.3903 161.39c7.706 7.706 20.898 2.249 20.898-8.655z" fill="#3e7b09"/><path d="m224.114 146.119c0-6.757-5.477-12.244-12.243-12.244h-161.3901c-10.9039 0-16.3708 13.183-8.6551 20.899l161.3902 161.39c7.706 7.706 20.898 2.249 20.898-8.655z" fill="#3e7a09"/><path d="m223.085 147.148c0-6.756-5.477-12.243-12.243-12.243h-161.3901c-10.904 0-16.3709 13.182-8.6552 20.898l161.3903 161.39c7.706 7.706 20.898 2.249 20.898-8.655z" fill="#3d7909"/><path d="m222.055 148.178c0-6.756-5.477-12.243-12.244-12.243h-161.3897c-10.9039 0-16.3709 13.182-8.6552 20.898l161.3899 161.39c7.706 7.706 20.899 2.249 20.899-8.655z" fill="#3d7809"/><path d="m221.026 149.207c0-6.756-5.477-12.243-12.243-12.243h-161.3904c-10.9039 0-16.3709 13.183-8.6552 20.898l161.3906 161.39c7.705 7.706 20.898 2.249 20.898-8.655z" fill="#3c7709"/><path d="m219.997 150.247c0-6.757-5.477-12.244-12.244-12.244h-161.3898c-10.9039 0-16.3708 13.183-8.6551 20.899l161.3899 161.39c7.706 7.706 20.899 2.249 20.899-8.655z" fill="#3c7609"/><path d="m218.967 151.275c0-6.756-5.477-12.243-12.243-12.243h-161.3901c-10.9039 0-16.3709 13.183-8.6552 20.899l161.3903 161.39c7.706 7.705 20.898 2.248 20.898-8.655z" fill="#3b7509"/><path d="m217.937 152.305c0-6.757-5.477-12.243-12.243-12.243h-161.39c-10.904 0-16.3709 13.182-8.6552 20.898l161.3902 161.39c7.706 7.706 20.898 2.249 20.898-8.655z" fill="#3b7409"/><path d="m216.909 153.335c0-6.756-5.477-12.243-12.244-12.243h-161.3897c-10.904 0-16.3709 13.182-8.6552 20.898l161.3899 161.39c7.706 7.706 20.899 2.249 20.899-8.655z" fill="#3b7309"/><path d="m215.879 154.365c0-6.757-5.477-12.244-12.244-12.244h-161.3897c-10.9039 0-16.3709 13.183-8.6552 20.899l161.3899 161.39c7.706 7.706 20.899 2.249 20.899-8.655z" fill="#3a7209"/><path d="m214.85 155.394c0-6.756-5.477-12.243-12.243-12.243h-161.3904c-10.9039 0-16.3709 13.182-8.6552 20.898l161.3906 161.39c7.705 7.706 20.898 2.249 20.898-8.655z" fill="#3a7109"/><path d="m213.82 156.423c0-6.756-5.477-12.243-12.243-12.243h-161.3903c-10.904 0-16.3709 13.183-8.6552 20.898l161.3905 161.39c7.705 7.706 20.898 2.249 20.898-8.655z" fill="#397009"/><path d="m212.791 157.453c0-6.757-5.477-12.244-12.244-12.244h-161.3897c-10.9039 0-16.3708 13.183-8.6551 20.899l161.3898 161.39c7.706 7.706 20.899 2.249 20.899-8.655z" fill="#396f09"/><path d="m211.761 158.482c0-6.756-5.477-12.243-12.243-12.243h-161.39c-10.9039 0-16.3708 13.182-8.6551 20.898l161.3901 161.39c7.706 7.706 20.898 2.249 20.898-8.655z" fill="#386e09"/><path d="m210.732 159.511c0-6.756-5.477-12.243-12.243-12.243h-161.3903c-10.904 0-16.3609 13.183-8.6552 20.898l161.3905 161.391c7.705 7.705 20.898 2.248 20.898-8.656z" fill="#386d09"/><path d="m209.702 160.541c0-6.756-5.477-12.243-12.243-12.243h-161.3902c-10.904 0-16.3709 13.182-8.6552 20.898l161.3904 161.39c7.705 7.706 20.898 2.249 20.898-8.655z" fill="#376c09"/><path d="m208.673 161.57c0-6.756-5.477-12.243-12.243-12.243h-161.39c-10.9039 0-16.3709 13.183-8.6552 20.898l161.3902 161.39c7.706 7.706 20.898 2.249 20.898-8.655z" fill="#376b09"/><path d="m207.643 162.599c0-6.756-5.477-12.243-12.243-12.243h-161.39c-10.9039 0-16.3708 13.183-8.6551 20.899l161.3901 161.39c7.706 7.705 20.898 2.248 20.898-8.655z" fill="#376a09"/><path d="m206.613 163.629c0-6.756-5.477-12.243-12.243-12.243h-161.3899c-10.9039 0-16.3708 13.182-8.6551 20.898l161.39 161.39c7.706 7.706 20.898 2.249 20.898-8.655z" fill="#366909"/><path d="m205.584 164.658c0-6.756-5.476-12.243-12.243-12.243h-161.3899c-10.9039 0-16.3709 13.183-8.6551 20.898l161.39 161.391c7.706 7.705 20.898 2.248 20.898-8.656z" fill="#366809"/><path d="m204.545 165.688c0-6.756-5.477-12.243-12.243-12.243h-161.3902c-10.9039 0-16.3709 13.182-8.6552 20.898l161.3904 161.39c7.705 7.706 20.898 2.249 20.898-8.655z" fill="#35670a"/><path d="m203.516 166.718c0-6.757-5.477-12.244-12.243-12.244h-161.3905c-10.9039 0-16.3709 13.183-8.6552 20.899l161.3897 161.39c7.706 7.706 20.899 2.249 20.899-8.655z" fill="#35660a"/><path d="m202.487 167.747c0-6.756-5.477-12.243-12.243-12.243h-161.3902c-10.904 0-16.3709 13.182-8.6552 20.898l161.3904 161.39c7.705 7.706 20.898 2.249 20.898-8.655z" fill="#34650a"/><path d="m201.457 168.776c0-6.756-5.477-12.243-12.244-12.243h-161.3897c-10.904 0-16.3709 13.183-8.6552 20.899l161.3899 161.39c7.706 7.705 20.899 2.248 20.899-8.655z" fill="#34640a"/><path d="m200.427 169.805c0-6.756-5.477-12.243-12.243-12.243h-161.3901c-10.9039 0-16.3709 13.183-8.6552 20.899l161.3903 161.39c7.706 7.706 20.898 2.249 20.898-8.655z" fill="#34630a"/><path d="m199.398 170.835c0-6.757-5.476-12.243-12.243-12.243h-161.3899c-10.9039 0-16.37081 13.182-8.6551 20.898l161.39 161.39c7.706 7.706 20.898 2.249 20.898-8.655z" fill="#33620a"/><path d="m198.369 171.864c0-6.756-5.477-12.243-12.243-12.243h-161.3902c-10.9039 0-16.37084 13.182-8.6551 20.898l161.3903 161.39c7.705 7.706 20.898 2.249 20.898-8.655z" fill="#33610a"/><path d="m197.339 172.893c0-6.756-5.477-12.243-12.243-12.243h-161.3901c-10.904 0-16.37092 13.183-8.6552 20.898l161.3903 161.391c7.706 7.705 20.898 2.248 20.898-8.656z" fill="#32600a"/><path d="m196.31 173.934c0-6.757-5.477-12.244-12.243-12.244h-161.3905c-10.9039 0-16.37085 13.183-8.6551 20.899l161.3896 161.39c7.706 7.706 20.899 2.249 20.899-8.655z" fill="#325f0a"/><path d="m195.28 174.963c0-6.756-5.477-12.243-12.243-12.243h-161.3904c-10.9039 0-16.37089 13.182-8.6552 20.898l161.3906 161.39c7.705 7.706 20.898 2.249 20.898-8.655z" fill="#315e0a"/><path d="m194.251 175.992c0-6.756-5.477-12.243-12.243-12.243h-161.3904c-10.90389 0-16.37085 13.183-8.6551 20.898l161.3905 161.391c7.705 7.705 20.898 2.248 20.898-8.656z" fill="#315d0a"/><path d="m193.222 177.022c0-6.757-5.477-12.244-12.243-12.244h-161.3904c-10.90397 0-16.37093 13.183-8.6552 20.899l161.3906 161.39c7.705 7.706 20.898 2.249 20.898-8.655z" fill="#305c0a"/><path d="m192.192 178.051c0-6.756-5.477-12.243-12.243-12.243h-161.3904c-10.90391 0-16.37087 13.183-8.65517 20.898l161.39057 161.39c7.705 7.706 20.898 2.249 20.898-8.655z" fill="#305b0a"/><path d="m191.163 179.08c0-6.756-5.477-12.243-12.244-12.243h-161.3897c-10.90394 0-16.3709 13.183-8.65519 20.899l161.38989 161.39c7.706 7.705 20.899 2.248 20.899-8.655z" fill="#305a0a"/><path d="m190.133 180.11c0-6.756-5.477-12.243-12.243-12.243h-161.39c-10.90397 0-16.370928 13.182-8.65522 20.898l161.39022 161.39c7.706 7.706 20.898 2.249 20.898-8.655z" fill="#2f590a"/><path d="m189.103 181.139c0-6.756-5.477-12.243-12.243-12.243h-161.39c-10.90391 0-16.370866 13.183-8.65516 20.898l161.39016 161.391c7.706 7.705 20.898 2.248 20.898-8.656z" fill="#2f580a"/><path d="m188.075 182.168c0-6.756-5.477-12.243-12.244-12.243h-161.3897c-10.90392 0-16.37088 13.183-8.65518 20.899l161.38988 161.39c7.706 7.706 20.899 2.249 20.899-8.655z" fill="#2e570a"/><path d="m187.045 183.198c0-6.756-5.477-12.243-12.243-12.243h-161.39c-10.90395 0-16.37091 13.183-8.65521 20.898l161.39021 161.391c7.706 7.705 20.898 2.248 20.898-8.656z" fill="#2e560a"/><path d="m186.015 184.228c0-6.757-5.477-12.244-12.243-12.244h-161.3906c-10.9039 0-16.37086 13.183-8.65516 20.899l161.38976 161.39c7.706 7.706 20.899 2.249 20.899-8.655z" fill="#2d550a"/><path d="m184.985 185.257c0-6.756-5.477-12.243-12.243-12.243h-161.3899c-10.903926 0-16.37089 13.183-8.65518 20.898l161.39008 161.39c7.706 7.706 20.898 2.249 20.898-8.655z" fill="#2d540a"/><path d="m183.957 186.286c0-6.756-5.477-12.243-12.243-12.243h-161.3906c-10.903943 0-16.3709 13.183-8.6552 20.899l161.3898 161.39c7.706 7.705 20.899 2.248 20.899-8.655z" fill="#2c530b"/><path d="m182.928 187.316c0-6.756-5.477-12.243-12.243-12.243h-161.39039c-10.90393 0-16.3609 13.182-8.65519 20.898l161.39058 161.39c7.705 7.706 20.898 2.249 20.898-8.655z" fill="#2c520b"/><path d="m181.897 188.345c0-6.756-5.477-12.243-12.243-12.243h-161.38988c-10.90393 0-16.37089 13.183-8.655185 20.899l161.390065 161.39c7.706 7.706 20.898 2.249 20.898-8.655z" fill="#2c510b"/><path d="m180.858 189.375c0-6.757-5.477-12.244-12.243-12.244h-161.38988c-10.90393 0-16.37089 13.183-8.65519 20.899l161.39007 161.39c7.706 7.706 20.898 2.249 20.898-8.655z" fill="#2b500b"/><path d="m179.828 190.404c0-6.756-5.476-12.243-12.243-12.243h-161.38982c-10.90393 0-16.37088 13.182-8.65518 20.898l161.39 161.39c7.706 7.706 20.898 2.249 20.898-8.655z" fill="#2b4f0b"/><path d="m178.8 191.433c0-6.756-5.477-12.243-12.243-12.243h-161.39054c-10.90392 0-16.37086 13.183-8.65518 20.898l161.38972 161.39c7.706 7.706 20.899 2.249 20.899-8.655z" fill="#2a4e0b"/><path d="m177.77 192.462c0-6.756-5.477-12.243-12.243-12.243h-161.38986c-10.90393 0-16.37094 13.183-8.65519 20.899l161.39005 161.39c7.706 7.705 20.898 2.248 20.898-8.655z" fill="#2a4d0b"/><path d="m176.741 193.492c0-6.756-5.477-12.243-12.244-12.243h-161.38983c-10.90393 0-16.36087 13.183-8.65519 20.898l161.39002 161.391c7.706 7.705 20.899 2.248 20.899-8.656z" fill="#294c0b"/><path d="m175.711 194.522c0-6.757-5.477-12.244-12.243-12.244h-161.39013c-10.90393 0-16.37087 13.183-8.65518 20.899l161.39031 161.39c7.706 7.706 20.898 2.249 20.898-8.655z" fill="#294b0b"/><path d="m174.682 195.551c0-6.756-5.477-12.243-12.243-12.243h-161.39046c-10.90392 0-16.37084 13.183-8.65518 20.898l161.38964 161.39c7.706 7.706 20.899 2.249 20.899-8.655z" fill="#284a0b"/><path d="m173.652 196.58c0-6.756-5.477-12.243-12.243-12.243h-161.3903935c-10.9039065 0-16.3709065 13.183-8.6551865 20.899l161.39058 161.39c7.705 7.705 20.898 2.248 20.898-8.655z" fill="#28490b"/><path d="m172.623 197.62c0-6.757-5.477-12.244-12.244-12.244h-161.38972c-10.90388 0-16.37088 13.183-8.65519 20.899l161.38991 161.39c7.706 7.706 20.899 2.249 20.899-8.655z" fill="#28480b"/><path d="m171.594 198.649c0-6.756-5.477-12.243-12.243-12.243h-161.39047c-10.90393 0-16.37093 13.183-8.65523 20.899l161.3897 161.39c7.706 7.705 20.899 2.249 20.899-8.655z" fill="#27470b"/><path d="m170.564 199.679c0-6.756-5.477-12.243-12.243-12.243h-161.39041c-10.90389 0-16.37089 13.182-8.65519 20.898l161.3906 161.39c7.705 7.706 20.898 2.249 20.898-8.655z" fill="#27460b"/><path d="m169.534 200.709c0-6.757-5.477-12.244-12.243-12.244h-161.39029c-10.90391 0-16.37091 13.183-8.65521 20.899l161.3905 161.39c7.705 7.706 20.898 2.249 20.898-8.655z" fill="#26450b"/><path d="m168.505 201.737c0-6.756-5.477-12.243-12.243-12.243h-161.39004c-10.90396 0-16.37086 13.183-8.65516 20.898l161.3902 161.39c7.706 7.706 20.898 2.249 20.898-8.655z" fill="#26440b"/><path d="m167.477 202.767c0-6.756-5.477-12.243-12.244-12.243h-161.38975c-10.90395 0-16.37085 13.183-8.65515 20.899l161.3899 161.39c7.706 7.705 20.899 2.248 20.899-8.656z" fill="#25430b"/><path d="m166.447 203.797c0-6.756-5.477-12.243-12.244-12.243h-161.38973c-10.90397 0-16.37087 13.182-8.65517 20.898l161.3899 161.39c7.706 7.706 20.899 2.249 20.899-8.655z" fill="#25420b"/><path d="m165.417 204.826c0-6.756-5.477-12.243-12.244-12.243h-161.38967c-10.90393 0-16.37083 13.183-8.65513 20.898l161.3898 161.391c7.706 7.705 20.899 2.248 20.899-8.656z" fill="#25410b"/><path d="m164.388 205.855c0-6.756-5.477-12.243-12.243-12.243h-161.39039c-10.90391 0-16.37081 13.183-8.65511 20.899l161.3905 161.39c7.705 7.706 20.898 2.249 20.898-8.655z" fill="#24400b"/><path d="m163.357 206.885c0-6.756-5.477-12.243-12.243-12.243h-161.3899c-10.904 0-16.3709 13.182-8.6552 20.898l161.3901 161.39c7.706 7.706 20.898 2.249 20.898-8.655z" fill="#243f0c"/></g></svg>