<svg fill="none" height="300" viewBox="0 0 300 300" width="300" xmlns="http://www.w3.org/2000/svg" xmlns:xlink="http://www.w3.org/1999/xlink"><clipPath id="a"><path d="m0 0h431v431h-431z" transform="matrix(0 1 -1 0 354 -13)"/></clipPath><g clip-path="url(#a)"><path d="m354-.756815c0-6.766235-5.477-12.243185-12.243-12.243185h-161.39c-10.904 0-16.371 13.182653-8.655 20.89836l161.39 161.39064c7.715 7.705 20.898 2.248 20.898-8.656z" fill="#77fc02"/><path d="m352.971.272482c0-6.756242-5.477-12.243182-12.244-12.243182h-161.39c-10.904 0-16.371 13.18265-8.655 20.89836l161.39 161.39034c7.706 7.706 20.899 2.249 20.899-8.655z" fill="#77fb02"/><path d="m351.94 1.30178c0-6.75624-5.477-12.24318-12.243-12.24318h-161.39c-10.904 0-16.371 13.18265-8.655 20.89835l161.39 161.39005c7.705 7.706 20.898 2.249 20.898-8.655z" fill="#76fa02"/><path d="m350.912 2.33156c0-6.75624-5.477-12.24318-12.243-12.24318l-161.39-.00001c-10.904 0-16.371 13.18266-8.656 20.89833l161.391 161.3903c7.705 7.706 20.898 2.249 20.898-8.655z" fill="#76f902"/><path d="m349.881 3.36086c0-6.75624-5.476-12.24318-12.243-12.24318l-161.39-.00001c-10.904 0-16.371 13.18266-8.655 20.89833l161.39 161.39c7.706 7.706 20.898 2.249 20.898-8.655z" fill="#75f802"/><path d="m348.853 4.39016c0-6.75624-5.477-12.24319-12.243-12.24319h-161.39c-10.904-.00001-16.371 13.18266-8.655 20.89833l161.39 161.3897c7.706 7.706 20.898 2.249 20.898-8.655z" fill="#75f702"/><path d="m347.823 5.4197c0-6.75624-5.477-12.24319-12.243-12.24319h-161.391c-10.903 0-16.37 13.18266-8.655 20.89839l161.39 161.3901c7.706 7.706 20.899 2.249 20.899-8.655z" fill="#74f602"/><path d="m346.793 6.44924c0-6.756241-5.476-12.24319-12.243-12.24319h-161.39c-10.904 0-16.371 13.18266-8.655 20.89835l161.39 161.3906c7.706 7.705 20.898 2.248 20.898-8.656z" fill="#74f502"/><path d="m345.764 7.47854c0-6.756243-5.477-12.24319-12.243-12.24319l-161.39-.00001c-10.904 0-16.371 13.18267-8.655 20.89836l161.39 161.3903c7.705 7.706 20.898 2.249 20.898-8.655z" fill="#73f402"/><path d="m344.735 8.50783c0-6.75624-5.477-12.24318-12.243-12.24318l-161.39-.00001c-10.904 0-16.361 13.18266-8.655 20.89836l161.39 161.39c7.706 7.706 20.898 2.249 20.898-8.655z" fill="#73f302"/><path d="m343.705 9.53737c0-6.75624-5.477-12.24318-12.243-12.24318l-161.39-.00001c-10.904 0-16.361 13.18262-8.655 20.89832l161.39 161.3905c7.706 7.705 20.898 2.248 20.898-8.655z" fill="#73f203"/><path d="m342.676 10.5667c0-6.75627-5.477-12.24321-12.244-12.24321l-161.39-.00001c-10.904 0-16.371 13.18262-8.655 20.89832l161.39 161.3902c7.706 7.706 20.899 2.249 20.899-8.655z" fill="#72f103"/><path d="m341.637 11.596c0-6.75627-5.477-12.243217-12.243-12.243217l-161.391-.000007c-10.903-.000001-16.37 13.182624-8.655 20.898324l161.4 161.3899c7.706 7.706 20.899 2.249 20.899-8.655v-161.39z" fill="#72f003"/><path d="m340.607 12.6255c0-6.75623-5.476-12.243176-12.243-12.243176l-161.39-.000007c-10.904-.000001-16.371 13.182683-8.655 20.898383l161.4 161.3903c7.706 7.706 20.898 2.249 20.898-8.655v-161.3905z" fill="#71ef03"/><path d="m339.578 13.6548c0-6.75623-5.477-12.24318-12.243-12.24318l-161.39-.00001c-10.904 0-16.371 13.18269-8.655 20.89839l161.4 161.39c7.705 7.706 20.898 2.249 20.898-8.655v-161.3902z" fill="#71ee03"/><path d="m338.548 14.6843c0-6.75619-5.477-12.24314-12.243-12.24314l-161.39-.00001c-10.904 0-16.371 13.18265-8.655 20.89835l161.4 161.3905c7.706 7.705 20.898 2.248 20.898-8.655v-161.3907z" fill="#70ed03"/><path d="m337.519 15.7144c0-6.75626-5.476-12.24321-12.243-12.24321l-161.39-.00001c-10.904 0-16.371 13.18262-8.655 20.89842l161.4 161.3904c7.706 7.705 20.898 2.248 20.898-8.655v-161.3906z" fill="#70ec03"/><path d="m336.489 16.7429c0-6.7562-5.477-12.24314-12.243-12.24314l-161.39-.00001c-10.904 0-16.371 13.18265-8.656 20.89835l161.401 161.3999c7.705 7.706 20.898 2.249 20.898-8.655v-161.4001z" fill="#6feb03"/><path d="m335.46 17.7725c0-6.7563-5.477-12.2432-12.244-12.2432l-161.39-.00001c-10.904 0-16.361 13.18261-8.655 20.89841l161.4 161.4003c7.706 7.706 20.899 2.249 20.899-8.655v-161.4005z" fill="#6fea03"/><path d="m334.431 18.8023c0-6.7563-5.477-12.24322-12.243-12.24322l-161.39-.00001c-10.904 0-16.371 13.18263-8.656 20.89833l161.4 161.4006c7.706 7.705 20.899 2.248 20.899-8.656v-161.3997z" fill="#6fe903"/><path d="m333.401 19.8416c0-6.7563-5.477-12.24321-12.243-12.24321l-161.39-.00001c-10.904 0-16.371 13.18262-8.655 20.89832l161.39 161.3903c7.706 7.706 20.898 2.249 20.898-8.655z" fill="#6ee803"/><path d="m332.372 20.8709c0-6.7563-5.477-12.24321-12.243-12.24321l-161.39-.00001c-10.904 0-16.371 13.18262-8.656 20.89832l161.391 161.39c7.705 7.706 20.898 2.249 20.898-8.655z" fill="#6ee703"/><path d="m331.342 21.9007c0-6.7563-5.477-12.24323-12.243-12.24323l-161.39-.00001c-10.904 0-16.371 13.18264-8.655 20.89834l161.39 161.3902c7.705 7.706 20.898 2.249 20.898-8.655z" fill="#6de603"/><path d="m330.313 22.93c0-6.7563-5.477-12.2432-12.243-12.2432h-161.391c-10.904 0-16.371 13.1826-8.655 20.8983l161.39 161.3899c7.706 7.706 20.899 2.249 20.899-8.655z" fill="#6de503"/><path d="m329.284 23.9592c0-6.7562-5.477-12.2431-12.243-12.2431h-161.39c-10.904 0-16.371 13.1826-8.655 20.8983l161.39 161.3906c7.705 7.705 20.898 2.248 20.898-8.656z" fill="#6ce403"/><path d="m328.255 24.9888c0-6.7563-5.477-12.2432-12.244-12.2432h-161.39c-10.904 0-16.371 13.1827-8.655 20.8984l161.39 161.39c7.706 7.706 20.899 2.249 20.899-8.655z" fill="#6ce303"/><path d="m327.224 26.0183c0-6.7562-5.477-12.2432-12.243-12.2432h-161.39c-10.904 0-16.371 13.1827-8.655 20.8984l161.39 161.3905c7.705 7.705 20.898 2.248 20.898-8.655z" fill="#6ce203"/><path d="m326.195 27.0476c0-6.7562-5.477-12.2432-12.243-12.2432h-161.391c-10.904 0-16.37 13.1827-8.655 20.8984l161.39 161.3902c7.706 7.706 20.899 2.249 20.899-8.655z" fill="#6be103"/><path d="m325.166 28.0769c0-6.7562-5.477-12.2432-12.243-12.2432h-161.39c-10.904 0-16.371 13.1827-8.655 20.8984l161.39 161.3899c7.705 7.706 20.898 2.249 20.898-8.655z" fill="#6be003"/><path d="m324.137 29.1062c0-6.7562-5.477-12.2432-12.243-12.2432h-161.39c-10.904 0-16.371 13.1827-8.655 20.8984l161.39 161.3906c7.706 7.705 20.898 2.248 20.898-8.656z" fill="#6adf03"/><path d="m323.107 30.1358c0-6.7563-5.477-12.2432-12.243-12.2432h-161.391c-10.903 0-16.37 13.1826-8.655 20.8983l161.39 161.3901c7.706 7.706 20.899 2.249 20.899-8.655z" fill="#6ade04"/><path d="m322.078 31.1658c0-6.7562-5.477-12.2432-12.243-12.2432h-161.39c-10.904 0-16.371 13.1827-8.655 20.8984l161.39 161.39c7.705 7.706 20.898 2.249 20.898-8.655z" fill="#69dd04"/><path d="m321.048 32.1944c0-6.7563-5.477-12.2432-12.244-12.2432h-161.39c-10.904 0-16.371 13.1826-8.655 20.8983l161.39 161.3905c7.706 7.705 20.899 2.248 20.899-8.655z" fill="#69dc04"/><path d="m320.018 33.2239c0-6.7562-5.477-12.2432-12.243-12.2432h-161.39c-10.904 0-16.361 13.1827-8.655 20.8984l161.39 161.3899c7.706 7.706 20.898 2.249 20.898-8.655z" fill="#68db04"/><path d="m318.989 34.2537c0-6.7563-5.477-12.2432-12.243-12.2432h-161.39c-10.904 0-16.371 13.1827-8.655 20.8984l161.39 161.3901c7.706 7.706 20.898 2.249 20.898-8.655z" fill="#68da04"/><path d="m317.95 35.2835c0-6.7563-5.477-12.2432-12.243-12.2432h-161.39c-10.904 0-16.371 13.1826-8.655 20.8983l161.4 161.3904c7.705 7.706 20.898 2.249 20.898-8.655v-161.3905z" fill="#68d904"/><path d="m316.92 36.3123c0-6.7563-5.477-12.2432-12.243-12.2432h-161.39c-10.904 0-16.371 13.1826-8.655 20.8984l161.4 161.3905c7.706 7.705 20.898 2.248 20.898-8.656v-161.3897z" fill="#67d804"/><path d="m315.89 37.3416c0-6.7563-5.477-12.2432-12.243-12.2432h-161.39c-10.904 0-16.371 13.1826-8.655 20.8983l161.4 161.3903c7.706 7.706 20.898 2.249 20.898-8.655v-161.3904z" fill="#67d704"/><path d="m314.862 38.3711c0-6.7562-5.477-12.2432-12.244-12.2432h-161.39c-10.904 0-16.371 13.1827-8.655 20.8984l161.4 161.3897c7.706 7.706 20.899 2.249 20.899-8.655v-161.3899z" fill="#66d604"/><path d="m313.833 39.4009c0-6.7562-5.477-12.2432-12.243-12.2432h-161.391c-10.903 0-16.37 13.1827-8.655 20.8984l161.4 161.3999c7.706 7.706 20.899 2.249 20.899-8.655v-161.4001z" fill="#66d504"/><path d="m312.803 40.43c0-6.7563-5.477-12.2432-12.243-12.2432h-161.39c-10.904 0-16.371 13.1826-8.656 20.8983l161.4 161.3999c7.706 7.706 20.899 2.249 20.899-8.655v-161.4z" fill="#65d404"/><path d="m311.773 41.4592c0-6.7562-5.477-12.2431-12.243-12.2431h-161.39c-10.904 0-16.371 13.1826-8.656 20.8983l161.401 161.4006c7.705 7.705 20.898 2.248 20.898-8.656v-161.3998z" fill="#65d304"/><path d="m310.744 42.499c0-6.7562-5.477-12.2431-12.244-12.2431h-161.39c-10.904 0-16.361 13.1826-8.655 20.8983l161.4 161.3898c7.706 7.706 20.899 2.249 20.899-8.655v-161.39z" fill="#64d204"/><path d="m309.715 43.5283c0-6.7562-5.477-12.2431-12.244-12.2431l-161.39-.0001c-10.904 0-16.371 13.1827-8.655 20.8984l161.39 161.3905c7.706 7.705 20.899 2.248 20.899-8.656z" fill="#64d104"/><path d="m308.685 44.5579c0-6.7563-5.477-12.2432-12.243-12.2432h-161.39c-10.904 0-16.371 13.1827-8.655 20.8984l161.39 161.3899c7.706 7.706 20.898 2.249 20.898-8.655z" fill="#64d004"/><path d="m307.656 45.5874c0-6.7562-5.477-12.2432-12.243-12.2432h-161.39c-10.904 0-16.371 13.1827-8.656 20.8984l161.391 161.3904c7.705 7.705 20.898 2.249 20.898-8.655z" fill="#63cf04"/><path d="m306.626 46.6167c0-6.7562-5.477-12.2432-12.243-12.2432h-161.39c-10.904 0-16.371 13.1827-8.655 20.8984l161.39 161.3901c7.705 7.706 20.898 2.249 20.898-8.655z" fill="#63ce04"/><path d="m305.597 47.646c0-6.7562-5.477-12.2432-12.244-12.2432h-161.39c-10.904 0-16.371 13.1827-8.655 20.8984l161.39 161.3898c7.706 7.706 20.899 2.249 20.899-8.655z" fill="#62cd04"/><path d="m304.567 48.6753c0-6.7562-5.477-12.2432-12.243-12.2432h-161.39c-10.904 0-16.361 13.1827-8.655 20.8984l161.39 161.3905c7.706 7.705 20.898 2.248 20.898-8.656z" fill="#62cc04"/><path d="m303.539 49.7049c0-6.7563-5.477-12.2432-12.244-12.2432h-161.39c-10.904 0-16.371 13.1826-8.655 20.8983l161.39 161.39c7.706 7.706 20.899 2.249 20.899-8.655z" fill="#61cb04"/><path d="m302.509 50.7342c0-6.7563-5.477-12.2432-12.243-12.2432h-161.391c-10.904 0-16.371 13.1826-8.655 20.8983l161.39 161.3897c7.706 7.706 20.899 2.249 20.899-8.655z" fill="#61ca05"/><path d="m301.479 51.7639c0-6.7562-5.477-12.2431-12.243-12.2431l-161.391-.0001c-10.903 0-16.37 13.1827-8.655 20.8984l161.39 161.3899c7.706 7.706 20.899 2.249 20.899-8.655z" fill="#60c905"/><path d="m300.449 52.7932c0-6.7562-5.477-12.2432-12.243-12.2432h-161.39c-10.904 0-16.371 13.1827-8.655 20.8984l161.39 161.3906c7.706 7.705 20.898 2.248 20.898-8.656z" fill="#60c805"/><path d="m299.419 53.8225c0-6.7562-5.476-12.2432-12.243-12.2432h-161.39c-10.904 0-16.371 13.1827-8.655 20.8984l161.39 161.3903c7.706 7.706 20.898 2.249 20.898-8.655z" fill="#60c705"/><path d="m298.391 54.8521c0-6.7563-5.477-12.2432-12.243-12.2432h-161.39c-10.904 0-16.361 13.1826-8.655 20.8983l161.39 161.3898c7.706 7.706 20.898 2.249 20.898-8.655z" fill="#5fc605"/><path d="m297.361 55.8814c0-6.7563-5.477-12.2432-12.243-12.2432h-161.39c-10.904 0-16.371 13.1826-8.655 20.8983l161.39 161.3905c7.706 7.705 20.898 2.248 20.898-8.655z" fill="#5fc505"/><path d="m296.332 56.9107c0-6.7563-5.477-12.2432-12.243-12.2432h-161.39c-10.904 0-16.371 13.1826-8.655 20.8983l161.39 161.3902c7.705 7.706 20.898 2.249 20.898-8.655z" fill="#5ec405"/><path d="m295.302 57.9407c0-6.7562-5.477-12.2432-12.243-12.2432h-161.39c-10.904 0-16.361 13.1827-8.655 20.8984l161.39 161.3901c7.705 7.706 20.898 2.249 20.898-8.655z" fill="#5ec305"/><path d="m294.263 58.97c0-6.7562-5.477-12.2432-12.243-12.2432h-161.391c-10.903 0-16.37 13.1827-8.655 20.8984l161.4 161.3898c7.706 7.706 20.899 2.249 20.899-8.655v-161.39z" fill="#5dc205"/><path d="m293.234 59.9998c0-6.7563-5.477-12.2432-12.244-12.2432h-161.39c-10.904 0-16.371 13.1826-8.655 20.8983l161.4 161.3901c7.706 7.706 20.898 2.249 20.898-8.655v-161.3902z" fill="#5dc105"/><path d="m292.205 61.0293c0-6.7562-5.477-12.2432-12.243-12.2432h-161.391c-10.903 0-16.37 13.1827-8.655 20.8984l161.4 161.3905c7.706 7.705 20.899 2.248 20.899-8.656v-161.3897z" fill="#5dc005"/><path d="m291.174 62.0586c0-6.7562-5.477-12.2432-12.243-12.2432h-161.39c-10.904 0-16.371 13.1827-8.655 20.8984l161.4 161.3902c7.706 7.706 20.898 2.249 20.898-8.655v-161.3904z" fill="#5cbf05"/><path d="m290.145 63.0879c0-6.7562-5.477-12.2432-12.243-12.2432h-161.39c-10.904 0-16.371 13.1827-8.656 20.8984l161.401 161.3999c7.705 7.706 20.898 2.249 20.898-8.655v-161.4001z" fill="#5cbe05"/><path d="m289.116 64.1172c0-6.7562-5.477-12.2432-12.243-12.2432h-161.39c-10.904 0-16.371 13.1827-8.655 20.8984l161.4 161.4006c7.706 7.705 20.898 2.248 20.898-8.656v-161.3998z" fill="#5bbd05"/><path d="m288.087 65.1467c0-6.7562-5.476-12.2431-12.243-12.2431h-161.39c-10.904 0-16.3608 13.1826-8.655 20.8983l161.4 161.4001c7.706 7.706 20.898 2.249 20.898-8.655v-161.4003z" fill="#5bbc05"/><path d="m287.057 66.1858c0-6.7562-5.477-12.2432-12.243-12.2432h-161.39c-10.904 0-16.3713 13.1827-8.656 20.8984l161.401 161.39c7.705 7.706 20.898 2.249 20.898-8.655v-161.3902z" fill="#5abb05"/><path d="m286.027 67.2151c0-6.7562-5.477-12.2432-12.243-12.2432h-161.39c-10.904 0-16.3709 13.1827-8.655 20.8984l161.39 161.3897c7.706 7.706 20.898 2.249 20.898-8.655z" fill="#5aba05"/><path d="m284.998 68.2444c0-6.7562-5.477-12.2432-12.243-12.2432h-161.39c-10.904 0-16.3712 13.1827-8.655 20.8984l161.39 161.3904c7.705 7.705 20.898 2.249 20.898-8.655z" fill="#59b905"/><path d="m283.969 69.2742c0-6.7562-5.477-12.2432-12.244-12.2432h-161.39c-10.9036 0-16.3706 13.1827-8.655 20.8984l161.39 161.3906c7.706 7.705 20.899 2.248 20.899-8.656z" fill="#59b805"/><path d="m282.94 70.3035c0-6.7563-5.477-12.2432-12.243-12.2432h-161.39c-10.9044 0-16.3713 13.1827-8.656 20.8984l161.391 161.3903c7.705 7.706 20.898 2.249 20.898-8.655z" fill="#59b705"/><path d="m281.91 71.3328c0-6.7563-5.477-12.2432-12.243-12.2432h-161.39c-10.9043 0-16.3713 13.1827-8.6555 20.8984l161.3905 161.39c7.705 7.706 20.898 2.249 20.898-8.655z" fill="#58b606"/><path d="m280.881 72.3623c0-6.7562-5.477-12.2432-12.244-12.2432h-161.39c-10.9036 0-16.3706 13.1827-8.6548 20.8984l161.3898 161.3905c7.706 7.705 20.899 2.248 20.899-8.656z" fill="#58b506"/><path d="m279.851 73.3919c0-6.7563-5.477-12.2432-12.243-12.2432h-161.39c-10.904 0-16.3609 13.1826-8.6552 20.8983l161.3902 161.39c7.706 7.706 20.898 2.249 20.898-8.655z" fill="#57b406"/><path d="m278.821 74.4212c0-6.7563-5.477-12.2432-12.243-12.2432h-161.39c-10.9039 0-16.3708 13.1826-8.6551 20.8983l161.3901 161.3897c7.706 7.706 20.898 2.249 20.898-8.655z" fill="#57b306"/><path d="m277.792 75.4505c0-6.7563-5.477-12.2432-12.243-12.2432h-161.39c-10.9042 0-16.3712 13.1826-8.6555 20.8983l161.3905 161.3904c7.705 7.706 20.898 2.249 20.898-8.655z" fill="#56b206"/><path d="m276.763 76.4805c0-6.7562-5.477-12.2432-12.243-12.2432h-161.39c-10.9039 0-16.3709 13.1827-8.6552 20.8984l161.3902 161.3903c7.706 7.706 20.898 2.249 20.898-8.655z" fill="#56b106"/><path d="m275.733 77.5093c0-6.7562-5.477-12.2432-12.243-12.2432h-161.39c-10.9039 0-16.3708 13.1827-8.6551 20.8984l161.3901 161.3905c7.706 7.705 20.898 2.248 20.898-8.656z" fill="#55b006"/><path d="m274.703 78.5393c0-6.7562-5.476-12.2432-12.243-12.2432h-161.39c-10.9038 0-16.3708 13.1827-8.6551 20.8984l161.3901 161.3905c7.706 7.705 20.898 2.248 20.898-8.656z" fill="#55af06"/><path d="m273.675 79.5689c0-6.7563-5.477-12.2432-12.243-12.2432h-161.391c-10.9035 0-16.3705 13.1826-8.6548 20.8983l161.3898 161.39c7.706 7.706 20.899 2.249 20.899-8.655z" fill="#55ae06"/><path d="m272.645 80.5984c0-6.7562-5.477-12.2432-12.243-12.2432h-161.3899c-10.904 0-16.3709 13.1827-8.6552 20.8984l161.3901 161.3904c7.706 7.705 20.898 2.249 20.898-8.655z" fill="#54ad06"/><path d="m271.616 81.6277c0-6.7562-5.477-12.2432-12.243-12.2432h-161.3903c-10.9039 0-16.3709 13.1827-8.6552 20.8984l161.3905 161.3901c7.705 7.706 20.898 2.249 20.898-8.655z" fill="#54ac06"/><path d="m270.577 82.657c0-6.7562-5.477-12.2432-12.243-12.2432h-161.3903c-10.9039 0-16.3608 13.1827-8.6551 20.8984l161.3904 161.3898c7.705 7.706 20.898 2.249 20.898-8.655z" fill="#53ab06"/><path d="m269.547 83.6863c0-6.7562-5.477-12.2432-12.244-12.2432h-161.3898c-10.9039 0-16.3709 13.1827-8.6552 20.8984l161.39 161.3905c7.706 7.705 20.899 2.248 20.899-8.656z" fill="#53aa06"/><path d="m268.517 84.7161c0-6.7563-5.477-12.2432-12.243-12.2432h-161.3901c-10.904 0-16.3709 13.1827-8.6552 20.8984l161.3903 161.3897c7.706 7.706 20.898 2.249 20.898-8.655z" fill="#52a906"/><path d="m267.488 85.7454c0-6.7563-5.477-12.2432-12.243-12.2432h-161.3905c-10.9039 0-16.3708 13.1826-8.6551 20.8984l161.3906 161.3904c7.705 7.705 20.898 2.248 20.898-8.655z" fill="#52a806"/><path d="m266.458 86.7747c0-6.7563-5.477-12.2432-12.243-12.2432h-161.3904c-10.9039 0-16.3709 13.1826-8.6552 20.8983l161.3906 161.3902c7.705 7.706 20.898 2.249 20.898-8.655z" fill="#51a706"/><path d="m265.429 87.8037c0-6.7562-5.477-12.2432-12.243-12.2432h-161.3901c-10.9039 0-16.3709 13.1827-8.6552 20.8984l161.3903 161.3901c7.706 7.706 20.898 2.249 20.898-8.655z" fill="#51a606"/><path d="m264.4 88.8338c0-6.7563-5.477-12.2432-12.243-12.2432h-161.3904c-10.904 0-16.3709 13.1826-8.6552 20.8983l161.3906 161.3901c7.705 7.706 20.898 2.249 20.898-8.655z" fill="#51a506"/><path d="m263.371 89.8726c0-6.7563-5.477-12.2432-12.244-12.2432h-161.3898c-10.9039 0-16.3609 13.1826-8.6552 20.8983l161.39 161.3903c7.706 7.706 20.899 2.249 20.899-8.655z" fill="#50a406"/><path d="m262.341 90.9019c0-6.7563-5.477-12.2432-12.244-12.2432h-161.3897c-10.904 0-16.3709 13.1826-8.6552 20.8984l161.3899 161.3899c7.706 7.706 20.899 2.249 20.899-8.655z" fill="#50a306"/><path d="m261.312 91.9319c0-6.7562-5.477-12.2432-12.243-12.2432h-161.3904c-10.904 0-16.3709 13.1827-8.6552 20.8983l161.3906 161.39c7.705 7.706 20.898 2.249 20.898-8.655z" fill="#4fa207"/><path d="m260.281 92.961c0-6.7563-5.477-12.2432-12.243-12.2432h-161.39c-10.9039 0-16.3709 13.1826-8.6552 20.8982l161.3902 161.39c7.706 7.706 20.898 2.249 20.898-8.655z" fill="#4fa107"/><path d="m259.253 93.9903c0-6.7563-5.477-12.2432-12.244-12.2432h-161.3897c-10.9039 0-16.3709 13.1826-8.6552 20.8979l161.3899 161.391c7.706 7.705 20.899 2.248 20.899-8.656z" fill="#4ea007"/><path d="m258.223 95.0196c0-6.7563-5.477-12.2432-12.243-12.2432h-161.3906c-10.904 0-16.3709 13.1826-8.6552 20.8986l161.3898 161.39c7.706 7.706 20.899 2.249 20.899-8.655z" fill="#4e9f07"/><path d="m257.194 96.0488c0-6.7562-5.477-12.2431-12.243-12.2431h-161.3903c-10.904 0-16.3709 13.1826-8.6552 20.8983l161.3905 161.39c7.705 7.706 20.898 2.249 20.898-8.655z" fill="#4e9e07"/><path d="m256.165 97.0791c0-6.7562-5.477-12.2432-12.244-12.2432h-161.3897c-10.9039 0-16.3709 13.1827-8.6552 20.8981l161.3899 161.39c7.706 7.706 20.899 2.249 20.899-8.655z" fill="#4d9d07"/><path d="m255.136 98.1079c0-6.7562-5.477-12.2432-12.243-12.2432h-161.3904c-10.9039 0-16.3709 13.1827-8.6552 20.8983l161.3906 161.39c7.705 7.706 20.898 2.249 20.898-8.655z" fill="#4d9c07"/><path d="m254.105 99.1377c0-6.7562-5.477-12.2432-12.243-12.2432h-161.39c-10.9039 0-16.3609 13.1825-8.6552 20.8985l161.3902 161.39c7.706 7.706 20.898 2.249 20.898-8.655z" fill="#4c9b07"/><path d="m253.076 100.167c0-6.7567-5.477-12.2437-12.243-12.2437h-161.3903c-10.9039 0-16.3709 13.1827-8.6552 20.8987l161.3905 161.39c7.705 7.706 20.898 2.249 20.898-8.655z" fill="#4c9a07"/><path d="m252.047 101.197c0-6.7564-5.477-12.2434-12.243-12.2434h-161.3906c-10.9039 0-16.3709 13.1824-8.6552 20.8984l161.3898 161.39c7.706 7.706 20.899 2.249 20.899-8.655z" fill="#4b9907"/><path d="m251.017 102.226c0-6.7561-5.477-12.2431-12.243-12.2431h-161.3905c-10.904 0-16.3709 13.1831-8.6552 20.8981l161.3897 161.39c7.706 7.706 20.899 2.249 20.899-8.655z" fill="#4b9807"/><path d="m249.987 103.255c0-6.7558-5.477-12.2428-12.243-12.2428h-161.3899c-10.9039 0-16.3709 13.1828-8.6552 20.8988l161.3901 161.39c7.706 7.705 20.898 2.248 20.898-8.655z" fill="#4a9707"/><path d="m248.957 104.284c0-6.756-5.476-12.243-12.243-12.243h-161.3898c-10.9039 0-16.3709 13.183-8.6552 20.898l161.39 161.391c7.706 7.705 20.898 2.248 20.898-8.656z" fill="#4a9607"/><path d="m247.929 105.314c0-6.7558-5.477-12.2427-12.243-12.2427h-161.3899c-10.9039 0-16.3709 13.1827-8.6552 20.8987l161.3901 161.39c7.706 7.706 20.898 2.249 20.898-8.655z" fill="#4a9507"/><path d="m246.89 106.344c0-6.7565-5.477-12.2434-12.243-12.2434h-161.3899c-10.904 0-16.3709 13.1824-8.6552 20.8984l161.3901 161.39c7.706 7.706 20.898 2.249 20.898-8.655z" fill="#499407"/><path d="m245.86 107.373c0-6.756-5.477-12.2431-12.243-12.2431h-161.3904c-10.904 0-16.3709 13.1831-8.6552 20.8981l161.3896 161.39c7.706 7.706 20.899 2.249 20.899-8.655z" fill="#499307"/><path d="m244.83 108.402c0-6.756-5.477-12.2433-12.243-12.2433h-161.3904c-10.9039 0-16.3609 13.1823-8.6552 20.8983l161.3906 161.39c7.705 7.706 20.898 2.249 20.898-8.655z" fill="#489207"/><path d="m243.801 109.432c0-6.756-5.477-12.243-12.243-12.243h-161.3901c-10.9039 0-16.3709 13.183-8.6552 20.898l161.3903 161.391c7.706 7.705 20.898 2.248 20.898-8.656z" fill="#489107"/><path d="m242.772 110.461c0-6.756-5.477-12.2427-12.243-12.2427h-161.3904c-10.904 0-16.3709 13.1827-8.6552 20.8987l161.3896 161.39c7.706 7.706 20.899 2.249 20.899-8.655z" fill="#479007"/><path d="m241.743 111.491c0-6.756-5.477-12.2434-12.244-12.2434h-161.3898c-10.9039 0-16.3709 13.1824-8.6552 20.8984l161.39 161.39c7.706 7.706 20.899 2.249 20.899-8.655z" fill="#478f07"/><path d="m240.713 112.52c0-6.756-5.477-12.243-12.243-12.243h-161.3901c-10.9039 0-16.3709 13.183-8.6552 20.898l161.3903 161.391c7.706 7.705 20.898 2.248 20.898-8.656z" fill="#468e08"/><path d="m239.684 113.559c0-6.756-5.477-12.243-12.243-12.243h-161.3904c-10.904 0-16.3709 13.183-8.6552 20.899l161.3906 161.39c7.705 7.705 20.898 2.248 20.898-8.656z" fill="#468d08"/><path d="m238.653 114.589c0-6.756-5.477-12.243-12.243-12.243h-161.39c-10.9039 0-16.3709 13.183-8.6552 20.899l161.3902 161.39c7.706 7.705 20.898 2.248 20.898-8.655z" fill="#468c08"/><path d="m237.625 115.618c0-6.756-5.477-12.243-12.244-12.243h-161.3898c-10.9039 0-16.3608 13.182-8.6551 20.898l161.3899 161.39c7.706 7.706 20.899 2.249 20.899-8.655z" fill="#458b08"/><path d="m236.596 116.648c0-6.756-5.477-12.243-12.243-12.243h-161.3905c-10.9039 0-16.3708 13.183-8.6551 20.898l161.3896 161.391c7.706 7.705 20.899 2.248 20.899-8.656z" fill="#458a08"/><path d="m235.566 117.677c0-6.756-5.477-12.243-12.243-12.243h-161.3904c-10.9039 0-16.3709 13.182-8.6552 20.898l161.3906 161.39c7.705 7.706 20.898 2.249 20.898-8.655z" fill="#448908"/><path d="m234.536 118.707c0-6.756-5.477-12.243-12.243-12.243h-161.3903c-10.904 0-16.3709 13.182-8.6552 20.898l161.3905 161.39c7.705 7.706 20.898 2.249 20.898-8.655z" fill="#448808"/><path d="m233.506 119.736c0-6.757-5.477-12.244-12.243-12.244h-161.3903c-10.9039 0-16.3709 13.183-8.6551 20.899l161.3904 161.39c7.705 7.706 20.898 2.249 20.898-8.655z" fill="#438708"/><path d="m232.477 120.766c0-6.756-5.477-12.243-12.243-12.243h-161.39c-10.9039 0-16.3709 13.182-8.6552 20.898l161.3902 161.39c7.706 7.706 20.898 2.249 20.898-8.655z" fill="#438608"/><path d="m231.449 121.795c0-6.756-5.477-12.243-12.244-12.243h-161.3897c-10.904 0-16.3709 13.183-8.6552 20.898l161.3899 161.391c7.706 7.705 20.899 2.248 20.899-8.656z" fill="#438508"/><path d="m230.419 122.824c0-6.756-5.477-12.243-12.243-12.243h-161.3901c-10.9039 0-16.3708 13.183-8.6551 20.899l161.3902 161.39c7.706 7.706 20.898 2.249 20.898-8.655z" fill="#428408"/><path d="m229.389 123.853c0-6.756-5.477-12.243-12.243-12.243h-161.3906c-10.904 0-16.3609 13.183-8.6552 20.898l161.3898 161.391c7.706 7.705 20.899 2.248 20.899-8.656z" fill="#428308"/><path d="m228.36 124.884c0-6.757-5.477-12.244-12.243-12.244h-161.3903c-10.904 0-16.3609 13.183-8.6552 20.899l161.3905 161.39c7.705 7.706 20.898 2.249 20.898-8.655z" fill="#418208"/><path d="m227.331 125.913c0-6.756-5.477-12.243-12.244-12.243h-161.3896c-10.904 0-16.3709 13.182-8.6552 20.898l161.3898 161.39c7.706 7.706 20.899 2.249 20.899-8.655z" fill="#418108"/><path d="m226.301 126.942c0-6.756-5.477-12.243-12.243-12.243h-161.3906c-10.9039 0-16.3709 13.183-8.6552 20.898l161.3898 161.391c7.706 7.705 20.899 2.248 20.899-8.656z" fill="#408008"/><path d="m225.271 127.972c0-6.757-5.477-12.243-12.243-12.243h-161.3899c-10.9039 0-16.3709 13.182-8.6552 20.898l161.3901 161.39c7.706 7.706 20.898 2.249 20.898-8.655z" fill="#407f08"/><path d="m224.241 129.001c0-6.756-5.476-12.243-12.243-12.243h-161.3898c-10.904 0-16.3709 13.182-8.6552 20.898l161.39 161.39c7.706 7.706 20.898 2.249 20.898-8.655z" fill="#3f7e08"/><path d="m223.202 130.031c0-6.757-5.476-12.244-12.243-12.244h-161.3899c-10.9039 0-16.3708 13.183-8.6551 20.899l161.39 161.39c7.706 7.706 20.898 2.249 20.898-8.655z" fill="#3f7d08"/><path d="m222.174 131.06c0-6.756-5.477-12.243-12.243-12.243h-161.3906c-10.9039 0-16.3709 13.182-8.6552 20.898l161.3898 161.39c7.706 7.706 20.899 2.249 20.899-8.655z" fill="#3f7c08"/><path d="m221.143 132.089c0-6.756-5.477-12.243-12.243-12.243h-161.3901c-10.9039 0-16.3709 13.183-8.6552 20.898l161.3903 161.39c7.706 7.706 20.898 2.249 20.898-8.655z" fill="#3e7b09"/><path d="m220.114 133.119c0-6.757-5.477-12.244-12.243-12.244h-161.3901c-10.9039 0-16.3708 13.183-8.6551 20.899l161.3902 161.39c7.706 7.706 20.898 2.249 20.898-8.655z" fill="#3e7a09"/><path d="m219.085 134.148c0-6.756-5.477-12.243-12.243-12.243h-161.3901c-10.904 0-16.3709 13.182-8.6552 20.898l161.3903 161.39c7.706 7.706 20.898 2.249 20.898-8.655z" fill="#3d7909"/><path d="m218.055 135.178c0-6.756-5.477-12.243-12.244-12.243h-161.3897c-10.9039 0-16.3709 13.182-8.6552 20.898l161.3899 161.39c7.706 7.706 20.899 2.249 20.899-8.655z" fill="#3d7809"/><path d="m217.026 136.207c0-6.756-5.477-12.243-12.243-12.243h-161.3904c-10.9039 0-16.3709 13.183-8.6552 20.898l161.3906 161.39c7.705 7.706 20.898 2.249 20.898-8.655z" fill="#3c7709"/><path d="m215.997 137.247c0-6.757-5.477-12.244-12.244-12.244h-161.3898c-10.9039 0-16.3708 13.183-8.6551 20.899l161.3899 161.39c7.706 7.706 20.899 2.249 20.899-8.655z" fill="#3c7609"/><path d="m214.967 138.275c0-6.756-5.477-12.243-12.243-12.243h-161.3901c-10.9039 0-16.3709 13.183-8.6552 20.899l161.3903 161.39c7.706 7.705 20.898 2.248 20.898-8.655z" fill="#3b7509"/><path d="m213.937 139.305c0-6.757-5.477-12.243-12.243-12.243h-161.39c-10.904 0-16.3709 13.182-8.6552 20.898l161.3902 161.39c7.706 7.706 20.898 2.249 20.898-8.655z" fill="#3b7409"/><path d="m212.909 140.335c0-6.756-5.477-12.243-12.244-12.243h-161.3897c-10.904 0-16.3709 13.182-8.6552 20.898l161.3899 161.39c7.706 7.706 20.899 2.249 20.899-8.655z" fill="#3b7309"/><path d="m211.879 141.365c0-6.757-5.477-12.244-12.244-12.244h-161.3897c-10.9039 0-16.3709 13.183-8.6552 20.899l161.3899 161.39c7.706 7.706 20.899 2.249 20.899-8.655z" fill="#3a7209"/><path d="m210.85 142.394c0-6.756-5.477-12.243-12.243-12.243h-161.3904c-10.9039 0-16.3709 13.182-8.6552 20.898l161.3906 161.39c7.705 7.706 20.898 2.249 20.898-8.655z" fill="#3a7109"/><path d="m209.82 143.423c0-6.756-5.477-12.243-12.243-12.243h-161.3903c-10.904 0-16.3709 13.183-8.6552 20.898l161.3905 161.39c7.705 7.706 20.898 2.249 20.898-8.655z" fill="#397009"/><path d="m208.791 144.453c0-6.757-5.477-12.244-12.244-12.244h-161.3897c-10.9039 0-16.3708 13.183-8.6551 20.899l161.3898 161.39c7.706 7.706 20.899 2.249 20.899-8.655z" fill="#396f09"/><path d="m207.761 145.482c0-6.756-5.477-12.243-12.243-12.243h-161.39c-10.9039 0-16.3708 13.182-8.6551 20.898l161.3901 161.39c7.706 7.706 20.898 2.249 20.898-8.655z" fill="#386e09"/><path d="m206.732 146.511c0-6.756-5.477-12.243-12.243-12.243h-161.3903c-10.904 0-16.3609 13.183-8.6552 20.898l161.3905 161.391c7.705 7.705 20.898 2.248 20.898-8.656z" fill="#386d09"/><path d="m205.702 147.541c0-6.756-5.477-12.243-12.243-12.243h-161.3902c-10.904 0-16.3709 13.182-8.6552 20.898l161.3904 161.39c7.705 7.706 20.898 2.249 20.898-8.655z" fill="#376c09"/><path d="m204.673 148.57c0-6.756-5.477-12.243-12.243-12.243h-161.39c-10.9039 0-16.3709 13.183-8.6552 20.898l161.3902 161.39c7.706 7.706 20.898 2.249 20.898-8.655z" fill="#376b09"/><path d="m203.643 149.599c0-6.756-5.477-12.243-12.243-12.243h-161.39c-10.9039 0-16.3708 13.183-8.6551 20.899l161.3901 161.39c7.706 7.705 20.898 2.248 20.898-8.655z" fill="#376a09"/><path d="m202.613 150.629c0-6.756-5.477-12.243-12.243-12.243h-161.3899c-10.9039 0-16.3708 13.182-8.6551 20.898l161.39 161.39c7.706 7.706 20.898 2.249 20.898-8.655z" fill="#366909"/><path d="m201.584 151.658c0-6.756-5.476-12.243-12.243-12.243h-161.3899c-10.9039 0-16.3709 13.183-8.6551 20.898l161.39 161.391c7.706 7.705 20.898 2.248 20.898-8.656z" fill="#366809"/><path d="m200.545 152.688c0-6.756-5.477-12.243-12.243-12.243h-161.3902c-10.9039 0-16.3709 13.182-8.6552 20.898l161.3904 161.39c7.705 7.706 20.898 2.249 20.898-8.655z" fill="#35670a"/><path d="m199.516 153.718c0-6.757-5.477-12.244-12.243-12.244h-161.3905c-10.9039 0-16.37086 13.183-8.6552 20.899l161.3897 161.39c7.706 7.706 20.899 2.249 20.899-8.655z" fill="#35660a"/><path d="m198.487 154.747c0-6.756-5.477-12.243-12.243-12.243h-161.3902c-10.904 0-16.37091 13.182-8.6552 20.898l161.3904 161.39c7.705 7.706 20.898 2.249 20.898-8.655z" fill="#34650a"/><path d="m197.457 155.776c0-6.756-5.477-12.243-12.244-12.243h-161.3897c-10.904 0-16.37093 13.183-8.6552 20.899l161.3899 161.39c7.706 7.705 20.899 2.248 20.899-8.655z" fill="#34640a"/><path d="m196.427 156.805c0-6.756-5.477-12.243-12.243-12.243h-161.3901c-10.9039 0-16.37087 13.183-8.6552 20.899l161.3903 161.39c7.706 7.706 20.898 2.249 20.898-8.655z" fill="#34630a"/><path d="m195.398 157.835c0-6.757-5.476-12.243-12.243-12.243h-161.3899c-10.9039 0-16.37081 13.182-8.6551 20.898l161.39 161.39c7.706 7.706 20.898 2.249 20.898-8.655z" fill="#33620a"/><path d="m194.369 158.864c0-6.756-5.477-12.243-12.243-12.243h-161.3902c-10.90391 0-16.37084 13.182-8.6551 20.898l161.3903 161.39c7.705 7.706 20.898 2.249 20.898-8.655z" fill="#33610a"/><path d="m193.339 159.893c0-6.756-5.477-12.243-12.243-12.243h-161.3901c-10.90396 0-16.37092 13.183-8.6552 20.898l161.3903 161.391c7.706 7.705 20.898 2.248 20.898-8.656z" fill="#32600a"/><path d="m192.31 160.934c0-6.757-5.477-12.244-12.243-12.244h-161.3905c-10.90389 0-16.37085 13.183-8.6551 20.899l161.3896 161.39c7.706 7.706 20.899 2.249 20.899-8.655z" fill="#325f0a"/><path d="m191.28 161.963c0-6.756-5.477-12.243-12.243-12.243h-161.3904c-10.90393 0-16.37089 13.182-8.65518 20.898l161.39058 161.39c7.705 7.706 20.898 2.249 20.898-8.655z" fill="#315e0a"/><path d="m190.251 162.992c0-6.756-5.477-12.243-12.243-12.243h-161.3904c-10.90389 0-16.370848 13.183-8.65514 20.898l161.39054 161.391c7.705 7.705 20.898 2.248 20.898-8.656z" fill="#315d0a"/><path d="m189.222 164.022c0-6.757-5.477-12.244-12.243-12.244h-161.3904c-10.90397 0-16.370931 13.183-8.65523 20.899l161.39063 161.39c7.705 7.706 20.898 2.249 20.898-8.655z" fill="#305c0a"/><path d="m188.192 165.051c0-6.756-5.477-12.243-12.243-12.243h-161.3904c-10.90391 0-16.37087 13.183-8.65517 20.898l161.39057 161.39c7.705 7.706 20.898 2.249 20.898-8.655z" fill="#305b0a"/><path d="m187.163 166.08c0-6.756-5.477-12.243-12.244-12.243h-161.3897c-10.90394 0-16.3709 13.183-8.65519 20.899l161.38989 161.39c7.706 7.705 20.899 2.248 20.899-8.655z" fill="#305a0a"/><path d="m186.133 167.11c0-6.756-5.477-12.243-12.243-12.243h-161.39c-10.90397 0-16.37093 13.182-8.65522 20.898l161.39022 161.39c7.706 7.706 20.898 2.249 20.898-8.655z" fill="#2f590a"/><path d="m185.103 168.139c0-6.756-5.477-12.243-12.243-12.243h-161.39c-10.903906 0-16.37087 13.183-8.65516 20.898l161.39016 161.391c7.706 7.705 20.898 2.248 20.898-8.656z" fill="#2f580a"/><path d="m184.075 169.168c0-6.756-5.477-12.243-12.244-12.243h-161.3897c-10.903923 0-16.37088 13.183-8.65518 20.899l161.38988 161.39c7.706 7.706 20.899 2.249 20.899-8.655z" fill="#2e570a"/><path d="m183.045 170.198c0-6.756-5.477-12.243-12.243-12.243h-161.39002c-10.90393 0-16.37089 13.183-8.655187 20.898l161.390207 161.391c7.706 7.705 20.898 2.248 20.898-8.656z" fill="#2e560a"/><path d="m182.015 171.228c0-6.757-5.477-12.244-12.243-12.244h-161.39057c-10.90393 0-16.37089 13.183-8.655185 20.899l161.389755 161.39c7.706 7.706 20.899 2.249 20.899-8.655z" fill="#2d550a"/><path d="m180.985 172.257c0-6.756-5.477-12.243-12.243-12.243h-161.3899c-10.90393 0-16.37089 13.183-8.65518 20.898l161.39008 161.39c7.706 7.706 20.898 2.249 20.898-8.655z" fill="#2d540a"/><path d="m179.957 173.286c0-6.756-5.477-12.243-12.243-12.243h-161.39061c-10.90393 0-16.37089 13.183-8.65519 20.899l161.3898 161.39c7.706 7.705 20.899 2.248 20.899-8.655z" fill="#2c530b"/><path d="m178.928 174.316c0-6.756-5.477-12.243-12.243-12.243h-161.39039c-10.90393 0-16.36091 13.182-8.65519 20.898l161.39058 161.39c7.705 7.706 20.898 2.249 20.898-8.655z" fill="#2c520b"/><path d="m177.897 175.345c0-6.756-5.477-12.243-12.243-12.243h-161.38988c-10.90393 0-16.37092 13.183-8.65518 20.899l161.39006 161.39c7.706 7.706 20.898 2.249 20.898-8.655z" fill="#2c510b"/><path d="m176.858 176.375c0-6.757-5.477-12.244-12.243-12.244h-161.38988c-10.90393 0-16.37092 13.183-8.65519 20.899l161.39007 161.39c7.706 7.706 20.898 2.249 20.898-8.655z" fill="#2b500b"/><path d="m175.828 177.404c0-6.756-5.476-12.243-12.243-12.243h-161.38982c-10.90393 0-16.37088 13.182-8.65518 20.898l161.39 161.39c7.706 7.706 20.898 2.249 20.898-8.655z" fill="#2b4f0b"/><path d="m174.8 178.433c0-6.756-5.477-12.243-12.243-12.243h-161.39054c-10.90392 0-16.37086 13.183-8.65518 20.898l161.38972 161.39c7.706 7.706 20.899 2.249 20.899-8.655z" fill="#2a4e0b"/><path d="m173.77 179.462c0-6.756-5.477-12.243-12.243-12.243h-161.389863c-10.903937 0-16.370937 13.183-8.655187 20.899l161.39005 161.39c7.706 7.705 20.898 2.248 20.898-8.655z" fill="#2a4d0b"/><path d="m172.741 180.492c0-6.756-5.477-12.243-12.244-12.243h-161.389832c-10.903968 0-16.360868 13.183-8.655188 20.898l161.39002 161.391c7.706 7.705 20.899 2.248 20.899-8.656z" fill="#294c0b"/><path d="m171.711 181.522c0-6.757-5.477-12.244-12.243-12.244h-161.39013c-10.90397 0-16.37087 13.183-8.65517 20.899l161.3903 161.39c7.706 7.706 20.898 2.249 20.898-8.655z" fill="#294b0b"/><path d="m170.682 182.551c0-6.756-5.477-12.243-12.243-12.243h-161.39046c-10.90394 0-16.37084 13.183-8.65514 20.898l161.3896 161.39c7.706 7.706 20.899 2.249 20.899-8.655z" fill="#284a0b"/><path d="m169.652 183.58c0-6.756-5.477-12.243-12.243-12.243h-161.39039c-10.90391 0-16.37091 13.183-8.65521 20.899l161.3906 161.39c7.705 7.705 20.898 2.248 20.898-8.655z" fill="#28490b"/><path d="m168.623 184.62c0-6.757-5.477-12.244-12.244-12.244h-161.38972c-10.90388 0-16.37088 13.183-8.65518 20.899l161.3899 161.39c7.706 7.706 20.899 2.249 20.899-8.655z" fill="#28480b"/><path d="m167.594 185.649c0-6.756-5.477-12.243-12.243-12.243h-161.39047c-10.90393 0-16.37093 13.183-8.65523 20.899l161.3897 161.39c7.706 7.705 20.899 2.249 20.899-8.655z" fill="#27470b"/><path d="m166.564 186.679c0-6.756-5.477-12.243-12.243-12.243h-161.39041c-10.90389 0-16.37089 13.182-8.65519 20.898l161.3906 161.39c7.705 7.706 20.898 2.249 20.898-8.655z" fill="#27460b"/><path d="m165.534 187.709c0-6.757-5.477-12.244-12.243-12.244h-161.39029c-10.90391 0-16.37091 13.183-8.65521 20.899l161.3905 161.39c7.705 7.706 20.898 2.249 20.898-8.655z" fill="#26450b"/><path d="m164.505 188.737c0-6.756-5.477-12.243-12.243-12.243h-161.39004c-10.90396 0-16.37086 13.183-8.65516 20.898l161.3902 161.39c7.706 7.706 20.898 2.249 20.898-8.655z" fill="#26440b"/><path d="m163.477 189.767c0-6.756-5.477-12.243-12.244-12.243h-161.3898c-10.9039 0-16.3708 13.183-8.6551 20.899l161.3899 161.39c7.706 7.705 20.899 2.248 20.899-8.656z" fill="#25430b"/><path d="m162.447 190.797c0-6.756-5.477-12.243-12.244-12.243h-161.3897c-10.904 0-16.3709 13.182-8.6552 20.898l161.3899 161.39c7.706 7.706 20.899 2.249 20.899-8.655z" fill="#25420b"/><path d="m161.417 191.826c0-6.756-5.477-12.243-12.244-12.243h-161.3897c-10.9039 0-16.3708 13.183-8.6551 20.898l161.3898 161.391c7.706 7.705 20.899 2.248 20.899-8.656z" fill="#25410b"/><path d="m160.388 192.855c0-6.756-5.477-12.243-12.243-12.243h-161.3904c-10.9039 0-16.3708 13.183-8.6551 20.899l161.3905 161.39c7.705 7.706 20.898 2.249 20.898-8.655z" fill="#24400b"/><path d="m159.357 193.885c0-6.756-5.477-12.243-12.243-12.243h-161.3899c-10.904 0-16.3709 13.182-8.6552 20.898l161.3901 161.39c7.706 7.706 20.898 2.249 20.898-8.655z" fill="#243f0c"/><path d="m158.329 194.914c0-6.756-5.477-12.243-12.243-12.243h-161.3901c-10.9039 0-16.3709 13.183-8.6552 20.899l161.3903 161.39c7.706 7.705 20.898 2.248 20.898-8.656z" fill="#233e0c"/><path d="m157.299 195.944c0-6.756-5.477-12.243-12.243-12.243h-161.3906c-10.9039 0-16.3709 13.182-8.6552 20.898l161.3898 161.39c7.706 7.706 20.899 2.249 20.899-8.655z" fill="#233d0c"/><path d="m156.27 196.973c0-6.756-5.477-12.243-12.243-12.243h-161.3903c-10.904 0-16.3709 13.182-8.6552 20.898l161.3905 161.39c7.705 7.706 20.898 2.249 20.898-8.655z" fill="#223c0c"/><path d="m155.241 198.002c0-6.756-5.477-12.243-12.244-12.243h-161.3897c-10.9039 0-16.3709 13.183-8.6552 20.898l161.3899 161.391c7.706 7.705 20.899 2.248 20.899-8.656z" fill="#223b0c"/><path d="m154.211 199.032c0-6.757-5.477-12.244-12.243-12.244h-161.39c-10.9039 0-16.3709 13.183-8.6552 20.899l161.3902 161.39c7.706 7.706 20.898 2.249 20.898-8.655z" fill="#213a0c"/><path d="m153.172 200.062c0-6.757-5.477-12.244-12.243-12.244h-161.3906c-10.9039 0-16.3708 13.183-8.6551 20.899l161.3897 161.39c7.706 7.706 20.899 2.249 20.899-8.655z" fill="#21390c"/><path d="m152.142 201.091c0-6.756-5.477-12.243-12.243-12.243h-161.3899c-10.9039 0-16.3709 13.182-8.6552 20.898l161.3901 161.39c7.706 7.706 20.898 2.249 20.898-8.655z" fill="#21380c"/><path d="m151.112 202.12c0-6.756-5.476-12.243-12.243-12.243h-161.3898c-10.904 0-16.3709 13.183-8.6552 20.898l161.39 161.39c7.706 7.706 20.898 2.249 20.898-8.655z" fill="#20370c"/><path d="m150.084 203.15c0-6.757-5.477-12.244-12.243-12.244h-161.3904c-10.9039 0-16.3708 13.183-8.6551 20.899l161.3905 161.39c7.705 7.706 20.898 2.249 20.898-8.655z" fill="#20360c"/><path d="m149.053 204.179c0-6.756-5.477-12.243-12.243-12.243h-161.3901c-10.9039 0-16.3709 13.183-8.6552 20.898l161.3903 161.391c7.706 7.705 20.898 2.248 20.898-8.656z" fill="#1f350c"/><path d="m148.024 205.209c0-6.757-5.476-12.244-12.243-12.244h-161.3899c-10.9039 0-16.3708 13.183-8.6551 20.899l161.39 161.39c7.706 7.706 20.898 2.249 20.898-8.655z" fill="#1f340c"/><path d="m146.995 206.238c0-6.756-5.477-12.243-12.243-12.243h-161.3902c-10.9039 0-16.3709 13.182-8.6552 20.898l161.3904 161.39c7.705 7.706 20.898 2.249 20.898-8.655z" fill="#1e330c"/><path d="m145.966 207.267c0-6.756-5.477-12.243-12.243-12.243h-161.3899c-10.9039 0-16.3709 13.183-8.6552 20.898l161.3901 161.39c7.706 7.706 20.898 2.249 20.898-8.655z" fill="#1e320c"/><path d="m144.936 208.307c0-6.756-5.477-12.243-12.243-12.243h-161.3905c-10.9039 0-16.3708 13.182-8.6551 20.898l161.3906 161.39c7.705 7.706 20.898 2.249 20.898-8.655z" fill="#1d310c"/><path d="m143.907 209.336c0-6.756-5.477-12.243-12.244-12.243h-161.3898c-10.9039 0-16.3708 13.183-8.6551 20.899l161.3899 161.39c7.706 7.705 20.899 2.249 20.899-8.655z" fill="#1d300c"/><path d="m142.878 210.366c0-6.756-5.477-12.243-12.243-12.243h-161.3905c-10.9039 0-16.3709 13.182-8.6552 20.898l161.3897 161.39c7.706 7.706 20.899 2.249 20.899-8.655z" fill="#1d2f0c"/><path d="m141.848 211.395c0-6.756-5.477-12.243-12.243-12.243h-161.3904c-10.9039 0-16.3709 13.183-8.6552 20.898l161.3906 161.391c7.705 7.705 20.898 2.248 20.898-8.656z" fill="#1c2e0c"/><path d="m140.819 212.425c0-6.757-5.477-12.244-12.244-12.244h-161.3897c-10.904 0-16.3709 13.183-8.6552 20.899l161.3899 161.39c7.706 7.706 20.899 2.249 20.899-8.655z" fill="#1c2d0c"/><path d="m139.789 213.454c0-6.756-5.477-12.243-12.243-12.243h-161.3901c-10.9039 0-16.3709 13.182-8.6552 20.898l161.3903 161.39c7.706 7.706 20.898 2.249 20.898-8.655z" fill="#1b2c0c"/><path d="m138.759 214.483c0-6.756-5.477-12.243-12.243-12.243h-161.39c-10.9039 0-16.3709 13.183-8.6552 20.898l161.3902 161.391c7.706 7.705 20.898 2.248 20.898-8.656z" fill="#1b2b0d"/><path d="m137.73 215.513c0-6.756-5.477-12.243-12.243-12.243h-161.3904c-10.9039 0-16.3708 13.182-8.6551 20.898l161.3905 161.39c7.705 7.706 20.898 2.249 20.898-8.655z" fill="#1a2a0d"/><path d="m136.701 216.542c0-6.756-5.477-12.243-12.243-12.243h-161.3901c-10.9039 0-16.3709 13.183-8.6552 20.898l161.3903 161.391c7.706 7.705 20.898 2.248 20.898-8.656z" fill="#1a290d"/><path d="m135.672 217.572c0-6.757-5.477-12.244-12.243-12.244h-161.3904c-10.9039 0-16.3709 13.183-8.6552 20.899l161.3906 161.39c7.705 7.706 20.898 2.249 20.898-8.655z" fill="#19280d"/><path d="m134.642 218.601c0-6.756-5.477-12.243-12.243-12.243h-161.3903c-10.904 0-16.3709 13.183-8.6552 20.899l161.3905 161.39c7.705 7.705 20.898 2.248 20.898-8.656z" fill="#19270d"/><path d="m133.613 219.631c0-6.757-5.477-12.244-12.244-12.244h-161.3897c-10.9039 0-16.3709 13.183-8.6552 20.899l161.3899 161.39c7.706 7.706 20.899 2.249 20.899-8.655z" fill="#19260d"/><path d="m132.583 220.66c0-6.756-5.477-12.243-12.243-12.243h-161.3906c-10.9039 0-16.3709 13.182-8.6552 20.898l161.3898 161.39c7.706 7.706 20.899 2.249 20.899-8.655z" fill="#18250d"/><path d="m131.554 221.689c0-6.756-5.477-12.243-12.243-12.243h-161.3903c-10.9039 0-16.3709 13.183-8.6552 20.898l161.3905 161.391c7.705 7.705 20.898 2.248 20.898-8.656z" fill="#18240d"/><path d="m130.525 222.719c0-6.757-5.477-12.244-12.244-12.244h-161.3897c-10.9039 0-16.3708 13.183-8.6551 20.899l161.3898 161.39c7.706 7.706 20.899 2.249 20.899-8.655z" fill="#17230d"/><path d="m129.484 223.748c0-6.756-5.476-12.243-12.243-12.243h-161.3898c-10.904 0-16.3709 13.183-8.6552 20.898l161.39 161.39c7.706 7.706 20.898 2.249 20.898-8.655z" fill="#17220d"/><path d="m128.455 224.778c0-6.757-5.477-12.244-12.243-12.244h-161.3902c-10.9039 0-16.3709 13.183-8.6552 20.899l161.3904 161.39c7.705 7.706 20.898 2.249 20.898-8.655z" fill="#16210d"/><path d="m127.426 225.807c0-6.756-5.477-12.243-12.243-12.243h-161.3899c-10.9039 0-16.3709 13.182-8.6552 20.898l161.3901 161.39c7.706 7.706 20.898 2.249 20.898-8.655z" fill="#16200d"/><path d="m126.396 226.836c0-6.756-5.476-12.243-12.243-12.243h-161.3899c-10.9039 0-16.3708 13.183-8.6551 20.898l161.39 161.391c7.706 7.705 20.898 2.248 20.898-8.656z" fill="#161f0d"/><path d="m125.367 227.866c0-6.756-5.477-12.243-12.243-12.243h-161.3902c-10.9039 0-16.3709 13.182-8.6552 20.898l161.3904 161.39c7.705 7.706 20.898 2.249 20.898-8.655z" fill="#151e0d"/><path d="m124.337 228.895c0-6.756-5.477-12.243-12.244-12.243h-161.3897c-10.904 0-16.3709 13.183-8.6552 20.898l161.3899 161.39c7.706 7.706 20.899 2.249 20.899-8.655z" fill="#151d0d"/><path d="m123.308 229.925c0-6.757-5.477-12.244-12.243-12.244h-161.3904c-10.904 0-16.3709 13.183-8.6552 20.899l161.3906 161.39c7.705 7.706 20.898 2.249 20.898-8.655z" fill="#141c0d"/><path d="m122.279 230.954c0-6.756-5.477-12.243-12.243-12.243h-161.3901c-10.904 0-16.3709 13.182-8.6552 20.898l161.3903 161.39c7.705 7.706 20.898 2.249 20.898-8.655z" fill="#141b0d"/><path d="m121.25 231.994c0-6.757-5.477-12.244-12.243-12.244h-161.3905c-10.9039 0-16.3609 13.183-8.6552 20.899l161.3897 161.39c7.706 7.706 20.899 2.249 20.899-8.655z" fill="#131a0d"/><path d="m120.219 233.023c0-6.756-5.477-12.243-12.243-12.243h-161.3901c-10.9039 0-16.3708 13.182-8.6551 20.898l161.3901 161.39c7.7061 7.706 20.8981 2.249 20.8981-8.655z" fill="#13190d"/><path d="m119.191 234.052c0-6.756-5.477-12.243-12.244-12.243h-161.3898c-10.9039 0-16.3709 13.183-8.6552 20.898l161.3901 161.391c7.7059 7.705 20.8989 2.248 20.8989-8.656z" fill="#12180d"/><path d="m118.161 235.082c0-6.756-5.477-12.243-12.243-12.243h-161.3901c-10.904 0-16.3709 13.183-8.6552 20.898l161.3901 161.39c7.7062 7.706 20.8982 2.249 20.8982-8.655z" fill="#12170e"/><path d="m117.131 236.111c0-6.756-5.477-12.243-12.243-12.243h-161.3901c-10.9039 0-16.3709 13.183-8.6552 20.899l161.3902 161.39c7.7061 7.705 20.8981 2.248 20.8981-8.655z" fill="#12160e"/><path d="m116.102 237.141c0-6.757-5.477-12.244-12.243-12.244h-161.3904c-10.9039 0-16.3709 13.183-8.6552 20.899l161.3902 161.39c7.7054 7.706 20.8984 2.249 20.8984-8.655z" fill="#11150e"/><path d="m115.073 238.17c0-6.756-5.477-12.243-12.243-12.243h-161.3901c-10.904 0-16.3709 13.183-8.6552 20.898l161.3901 161.391c7.7062 7.705 20.8982 2.248 20.8982-8.656z" fill="#11140e"/><path d="m114.043 239.2c0-6.757-5.477-12.243-12.243-12.243h-161.3901c-10.9039 0-16.3709 13.182-8.6551 20.898l161.3901 161.39c7.7061 7.706 20.8981 2.249 20.8981-8.655z" fill="#10130e"/><path d="m113.013 240.229c0-6.756-5.477-12.243-12.243-12.243h-161.39c-10.9039 0-16.3709 13.182-8.6552 20.898l161.3902 161.39c7.7057 7.706 20.898 2.249 20.898-8.655z" fill="#10120e"/><path d="m111.985 241.258c0-6.756-5.477-12.243-12.2436-12.243h-161.3901c-10.9039 0-16.3709 13.183-8.6552 20.898l161.3901 161.391c7.7058 7.705 20.8988 2.248 20.8988-8.656z" fill="#0f110e"/><path d="m110.955 242.288c0-6.757-5.477-12.244-12.2429-12.244h-161.3902c-10.9039 0-16.3709 13.183-8.6552 20.899l161.3902 161.39c7.7057 7.706 20.8981 2.249 20.8981-8.655z" fill="#0f100e"/><path d="m109.926 243.317c0-6.756-5.477-12.243-12.2432-12.243h-161.3902c-10.9039 0-16.3709 13.183-8.6552 20.898l161.3902 161.391c7.7057 7.705 20.8984 2.248 20.8984-8.656z" fill="#0e0f0e"/><path d="m108.896 244.347c0-6.757-5.477-12.243-12.2432-12.243h-161.3901c-10.9039 0-16.3709 13.182-8.6552 20.898l161.3901 161.39c7.7057 7.706 20.8984 2.249 20.8984-8.655z" fill="#0e0e0e"/></g></svg>