<svg fill="none" height="300" viewBox="0 0 190 300" width="190" xmlns="http://www.w3.org/2000/svg" xmlns:xlink="http://www.w3.org/1999/xlink"><clipPath id="a"><path d="m0 0h411.079v411.079h-411.079z" transform="matrix(1 .00000017 .00000017 -1 -222 355.079)"/></clipPath><g clip-path="url(#a)"><path d="m179.24-55.9999c5.43 0 9.839 4.4016 9.839 9.8394v129.7038c0 8.7631-10.594 13.1567-16.795 6.9559l-129.7035-129.7038c-6.1929-6.1928-1.8073-16.7953 6.9558-16.7953z" fill="#00d8c3"/><path d="m177.947-54.6996c5.429 0 9.839 4.4016 9.839 9.8394v129.7038c0 8.7631-10.594 13.1567-16.795 6.9559l-129.7039-129.7038c-6.1928-6.1928-1.8072-16.7953 6.9559-16.7953z" fill="#00d7c2"/><path d="m176.646-53.4064c5.43 0 9.839 4.4017 9.839 9.8394v129.7038c0 8.7631-10.594 13.1567-16.795 6.9559l-129.7037-129.7038c-6.1928-6.1928-1.8072-16.7953 6.9559-16.7953z" fill="#00d6c1"/><path d="m175.353-52.1132c5.429 0 9.839 4.4017 9.839 9.8395v129.7037c0 8.7631-10.594 13.157-16.795 6.9559l-129.704-129.7038c-6.1928-6.1928-1.8073-16.7953 6.9559-16.7953z" fill="#00d5c0"/><path d="m174.059-50.8195c5.43 0 9.84 4.4017 9.84 9.8395v129.7037c0 8.7631-10.595 13.1563-16.796 6.9559l-129.7034-129.7038c-6.1928-6.1928-1.8072-16.7953 6.9559-16.7953z" fill="#00d4bf"/><path d="m172.766-49.5182c5.43 0 9.839 4.4016 9.839 9.8394v129.7038c0 8.7631-10.594 13.157-16.795 6.9559l-129.7037-129.7038c-6.1929-6.1928-1.8073-16.7953 6.9558-16.7953z" fill="#00d3bf"/><path d="m171.465-48.225c5.43 0 9.84 4.4016 9.84 9.8394v129.7037c0 8.7629-10.595 13.1489-16.796 6.9559l-129.7035-129.7038c-6.1928-6.1928-1.8072-16.7953 6.9559-16.7953z" fill="#00d2be"/><path d="m170.172-46.9323c5.429 0 9.839 4.4016 9.839 9.8394v129.7037c0 8.7632-10.594 13.1492-16.795 6.9559l-129.7039-129.7037c-6.1928-6.1928-1.8072-16.7953 6.9559-16.7953z" fill="#00d1bd"/><path d="m168.878-45.6388c5.43 0 9.84 4.4016 9.84 9.8394v129.7038c0 8.7626-10.595 13.1566-16.796 6.9556l-129.7032-129.7035c-6.1928-6.1928-1.8073-16.7953 6.9559-16.7953z" fill="#01d0bc"/><path d="m167.585-44.3375c5.43 0 9.839 4.4016 9.839 9.8394v129.7037c0 8.7634-10.594 13.1564-16.795 6.9564l-129.7036-129.7043c-6.1928-6.1928-1.8072-16.7953 6.9559-16.7953z" fill="#01cfbb"/><path d="m166.284-43.0436c5.429 0 9.839 4.4016 9.839 9.8394v129.7038c0 8.7634-10.595 13.1564-16.795 6.9554l-129.7041-129.7033c-6.1928-6.1928-1.8072-16.7953 6.9559-16.7953z" fill="#01ceba"/><path d="m164.99-41.7513c5.43 0 9.84 4.4016 9.84 9.8394v129.7037c0 8.7632-10.595 13.1572-16.796 6.9562l-129.7034-129.7041c-6.1929-6.1928-1.8073-16.7953 6.9558-16.7953z" fill="#01cdb9"/><path d="m163.698-40.4501c5.429 0 9.839 4.4016 9.839 9.8395v129.7037c0 8.7629-10.595 13.1569-16.795 6.9559l-129.7041-129.7038c-6.1928-6.1928-1.8072-16.7953 6.9559-16.7953z" fill="#01ccb8"/><path d="m162.396-39.1569c5.43 0 9.839 4.4017 9.839 9.8395v129.7034c0 8.763-10.594 13.157-16.795 6.956l-129.7036-129.7036c-6.1928-6.1928-1.8072-16.7953 6.9559-16.7953z" fill="#01cbb7"/><path d="m161.103-37.8634c5.43 0 9.84 4.4016 9.84 9.8394v129.704c0 8.763-10.595 13.156-16.795 6.956l-129.7042-129.7041c-6.1928-6.1928-1.8072-16.7953 6.9559-16.7953z" fill="#01cab6"/><path d="m159.809-36.5709c5.43 0 9.84 4.4016 9.84 9.8394v129.7035c0 8.763-10.595 13.157-16.796 6.956l-129.7033-129.7037c-6.1928-6.1928-1.8072-16.7953 6.9559-16.7953z" fill="#01c9b6"/><path d="m158.517-35.2689c5.429 0 9.839 4.4016 9.839 9.8394v129.7035c0 8.763-10.594 13.157-16.795 6.956l-129.7039-129.7037c-6.1928-6.1928-1.8072-16.7953 6.9559-16.7953z" fill="#01c8b5"/><path d="m157.215-33.9765c5.43 0 9.84 4.4016 9.84 9.8394v129.7041c0 8.763-10.595 13.148-16.796 6.956l-129.7034-129.7042c-6.1928-6.1928-1.8072-16.7953 6.9559-16.7953z" fill="#01c7b4"/><path d="m155.923-32.6825c5.429 0 9.839 4.4016 9.839 9.8394v129.7041c0 8.763-10.594 13.156-16.795 6.956l-129.704-129.7042c-6.1928-6.1928-1.8073-16.7953 6.9558-16.7953z" fill="#01c6b3"/><path d="m154.629-31.3815c5.43 0 9.84 4.4017 9.84 9.8394v129.7041c0 8.763-10.595 13.156-16.796 6.956l-129.7034-129.7042c-6.1928-6.1928-1.8072-16.7953 6.9559-16.7953z" fill="#01c5b2"/><path d="m153.328-30.0878c5.43 0 9.84 4.4017 9.84 9.8394v129.7034c0 8.764-10.595 13.157-16.796 6.956l-129.7034-129.7035c-6.1928-6.1928-1.8073-16.7953 6.9559-16.7953z" fill="#01c4b1"/><path d="m152.035-28.7951c5.43 0 9.84 4.4017 9.84 9.8395l-.001 129.7036c0 8.763-10.594 13.157-16.795 6.956l-129.7035-129.7038c-6.19283-6.1928-1.8073-16.7953 6.9559-16.7953z" fill="#01c3b0"/><path d="m150.742-27.5021c5.429 0 9.839 4.4016 9.839 9.8394v129.7037c0 8.763-10.594 13.157-16.795 6.956l-129.7039-129.7038c-6.19278-6.1928-1.8072-16.7953 6.9559-16.7953z" fill="#02c2af"/><path d="m149.448-26.2003c5.43 0 9.84 4.4016 9.84 9.8394v129.7039c0 8.763-10.595 13.157-16.796 6.956l-129.7032-129.70406c-6.19285-6.19284-1.8073-16.79534 6.9558-16.79534z" fill="#02c1ae"/><path d="m148.148-24.9078c5.429 0 9.839 4.4016 9.839 9.8394v129.7034c0 8.763-10.594 13.157-16.795 6.956l-129.704-129.70359c-6.19281-6.19281-1.80724-16.79531 6.9559-16.79531z" fill="#02c0ad"/><path d="m146.853-23.6142c5.43 0 9.84 4.4017 9.84 9.8395v129.7037c0 8.763-10.595 13.157-16.795 6.956l-129.7041-129.70388c-6.19281-6.19282-1.80723-16.79532 6.9559-16.79532z" fill="#02bfad"/><path d="m145.561-22.3126c5.43 0 9.839 4.4016 9.839 9.8394v129.7042c0 8.763-10.594 13.156-16.795 6.955l-129.70372-129.70336c-6.19281-6.19284-1.80723-16.79534 6.95592-16.79534z" fill="#02beac"/><path d="m144.26-21.0199c5.43 0 9.84 4.4016 9.84 9.8394v129.7035c0 8.763-10.595 13.157-16.796 6.956l-129.70349-129.70362c-6.19281-6.19278-1.80723-16.79528 6.95589-16.79528z" fill="#02bdab"/><path d="m142.966-19.7265c5.43 0 9.839 4.4016 9.839 9.83943v129.70407c0 8.763-10.594 13.148-16.795 6.956l-129.70358-129.70423c-6.192817-6.19281-1.80724-16.79527 6.95588-16.79527z" fill="#02bcaa"/><path d="m141.673-18.4338c5.429 0 9.839 4.4017 9.839 9.83945v129.70335c0 8.763-10.594 13.149-16.795 6.956l-129.70395-129.7035c-6.19281-6.19281-1.80723-16.7953 6.95585-16.7953z" fill="#02bba9"/><path d="m140.38-17.1325c5.43 0 9.839 4.4016 9.839 9.83942v129.70408c0 8.763-10.594 13.148-16.795 6.956l-129.70357-129.704234c-6.19281-6.192816-1.80723-16.795266 6.95587-16.795266z" fill="#02baa8"/><path d="m139.079-15.8393c5.429 0 9.839 4.4017 9.839 9.83948v129.70382c0 8.763-10.595 13.157-16.795 6.956l-129.70407-129.703975c-6.19281-6.192815-1.807231-16.795325 6.95588-16.795325z" fill="#02b9a7"/><path d="m137.786-14.5458c5.43 0 9.839 4.4016 9.839 9.83945v129.70335c0 8.764-10.594 13.157-16.795 6.956l-129.70368-129.7035c-6.19282-6.19281-1.807238-16.7953 6.95588-16.7953z" fill="#02b8a6"/><path d="m136.492-13.2453c5.43 0 9.839 4.40168 9.839 9.83947v129.70383c0 8.763-10.594 13.157-16.795 6.956l-129.703781-129.70398c-6.192809-6.19281-1.807239-16.79532 6.955881-16.79532z" fill="#02b7a5"/><path d="m135.191-11.9513c5.43 0 9.839 4.40163 9.839 9.83942v129.70388c0 8.763-10.594 13.157-16.795 6.956l-129.70355-129.70404c-6.19281-6.19281-1.80723-16.79526 6.95588-16.79526z" fill="#02b6a5"/><path d="m133.898-10.6583c5.429 0 9.839 4.4016 9.839 9.839387v129.703913c0 8.763-10.594 13.157-16.795 6.956l-129.70391-129.70407c-6.19281-6.1928083-1.80726-16.79533 6.95586-16.79533z" fill="#02b5a4"/><path d="m132.605-9.36542c5.43 0 9.839 4.40164 9.839 9.83943v129.70399c0 8.763-10.594 13.148-16.795 6.956l-129.70353-129.70414c-6.19277-6.19282-1.80724-16.79531 6.95588-16.79531z" fill="#02b4a3"/><path d="m131.312-8.06385c5.429 0 9.839 4.40163 9.839 9.83943v129.70342c0 8.763-10.594 13.157-16.795 6.956l-129.7039-129.7036c-6.1928-6.19281-1.80723-16.79527 6.95588-16.79527z" fill="#03b3a2"/><path d="m130.011-6.77021c5.43 0 9.839 4.40164 9.839 9.83943v129.70378c0 8.763-10.594 13.149-16.795 6.956l-129.70365-129.7039c-6.19285-6.19284-1.80723-16.79533 6.955879-16.79533z" fill="#03b2a1"/><path d="m128.718-5.47817c5.429 0 9.839 4.40164 9.839 9.83943v129.70374c0 8.763-10.594 13.157-16.795 6.956l-129.70401-129.7039c-6.19279-6.1928-1.80724-16.79529 6.955874-16.79529z" fill="#03b1a0"/><path d="m127.424-4.18423c5.43.00001 9.84 4.401648 9.84 9.83944v129.70379c0 8.763-10.595 13.157-16.796 6.956l-129.70337-129.7039c-6.19283-6.19286-1.80723-16.79535 6.95585-16.79535z" fill="#03b09f"/><path d="m126.131-2.88296c5.43.00001 9.839 4.40165 9.839 9.83944v129.70352c0 8.763-10.594 13.157-16.795 6.956l-129.7037-129.7037c-6.1929-6.19279-1.8073-16.79528 6.95583-16.79528z" fill="#03af9e"/><path d="m124.83-1.5907c5.43 0 9.84 4.40162 9.84 9.83943v129.70327c0 8.764-10.595 13.157-16.796 6.956l-129.7035-129.7035c-6.1928-6.19277-1.8072-16.79523 6.95588-16.79523z" fill="#03ae9d"/><path d="m123.537-.297018c5.429.000001 9.839 4.401648 9.839 9.839438v129.70358c0 8.763-10.594 13.157-16.795 6.956l-129.7039-129.7037c-6.1928-6.1929-1.8072-16.795343 6.95592-16.795341z" fill="#03ad9c"/><path d="m122.243 1.0045c5.43 0 9.84 4.40164 9.84 9.8394v129.7041c0 8.763-10.595 13.156-16.796 6.956l-129.7032-129.7042c-6.1928-6.1928-1.8073-16.79533 6.95585-16.79533z" fill="#03ac9c"/><path d="m120.943 2.29724c5.429 0 9.839 4.40162 9.839 9.83946v129.7033c0 8.764-10.594 13.157-16.795 6.956l-129.704-129.7035c-6.1928-6.1928-1.8072-16.79529 6.9559-16.79529z" fill="#03ab9b"/><path d="m119.649 3.59088c5.43 0 9.84 4.40164 9.84 9.83942v129.7037c0 8.763-10.595 13.149-16.795 6.956l-129.7041-129.7038c-6.1928-6.1929-1.8072-16.79535 6.9559-16.79535z" fill="#03aa9a"/><path d="m118.357 4.88366c5.429 0 9.839 4.40163 9.839 9.83944v129.7039c0 8.763-10.594 13.157-16.795 6.956l-129.704-129.7041c-6.1928-6.1928-1.8072-16.79526 6.9559-16.79526z" fill="#03a999"/><path d="m117.063 6.18516c5.43 0 9.84 4.40164 9.84 9.83944v129.7034c0 8.763-10.595 13.157-16.796 6.956l-129.7033-129.7036c-6.1928-6.1928-1.8073-16.79526 6.9558-16.79526z" fill="#03a898"/><path d="m115.762 7.47813c5.43 0 9.839 4.40167 9.839 9.83947v129.7034c0 8.763-10.594 13.157-16.795 6.956l-129.7038-129.7036c-6.1928-6.1928-1.8073-16.7953 6.9559-16.79529z" fill="#03a797"/><path d="m114.468 8.77183c5.43 0 9.84 4.40167 9.84 9.83947v129.7037c0 8.763-10.595 13.157-16.795 6.956l-129.7042-129.7039c-6.1928-6.1928-1.8072-16.79529 6.9559-16.79529z" fill="#03a696"/><path d="m113.174 10.0726c5.43 0 9.84 4.4017 9.84 9.8394v129.704c0 8.763-10.595 13.157-16.796 6.956l-129.7033-129.7041c-6.1928-6.1928-1.8072-16.7953 6.9559-16.7953z" fill="#04a595"/><path d="m111.874 11.3658c5.429 0 9.839 4.4017 9.839 9.8395v129.7037c0 8.763-10.595 13.157-16.795 6.956l-129.7041-129.7039c-6.1928-6.1928-1.8072-16.7953 6.9559-16.7953z" fill="#04a494"/><path d="m110.58 12.6595c5.43 0 9.84 4.4017 9.84 9.8395v129.704c0 8.763-10.595 13.156-16.796 6.956l-129.7034-129.7042c-6.1928-6.1928-1.8072-16.7953 6.9559-16.7953z" fill="#04a394"/><path d="m109.288 13.9524c5.429 0 9.839 4.4017 9.839 9.8395v129.7041c0 8.763-10.594 13.148-16.795 6.955l-129.704-129.7033c-6.1928-6.1928-1.8073-16.7953 6.9559-16.7953z" fill="#04a293"/><path d="m107.994 15.2533c5.43 0 9.84 4.4016 9.84 9.8394v129.7033c0 8.764-10.595 13.157-16.796 6.956l-129.7034-129.7035c-6.1928-6.1928-1.8072-16.7952 6.9559-16.7952z" fill="#04a192"/><path d="m106.693 16.5465c5.43 0 9.84 4.4016 9.84 9.8394v129.7041c0 8.763-10.595 13.156-16.7955 6.956l-129.7037-129.7042c-6.1928-6.1928-1.8072-16.7953 6.9559-16.7953z" fill="#04a091"/><path d="m105.399 17.8399c5.43 0 9.84 4.4016 9.84 9.8394v129.7037c0 8.763-10.595 13.149-16.7955 6.956l-129.7038-129.7038c-6.1928-6.1929-1.8072-16.7953 6.9559-16.7953z" fill="#049f90"/><path d="m104.107 19.1405c5.429 0 9.839 4.4016 9.839 9.8394v129.7041c0 8.763-10.594 13.156-16.7952 6.956l-129.7037-129.7042c-6.1928-6.1929-1.8072-16.7953 6.9559-16.7953z" fill="#049e8f"/><path d="m102.805 20.4347c5.43 0 9.84 4.4016 9.84 9.8394v129.7039c0 8.763-10.595 13.157-16.7957 6.956l-129.7037-129.704c-6.1928-6.1929-1.8072-16.7954 6.9559-16.7954z" fill="#049d8e"/><path d="m101.513 21.7273c5.429.0001 9.839 4.4017 9.839 9.8395v129.7042c0 8.763-10.594 13.148-16.7953 6.955l-129.7037-129.7034c-6.1928-6.1928-1.8072-16.7953 6.9559-16.7953z" fill="#049c8d"/><path d="m100.219 23.0204c5.43 0 9.84 4.4016 9.84 9.8394v129.7042c0 8.763-10.5948 13.156-16.7957 6.955l-129.7037-129.7034c-6.1928-6.1928-1.8072-16.7953 6.9559-16.7953z" fill="#049b8c"/><path d="m98.9259 24.3221c5.4301 0 9.8391 4.4017 9.8391 9.8395v129.7034c0 8.763-10.5942 13.157-16.795 6.956l-129.7037-129.7036c-6.1928-6.1928-1.8073-16.7953 6.9559-16.7953z" fill="#049a8b"/><path d="m97.6251 25.6146c5.4299 0 9.8399 4.4016 9.8399 9.8394v129.704c0 8.763-10.5949 13.157-16.7958 6.956l-129.7037-129.7041c-6.1928-6.1928-1.8072-16.7953 6.9559-16.7953z" fill="#04998b"/><path d="m96.3318 26.9078c5.4302 0 9.8392 4.4017 9.8392 9.8394v129.7038c0 8.763-10.5943 13.157-16.7951 6.956l-129.7037-129.7039c-6.1929-6.1928-1.8073-16.7953 6.9558-16.7953z" fill="#04988a"/><path d="m95.0384 28.2018c5.4296 0 9.8396 4.4016 9.8396 9.8394v129.7038c0 8.763-10.5947 13.157-16.7955 6.956l-129.7037-129.704c-6.1928-6.1928-1.8072-16.7953 6.9559-16.7953z" fill="#059789"/><path d="m93.7379 29.5018c5.4297 0 9.8391 4.4017 9.8391 9.8394v129.7038c0 8.763-10.5942 13.157-16.795 6.956l-129.7037-129.7039c-6.1928-6.1928-1.8073-16.7953 6.9559-16.7953z" fill="#059688"/><path d="m92.4435 30.7953c5.4298 0 9.8395 4.4016 9.8395 9.8394v129.7033c0 8.764-10.5945 13.157-16.7954 6.956l-129.7037-129.7035c-6.1928-6.1928-1.8072-16.7953 6.9559-16.7953z" fill="#059587"/><path d="m91.1509 32.089c5.4298 0 9.8391 4.4016 9.8391 9.8394v129.7036c0 8.763-10.5941 13.157-16.795 6.956l-129.7037-129.7038c-6.1928-6.1928-1.8072-16.7953 6.9559-16.7953z" fill="#059486"/><path d="m89.8568 33.3902c5.4298 0 9.8394 4.4017 9.8394 9.8395v129.7033c0 8.764-10.5944 13.157-16.7953 6.956l-129.7037-129.7035c-6.1928-6.1928-1.8072-16.7953 6.9559-16.7953z" fill="#059385"/><path d="m88.556 34.6832c5.4298 0 9.8395 4.4016 9.8395 9.8394l-.0001 129.7034c0 8.764-10.5944 13.157-16.7953 6.956l-129.7036-129.7035c-6.1929-6.1928-1.8073-16.7953 6.9558-16.7953z" fill="#059284"/><path d="m87.2627 35.9767c5.4297 0 9.8394 4.4016 9.8394 9.8394v129.7039c0 8.763-10.5945 13.157-16.7953 6.956l-129.7037-129.7041c-6.1928-6.1928-1.8072-16.7953 6.9559-16.7953z" fill="#059183"/><path d="m85.9701 37.2696c5.4297 0 9.8394 4.4017 9.8394 9.8395v129.7039c0 8.763-10.5945 13.157-16.7953 6.956l-129.7037-129.7041c-6.1928-6.1928-1.8073-16.7953 6.9558-16.7953z" fill="#059082"/><path d="m84.6767 38.5711c5.4298 0 9.8394 4.4016 9.8394 9.8394v129.7035c0 8.763-10.5945 13.149-16.7953 6.956l-129.7037-129.7036c-6.1928-6.1929-1.8072-16.7953 6.9559-16.7953z" fill="#058f82"/><path d="m83.3752 39.8641c5.4298 0 9.8394 4.4017 9.8394 9.8394v129.7035c0 8.763-10.5945 13.157-16.7953 6.956l-129.7037-129.7036c-6.1928-6.1928-1.8072-16.7953 6.9559-16.7953z" fill="#058e81"/><path d="m82.0818 41.1569c5.4298 0 9.8395 4.4016 9.8395 9.8394l-.0001 129.7037c0 8.763-10.5944 13.157-16.7952 6.956l-129.7037-129.7039c-6.1929-6.1928-1.8073-16.7953 6.9558-16.7953z" fill="#058d80"/><path d="m80.7892 42.4581c5.4298 0 9.8394 4.4017 9.8394 9.8394v129.7035c0 8.763-10.5944 13.157-16.7953 6.956l-129.7037-129.7036c-6.1928-6.1928-1.8072-16.7953 6.9559-16.7953z" fill="#058c7f"/><path d="m79.4877 43.7508c5.4298 0 9.8394 4.4017 9.8394 9.8395v129.7037c0 8.763-10.5944 13.157-16.7953 6.956l-129.7037-129.7039c-6.1928-6.1928-1.8072-16.7953 6.9559-16.7953z" fill="#058b7e"/><path d="m78.1951 45.0448c5.4298 0 9.8394 4.4016 9.8394 9.8394v129.7038c0 8.763-10.5945 13.157-16.7953 6.956l-129.7037-129.7039c-6.1928-6.1929-1.8072-16.7953 6.9559-16.7953z" fill="#058a7d"/><path d="m76.9017 46.338c5.4298 0 9.8395 4.4016 9.8395 9.8394l-.0001 129.7036c0 8.763-10.5944 13.157-16.7953 6.956l-129.7037-129.7037c-6.1928-6.1928-1.8072-16.7953 6.9559-16.7953z" fill="#05897c"/><path d="m75.6084 47.6395c5.4297 0 9.8394 4.4016 9.8394 9.8394v129.7041c0 8.763-10.5945 13.156-16.7953 6.956l-129.7037-129.7042c-6.1928-6.1928-1.8073-16.7953 6.9559-16.7953z" fill="#06887b"/><path d="m74.3076 48.9324c5.4298 0 9.8394 4.4017 9.8394 9.8395v129.7041c0 8.763-10.5944 13.148-16.7953 6.955l-129.7037-129.7033c-6.1928-6.1928-1.8072-16.7953 6.9559-16.7953z" fill="#06877a"/><path d="m73.0142 50.2254c5.4298 0 9.8395 4.4017 9.8395 9.8395v129.7041c-.0001 8.763-10.5945 13.156-16.7954 6.956l-129.7036-129.7043c-6.1929-6.1928-1.8073-16.7953 6.9558-16.7953z" fill="#06867a"/><path d="m71.7209 51.5262c5.4298 0 9.8394 4.4016 9.8394 9.8394v129.7034c0 8.763-10.5945 13.149-16.7953 6.956l-129.7037-129.7035c-6.1928-6.1929-1.8072-16.7953 6.9559-16.7953z" fill="#068579"/><path d="m70.4201 52.8199c5.4298 0 9.8395 4.4016 9.8395 9.8394l-.0001 129.7037c0 8.763-10.5944 13.149-16.7953 6.956l-129.7037-129.7038c-6.1928-6.1929-1.8072-16.7953 6.9559-16.7953z" fill="#068478"/><path d="m69.1268 54.1129c5.4297 0 9.8394 4.4016 9.8394 9.8394v129.7037c0 8.763-10.5945 13.157-16.7953 6.956l-129.7037-129.7038c-6.1928-6.1928-1.8073-16.7953 6.9558-16.7953z" fill="#068377"/><path d="m67.8334 55.4066c5.4298 0 9.8394 4.4016 9.8394 9.8394v129.704c0 8.763-10.5945 13.157-16.7953 6.956l-129.7037-129.7041c-6.1928-6.1928-1.8072-16.7953 6.9559-16.7953z" fill="#068276"/><path d="m66.5408 56.7076c5.4297 0 9.8394 4.4017 9.8394 9.8395v129.7039c0 8.763-10.5945 13.157-16.7953 6.956l-129.7037-129.7041c-6.1928-6.1928-1.8072-16.7953 6.9559-16.7953z" fill="#068175"/><path d="m65.2393 58.0006c5.4297 0 9.8394 4.4016 9.8394 9.8394v129.704c0 8.763-10.5945 13.157-16.7953 6.956l-129.7037-129.7041c-6.1928-6.1929-1.8072-16.7953 6.9559-16.7953z" fill="#068074"/><path d="m63.9467 59.2938c5.4297 0 9.8394 4.4016 9.8394 9.8394v129.7038c0 8.763-10.5945 13.149-16.7953 6.956l-129.7037-129.704c-6.1928-6.1928-1.8073-16.7953 6.9558-16.7953z" fill="#067f73"/><path d="m62.6526 60.5953c5.4297 0 9.8394 4.4017 9.8394 9.8394v129.7043c0 8.763-10.5945 13.156-16.7953 6.955l-129.7037-129.7034c-6.1928-6.1928-1.8073-16.7953 6.9559-16.7953z" fill="#067e72"/><path d="m61.3518 61.888c5.4298 0 9.8394 4.4017 9.8394 9.8395v129.7035c0 8.763-10.5944 13.157-16.7953 6.956l-129.7037-129.7037c-6.1928-6.1928-1.8072-16.7953 6.9559-16.7953z" fill="#067d71"/><path d="m60.0577 63.1817c5.4298 0 9.8394 4.4016 9.8394 9.8394v129.7039c0 8.763-10.5944 13.149-16.7953 6.956l-129.7037-129.704c-6.1928-6.1928-1.8072-16.7953 6.9559-16.7953z" fill="#067c71"/><path d="m58.7643 64.474c5.4298 0 9.8395 4.4016 9.8395 9.8394l-.0001 129.7036c0 8.763-10.5944 13.157-16.7953 6.956l-129.7037-129.7038c-6.1928-6.1928-1.8072-16.7952 6.9559-16.7952z" fill="#067b70"/><path d="m57.4717 65.776c5.4298 0 9.8394 4.4016 9.8394 9.8394v129.7036c0 8.763-10.5944 13.157-16.7953 6.956l-129.7037-129.7037c-6.1928-6.1929-1.8072-16.7953 6.9559-16.7953z" fill="#077a6f"/><path d="m56.1702 67.0685c5.4298 0 9.8394 4.4016 9.8394 9.8394v129.7041c0 8.763-10.5944 13.156-16.7953 6.956l-129.7037-129.7043c-6.1928-6.1928-1.8072-16.7953 6.9559-16.7953z" fill="#07796e"/><path d="m54.8776 68.3619c5.4298 0 9.8394 4.4017 9.8394 9.8395v129.7036c0 8.763-10.5944 13.157-16.7953 6.956l-129.7037-129.7038c-6.1928-6.1928-1.8072-16.7953 6.9559-16.7953z" fill="#07786d"/><path d="m53.5842 69.6554c5.4298 0 9.8395 4.4016 9.8395 9.8394l-.0001 129.7042c0 8.763-10.5944 13.156-16.7953 6.955l-129.7037-129.7033c-6.1928-6.1929-1.8072-16.7954 6.9559-16.7953z" fill="#07776c"/><path d="m52.2909 70.9574c5.4297 0 9.8394 4.4016 9.8394 9.8394v129.7042c0 8.763-10.5945 13.156-16.7953 6.955l-129.7037-129.7033c-6.1928-6.1929-1.8073-16.7953 6.9558-16.7953z" fill="#07766b"/><path d="m50.9901 72.2496c5.4298 0 9.8394 4.4017 9.8394 9.8394v129.704c0 8.763-10.5944 13.157-16.7953 6.956l-129.7037-129.7041c-6.1928-6.1928-1.8072-16.7953 6.9559-16.7953z" fill="#07756a"/><path d="m49.6968 73.5433c5.4297 0 9.8394 4.4017 9.8394 9.8394v129.7043c0 8.763-10.5945 13.156-16.7953 6.955l-129.7037-129.7034c-6.1929-6.1928-1.8073-16.7953 6.9558-16.7953z" fill="#077469"/><path d="m48.4034 74.8441c5.4297 0 9.8394 4.4016 9.8394 9.8394v129.7035c0 8.763-10.5945 13.157-16.7953 6.956l-129.7037-129.7036c-6.1928-6.1928-1.8072-16.7953 6.9559-16.7953z" fill="#077369"/><path d="m47.1026 76.1368c5.4298 0 9.8394 4.4017 9.8394 9.8395v129.7037c0 8.763-10.5944 13.157-16.7953 6.956l-129.7037-129.7039c-6.1928-6.1928-1.8072-16.7953 6.9559-16.7953z" fill="#077268"/><path d="m45.8093 77.4303c5.4297 0 9.8394 4.4016 9.8394 9.8394v129.7033c0 8.764-10.5945 13.157-16.7953 6.956l-129.7037-129.7034c-6.1928-6.1929-1.8073-16.7953 6.9559-16.7953z" fill="#077167"/><path d="m44.5159 78.7235c5.4298 0 9.8394 4.4016 9.8394 9.8394v129.7041c0 8.763-10.5944 13.156-16.7953 6.956l-129.7037-129.7042c-6.1928-6.1928-1.8072-16.7953 6.9559-16.7953z" fill="#077066"/><path d="m43.2218 80.0248c5.4298 0 9.8394 4.4016 9.8394 9.8394v129.7038c0 8.763-10.5944 13.157-16.7953 6.956l-129.7037-129.704c-6.1928-6.1928-1.8072-16.7953 6.9559-16.7953z" fill="#076f65"/><path d="m41.9218 81.3185c5.4297 0 9.8394 4.4016 9.8394 9.8394v129.7041c0 8.763-10.5945 13.156-16.7953 6.956l-129.7037-129.7043c-6.1932-6.1928-1.8072-16.7952 6.9559-16.7952z" fill="#076e64"/><path d="m40.6292 82.6114c5.4297 0 9.8394 4.4017 9.8394 9.8395v129.7041c0 8.763-10.5945 13.156-16.7953 6.955l-129.7037-129.7033c-6.1926-6.1928-1.8073-16.7953 6.9558-16.7953z" fill="#076d63"/><path d="m39.3351 83.9125c5.4297 0 9.8394 4.4016 9.8394 9.8394v129.7041c0 8.763-10.5945 13.156-16.7953 6.956l-129.7037-129.704c-6.1925-6.1931-1.8073-16.7956 6.9559-16.7956z" fill="#076c62"/><path d="m38.0343 85.2052c5.4298 0 9.8394 4.4016 9.8394 9.8394v129.7034c0 8.763-10.5944 13.157-16.7953 6.956l-129.7037-129.704c-6.1927-6.1924-1.8077-16.7948 6.9559-16.7948z" fill="#086b61"/><path d="m36.7402 86.4989c5.4298 0 9.8394 4.4016 9.8394 9.8394v129.7037c0 8.763-10.5944 13.157-16.7953 6.956l-129.7037-129.704c-6.1926-6.1927-1.8076-16.7951 6.9559-16.7951z" fill="#086a60"/><path d="m35.4468 87.7918c5.4298 0 9.8395 4.4017 9.8395 9.8395l-.0001 129.7037c0 8.763-10.5944 13.157-16.7953 6.956l-129.7039-129.704c-6.193-6.1927-1.807-16.7952 6.9561-16.7952z" fill="#086960"/><path d="m34.1542 89.0929c5.4298 0 9.8394 4.4016 9.8394 9.8394v129.7037c0 8.763-10.5944 13.157-16.7953 6.956l-129.7033-129.704c-6.193-6.1927-1.808-16.7952 6.9555-16.7951z" fill="#08685f"/><path d="m32.8527 90.3863c5.4298 0 9.8394 4.4017 9.8394 9.8397v129.704c0 8.763-10.5944 13.156-16.7953 6.955l-129.7038-129.703c-6.193-6.193-1.807-16.7957 6.956-16.7957z" fill="#08675e"/><path d="m31.5601 91.6805c5.4298 0 9.8394 4.4017 9.8394 9.8395v129.704c0 8.763-10.5945 13.156-16.7953 6.956l-129.7032-129.704c-6.193-6.193-1.808-16.7955 6.9554-16.7955z" fill="#08665d"/><path d="m30.2667 92.9806c5.4298 0 9.8395 4.4016 9.8395 9.8394l-.0001 129.704c0 8.763-10.5944 13.156-16.7953 6.956l-129.7038-129.704c-6.193-6.193-1.807-16.7955 6.956-16.7955z" fill="#08655c"/><path d="m28.9652 94.2735c5.4298 0 9.8395 4.4017 9.8395 9.8395l-.0001 129.704c0 8.763-10.5944 13.156-16.7953 6.956l-129.7033-129.704c-6.193-6.193-1.808-16.7955 6.956-16.7955z" fill="#08645b"/><path d="m27.6719 95.5668c5.4297 0 9.8394 4.4016 9.8394 9.8392v129.704c0 8.763-10.5945 13.157-16.7953 6.956l-129.704-129.704c-6.193-6.193-1.807-16.7953 6.956-16.7953z" fill="#08635a"/><path d="m26.3792 96.8602c5.4298 0 9.8395 4.4018 9.8395 9.8398v129.703c0 8.764-10.5945 13.157-16.7954 6.956l-129.7033-129.704c-6.193-6.192-1.808-16.7948 6.956-16.7948z" fill="#086259"/><path d="m25.0859 98.1617c5.4297 0 9.8394 4.4013 9.8394 9.8393v129.704c0 8.763-10.5945 13.157-16.7953 6.956l-129.704-129.704c-6.193-6.193-1.807-16.7953 6.956-16.7953z" fill="#086158"/><path d="m23.7851 99.4542c5.4298 0 9.8395 4.4018 9.8395 9.8398l-.0001 129.703c0 8.764-10.5944 13.157-16.7953 6.956l-129.7032-129.704c-6.193-6.192-1.808-16.7948 6.955-16.7948z" fill="#086057"/><path d="m22.4918 100.748c5.4297 0 9.8394 4.402 9.8394 9.84v129.704c0 8.763-10.5945 13.156-16.7953 6.955l-129.7039-129.703c-6.193-6.193-1.807-16.796 6.956-16.796z" fill="#085f57"/><path d="m21.1984 102.049c5.4298 0 9.8394 4.402 9.8394 9.84v129.704c0 8.763-10.5944 13.156-16.7953 6.955l-129.7035-129.703c-6.193-6.193-1.807-16.796 6.956-16.796z" fill="#085e56"/><path d="m19.8976 103.342c5.4298 0 9.8395 4.402 9.8395 9.84l-.0001 129.703c0 8.763-10.5944 13.157-16.7953 6.956l-129.7037-129.704c-6.193-6.192-1.807-16.795 6.956-16.795z" fill="#095d55"/><path d="m18.6043 104.636c5.4297 0 9.8394 4.401 9.8394 9.839v129.704c0 8.763-10.5944 13.157-16.7953 6.956l-129.7034-129.704c-6.193-6.193-1.808-16.795 6.956-16.795z" fill="#095c54"/><path d="m17.3109 105.929c5.4298 0 9.8394 4.401 9.8394 9.839v129.704c0 8.763-10.5944 13.156-16.7953 6.956l-129.704-129.704c-6.192-6.193-1.807-16.795 6.956-16.795z" fill="#095b53"/><path d="m16.0176 107.23c5.4297 0 9.8394 4.401 9.8394 9.839v129.704c0 8.763-10.5945 13.157-16.79532 6.956l-129.70368-129.704c-6.193-6.193-1.807-16.795 6.956-16.795z" fill="#095a52"/><path d="m14.7168 108.523c5.4298 0 9.8394 4.402 9.8394 9.84v129.703c0 8.764-10.5945 13.157-16.7953 6.956l-129.7039-129.703c-6.193-6.193-1.807-16.796 6.956-16.796z" fill="#095951"/><path d="m13.4234 109.816c5.4298 0 9.8395 4.402 9.8395 9.84l-.0001 129.703c0 8.764-10.5944 13.157-16.79526 6.956l-129.70354-129.703c-6.193-6.193-1.807-16.796 6.956-16.796z" fill="#095850"/><path d="m12.1308 111.109c5.4298 0 9.8394 4.402 9.8394 9.84v129.704c0 8.763-10.5944 13.156-16.79528 6.956l-129.70392-129.704c-6.193-6.193-1.807-16.796 6.956-16.796z" fill="#09574f"/><path d="m10.8367 112.411c5.4298 0 9.8394 4.402 9.8394 9.84v129.703c0 8.763-10.5944 13.149-16.79529 6.956l-129.70381-129.704c-6.193-6.192-1.807-16.795 6.956-16.795z" fill="#09564f"/><path d="m9.53521 113.704c5.42979 0 9.83939 4.402 9.83939 9.839v129.704c0 8.763-10.59443 13.157-16.79528 6.956l-129.70332-129.704c-6.193-6.193-1.808-16.795 6.955-16.795z" fill="#09554e"/><path d="m8.24259 114.997c5.42981 0 9.83941 4.402 9.83941 9.839v129.704c0 8.763-10.59446 13.157-16.79531 6.956l-129.70369-129.704c-6.193-6.193-1.807-16.795 6.956-16.795z" fill="#09544d"/><path d="m6.94923 116.299c5.42977 0 9.83947 4.401 9.83947 9.839l-.0001 129.696c0 8.763-10.59442 13.157-16.79526758 6.956l-129.70333242-129.704c-6.193-6.193-1.808-16.795 6.956-16.795h129.70323z" fill="#09534c"/><path d="m5.64773 117.592c5.42977 0 9.83947 4.402 9.83947 9.84l-.0001 129.703c0 8.763-10.59442 13.149-16.79527 6.956l-129.70383-129.704c-6.193-6.192-1.807-16.795 6.956-16.795z" fill="#09524b"/><path d="m4.35437 118.885c5.42976 0 9.83943 4.402 9.83943 9.84v129.704c0 8.763-10.59448 13.156-16.79533 6.955l-129.70347-129.703c-6.193-6.193-1.807-16.796 6.956-16.796z" fill="#09514a"/><path d="m3.06175 120.178c5.42976 0 9.83945 4.402 9.83945 9.84v129.703c0 8.763-10.5945 13.157-16.79535 6.956l-129.70385-129.704c-6.193-6.192-1.807-16.795 6.956-16.795z" fill="#095049"/><path d="m1.76839 121.478c5.42976 0 9.83941 4.402 9.83941 9.84v129.704c0 8.763-10.59446 13.156-16.79531 6.955l-129.70349-129.703c-6.193-6.193-1.807-16.796 6.956-16.796z" fill="#094f48"/><path d="m.467624 122.772c5.429766 0 9.839476 4.402 9.839476 9.84l-.0001 129.703c0 8.763-10.594423 13.157-16.79527 6.956l-129.70373-129.704c-6.193-6.192-1.807-16.795 6.956-16.795z" fill="#0a4e47"/><path d="m-.825734 124.065c5.429764 0 9.839434 4.402 9.839434 9.839l-.00003 129.704c0 8.763-10.59444 13.157-16.79529 6.956l-129.70338-129.704c-6.193-6.193-1.808-16.795 6.956-16.795z" fill="#0a4d46"/><path d="m-2.1191 125.366c5.42976 0 9.83943 4.402 9.83943 9.84l-.00002 129.695c0 8.764-10.59446 13.157-16.79531 6.956l-129.704-129.703c-6.193-6.193-1.807-16.796 6.956-16.796h129.7039z" fill="#0a4c46"/><path d="m-3.41986 126.66c5.42977 0 9.83943 4.401 9.83943 9.839l-.00002 129.704c0 8.763-10.59445 13.157-16.79535 6.956l-129.7032-129.704c-6.193-6.193-1.808-16.795 6.955-16.795z" fill="#0a4b45"/><path d="m-4.71322 127.953c5.429768 0 9.83944 4.402 9.83943 9.839l-.00002 129.704c0 8.763-10.59445 13.157-16.79529 6.956l-129.7039-129.704c-6.193-6.193-1.807-16.795 6.956-16.795z" fill="#0a4a44"/><path d="m-6.00658 129.246c5.429763 0 9.83943 4.402 9.83943 9.839l-.00002 129.704c-.00001 8.763-10.59446 13.157-16.79533 6.956l-129.7035-129.704c-6.193-6.193-1.807-16.795 6.956-16.795z" fill="#0a4943"/><path d="m-7.29994 130.547c5.42977 0 9.83943 4.402 9.83943 9.84l-.00002 129.703c0 8.764-10.59444 13.157-16.79527 6.956l-129.7042-129.704c-6.192-6.192-1.807-16.795 6.956-16.795z" fill="#0a4842"/><path d="m-8.6007 131.841c5.42977 0 9.83943 4.402 9.83943 9.839l-.00002 129.704c0 8.763-10.59445 13.149-16.79531 6.956l-129.7034-129.704c-6.193-6.193-1.808-16.795 6.956-16.795z" fill="#0a4741"/></g></svg>