<svg fill="none" height="21" viewBox="0 0 21 21" width="21" xmlns="http://www.w3.org/2000/svg"><g fill="#d9ff00" opacity=".76"><path d="m2.25002 3.74985h16.49998v-.75h-16.49998z"/><path d="m2.25002 12.7499h16.49998v-.75h-16.49998z"/><path d="m2.25002 8.24964h14.62498v-.75001h-14.62498z"/><path d="m4.12499 17.2497h14.62501v-.75h-14.62501z"/><path d="m2.62497 17.9997c.621 0 1.125-.504 1.125-1.125s-.504-1.125-1.125-1.125c-.62101 0-1.12501.504-1.12501 1.125s.504 1.125 1.12501 1.125zm0 .75c-1.03576 0-1.875007-.8392-1.875007-1.875 0-1.0357.839247-1.875 1.875007-1.875 1.03575 0 1.875.8393 1.875 1.875 0 1.0358-.83925 1.875-1.875 1.875zm15.75003-9.74999c.621 0 1.125-.504 1.125-1.125s-.504-1.125-1.125-1.125-1.125.504-1.125 1.125.504 1.125 1.125 1.125zm0 .75c-1.0358 0-1.875-.83925-1.875-1.875s.8392-1.875 1.875-1.875c1.0357 0 1.875.83925 1.875 1.875s-.8393 1.875-1.875 1.875z"/></g></svg>