<svg fill="none" height="18" viewBox="0 0 18 18" width="18" xmlns="http://www.w3.org/2000/svg"><g fill="#fff" opacity=".3"><path d="m1.14963 14.7857.55222-.549.14207-.1466c.11571-.1221.24428-.2629.38378-.421.39793-.4526.79586-.9502 1.16679-1.4773.63129-.8975 1.11729-1.7846 1.3995-2.62352.79329-2.35736 3.8295-3.03172 5.73621-.81193 2.0899 2.43325-.0238 6.02995-3.45792 6.02995h-5.92136zm5.92136-.6429c2.92114 0 4.67481-2.9841 2.97061-4.96795-1.57497-1.83407-4.00175-1.29536-4.63882.5985-.30472.90515-.81836 1.84435-1.48308 2.78805-.38507.5477-.79778 1.0627-1.20985 1.532l-.04372.0501h4.4055z"/><path d="m11.6879 3.85839-.9122.82672c-.6628.60107-.6911 1.60778-.0618 2.23714l1.2067 1.20664c.6274.62743 1.6412.61329 2.2583-.02893l3.6322-3.77614-.4635-.4455-3.6322 3.77614c-.369.38315-.9687.3915-1.341.01993l-1.2066-1.20664c-.369-.369-.3523-.95143.0392-1.30629l.9122-.82671-.432-.47636z"/></g></svg>