<svg fill="none" height="32" viewBox="0 0 106 32" width="106" xmlns="http://www.w3.org/2000/svg" xmlns:xlink="http://www.w3.org/1999/xlink"><clipPath id="a"><path d="m0 0h105.6v32h-105.6z"/></clipPath><g clip-path="url(#a)" fill="#fff"><path d="m96.8001 20.96v-9.92h4.7199c1.12 0 1.92.24 2.56.8s.88 1.28.88 2.32c0 .72-.16 1.36-.56 1.84-.32.48-.88.88-1.6 1.04.48.16.96.48 1.28 1.12l1.52 2.8h-2.8l-1.68-3.12c-.08-.16-.24-.32-.4-.4s-.32-.16-.56-.16h-.7199v3.68zm2.56-5.52h1.6799c1.04 0 1.52-.4 1.52-1.2s-.48-1.2-1.52-1.2h-1.6799z"/><path d="m3.52009 20.96v-8.88h-3.51999845v-1.04h8.23999845v1.04h-3.52v8.96h-1.2z"/><path d="m9.84013 20.96v-9.92h3.83997c1.04 0 1.84.24 2.4.72s.88 1.2.88 2.16c0 .72-.16 1.36-.56 1.84s-.96.8-1.68.88c.4.16.8.48 1.12 1.12l1.68 3.28h-1.28l-1.68-3.2c-.24-.4-.48-.64-.72-.8s-.64-.24-1.12-.24h-1.76v4.16zm1.11997-5.12h2.56c1.52 0 2.32-.64 2.32-1.92s-.8-1.92-2.32-1.92h-2.56z"/><path d="m18.3201 20.96 4.32-9.92h.96l4.32 9.92h-1.2l-1.12-2.48h-5.04l-1.04 2.56h-1.2zm4.72-8.56-2.08 5.04h4.24z"/><path d="m29.6801 20.96v-9.92h3.28c1.6 0 2.8.4 3.68 1.28s1.28 2.08 1.28 3.68-.4 2.8-1.28 3.68-2.08 1.28-3.68 1.28zm1.12-.96h2.08c2.56 0 3.84-1.36 3.84-4s-1.28-4-3.84-4h-2.08z"/><path d="m40.2401 20.96v-9.92h6.16v.96h-5.04v3.44h4.72v.96h-4.72v3.6h5.04v.96z"/><path d="m48.5601 20.96v-9.92h2.56v7.76h4.32v2.16z"/><path d="m61.2001 21.1198c-.96 0-1.84-.24-2.56-.64s-1.28-1.04-1.76-1.84c-.4-.8-.64-1.68-.64-2.72s.24-1.92.64-2.72.96-1.36 1.76-1.76c.72-.4 1.6-.64 2.56-.64s1.84.24 2.56.64 1.36 1.04 1.76 1.76c.4.8.64 1.68.64 2.72s-.24 1.92-.64 2.72-.96 1.36-1.76 1.84c-.72.48-1.6.64-2.56.64zm0-2.16c.72 0 1.28-.24 1.68-.8s.64-1.28.64-2.16c0-.96-.24-1.68-.64-2.16s-.96-.8-1.68-.8-1.28.24-1.68.8c-.4.48-.64 1.28-.64 2.16 0 .96.24 1.68.64 2.16.32.56.88.8 1.68.8z"/><path d="m72.8801 21.1199c-1.04 0-2-.24-2.8-.64s-1.36-1.04-1.76-1.76c-.4-.8-.64-1.68-.64-2.72s.24-1.92.64-2.72 1.04-1.36 1.76-1.76c.8-.4 1.68-.64 2.8-.64.64 0 1.28.08 1.84.32.56.16 1.12.48 1.44.8l-.8 2.08c-.4-.32-.8-.56-1.2-.64-.4-.16-.8-.24-1.28-.24-.88 0-1.52.24-1.92.72-.32.48-.56 1.2-.56 2.08 0 .96.24 1.68.64 2.16s1.04.72 1.92.72c.4 0 .8-.08 1.28-.24.4-.16.8-.4 1.2-.64l.8 2.08c-.4.32-.88.56-1.44.8-.64.16-1.28.24-1.92.24z"/><path d="m77.7601 20.96v-9.92h2.56v4.24l3.76-4.24h3.04l-4.32 4.72 4.48 5.2h-3.04l-3.92-4.48v4.48z"/><path d="m88.0001 20.96v-9.92h6.88v2h-4.48v1.92h4.16v2h-4.16v2.08h4.48v2h-6.88z"/><path d="m77.8401 29.3602h-26.72v-5.36h-2.56v7.92h31.76v-7.92h-2.56v5.36zm-29.28-29.200044v7.760004h2.56v-5.2h26.64v5.2h2.56v-7.760004z"/></g></svg>