<svg fill="none" height="9" viewBox="0 0 8 9" width="8" xmlns="http://www.w3.org/2000/svg"><path clip-rule="evenodd" d="m.164683 4.33513c-.1054535-.10548-.16469355-.24853-.16469355-.39769 0-.14915.05924005-.2922.16469355-.39769l3.375037-3.37504c.10549-.1054531.24854-.16469312.39769-.16469312.14916 0 .29221.05924002.3977.16469312l3.37503 3.37504c.05373.05189.09658.11396.12606.18259.02948.06862.045.14244.04565.21713s-.01358.14876-.04187.21789c-.02828.06913-.07005.13193-.12286.18475-.05282.05281-.11562.09458-.18475.12286-.06913.02829-.1432.04252-.21789.04187s-.1485-.01617-.21713-.04565-.1307-.07233-.18259-.12606l-2.41484-2.41484v6.5172c0 .14919-.05926.29227-.16475.39776s-.24857.16475-.39776.16475c-.14918 0-.29226-.05926-.39775-.16475s-.16475-.24857-.16475-.39776v-6.5172l-2.414842 2.41484c-.105486.10546-.248536.1647-.397693.1647-.149156 0-.292206-.05924-.397692-.1647z" fill="#00d8c3" fill-rule="evenodd"/></svg>